<?xml version="1.0" encoding="utf-8"?>
<!-- Generator: Adobe Illustrator 16.0.3, SVG Export Plug-In . SVG Version: 6.00 Build 0)  -->
<!DOCTYPE svg PUBLIC "-//W3C//DTD SVG 1.1//EN" "http://www.w3.org/Graphics/SVG/1.1/DTD/svg11.dtd">
<svg version="1.1" id="Capa_1" xmlns="http://www.w3.org/2000/svg" xmlns:xlink="http://www.w3.org/1999/xlink" x="0px" y="0px"
	 width="512px" height="512px" viewBox="0 0 512 512" style="enable-background:new 0 0 512 512;" xml:space="preserve">
<style type="text/css">
<![CDATA[
	.st0{fill-rule:evenodd;clip-rule:evenodd;}
]]>
</style>
<g>
	<path class="st0" d="M220.9,286.9c-2.5,2.8-5.1,5.4-8.4,8.9c8.8,0,16.5-0.2,24.2,0.1c11,0.3,18.7,12.1,14.3,22.1
		c-3,6.8-8.9,10.1-16,10.2c-22.4,0.3-44.8,0.2-67.2,0c-8.4,0-14.2-4.2-16.4-10.9c-2.3-7.2,0.5-16.3,7-21
		c16.8-12.1,31.9-25.9,45.1-41.9c5.2-6.4,10.2-12.9,13.2-20.7c3.9-10.2-0.7-19.6-10.6-22.2c-8.9-2.3-21.9,3.3-22.3,15.7
		c-0.4,12.4-10.5,19.2-21.9,15.4c-6.5-2.2-10.4-7.7-10.4-15c0-20.1,8.4-35.9,26.4-45c19.2-9.7,38.2-7.8,55.4,5.5
		c17.5,13.5,23.5,36,15.6,56.8C242.7,261,232.3,274.2,220.9,286.9z"/>
	<path class="st0" d="M350,476.5c0.2,9.9-6.6,17.5-15.9,17.7c-9.3,0.2-18.7-8.3-18.8-16.9c-0.2-9.4,7.7-16.8,18.1-17
		C342.4,460.2,349.8,467.3,350,476.5z"/>
	<path class="st0" d="M381.7,323.9c-6,4.6-12.2,5.4-19.1,2.1c-6.7-3.2-9.5-8.6-9.4-15.8c0.1-9.4-0.2-18.8,0.1-28.2
		c0.1-3.9-1.1-4.6-4.7-4.5c-14.9,0.2-29.9,0.1-44.8,0.1c-11.3,0-17.2-5.9-17.2-17.1c-0.1-22.4,0.1-44.8,0-67.2
		c-0.1-15,14.6-19.5,24.2-14.6c6.3,3.2,8.3,8.8,8.3,15.4c0,14.8,0,29.6,0,44.4c0,5,0,5,5.1,5c8.6,0,17.3-0.1,25.9,0.1
		c2.5,0,3.2-0.6,3.2-3.2c-0.1-15.3-0.1-30.6,0-45.9c0.1-11,8-18.2,19-17.4c7.6,0.5,14.1,6.6,15,14.1c0.2,1.8,0.3,3.6,0.3,5.4
		c0,18.8,0,37.6,0,56.4c0,19,0,38.1,0,57.1C387.6,315.4,386.3,320.3,381.7,323.9z"/>
	<path class="st0" d="M410,447.2c0,9.2-7.4,16.2-17,16.2c-9.7,0-17.6-7.8-17.5-17.2c0.2-8.5,8-15.3,17.6-15.2
		C403,431.1,410.1,437.9,410,447.2z"/>
	<path class="st0" d="M419.8,108.1c-19.5,4.2-39,8.3-58.5,12.3c-4.6,1-9.1,2.5-14,1.7c-9.1-1.5-15.6-8.2-16.1-17.1
		c-0.4-7.5,6.1-15.3,14.5-17.1c9.7-2.1,19.4-4.1,29-6.1c1-0.2,1.9-0.5,3.3-0.9c-15.9-11-32.2-20-49.9-26.5
		c-30.5-11.4-62.1-15.6-94.4-13.2c-47.9,3.6-89.6,22.4-125.5,54.1c-38.1,33.7-60.5,76.1-69.4,125.8c-6.5,36.4-2.4,72,9.9,106.7
		c15,42.4,40.8,76.9,77.1,103.5c25.8,18.9,54.4,31.4,85.8,37.4c11.1,2.1,22.4,3.2,33.8,3.4c4.5,0.1,8.7,0.9,12.2,4
		c5.1,4.7,6.8,12.6,4,19.6c-2.9,7.4-8.4,11.2-16.4,11c-35.5-1.2-69.6-8.9-101.4-24.9c-48.6-24.4-86.8-59.9-112.1-108.4
		C18,347,9,318.9,5.3,289.3C-3,224,11.1,163.7,49.4,110.2c38.1-53.3,90.4-86.5,154.7-99.1c65.8-12.9,127.6-1.5,184,35.6
		c0.6,0.4,1.3,0.8,2,1.2c0.1,0.1,0.2,0.1,0.9,0.2c-1.7-7-3.4-13.5-5-20.1c-2-8.5,0.9-15.9,7.9-19.9c9.4-5.4,23.3,0.3,25.7,10.9
		c2.5,11.3,4.4,22.7,6.5,34.1c2.2,12,4.5,24,6.6,36C434.3,98.8,429.5,106,419.8,108.1z"/>
	<path class="st0" d="M458.9,401.3c-0.1,8.3-8.2,16.1-16.6,16c-8.9-0.2-16.3-8.1-16.1-17.2c0.2-8.4,8.1-15.5,17-15.3
		C451.1,384.9,458.9,393.2,458.9,401.3z"/>
	<path class="st0" d="M448.2,144.8c0-9.1,7.1-15.8,16.8-15.8c10.3,0,17,6.7,16.9,16.9c-0.1,9.4-7.8,16.9-17.4,16.9
		C455.8,162.9,448.2,154.5,448.2,144.8z"/>
	<path class="st0" d="M494.3,342.6c0,9.3-8.3,16.7-18.6,16.7c-8.8,0-16.7-8.1-16.6-17c0.1-9,7.8-16.5,17-16.4
		C486.2,326,494.4,333.5,494.3,342.6z"/>
	<path class="st0" d="M489.1,192.4c9,0,16.3,8,16.1,17.6c-0.2,9.8-6.7,16.5-16,16.4c-9.9-0.1-17.7-8.1-17.5-18.1
		C471.8,199.6,479.7,192.4,489.1,192.4z"/>
	<path class="st0" d="M510,276.2c0.1,8.5-9.6,17.5-18.8,17.5c-8.8,0-16.3-8.4-16.3-18.1c0-8.1,8.7-16.7,16.6-16.6
		C501.3,259.2,509.9,267.3,510,276.2z"/>
	<path class="st0" d="M419.8,108.1c-19.5,4.2-39,8.3-58.5,12.3c-4.6,1-9.1,2.5-14,1.7c-9.1-1.5-15.6-8.2-16.1-17.1
		c-0.4-7.5,6.1-15.3,14.5-17.1c9.7-2.1,19.4-4.1,29-6.1c1-0.2,1.9-0.5,3.3-0.9c-15.9-11-32.2-20-49.9-26.5
		c-30.5-11.4-62.1-15.6-94.4-13.2c-47.9,3.6-89.6,22.4-125.5,54.1c-38.1,33.7-60.5,76.1-69.4,125.8c-6.5,36.4-2.4,72,9.9,106.7
		c15,42.4,40.8,76.9,77.1,103.5c25.8,18.9,54.4,31.4,85.8,37.4c11.1,2.1,22.4,3.2,33.8,3.4c4.5,0.1,8.7,0.9,12.2,4
		c5.1,4.7,6.8,12.6,4,19.6c-2.9,7.4-8.4,11.2-16.4,11c-35.5-1.2-69.6-8.9-101.4-24.9c-48.6-24.4-86.8-59.9-112.1-108.4
		C18,347,9,318.9,5.3,289.3C-3,224,11.1,163.7,49.4,110.2c38.1-53.3,90.4-86.5,154.7-99.1c65.8-12.9,127.6-1.5,184,35.6
		c0.6,0.4,1.3,0.8,2,1.2c0.1,0.1,0.2,0.1,0.9,0.2c-1.7-7-3.4-13.5-5-20.1c-2-8.5,0.9-15.9,7.9-19.9c9.4-5.4,23.3,0.3,25.7,10.9
		c2.5,11.3,4.4,22.7,6.5,34.1c2.2,12,4.5,24,6.6,36C434.3,98.8,429.5,106,419.8,108.1z"/>
	<path class="st0" d="M251,317.9c-3,6.8-8.9,10.1-16,10.2c-22.4,0.3-44.8,0.2-67.2,0c-8.4,0-14.2-4.2-16.4-10.9
		c-2.3-7.2,0.5-16.3,7-21c16.8-12.1,31.9-25.9,45.1-41.9c5.2-6.4,10.2-12.9,13.2-20.7c3.9-10.2-0.7-19.6-10.6-22.2
		c-8.9-2.3-21.9,3.3-22.3,15.7c-0.4,12.4-10.5,19.2-21.9,15.4c-6.5-2.2-10.4-7.7-10.4-15c0-20.1,8.4-35.9,26.4-45
		c19.2-9.7,38.2-7.8,55.4,5.5c17.5,13.5,23.5,36,15.6,56.8c-6.1,16.2-16.6,29.5-27.9,42.1c-2.5,2.8-5.1,5.4-8.4,8.9
		c8.8,0,16.5-0.2,24.2,0.1C247.7,296.2,255.4,308,251,317.9z"/>
	<path class="st0" d="M387.6,252.7c0,19,0,38.1,0,57.1c0,5.5-1.2,10.4-5.9,14c-6,4.6-12.2,5.4-19.1,2.1c-6.7-3.2-9.5-8.6-9.4-15.8
		c0.1-9.4-0.2-18.8,0.1-28.2c0.1-3.9-1.1-4.6-4.7-4.5c-14.9,0.2-29.9,0.1-44.8,0.1c-11.3,0-17.2-5.9-17.2-17.1
		c-0.1-22.4,0.1-44.8,0-67.2c-0.1-15,14.6-19.5,24.2-14.6c6.3,3.2,8.3,8.8,8.3,15.4c0,14.8,0,29.6,0,44.4c0,5,0,5,5.1,5
		c8.6,0,17.3-0.1,25.9,0.1c2.5,0,3.2-0.6,3.2-3.2c-0.1-15.3-0.1-30.6,0-45.9c0.1-11,8-18.2,19-17.4c7.6,0.5,14.1,6.6,15,14.1
		c0.2,1.8,0.3,3.6,0.3,5.4C387.6,215.2,387.6,233.9,387.6,252.7z"/>
	<path class="st0" d="M510,276.2c0.1,8.5-9.6,17.5-18.8,17.5c-8.8,0-16.3-8.4-16.3-18.1c0-8.1,8.7-16.7,16.6-16.6
		C501.3,259.2,509.9,267.3,510,276.2z"/>
	<path class="st0" d="M350,476.5c0.2,9.9-6.6,17.5-15.9,17.7c-9.3,0.2-18.7-8.3-18.8-16.9c-0.2-9.4,7.7-16.8,18.1-17
		C342.4,460.2,349.8,467.3,350,476.5z"/>
	<path class="st0" d="M494.3,342.6c0,9.3-8.3,16.7-18.6,16.7c-8.8,0-16.7-8.1-16.6-17c0.1-9,7.8-16.5,17-16.4
		C486.2,326,494.4,333.5,494.3,342.6z"/>
	<path class="st0" d="M482,145.9c-0.1,9.4-7.8,16.9-17.4,16.9c-8.8,0-16.5-8.4-16.4-18c0-9.1,7.1-15.8,16.8-15.8
		C475.3,129,482,135.8,482,145.9z"/>
	<path class="st0" d="M505.3,210c-0.2,9.8-6.7,16.5-16,16.4c-9.9-0.1-17.7-8.1-17.5-18.1c0.1-8.7,8-15.9,17.5-15.9
		C498.1,192.4,505.4,200.4,505.3,210z"/>
	<path class="st0" d="M410,447.2c0,9.2-7.4,16.2-17,16.2c-9.7,0-17.6-7.8-17.5-17.2c0.2-8.5,8-15.3,17.6-15.2
		C403,431.1,410.1,437.9,410,447.2z"/>
	<path class="st0" d="M458.9,401.3c-0.1,8.3-8.2,16.1-16.6,16c-8.9-0.2-16.3-8.1-16.1-17.2c0.2-8.4,8.1-15.5,17-15.3
		C451.1,384.9,458.9,393.2,458.9,401.3z"/>
</g>
</svg>
