<!-- Generated by IcoMoon.io -->
<svg version="1.1" xmlns="http://www.w3.org/2000/svg" width="1024" height="1024" viewBox="0 0 1024 1024">
<g id="icomoon-ignore">
</g>
<path fill="#000" d="M545.2 726c-16 0-16 0-16 16 0 15.6 0 15.6 15.6 15.6 16 0 16 0 16-16-0.2-15.6-0.2-15.6-15.6-15.6z"></path>
<path fill="#000" d="M675.6 757.6h3.4c14.8 0 14.8 0 14.8-14.6 0-17 0-17-20.2-17-14.8 0-14.8 0-14.8 14.6 0.2 17 0.2 17 16.8 17z"></path>
<path fill="#000" d="M611 757.6c16.2 0 16.2 0 16.2-14.8 0-16.8 0-16.8-17-16.8-18 0-18 0-18 13.2 0 18.4 0 18.4 18.8 18.4z"></path>
<path fill="#000" d="M523.6 561c-33.4 2.6-60.2 29.8-61 64-1 42 29.6 69.2 64.8 69.2 35.6 0 65-29.2 64.8-66 1.8-34.6-28.8-70.4-68.6-67.2zM529.4 659c-18.4-0.4-35.4-11.6-35-32.4 0.2-15.8 15-34 35.8-34 16 0 30.6 14.2 30.6 35.6 0.4 17.6-13.8 31.2-31.4 30.8z"></path>
<path fill="#000" d="M813 570.8c2.8 3 4.4 3.2 7.6 0.2 8.8-8.2 15.4-18.2 20.8-28.4 15.4-29.6 18-61.4 10.6-93.6-4.8-21.4-16.6-39.4-30.6-56-2.6-3-4.2-5.6-7.8 0.2-4.8 7.4-11.6 13.4-17.6 20 39.2 39.6 35.6 102.4-0.2 140.2 5.8 5.8 11.6 11.4 17.2 17.4z"></path>
<path fill="#000" d="M841.4 599c6.6 5.8 12.6 11.6 18.8 17 3.6 3 6.4 3.8 10.4-0.4 12-12.6 22.4-26.6 30.2-42 10.6-21.2 16.8-43.6 19.8-67.4 2.8-23 2-45.8-2.4-68-6.8-34.4-24-64.2-47.4-90.2-3-3.4-5.2-5.4-9.4-0.6-6.4 7.2-13.6 13.4-20.4 20.2 67.2 62 64.8 169.2 0.4 231.4z"></path>
<path fill="#000" d="M753.6 499.2c-3 5.2-1.6 8.2 1.4 11.6 4 4.4 8.6 8.4 11.8 13.6 2.4 4 5.2 4.4 8.6 0.4 10.8-12.2 16.4-26 17-42.2 0.6-18.2-7.6-32.6-18.8-46-1.2-1.6-2.2-2.6-4.2 0.2-5.2 6.8-11 13-17 19.4-2.2 2.2-1.8 3.4-0.4 6.2 5.6 12 8.6 24.6 1.6 36.8z"></path>
<path fill="#000" d="M1017 440.4c-4.8-21.8-12.2-42.4-25-60.8-10.6-15.2-22.4-29.4-37.2-41.2-18.6-15.2-38.8-26.6-61.6-33.4-19.4-5.8-39.2-7.8-59.4-7-9.8 0.4-9.8 0-9.8-10 0-68 0-136.2 0-204.2 0-5.6-0.8-11-1.4-16.4-4-35-44.4-65.6-77-64l-466-0.2c-9.6-0.8-18.2 1.6-27 5-31.8 11.6-52.6 39.8-52.8 73.2-0.4 50.6-0.2 101 0 151.6 0 5-0.6 9-4.6 12.4-19.4 16-40 29.8-63.8 38.6-27.6 10.2-56.2 12.8-85.2 13.6-4.4 0-8.4-0.2-9.4 5.2-1.2 7.2-3.2 14-4 21.2-1.6 13.8-3.6 27.4-5.6 41-3 19.4-5.6 38.6-8.2 58-2 15.4-3.8 31-5.6 46.4-2.6 19.4-4.2 39-7 58.4-1.6 10.4-1.2 20.6-2.6 31-2.4 16.8-0.8 33.2 10.8 47.8 16.6 20.8 37.4 36.4 59.4 50.8 33 21.6 68 39.6 103.2 57.2 4.8 2.4 9 6.4 15 6.6 6.8 0 7.8 4.2 7.6 10.2-0.2 69.8-0.2 139.6-0.2 209.6 0 11.8 2.6 23 7.8 33.6 9.6 20.4 26.8 32.4 48.6 42.4 1.2 0.2 2.2 0.8 3.2 1.4 0.8 0 1.4 0.2 2.2 0.4 168.4 0 337 0.2 505.4 0.2 0.6-0.2 1.4-0.2 2-0.2 0.6-0.2 1.2-0.6 1.8-0.8 0.2-0.2 0.4-0.2 0.8-0.4 0.2-0.2 0.4-0.2 0.6-0.4h-0.2c7-5.6 14.8-8.8 21.4-14.2 19.2-15.6 31-35 31-60.4 0.2-90.6 0-181.2 0.2-271.8 0-13-1.6-11.4 11.8-11.4 19-0.2 37.6-1.8 55.8-7 38.4-11 68.6-34 93-65 21.8-27.6 33-59.6 35.6-94.4 0.8-17.4 0.2-35.2-3.6-52.6zM582.4 126.4c5.6-10.8 9.8-22.2 10-34.4 0.2-17 0.2-34 0-50.8 0-4.6 0.6-6.4 5.8-6.4 50 0.2 100-0.4 150 0.6 17.8 0.4 37.2 16 42.6 35.4 1.6 5.8 1.6 11.8 1.6 17.8 0 33.8 0 67.8 0 101.6 0 36-0.2 72 0 107.8 0 4.6-0.8 7.2-5.6 8-8.4 1.6-16 5-23.4 9.2-4.2 2.4-6.4 2.8-6.4-3.8 0.2-48 0-95.8 0.2-143.8 0.2-19-14.2-35.4-34.2-35-45.6 1.2-91.2 0.4-136.8 0.2-2 0-4.6 2-6-1.4-0.8-2 1.2-3.2 2.2-5zM676.8 556.2c10.4 22.6 25.4 42.6 45.8 57.8 2.4 1.8 3 3.6 3 6.4 0 55.8-0.2 111.6 0 167.4 0 6.8-4 5-7.2 5-86.2 0-172.4 0-258.6 0-51.4 0-102.8-0.2-154.4 0-6 0-8.2-0.8-8.2-7.8 0.6-26.8 0.6-53.8 0-80.6-0.2-7.8 2.6-12 8.8-15.2 27-13.6 52.8-29.2 77-47.4 16.2-12.2 31.8-25 42.4-43 7.4-12.6 6.2-26.6 4.8-39.8-1-8.6-1-17.2-2.6-26-3.2-16.6-4.8-33.8-7-50.6-1.8-14.2-4.4-28.2-5.8-42.6-1.2-12.4-3.2-25-5.2-37.2-2-11.8-4.4-23.4-6.6-35.2-0.4-2.6 0.6-3 2.6-2.8 1.8 0 3.6 0 5.2 0 91.8 0 183.6 0 275.4 0.4 6.8 0 7.8-1.8 7.8-8-0.2-49.8-0.2-99.4 0-149 0-6-0.6-8.2-7.6-8.2-116.6 0.2-233.2 0.2-350 0-6 0-7.6 1-7.6 7.4 0.4 29 0.2 57.8 0.2 87-1.8-0.6-3.2-0.8-4.4-1.4-8.4-3-19-3.8-24.8-9.6-6.4-6.2-2-17.2-2.2-26.2-0.4-27.4 0-55-0.2-82.4 0-5.6 1.4-6.6 6.6-6.6 138.2 0.2 276.6 0.2 414.8 0.2 6 0 6.8 1.8 6.8 7.2-0.2 51.4-0.4 102.8 0 154.4 0 8-2.6 13.2-8.4 17.8-15.8 12.4-27.6 28.4-37 46-10.8 20.2-17 41.8-20 64.6-4.4 34.6 2.4 67.2 16.6 98zM384.8 297.8c-6.6 0.8-15.8 2.4-19.2-1.2-3.4-3.4-1.2-12.6-1.2-19.2 0-13.2 0.4-26.4-0.2-39.4-0.2-6.2 2-6.8 7.2-6.8 46.8 0.2 93.6 0.2 140.2 0.2 46.4 0 93 0.2 139.4 0 5.8 0 8.4 0.4 8.2 7.6-0.6 28-0.4 56.2-0.2 84.2 0 5.2-0.8 6.8-6.4 6.8-82.4-0.2-164.8-0.2-247.2-0.2-3.6 0-6 0.6-6.4-5-0.4-5.2-3.6-10.8-3-16.2 1.4-9.8-2.6-11.8-11.2-10.8zM462.6 40.4c-0.2-4.8 1.6-5.6 5.8-5.6 14.6 0.2 29.2 0.2 43.8 0.2 14.4 0 28.6 0.2 43 0 4 0 6 0.2 6 5.4-0.4 16.4 1 32.8-0.4 49-1.8 22.6-17.6 38.6-40.4 42.2-17.2 2.8-32.2-1.6-44.6-14-8.6-8.8-12.4-19.8-13-31.4-0.6-15.4 0.2-30.6-0.2-45.8zM231.2 82.4c0.2-25.8 25.8-47.6 48.6-47.6 48.2 0.2 96.4 0.2 144.6 0 5.8 0 7.2 1.6 6.8 7.2-0.4 8.4 0.2 17-0.2 25.4-1 23 1 45.4 14.6 65.8-49.6 0-98.2 0.4-147-0.2-20.2-0.2-31.8 15.8-32.2 33-0.8 31.6-0.2 63-0.4 94.6 0 1.4 0.8 3-1.6 4.4-10-7-20-13.4-29.4-21-3-2.4-4-4-4-7.4 0.2-51.4 0-102.8 0.2-154.2zM191.8 685.8c-44.4-20.6-87.8-43.4-127-73-10.4-7.8-20.4-16.6-28-27.6-4.4-6.6-3.6-14.6-2-20.8 2.4-9.2 1.4-18.4 2.6-27.6 2.8-18.8 5.4-37.8 7.2-56.8 2-19.2 5-38.4 7.6-57.6 2.4-17.6 4.8-35.2 8.2-52.6 2.4-12 3.4-24.2 5.4-36.4 0.4-2.6 0.4-3.8 3.8-4 14-1 28-2.2 41.8-5 23-4.8 44.2-13.4 64.4-24.8 14-7.8 26.6-17.4 38.4-28 2.6-2.2 3.6-1.4 5.6 0.4 17.2 16.4 36.8 29.4 58.4 39.2 16.2 7.4 33.2 12.4 50.8 15.2 10.4 1.6 20.8 1.6 31 3.2 2.6 0.4 3.2 0.6 4.2 3.6 3 9.8 3.2 19.8 5 29.6 2.8 14.4 5 29.2 6.8 43.6 1.8 14.2 4.2 28.2 5.8 42.4 1.8 15.2 4 30.4 6.4 45.4 1.8 11.4 3.4 23 3.6 34.4 0 6.8 3.4 13.4 2 20.4-1 5.2 0.8 10 1.8 15 3.8 18.8-7.8 30.2-20.2 40.6-20.4 17.4-43.2 31.8-66.2 45.6-23.2 13.6-46.8 26.8-71.4 37.6-15 6.6-30.8 5.2-46-2zM792.2 658.6c0 22 0 43.8 0 65.8v212.2c0 27.4-16.2 46-43.2 51.2-5.6 1.2-11.2 1.4-16.8 1.4-149.4 0-298.8 0-448-0.2-22.4 0-43-12.4-50.6-35.2-1.6-5.2-2.8-10.8-2.8-16.4 0.2-69 0.2-138 0-207 0-5.2 0.4-7.6 6.6-8.8 8-1.4 15.6-4.8 23-8.2 5.6-2.6 5.8-1 5.8 4.2-0.2 24.8-0.4 49.6 0 74.6 0.2 19.8 14 32 32.2 32 142 0.2 284 0.2 426.2 0.4 15.2 0 33.2-12 33-32.6-0.8-50.8-0.2-101.6-0.2-153 10.6 4.6 20.2 10.8 31.6 12.2 3.8 0 3.2 4.2 3.2 7.4zM857 626.4c-44.4 3-83.6-7-116.2-38.4-32-31-47.6-69-46.6-113.2 1.6-77.6 63.2-146.2 145.6-144.8 83.2-1.4 145.4 68 149 140 4.6 92-71 152.2-131.8 156.4z"></path>
<path fill="#000" d="M560.6 890.4c0.4-19.4-14.2-37-34.2-34.6-4.6 0.6-9.4 0-14 0-5.8 0-11.8 0.2-17.6 0-20.6-1.2-30.6 15.4-32.2 32-1.2 11.8-0.4 24-0.2 36 0.4 19.4 17 35.4 34.2 34 9.6-0.8 19.4-1 28.8 0 20.4 2.2 36.4-19.2 35.2-35.8-0.6-10.6-0.2-21.2 0-31.6zM514.2 922.4h-3.4c-16.6 0-16.6 0-16.6-16.2 0-15.4 0-15.4 17.6-15.4s17.6 0 17.6 17c-0.4 14.6-0.4 14.6-15.2 14.6z"></path>
<path fill="#000" d="M371.6 872.6c-11-12.2-23.8-18.2-40.6-17-14.6 1-28.2 11.8-32 25.8-2.2 8.4-0.6 16.6-1.6 23.4 0 6.6-0.2 11.8 0 17.2 0.8 17 10 27.6 25.4 34.2 10 4.2 30.2 1.2 38-6.6 13-13.2 25.6-26.8 38.6-40.2 3.4-3.4 3-6-0.6-9.4-9.4-9-18.8-17.8-27.2-27.4zM341.6 919.6c-3.4 3.8-7.6 3.4-11.2 2.4-3.4-1-1.2-5-1.4-7.6-0.4-5.2-0.4-10.4 0-15.6 0.2-2.6-2-7 1.2-7.6 3.8-0.6 8.4-2 12.2 1.6 4.4 4.2 9.4 7.6 14.4 11.6-4.8 5-10.4 9.8-15.2 15.2z"></path>
<path fill="#000" d="M529.4 529.2c32.8 0 65-29.6 63-70.6-1.6-32.4-28.8-63.6-64.4-62.4-37.2-1.8-65 31.4-65.4 63.8-0.6 43 30.6 69.2 66.8 69.2zM529.6 431.2c18.8 0 31.6 13.2 31.2 32.2 0.6 17.4-13.6 31.2-31.4 30.8-18.2-0.4-35.2-11.4-35.2-32.2 0.2-16.2 13.8-30.6 35.4-30.8z"></path>
<path fill="#000" d="M315.4 620.6c-0.4-45.4-0.2-90.6-0.2-137.8 6.6 6.8 12.2 12.2 17.4 18 3 3.2 5.6 4 8.6 0.4 5.6-6.8 13.8-10.4 19.4-18-1.2-1.2-2.4-2.4-3.6-3.6-17.6-20.6-35.2-41-52.8-61.6-8.4-10-16.4-20.2-25-30-8.2-9.6-15.6-20-25.2-28-13.4-11-30-14.6-47.4-12.4-12.4 1.6-24.8 5.6-33.2 15-15.8 17.6-30 36.8-45 55-18.2 22.2-36.8 44-55.2 66.2 6.6 6 12.8 11.6 19 17 3.4 3 6.2 3.6 9.8-0.4 5-5.8 10.8-10.8 16.8-16.8 0 47 0.2 92.2-0.2 137.6 0 6.6 2 7.2 7.8 7.2 60.6-0.2 121-0.2 181.6 0 5.8-0.4 7.4-1.4 7.4-7.8zM273.4 592.8c-38.8-0.2-77.6-0.4-116.6 0-6.2 0-6.8-2.2-6.8-7.2 0.2-23.4 0.2-46.8 0.2-70 0-23 0-46.2 0-69.2 0-2.8 0-5.4 2.4-7.8 14.2-15.6 28.8-31.2 42-47.6 8.6-10.6 19.4-9 30.4-8.2 13.8 1 17.8 14.2 25.6 22.4 9.8 10 17.4 22 26.4 32.8 2.2 2.8 3 5.2 3 8.6 0 46.8-0.2 93.4 0.2 140.2 0.2 5.6-1.8 6-6.8 6z"></path>
<path fill="#000" d="M725.6 890.2c0.2-15.4-8.4-26.8-20.8-31.8-12.6-5.2-27.8-6-40.4 3.4-16.4 12.2-29 28.4-44.6 42.4 13.2 14.2 26 28.4 39.4 42.2 10.4 10.8 31.6 16 43.6 9.2 13.6-7.8 24-18.6 22.8-36.6-0.6-9.4-0.2-19.2 0-28.8zM692.2 922.2c-3.2 0.4-6.8 1.6-9.8-1.6-2.8-3-5.8-5.8-8.6-8.6-7.6-7.6-7.6-9 1.4-15.2 1.8-1.2 3.8-2.2 5.4-3.8 3.6-4 8.4-2.2 12.2-1.6 2.8 0.6 0.8 5 1 7.8 0.4 2.6 0 5.2 0 7.8 0 3 0.4 6-0.2 8.8-0.2 2.2 2.6 6-1.4 6.4z"></path>
<path fill="#000" d="M512 101.6c8.8-0.2 17.2-9.2 17.4-18.2 0-9.6-7.6-16.8-17.8-16.8-10.2-0.8-16.8 8.8-17.2 16.4-0.6 9 9 18.8 17.6 18.6z"></path>
<path fill="#000" d="M412.4 757.6h4.4c14 0 14 0 14-13.6 0-18 0-18-20.2-18-15 0-15 0-15 14.4 0.2 17.2 0.2 17.2 16.8 17.2z"></path>
<path fill="#000" d="M478 757.6c16 0 16 0 16-16 0-15.6 0-15.6-15.6-15.6-16 0-16 0-16 16 0 15.6 0 15.6 15.6 15.6z"></path>
<path fill="#000" d="M348.2 757.6c16 0 16 0 16-14.4 0-17.2 0-17.2-17.4-17.2h-5.2c-12.4 0-12.4 0-12.4 12.6 0 19 0 19 19 19z"></path>
</svg>
