<!-- Generated by IcoMoon.io -->
<svg version="1.1" xmlns="http://www.w3.org/2000/svg" width="1024" height="1024" viewBox="0 0 1024 1024">
<g id="icomoon-ignore">
</g>
<path fill="#000" d="M368.8 760.8c0 8.4 0 16.8 0 25 0-3.6 0-7.4 0-11 0-4.6 0-9.2 0-14z"></path>
<path fill="#000" d="M295.8 723.4c18.4 0 36.8 0 55.2 0-18 0-36 0-54 0-0.4 0-0.8 0-1.2 0z"></path>
<path fill="#000" d="M691.6 461.2c-15.2 0.2-30.2 0.2-45.4 0.2s-30.2 0.2-45.4-0.2c-4.4 0-5.2 1-5.2 5.2 0.2 29.4 0.2 58.8 0 88.2 0 4 1 4.8 4.8 4.6 30.6-0.2 61-0.2 91.6 0 4.2 0 5.2-1 5.2-5.2-0.2-29-0.2-58.2 0-87.2 0.2-4.6-1-5.6-5.6-5.6zM643.4 527.8c-12.6 0-12.6 0-12.6-17.6 0-17.4 0-17.4 17-17.4 14.4 0 14.4 0 14.4 15.8 0 19.2 0 19.2-18.8 19.2z"></path>
<path fill="#000" d="M333.6 424.2c0 4.2 0.4 5.8 5.4 5.8 30.2-0.2 60.4-0.4 90.8 0 5.2 0 5.4-1.8 5.4-6-0.2-14.8 0-29.6 0-44.6 0-14.8-0.2-29.6 0.2-44.6 0-5-0.6-6.8-6.4-6.8-29.6 0.4-59.4 0.2-89 0-4.6 0-6.4 0.6-6.2 5.8 0.2 30.4 0 60.4-0.2 90.4zM385 363.4c15.2 0 15.2 0 15.2 15 0 16.6 0 16.6-16.2 16.6-15.2 0-15.2 0-15.2-15 0-16.6 0-16.6 16.2-16.6z"></path>
<path fill="#000" d="M821.8 249.8c3.8 4 5.8 3.6 9.4-0.2 40.2-40.4 80.6-80.8 121.2-121.2-5.4-6-11.6-11.2-15.6-18s-6.2-6-11-1.2c-31.4 31.6-63 63-94.2 94.6-4 4-6 4.2-10 0-9.6-10.2-19.8-19.8-29.4-29.8-3-3.2-4.2-3.6-7.2 0.6-5 7.2-11.6 13.4-17.8 20 18.2 18.6 36.6 36.6 54.6 55.2z"></path>
<path fill="#000" d="M472.8 430c28.6-0.4 57-0.2 85.6 0 4.6 0 6.4-0.4 6.4-5.8-0.4-30-0.2-60 0-89.8 0-4-0.2-6-5.4-6-29 0.4-58.2 0.4-87.2 0-5 0-5.4 1.8-5.4 5.8 0.2 14.8 0 29.6 0 44.6 0 14.8 0.2 29.6 0 44.4-0.4 4.8 0 7 6 6.8zM512.8 363.4c20.2 0 20.2 0 20.2 17 0 14.4 0 14.4-14.8 14.4h-3.4c-16.6 0-16.6 0-16.6-17-0.2-14.4-0.2-14.4 14.6-14.4z"></path>
<path fill="#000" d="M220.4 199.2c-16 0-16 0-16 16 0 15.4 0 15.4 15.6 15.4 16 0 16 0 16-16 0-15.4 0-15.4-15.6-15.4z"></path>
<path fill="#000" d="M286.8 199.2c-15.8 0-15.8 0-15.8 16 0 15.4 0 15.4 15.6 15.4 15.8 0 15.8 0 15.8-16-0.2-15.4-0.2-15.4-15.6-15.4z"></path>
<path fill="#000" d="M430 461.2c-30.6 0.2-61 0.2-91.6 0-3.8 0-4.8 0.8-4.8 4.8 0.2 29.4 0.2 58.8 0 88.2 0 4.2 0.8 5.4 5.2 5.2 15.2-0.4 30.2-0.2 45.4-0.2 15.4 0 30.8-0.2 46.2 0 3.8 0 4.8-0.8 4.8-4.6-0.2-29.4-0.2-58.8 0-88.2 0-4-0.8-5.2-5.2-5.2zM400.2 511c0 16.8 0 16.8-16.8 16.8-14.6 0-14.6 0-14.6-14.8 0-6.6-1.6-14.4 1.4-19.2 1.8-2.8 11.2-1 17.2-1 12.8 0 12.8 0 12.8 13v5.2z"></path>
<path fill="#000" d="M171.8 200.4c-3.4-3.2-12-1-18.2-1.2-15.4 0-15.4 0-15.4 14.8 0 16.8 0 16.8 17.8 16.8h5.2c12 0 12 0 11.8-12.2 0-6.4 2-15-1.2-18.2z"></path>
<path fill="#000" d="M601 430c30.6-0.2 61-0.2 91.6 0 3.8 0 4.8-1 4.8-4.8-0.2-30.6-0.2-61 0-91.6 0-4.2-1-5.2-5.2-5.2-30.2 0.2-60.6 0.2-90.8 0-4.6 0-5.8 1-5.6 5.6 0.4 15.2 0.2 30.2 0.2 45.4s0.2 30.2-0.2 45.4c-0.2 4.2 1 5.2 5.2 5.2zM645.8 363.4c16.6 0 16.6 0 16.6 16.2 0 15.2 0 15.2-14.8 15.2-16.6 0-16.6 0-16.6-16.2-0.2-15.2-0.2-15.2 14.8-15.2z"></path>
<path fill="#000" d="M349 199.2c-15.4 0-15.4 0-15.4 14.8 0 16.6 0 16.6 17 16.6 18 0 18 0 18-13 0.2-18.4 0.2-18.4-19.6-18.4z"></path>
<path fill="#000" d="M735.8 590.8c50-0.2 100.2-0.2 150.2 0 6.6 0 7.2-2 7.2-7.6-0.2-35.2-0.2-70.4-0.2-105.6 0-35.6-0.2-71 0.2-106.6 0-5.6-0.6-7.8-7.2-7.8-50 0.4-100 0.2-150.2 0-5.2 0-7.2 0.6-7.2 6.8 0.2 71.2 0.2 142.6 0 214-0.2 6 2 6.8 7.2 6.8zM766.8 394.8c28.2 0.2 56.4 0.4 84.6-0.2 6.4 0 6.6 2.4 6.6 7.4-0.2 25.2 0 50.6 0 76 0 24.8-0.2 49.4 0 74.2 0 5.2-0.6 7.2-6.8 7.2-28.2-0.4-56.4-0.4-84.6 0-5 0-6.8-0.6-6.8-6.4 0.2-50.6 0.2-101.2 0-151.8 0.2-6 2.2-6.4 7-6.4z"></path>
<path fill="#000" d="M613.6 199.2h-6c-11.6 0-11.6 0-11.6 11.6 0 6.4-2.4 14.8 0.8 18.4 3.8 4.2 12.4 1.2 19 1.4 15 0.2 15 0 15-14.2 0-17.2 0-17.2-17.2-17.2z"></path>
<path fill="#000" d="M434 200.6c-4.2-3.2-12.6-1.2-19.2-1.2-14.6 0-14.6 0-14.6 14.6 0 16.8 0 16.8 17.8 16.8h5.2c12 0 12 0 12-12-0.2-6.4 2-15.8-1.2-18.2z"></path>
<path fill="#000" d="M482.4 199.2c-15.8 0-15.8 0-15.8 16 0 15.4 0 15.4 15.6 15.4 15.8 0 15.8 0 15.8-16 0-15.4 0-15.4-15.6-15.4z"></path>
<path fill="#000" d="M548.8 199.2c-15.8 0-15.8 0-15.8 16 0 15.4 0 15.4 15.6 15.4 15.8 0 15.8 0 15.8-16 0-15.4 0-15.4-15.6-15.4z"></path>
<path fill="#000" d="M1022.2 165.8c-0.2-8-0.4-15.8-1.6-23.8-1.6-12-4.4-23.6-8.6-34.8-1-2.6-2-5.2-3.2-7.6-10.2-23.2-24.8-43-44.8-59.2-23.8-19.4-50-31.8-80.8-35.6-5.2-0.6-10.6 0.2-15.8-0.8-5-0.2-10 0-14.8-0.2-0.8 0.2-1.6 0.2-2.4 0-4.6 1.2-9.4 0.4-14 1 0 0 0 0-0.2 0 0 0 0 0 0 0-0.4 0-0.8 0.2-1.2 0.2-1.6 0.2-3.2 0.6-5 0.8-7.8 1.4-15.6 3.6-22.8 6 0 0-0.2 0-0.2 0-0.2 0-0.4 0.2-0.6 0.2-8.6 3.2-17 7-24.8 11.2-1.2 0.6-2.2 1.2-3.4 2-9.2 5.4-18 11.8-26.4 19-1.2 1-2.4 1.8-3.6 2.6-2 1.6-3.8 3.4-5.6 5.2-2.4 3.4-5.2 6-8.2 8-0.6 0.4-1 1-1.4 1.4-3.4 3.8-7 5-12 5h-7.2c-2.4 0.2-5 0.2-7.6 0.2-59.4-0.2-118.8-0.2-178.2-0.2-101.6 0-203 0-304.6-0.2-55.8 0-111.6 0-167.2 0-2 0-3.8 0-5.8 0.4-0.4 0-0.6 0-0.8 0.2-11.6 2.2-21.4 8.6-28.4 17.2-0.6 0.6-1 1.4-1.6 2.2-6 8.8-9.6 18.2-10.6 28.8 0 0.2 0 0.6 0 1-0.2 69.6-0.2 139.2-0.2 208.6v0.6c0 91 0 182.2 0 273.2 0 24.8 0 49.4 0 74.2 0 3 0.2 5.6 0.6 8.4 0.2 1.2 0.4 2.6 0.6 3.8 0 0 0 0.2 0 0.2s0 0.2 0 0.2c3.4 15.2 13 27 26.2 33.4 0 0 0 0 0 0s0.2 0 0.2 0.2c1.4 0.8 3 1.4 4.6 1.8-0.4-0.2-1-0.4-1.4-0.6v0c0.6 0.2 1 0.4 1.6 0.6 0 0 0.2 0 0.2 0 0.2 0 0.4 0.2 0.6 0.2 0.2 0.2 0.6 0.2 0.8 0.2-0.2 0-0.6-0.2-0.8-0.2 0.6 0.2 1.2 0.4 1.8 0.6-0.2 0-0.2 0-0.4-0.2 0.2 0 0.4 0.2 0.8 0.2 0 0 0 0 0 0 0.2 0 0.6 0.2 0.8 0.2 0.6 0.2 1.2 0.4 1.8 0.4 0 0 0 0 0 0 0.8 0.2 1.6 0.4 2.6 0.6 0.8 0.2 1.6 0.4 2.4 0.4 2.6 0.4 5.2 0.6 7.8 0.6 17.2 0 34.4 0 51.6 0 39.4 0 79 0 118.4 0 22 0 44.2 0 66.2-0.2 0.4 0 0.8 0 1.2 0 17.2 0 34.6 0 51.8-0.2 0.8 0 1.4 0 2.2 0h0.4c5.4 0 8.6 1.4 10.4 6.4 0.2 0.4 0.2 0.8 0.4 1 0.4 0.8 0.8 1.8 1 2.8 0.8 2.4 1.6 5 2.2 7.4 0 0.2 0 0.4 0.2 0.6 1.8 6 3 12 3.2 18.4 0 0.2 0 0.4 0 0.8 0 1.4 0 2.8 0 4.2 0 3.4 0 6.6-0.2 10 0 0.2 0 0.4 0 0.6 0 3.6 0 7 0 10.6 0 11.8 0 23.6 0 35.4 0 0 0 0 0 0 0 4.4 0 9 0 13.4 0.4 8 1.4 15.8 3.2 23.4 0.4 1.8 1 3.8 1.6 5.6 2 7 4.6 13.6 7.4 20.2 0 0.2 0.2 0.4 0.2 0.6 0.6 1.2 1 2.2 1.6 3.4 5.4 11.2 10.8 22.2 16.4 33.2 3.6 6.8 7.2 13.6 10.6 20.4 0.8 1.6 1.6 3.2 2.2 4.8 1 1.8 2 3.8 2.8 5.6 2 3.8 2.8 7.4 2.8 11.6 0 1 0 2 0 2.8 0.4 2.8 0.4 5.6 0.2 8.6 0 0.8-0.2 1.8-0.2 2.6 0 8.6 0 17 0 25.6 0 2.6 0 5-0.2 7.6 0 0 0 0 0 0 0.2 4.2 1.6 6 6.4 6.2 21.8 0 43.6 0 65.4-0.2 49.4 0 98.6 0 148 0 22.6 0 45.2 0 67.8 0 4.6-0.2 6-2.2 6.2-6.2v0c0-6.4-0.2-12.6-0.2-19s0-12.6 0-19v-0.2c0-3 0-6 0-9 0-0.6 0-1.4 0-2v0c-0.2-2.2-0.6-4.4 1.4-6.4 5.4-6 10.2-12.8 15.6-18.8 1-1.2 2-2.2 2.8-3.4 4.6-5.8 8.8-11.8 12.6-18 0 0 0-0.2 0.2-0.2 3.6-6 6.4-12.2 8.8-18.6 0.2-0.6 0.4-1.4 0.8-2-0.2 0.2-0.2 0.6-0.4 0.8 1.6-4.8 3-9.6 4.2-14.4 1.6-7.4 2.6-15.2 2.8-23.2 0-6 0-12 0-18.2 0-29.2 0-58.2 0-87.4 0-6.6 0-13.2 0-19.8 0-0.8 0-1.4 0-2 0.2-5 1.6-6.8 8-6.8 1.2 0 2.4 0 3.6 0 25 0.2 50.2 0.2 75.4 0.2h0.6c3.2 0 6.4 0 9.6-0.2 5.2 0 10.4 0 15.6 0.2 0 0 0 0 0 0 10.2 0 20.4 0 30.6 0 5.4-0.2 10.6-0.8 16-1.8 16.6-3 35.6-19.6 39.4-38.4 0.4-2.6 0.6-5.2 0.6-8 0-30.8 0-61.4 0-92.2v-0.4c0-60.4 0-120.8 0-181.2v-5.2c0-29.8 0-59.6-0.2-89.4 0-0.6 0-1 0-1.4v-2.8c0-4.4 0.6-8 4.2-10.6 1.2-0.8 2.2-1.6 3.2-2.4 0 0 0 0 0 0 0.4-0.4 0.8-0.6 1.2-1 6.4-5.6 12-11.8 17-18.4 0 0 0.2-0.2 0.2-0.2 2.6-3.6 5.2-7.4 7.8-11.2 20-27.6 31-58.4 30-92.8zM725 259.2c1.4 2.2 2.4 4.2 3 6.4h-10.6c-201 0-401.8 0-602.8 0.2-6.8 0-8.4-1.8-8.2-8.4 0.4-27.6 0.2-55.4 0-83 0-4.8 0.2-6.8 6.2-6.8 192.8 0.2 385.6 0.2 578.4 0 4.6 0 6.2 0.8 6.4 5.8 1 31.2 10.4 59.8 27.6 85.8zM708.8 905.2c-9.8 13-18.8 26.6-28 40.2-2.8 4-0.8 9-1 13.4-0.4 8.6 3 20.6-1.2 25.2-5 5.4-17 1.6-25.8 1.6-65.2 0-130.4 0-195.8 0.2-6 0-9-0.6-8-7.6 3.2-22.8-4-43-14.6-63-8.2-15.6-15-32.4-23.4-48-9-17-11.2-34.2-10.8-52.4 0.2-13-0.8-26.2 0.2-39.2 2.2-32-6.2-61.4-21.2-89.4-2.8-5.2-5.8-10.4-8.6-15.8-3.4-6.8 0.2-13 8-13 28.2-0.6 49.8 11.4 67.8 32.6 15.4 18.2 20.8 38.8 20.2 61.8-0.4 15.6 0 31.4-0.2 47.2 0 4 0.8 5.6 5.2 5.2 6.6-0.4 13.4-0.6 20 0 5.6 0.6 6.6-1.4 6.6-6.6-0.2-50.6-0.2-101.4-0.2-152v-150.2c0-11.4 5.2-16.2 17.2-16.4 10.2-0.2 18 5.8 18 16.8-0.6 67.6-0.2 135.2-0.4 202.6 0 6.4 1 8.8 7.8 8 6-0.8 12.2-0.6 18.4 0 4.8 0.4 5.6-1.4 5.6-5.8-0.2-18 0-36-0.2-54.2 0-6.2 1.8-11.4 6.4-15.8 4.8-4.6 10-6.4 16-4 6.6 2.4 8.8 8.4 8.8 14.6 0.4 19.6 0.2 39 0 58.6 0 5 0.6 7.4 6.4 6.8 9.4-1 22.2 3.8 27.6-1.8 4.6-5 0.8-17.6 1.4-27 0.6-12.8-2.2-26 1.6-38.6 2.8-9 9.4-14.6 16.2-13 7.2 1.6 13.4 7.4 13.6 18.2 0.2 18.6 0.2 37.2 0 56 0 4.6 0.6 6.6 6 6.2 7.8-0.6 15.8-0.4 23.6 0 4.6 0.2 6-1 5.6-5.6-0.4-8.4-0.2-16.8 0-25.4 0.2-11.4 5.2-18 13.6-18 10.2-0.2 17.8 7.6 17.8 18.6 0 20 0 40.2 0 60.2 0 37.8-0.2 75.8 0.2 113.6-0.2 20.6-8 38.6-20.4 55.2zM924.4 670.2c0 14.6-7.2 21.8-21.6 21.8-45.2 0-90.2-0.2-135.4 0.2-6 0-8-1.2-7.4-7.4 1.4-14.8-0.6-28.6-10.2-41.2-12-15.8-31.8-20.8-49.2-16.6-3.8 0.8-7.6 2.8-8.6-3-3.2-17.8-16.8-26.4-31.6-31.2s-30.6-4.6-42.8 8.6c-3.4 3.8-7 1-8.8-0.6-11.6-10.4-24.6-12.2-39-8.2-4.6 1.2-5.6-1.4-5.4-5.6 0.2-33 0.8-65.8-0.2-98.8-0.6-23.4-20-43-44.2-44.2-23.2-1.2-39.4 8.6-49.6 29-2.2 4.6-3.8 9.6-3.8 15 0 55.6 0 111.2 0 166.8 0 1.2 0.2 2.4 0.4 4-5.8-3.4-10.2-8.4-15.6-12-23.6-16.4-50.2-23-78.6-21-18.8 1.4-41.2 21.2-39.2 41.4 0.6 5.6 1.8 11 5.6 15.2 2.4 2.8 2 5.6 1.4 8-1 3.8-4.4 1.4-6.6 1.4-90.2 0.2-180.6 0.4-270.8 0-15.4 0-22.8-5-22.8-22.2-0.2-183.8 0-367.4 0-551.2 0-7.6 8.2-16.4 15.8-17 3-0.2 5.8 0 8.8 0h646c-5.2 8.8-10.4 17.8-10 28.6 0 2.2-0.8 3-3 2.8-2-0.2-4 0-6 0-203.8 0-407.6 0-611.6-0.2-7.6 0-8.6 2-8.6 9 0.4 49 0.4 97.8 0 146.8 0 6.8 1 9 8.6 9 223.6-0.2 447.2-0.2 671-0.2 6.8 0 12.2 1.6 18 5.2 22 13.8 46 21.8 72 25 28.8 3.6 55.6-2.6 83.4-12.8v355.6zM858.8 297c-69.4-0.6-132-57.4-130-136.8 1.6-65.2 59.2-127 130.2-125.2 75.2-1 129 60 131.8 123.6 3.6 81.4-62.2 138.8-132 138.4z"></path>
<path fill="#000" d="M264.6 559c-62.2 0.2-124.6 0.2-186.8 0-5.8 0-6.4 1.6-6.4 6.8 0.2 28.2 0.4 56.4 0 84.6 0 6.2 2 6.8 7.2 6.8 30.6-0.2 61.2-0.2 91.6-0.2 31.2 0 62.2 0 93.4 0 5 0 7.4-0.2 7.2-6.6-0.4-28.2-0.2-56.4 0-84.6 0.2-4.8-0.2-6.8-6.2-6.8zM236 620.8c0.2 4.8-1.8 5-5.4 5-20-0.2-40.2 0-60.2 0-19.2 0-38.4-0.2-57.6 0-4.6 0-6.8-0.4-6.4-5.8 0.6-7.8 0.4-15.8 0-23.6-0.2-4.2 0.4-5.8 5.4-5.8 39.6 0.2 79 0.2 118.6 0 3.8 0 5.8 0.2 5.4 5-0.2 8.2-0.2 16.8 0.2 25.2z"></path>
<path fill="#000" d="M173 527.8c51.8-0.6 99.4-47.6 98-100 1.6-52.4-46.8-95.8-88.2-99.4-65-5.8-113.6 49.4-111.2 103.6 2 48.2 45.4 96.4 101.4 95.8zM172.4 363.4c35.2 0.8 62.2 27.8 63.2 61.8 1.2 39.8-30.4 67.6-63 67-39-0.8-65.2-27-65.8-65.8-0.4-33 28.8-63.8 65.6-63z"></path>
</svg>
