<!-- Generated by IcoMoon.io -->
<svg version="1.1" xmlns="http://www.w3.org/2000/svg" width="1024" height="1024" viewBox="0 0 1024 1024">
<g id="icomoon-ignore">
</g>
<path fill="#000" d="M705.2 232.2c-16.2 0-16.2 0-16.2 18.4 0 16.6 0 16.6 14.8 16.6 15.8 0 15.8 0 15.8-17.2 0-17.8 0-17.8-14.4-17.8zM767.2 232.2c-17 0-17 0-17 17.8 0 17.2 0 17.2 16.8 17.2 17.4 0 17.4 0 17.4-17.4 0-17.6 0-17.6-17.2-17.6zM767.2 232.2c-17 0-17 0-17 17.8 0 17.2 0 17.2 16.8 17.2 17.4 0 17.4 0 17.4-17.4 0-17.6 0-17.6-17.2-17.6zM705.2 232.2c-16.2 0-16.2 0-16.2 18.4 0 16.6 0 16.6 14.8 16.6 15.8 0 15.8 0 15.8-17.2 0-17.8 0-17.8-14.4-17.8zM511.8 726c-27 0-47.6 20.4-47.8 48.2-0.4 27.8 20.4 49.6 47.6 49.6 26.8 0.2 47.6-21 47.8-48.4 0-28.4-20-49.4-47.6-49.4zM511.6 792.2c-8.8 0-17-8.6-17-17.4 0-9 8.2-17.2 17-17.2 9 0 16.8 8.2 16.8 17.4 0.2 9-8 17.2-16.8 17.2zM511.8 726c-27 0-47.6 20.4-47.8 48.2-0.4 27.8 20.4 49.6 47.6 49.6 26.8 0.2 47.6-21 47.8-48.4 0-28.4-20-49.4-47.6-49.4zM511.6 792.2c-8.8 0-17-8.6-17-17.4 0-9 8.2-17.2 17-17.2 9 0 16.8 8.2 16.8 17.4 0.2 9-8 17.2-16.8 17.2zM512 659.4c-64.2-0.2-112.8 49.6-112.8 115.4 0 65.6 49 115.8 112.6 115.8 63.4-0.2 112.2-50 112.2-115.2 0.2-66.4-47.8-115.8-112-116zM511.6 855.4c-45.8-0.2-78.6-34.4-78.2-81.6 0.2-46 33.2-79.4 78.6-79.2 46.2 0 78.2 33.4 78.2 81.2-0.4 45.8-33.8 79.6-78.6 79.6zM511.8 726c-27 0-47.6 20.4-47.8 48.2-0.4 27.8 20.4 49.6 47.6 49.6 26.8 0.2 47.6-21 47.8-48.4 0-28.4-20-49.4-47.6-49.4zM511.6 792.2c-8.8 0-17-8.6-17-17.4 0-9 8.2-17.2 17-17.2 9 0 16.8 8.2 16.8 17.4 0.2 9-8 17.2-16.8 17.2zM511.8 726c-27 0-47.6 20.4-47.8 48.2-0.4 27.8 20.4 49.6 47.6 49.6 26.8 0.2 47.6-21 47.8-48.4 0-28.4-20-49.4-47.6-49.4zM511.6 792.2c-8.8 0-17-8.6-17-17.4 0-9 8.2-17.2 17-17.2 9 0 16.8 8.2 16.8 17.4 0.2 9-8 17.2-16.8 17.2zM511.8 726c-27 0-47.6 20.4-47.8 48.2-0.4 27.8 20.4 49.6 47.6 49.6 26.8 0.2 47.6-21 47.8-48.4 0-28.4-20-49.4-47.6-49.4zM511.6 792.2c-8.8 0-17-8.6-17-17.4 0-9 8.2-17.2 17-17.2 9 0 16.8 8.2 16.8 17.4 0.2 9-8 17.2-16.8 17.2zM705.2 232.2c-16.2 0-16.2 0-16.2 18.4 0 16.6 0 16.6 14.8 16.6 15.8 0 15.8 0 15.8-17.2 0-17.8 0-17.8-14.4-17.8zM767.2 232.2c-17 0-17 0-17 17.8 0 17.2 0 17.2 16.8 17.2 17.4 0 17.4 0 17.4-17.4 0-17.6 0-17.6-17.2-17.6zM767.2 232.2c-17 0-17 0-17 17.8 0 17.2 0 17.2 16.8 17.2 17.4 0 17.4 0 17.4-17.4 0-17.6 0-17.6-17.2-17.6zM705.2 232.2c-16.2 0-16.2 0-16.2 18.4 0 16.6 0 16.6 14.8 16.6 15.8 0 15.8 0 15.8-17.2 0-17.8 0-17.8-14.4-17.8zM511.8 726c-27 0-47.6 20.4-47.8 48.2-0.4 27.8 20.4 49.6 47.6 49.6 26.8 0.2 47.6-21 47.8-48.4 0-28.4-20-49.4-47.6-49.4zM511.6 792.2c-8.8 0-17-8.6-17-17.4 0-9 8.2-17.2 17-17.2 9 0 16.8 8.2 16.8 17.4 0.2 9-8 17.2-16.8 17.2zM511.8 726c-27 0-47.6 20.4-47.8 48.2-0.4 27.8 20.4 49.6 47.6 49.6 26.8 0.2 47.6-21 47.8-48.4 0-28.4-20-49.4-47.6-49.4zM511.6 792.2c-8.8 0-17-8.6-17-17.4 0-9 8.2-17.2 17-17.2 9 0 16.8 8.2 16.8 17.4 0.2 9-8 17.2-16.8 17.2zM512 659.4c-64.2-0.2-112.8 49.6-112.8 115.4 0 65.6 49 115.8 112.6 115.8 63.4-0.2 112.2-50 112.2-115.2 0.2-66.4-47.8-115.8-112-116zM511.6 855.4c-45.8-0.2-78.6-34.4-78.2-81.6 0.2-46 33.2-79.4 78.6-79.2 46.2 0 78.2 33.4 78.2 81.2-0.4 45.8-33.8 79.6-78.6 79.6zM511.8 726c-27 0-47.6 20.4-47.8 48.2-0.4 27.8 20.4 49.6 47.6 49.6 26.8 0.2 47.6-21 47.8-48.4 0-28.4-20-49.4-47.6-49.4zM511.6 792.2c-8.8 0-17-8.6-17-17.4 0-9 8.2-17.2 17-17.2 9 0 16.8 8.2 16.8 17.4 0.2 9-8 17.2-16.8 17.2zM511.8 726c-27 0-47.6 20.4-47.8 48.2-0.4 27.8 20.4 49.6 47.6 49.6 26.8 0.2 47.6-21 47.8-48.4 0-28.4-20-49.4-47.6-49.4zM511.6 792.2c-8.8 0-17-8.6-17-17.4 0-9 8.2-17.2 17-17.2 9 0 16.8 8.2 16.8 17.4 0.2 9-8 17.2-16.8 17.2zM511.8 726c-27 0-47.6 20.4-47.8 48.2-0.4 27.8 20.4 49.6 47.6 49.6 26.8 0.2 47.6-21 47.8-48.4 0-28.4-20-49.4-47.6-49.4zM511.6 792.2c-8.8 0-17-8.6-17-17.4 0-9 8.2-17.2 17-17.2 9 0 16.8 8.2 16.8 17.4 0.2 9-8 17.2-16.8 17.2zM511.8 726c-27 0-47.6 20.4-47.8 48.2-0.4 27.8 20.4 49.6 47.6 49.6 26.8 0.2 47.6-21 47.8-48.4 0-28.4-20-49.4-47.6-49.4zM511.6 792.2c-8.8 0-17-8.6-17-17.4 0-9 8.2-17.2 17-17.2 9 0 16.8 8.2 16.8 17.4 0.2 9-8 17.2-16.8 17.2zM511.8 726c-27 0-47.6 20.4-47.8 48.2-0.4 27.8 20.4 49.6 47.6 49.6 26.8 0.2 47.6-21 47.8-48.4 0-28.4-20-49.4-47.6-49.4zM511.6 792.2c-8.8 0-17-8.6-17-17.4 0-9 8.2-17.2 17-17.2 9 0 16.8 8.2 16.8 17.4 0.2 9-8 17.2-16.8 17.2zM512 659.4c-64.2-0.2-112.8 49.6-112.8 115.4 0 65.6 49 115.8 112.6 115.8 63.4-0.2 112.2-50 112.2-115.2 0.2-66.4-47.8-115.8-112-116zM511.6 855.4c-45.8-0.2-78.6-34.4-78.2-81.6 0.2-46 33.2-79.4 78.6-79.2 46.2 0 78.2 33.4 78.2 81.2-0.4 45.8-33.8 79.6-78.6 79.6zM511.8 726c-27 0-47.6 20.4-47.8 48.2-0.4 27.8 20.4 49.6 47.6 49.6 26.8 0.2 47.6-21 47.8-48.4 0-28.4-20-49.4-47.6-49.4zM511.6 792.2c-8.8 0-17-8.6-17-17.4 0-9 8.2-17.2 17-17.2 9 0 16.8 8.2 16.8 17.4 0.2 9-8 17.2-16.8 17.2zM511.8 726c-27 0-47.6 20.4-47.8 48.2-0.4 27.8 20.4 49.6 47.6 49.6 26.8 0.2 47.6-21 47.8-48.4 0-28.4-20-49.4-47.6-49.4zM511.6 792.2c-8.8 0-17-8.6-17-17.4 0-9 8.2-17.2 17-17.2 9 0 16.8 8.2 16.8 17.4 0.2 9-8 17.2-16.8 17.2zM511.8 726c-27 0-47.6 20.4-47.8 48.2-0.4 27.8 20.4 49.6 47.6 49.6 26.8 0.2 47.6-21 47.8-48.4 0-28.4-20-49.4-47.6-49.4zM511.6 792.2c-8.8 0-17-8.6-17-17.4 0-9 8.2-17.2 17-17.2 9 0 16.8 8.2 16.8 17.4 0.2 9-8 17.2-16.8 17.2zM705.2 232.2c-16.2 0-16.2 0-16.2 18.4 0 16.6 0 16.6 14.8 16.6 15.8 0 15.8 0 15.8-17.2 0-17.8 0-17.8-14.4-17.8zM767.2 232.2c-17 0-17 0-17 17.8 0 17.2 0 17.2 16.8 17.2 17.4 0 17.4 0 17.4-17.4 0-17.6 0-17.6-17.2-17.6zM767.2 232.2c-17 0-17 0-17 17.8 0 17.2 0 17.2 16.8 17.2 17.4 0 17.4 0 17.4-17.4 0-17.6 0-17.6-17.2-17.6zM705.2 232.2c-16.2 0-16.2 0-16.2 18.4 0 16.6 0 16.6 14.8 16.6 15.8 0 15.8 0 15.8-17.2 0-17.8 0-17.8-14.4-17.8zM511.8 726c-27 0-47.6 20.4-47.8 48.2-0.4 27.8 20.4 49.6 47.6 49.6 26.8 0.2 47.6-21 47.8-48.4 0-28.4-20-49.4-47.6-49.4zM511.6 792.2c-8.8 0-17-8.6-17-17.4 0-9 8.2-17.2 17-17.2 9 0 16.8 8.2 16.8 17.4 0.2 9-8 17.2-16.8 17.2zM511.8 726c-27 0-47.6 20.4-47.8 48.2-0.4 27.8 20.4 49.6 47.6 49.6 26.8 0.2 47.6-21 47.8-48.4 0-28.4-20-49.4-47.6-49.4zM511.6 792.2c-8.8 0-17-8.6-17-17.4 0-9 8.2-17.2 17-17.2 9 0 16.8 8.2 16.8 17.4 0.2 9-8 17.2-16.8 17.2zM512 659.4c-64.2-0.2-112.8 49.6-112.8 115.4 0 65.6 49 115.8 112.6 115.8 63.4-0.2 112.2-50 112.2-115.2 0.2-66.4-47.8-115.8-112-116zM511.6 855.4c-45.8-0.2-78.6-34.4-78.2-81.6 0.2-46 33.2-79.4 78.6-79.2 46.2 0 78.2 33.4 78.2 81.2-0.4 45.8-33.8 79.6-78.6 79.6zM511.8 726c-27 0-47.6 20.4-47.8 48.2-0.4 27.8 20.4 49.6 47.6 49.6 26.8 0.2 47.6-21 47.8-48.4 0-28.4-20-49.4-47.6-49.4zM511.6 792.2c-8.8 0-17-8.6-17-17.4 0-9 8.2-17.2 17-17.2 9 0 16.8 8.2 16.8 17.4 0.2 9-8 17.2-16.8 17.2zM511.8 726c-27 0-47.6 20.4-47.8 48.2-0.4 27.8 20.4 49.6 47.6 49.6 26.8 0.2 47.6-21 47.8-48.4 0-28.4-20-49.4-47.6-49.4zM511.6 792.2c-8.8 0-17-8.6-17-17.4 0-9 8.2-17.2 17-17.2 9 0 16.8 8.2 16.8 17.4 0.2 9-8 17.2-16.8 17.2zM511.8 726c-27 0-47.6 20.4-47.8 48.2-0.4 27.8 20.4 49.6 47.6 49.6 26.8 0.2 47.6-21 47.8-48.4 0-28.4-20-49.4-47.6-49.4zM511.6 792.2c-8.8 0-17-8.6-17-17.4 0-9 8.2-17.2 17-17.2 9 0 16.8 8.2 16.8 17.4 0.2 9-8 17.2-16.8 17.2zM511.8 726c-27 0-47.6 20.4-47.8 48.2-0.4 27.8 20.4 49.6 47.6 49.6 26.8 0.2 47.6-21 47.8-48.4 0-28.4-20-49.4-47.6-49.4zM511.6 792.2c-8.8 0-17-8.6-17-17.4 0-9 8.2-17.2 17-17.2 9 0 16.8 8.2 16.8 17.4 0.2 9-8 17.2-16.8 17.2zM511.8 726c-27 0-47.6 20.4-47.8 48.2-0.4 27.8 20.4 49.6 47.6 49.6 26.8 0.2 47.6-21 47.8-48.4 0-28.4-20-49.4-47.6-49.4zM511.6 792.2c-8.8 0-17-8.6-17-17.4 0-9 8.2-17.2 17-17.2 9 0 16.8 8.2 16.8 17.4 0.2 9-8 17.2-16.8 17.2zM512 659.4c-64.2-0.2-112.8 49.6-112.8 115.4 0 65.6 49 115.8 112.6 115.8 63.4-0.2 112.2-50 112.2-115.2 0.2-66.4-47.8-115.8-112-116zM511.6 855.4c-45.8-0.2-78.6-34.4-78.2-81.6 0.2-46 33.2-79.4 78.6-79.2 46.2 0 78.2 33.4 78.2 81.2-0.4 45.8-33.8 79.6-78.6 79.6zM511.8 726c-27 0-47.6 20.4-47.8 48.2-0.4 27.8 20.4 49.6 47.6 49.6 26.8 0.2 47.6-21 47.8-48.4 0-28.4-20-49.4-47.6-49.4zM511.6 792.2c-8.8 0-17-8.6-17-17.4 0-9 8.2-17.2 17-17.2 9 0 16.8 8.2 16.8 17.4 0.2 9-8 17.2-16.8 17.2zM705.2 232.2c-16.2 0-16.2 0-16.2 18.4 0 16.6 0 16.6 14.8 16.6 15.8 0 15.8 0 15.8-17.2 0-17.8 0-17.8-14.4-17.8zM767.2 232.2c-17 0-17 0-17 17.8 0 17.2 0 17.2 16.8 17.2 17.4 0 17.4 0 17.4-17.4 0-17.6 0-17.6-17.2-17.6zM767.2 232.2c-17 0-17 0-17 17.8 0 17.2 0 17.2 16.8 17.2 17.4 0 17.4 0 17.4-17.4 0-17.6 0-17.6-17.2-17.6zM705.2 232.2c-16.2 0-16.2 0-16.2 18.4 0 16.6 0 16.6 14.8 16.6 15.8 0 15.8 0 15.8-17.2 0-17.8 0-17.8-14.4-17.8zM512 659.4c-64.2-0.2-112.8 49.6-112.8 115.4 0 65.6 49 115.8 112.6 115.8 63.4-0.2 112.2-50 112.2-115.2 0.2-66.4-47.8-115.8-112-116zM511.6 855.4c-45.8-0.2-78.6-34.4-78.2-81.6 0.2-46 33.2-79.4 78.6-79.2 46.2 0 78.2 33.4 78.2 81.2-0.4 45.8-33.8 79.6-78.6 79.6zM511.8 726c-27 0-47.6 20.4-47.8 48.2-0.4 27.8 20.4 49.6 47.6 49.6 26.8 0.2 47.6-21 47.8-48.4 0-28.4-20-49.4-47.6-49.4zM511.6 792.2c-8.8 0-17-8.6-17-17.4 0-9 8.2-17.2 17-17.2 9 0 16.8 8.2 16.8 17.4 0.2 9-8 17.2-16.8 17.2zM1006 15.2c0-8.4-1.4-11-10.4-11-161.4 0.4-322.6 0.2-484 0.2-161.6 0-323.2 0-484.8-0.2-7.8 0-9.6 2-9.6 10 0.2 132.2 0.2 264.4 0 396.6 0 7.2 2 12.6 6.6 17.8 44.2 50.6 88.2 101.4 132.6 152 3 3.4 4.4 7 4.4 11.6-0.2 21.8-0.2 43.8 0 65.6 0.2 94.4 30.8 177.8 93.2 246.6 87 95.8 196 130.4 321 109.4 91.4-15.2 164.8-63.6 219.6-140.4 38.6-54 61.2-114.4 66.8-181.4 2.8-33 1-66 1.4-98.8 0-5.4 1.4-9.2 5-13.2 44.4-50.8 88.6-101.8 133-152.6 3.8-4.4 5.4-8.8 5.4-14.8-0.4-132.4-0.4-264.8-0.2-397.4zM216 782.6c-14.6-35.8-23.2-73-24.4-111.8-0.8-23.2 0-46.6-0.6-70-0.2-6.4 1.4-8.4 7.8-8.2 29.6 0.4 59 0.2 88.6 0.2 29 0 58 0.2 86.8-0.2 6.4 0 8.2 1.4 7.4 8.2-10.4 86-57.4 143.2-133 177.6-7.8 3.6-16 5.6-24 8.6-4.6 2-6.6 0.4-8.6-4.4zM786.8 828.2c-51.2 86.6-125.4 139.8-222.6 155-120.6 19-221.8-20.2-301.6-116-10.2-12.2-18.4-25.8-26.6-39.6-3.8-6.4-2.6-8.4 4-10.6 45.8-16.2 84.6-43.2 116.4-80.8 32.4-38.2 52.4-82 58-132.4 1-9 3.6-11.8 12.8-11.6 28 0.8 56.2 0.2 84.4 0.2 29.6 0 59 0.2 88.6-0.2 5.4 0 7.4 1.6 8 7 8.8 79.6 48.8 139.4 111.4 184.8 19.4 14 40.4 24.6 62.8 32.4 6.8 2.8 8.8 4.4 4.4 11.8zM828.6 705.6c-4.2 26.8-11.4 52.8-21.6 77.8-1.8 4.2-3.6 4.8-7.6 3.8-77.6-21.4-144-89.6-156.4-174.4-3-20-3-20 16.2-20h77.4c29.6 0 59 0 88.6 0 3.8 0 7-0.4 6.8 5.6-0.8 35.8 2 71.6-3.4 107.2zM883.4 511.4c-13.4 15-27 30-40.4 45.2-3.2 3.6-6.4 4.8-11 4.8-213.6 0-427 0-640.6 0-4.2 0-7.4-0.4-10.6-4-36.2-40.6-72.6-81.2-108.8-121.8-0.6-0.8-1.2-1.6-2.6-3.4h884.6c-24.2 27.2-47.4 53.2-70.6 79.2zM966.2 396.8c-151.6-0.2-303.4-0.2-455-0.2-151 0-302.2 0-453.2 0.2-8.2 0-10.2-2-10.2-10.4 0.4-59 0.4-117.8 0-176.8 0-7 1.4-9.2 8.6-9.2 186.6 0.2 373.2 0.2 559.8 0 6.2 0 8 1.4 8 8 0.2 23.6-2.2 47.2 3.2 70.6 11.6 51.2 59.6 88.2 112 85.8 52.6-2.2 97.2-43 104.6-95.2 3-20.6 1.2-41.4 1.4-62 0-5.6 1.4-7.4 7-7.4 38.6 0.2 77.2 0.2 115.8 0 5.8 0 7 1.8 6.8 7.4-0.2 60.2-0.2 120.2 0 180.4 0.4 8-2.2 8.8-8.8 8.8zM654.8 204.4c-0.2-5.6 4.2-3.6 6.8-3.6 24.4-0.2 48.8 0 73.2 0s48.8 0.2 73.2-0.2c5.6 0 7.4 1.4 7 7.2-1 19.2 1.8 38.6-1.6 57.6-7 39.8-45.6 67.6-84.8 64.4-32.6-2.6-65.6-29.4-71.8-60.8-4-21.4-1.4-43.2-2-64.6zM975.4 161c0 6.4-1.4 8.2-8 8.2-303.8-0.2-607.8-0.2-911.8 0-6.6 0-7.8-2.2-7.8-8.4 0.2-38.6 0.4-77 0-115.6 0-7.8 1.8-9.4 9.2-9.4 151.8 0.2 303.4 0.2 455.2 0.2 151 0 302.2 0 453.4-0.2 8.4 0 10 2.4 10 10.6-0.6 38.2-0.6 76.4-0.2 114.6zM767 267.2c17.4 0 17.4 0 17.4-17.4 0-17.6 0-17.6-17.2-17.6-17 0-17 0-17 17.8 0 17.2 0 17.2 16.8 17.2zM703.8 267.2c15.8 0 15.8 0 15.8-17.2 0-17.8 0-17.8-14.4-17.8-16.2 0-16.2 0-16.2 18.4-0.2 16.6-0.2 16.6 14.8 16.6zM512 659.4c-64.2-0.2-112.8 49.6-112.8 115.4 0 65.6 49 115.8 112.6 115.8 63.4-0.2 112.2-50 112.2-115.2 0.2-66.4-47.8-115.8-112-116zM511.6 855.4c-45.8-0.2-78.6-34.4-78.2-81.6 0.2-46 33.2-79.4 78.6-79.2 46.2 0 78.2 33.4 78.2 81.2-0.4 45.8-33.8 79.6-78.6 79.6zM511.8 726c-27 0-47.6 20.4-47.8 48.2-0.4 27.8 20.4 49.6 47.6 49.6 26.8 0.2 47.6-21 47.8-48.4 0-28.4-20-49.4-47.6-49.4zM511.6 792.2c-8.8 0-17-8.6-17-17.4 0-9 8.2-17.2 17-17.2 9 0 16.8 8.2 16.8 17.4 0.2 9-8 17.2-16.8 17.2zM511.8 726c-27 0-47.6 20.4-47.8 48.2-0.4 27.8 20.4 49.6 47.6 49.6 26.8 0.2 47.6-21 47.8-48.4 0-28.4-20-49.4-47.6-49.4zM511.6 792.2c-8.8 0-17-8.6-17-17.4 0-9 8.2-17.2 17-17.2 9 0 16.8 8.2 16.8 17.4 0.2 9-8 17.2-16.8 17.2zM511.8 726c-27 0-47.6 20.4-47.8 48.2-0.4 27.8 20.4 49.6 47.6 49.6 26.8 0.2 47.6-21 47.8-48.4 0-28.4-20-49.4-47.6-49.4zM511.6 792.2c-8.8 0-17-8.6-17-17.4 0-9 8.2-17.2 17-17.2 9 0 16.8 8.2 16.8 17.4 0.2 9-8 17.2-16.8 17.2zM512 659.4c-64.2-0.2-112.8 49.6-112.8 115.4 0 65.6 49 115.8 112.6 115.8 63.4-0.2 112.2-50 112.2-115.2 0.2-66.4-47.8-115.8-112-116zM511.6 855.4c-45.8-0.2-78.6-34.4-78.2-81.6 0.2-46 33.2-79.4 78.6-79.2 46.2 0 78.2 33.4 78.2 81.2-0.4 45.8-33.8 79.6-78.6 79.6zM511.8 726c-27 0-47.6 20.4-47.8 48.2-0.4 27.8 20.4 49.6 47.6 49.6 26.8 0.2 47.6-21 47.8-48.4 0-28.4-20-49.4-47.6-49.4zM511.6 792.2c-8.8 0-17-8.6-17-17.4 0-9 8.2-17.2 17-17.2 9 0 16.8 8.2 16.8 17.4 0.2 9-8 17.2-16.8 17.2zM705.2 232.2c-16.2 0-16.2 0-16.2 18.4 0 16.6 0 16.6 14.8 16.6 15.8 0 15.8 0 15.8-17.2 0-17.8 0-17.8-14.4-17.8zM767.2 232.2c-17 0-17 0-17 17.8 0 17.2 0 17.2 16.8 17.2 17.4 0 17.4 0 17.4-17.4 0-17.6 0-17.6-17.2-17.6zM767.2 232.2c-17 0-17 0-17 17.8 0 17.2 0 17.2 16.8 17.2 17.4 0 17.4 0 17.4-17.4 0-17.6 0-17.6-17.2-17.6zM705.2 232.2c-16.2 0-16.2 0-16.2 18.4 0 16.6 0 16.6 14.8 16.6 15.8 0 15.8 0 15.8-17.2 0-17.8 0-17.8-14.4-17.8zM511.8 726c-27 0-47.6 20.4-47.8 48.2-0.4 27.8 20.4 49.6 47.6 49.6 26.8 0.2 47.6-21 47.8-48.4 0-28.4-20-49.4-47.6-49.4zM511.6 792.2c-8.8 0-17-8.6-17-17.4 0-9 8.2-17.2 17-17.2 9 0 16.8 8.2 16.8 17.4 0.2 9-8 17.2-16.8 17.2zM511.8 726c-27 0-47.6 20.4-47.8 48.2-0.4 27.8 20.4 49.6 47.6 49.6 26.8 0.2 47.6-21 47.8-48.4 0-28.4-20-49.4-47.6-49.4zM511.6 792.2c-8.8 0-17-8.6-17-17.4 0-9 8.2-17.2 17-17.2 9 0 16.8 8.2 16.8 17.4 0.2 9-8 17.2-16.8 17.2zM512 659.4c-64.2-0.2-112.8 49.6-112.8 115.4 0 65.6 49 115.8 112.6 115.8 63.4-0.2 112.2-50 112.2-115.2 0.2-66.4-47.8-115.8-112-116zM511.6 855.4c-45.8-0.2-78.6-34.4-78.2-81.6 0.2-46 33.2-79.4 78.6-79.2 46.2 0 78.2 33.4 78.2 81.2-0.4 45.8-33.8 79.6-78.6 79.6zM511.8 726c-27 0-47.6 20.4-47.8 48.2-0.4 27.8 20.4 49.6 47.6 49.6 26.8 0.2 47.6-21 47.8-48.4 0-28.4-20-49.4-47.6-49.4zM511.6 792.2c-8.8 0-17-8.6-17-17.4 0-9 8.2-17.2 17-17.2 9 0 16.8 8.2 16.8 17.4 0.2 9-8 17.2-16.8 17.2zM511.8 726c-27 0-47.6 20.4-47.8 48.2-0.4 27.8 20.4 49.6 47.6 49.6 26.8 0.2 47.6-21 47.8-48.4 0-28.4-20-49.4-47.6-49.4zM511.6 792.2c-8.8 0-17-8.6-17-17.4 0-9 8.2-17.2 17-17.2 9 0 16.8 8.2 16.8 17.4 0.2 9-8 17.2-16.8 17.2zM511.8 726c-27 0-47.6 20.4-47.8 48.2-0.4 27.8 20.4 49.6 47.6 49.6 26.8 0.2 47.6-21 47.8-48.4 0-28.4-20-49.4-47.6-49.4zM511.6 792.2c-8.8 0-17-8.6-17-17.4 0-9 8.2-17.2 17-17.2 9 0 16.8 8.2 16.8 17.4 0.2 9-8 17.2-16.8 17.2zM511.8 726c-27 0-47.6 20.4-47.8 48.2-0.4 27.8 20.4 49.6 47.6 49.6 26.8 0.2 47.6-21 47.8-48.4 0-28.4-20-49.4-47.6-49.4zM511.6 792.2c-8.8 0-17-8.6-17-17.4 0-9 8.2-17.2 17-17.2 9 0 16.8 8.2 16.8 17.4 0.2 9-8 17.2-16.8 17.2zM511.8 726c-27 0-47.6 20.4-47.8 48.2-0.4 27.8 20.4 49.6 47.6 49.6 26.8 0.2 47.6-21 47.8-48.4 0-28.4-20-49.4-47.6-49.4zM511.6 792.2c-8.8 0-17-8.6-17-17.4 0-9 8.2-17.2 17-17.2 9 0 16.8 8.2 16.8 17.4 0.2 9-8 17.2-16.8 17.2zM512 659.4c-64.2-0.2-112.8 49.6-112.8 115.4 0 65.6 49 115.8 112.6 115.8 63.4-0.2 112.2-50 112.2-115.2 0.2-66.4-47.8-115.8-112-116zM511.6 855.4c-45.8-0.2-78.6-34.4-78.2-81.6 0.2-46 33.2-79.4 78.6-79.2 46.2 0 78.2 33.4 78.2 81.2-0.4 45.8-33.8 79.6-78.6 79.6zM511.8 726c-27 0-47.6 20.4-47.8 48.2-0.4 27.8 20.4 49.6 47.6 49.6 26.8 0.2 47.6-21 47.8-48.4 0-28.4-20-49.4-47.6-49.4zM511.6 792.2c-8.8 0-17-8.6-17-17.4 0-9 8.2-17.2 17-17.2 9 0 16.8 8.2 16.8 17.4 0.2 9-8 17.2-16.8 17.2zM511.8 726c-27 0-47.6 20.4-47.8 48.2-0.4 27.8 20.4 49.6 47.6 49.6 26.8 0.2 47.6-21 47.8-48.4 0-28.4-20-49.4-47.6-49.4zM511.6 792.2c-8.8 0-17-8.6-17-17.4 0-9 8.2-17.2 17-17.2 9 0 16.8 8.2 16.8 17.4 0.2 9-8 17.2-16.8 17.2zM511.8 726c-27 0-47.6 20.4-47.8 48.2-0.4 27.8 20.4 49.6 47.6 49.6 26.8 0.2 47.6-21 47.8-48.4 0-28.4-20-49.4-47.6-49.4zM511.6 792.2c-8.8 0-17-8.6-17-17.4 0-9 8.2-17.2 17-17.2 9 0 16.8 8.2 16.8 17.4 0.2 9-8 17.2-16.8 17.2zM705.2 232.2c-16.2 0-16.2 0-16.2 18.4 0 16.6 0 16.6 14.8 16.6 15.8 0 15.8 0 15.8-17.2 0-17.8 0-17.8-14.4-17.8zM767.2 232.2c-17 0-17 0-17 17.8 0 17.2 0 17.2 16.8 17.2 17.4 0 17.4 0 17.4-17.4 0-17.6 0-17.6-17.2-17.6zM767.2 232.2c-17 0-17 0-17 17.8 0 17.2 0 17.2 16.8 17.2 17.4 0 17.4 0 17.4-17.4 0-17.6 0-17.6-17.2-17.6zM705.2 232.2c-16.2 0-16.2 0-16.2 18.4 0 16.6 0 16.6 14.8 16.6 15.8 0 15.8 0 15.8-17.2 0-17.8 0-17.8-14.4-17.8zM511.8 726c-27 0-47.6 20.4-47.8 48.2-0.4 27.8 20.4 49.6 47.6 49.6 26.8 0.2 47.6-21 47.8-48.4 0-28.4-20-49.4-47.6-49.4zM511.6 792.2c-8.8 0-17-8.6-17-17.4 0-9 8.2-17.2 17-17.2 9 0 16.8 8.2 16.8 17.4 0.2 9-8 17.2-16.8 17.2zM511.8 726c-27 0-47.6 20.4-47.8 48.2-0.4 27.8 20.4 49.6 47.6 49.6 26.8 0.2 47.6-21 47.8-48.4 0-28.4-20-49.4-47.6-49.4zM511.6 792.2c-8.8 0-17-8.6-17-17.4 0-9 8.2-17.2 17-17.2 9 0 16.8 8.2 16.8 17.4 0.2 9-8 17.2-16.8 17.2zM512 659.4c-64.2-0.2-112.8 49.6-112.8 115.4 0 65.6 49 115.8 112.6 115.8 63.4-0.2 112.2-50 112.2-115.2 0.2-66.4-47.8-115.8-112-116zM511.6 855.4c-45.8-0.2-78.6-34.4-78.2-81.6 0.2-46 33.2-79.4 78.6-79.2 46.2 0 78.2 33.4 78.2 81.2-0.4 45.8-33.8 79.6-78.6 79.6zM511.8 726c-27 0-47.6 20.4-47.8 48.2-0.4 27.8 20.4 49.6 47.6 49.6 26.8 0.2 47.6-21 47.8-48.4 0-28.4-20-49.4-47.6-49.4zM511.6 792.2c-8.8 0-17-8.6-17-17.4 0-9 8.2-17.2 17-17.2 9 0 16.8 8.2 16.8 17.4 0.2 9-8 17.2-16.8 17.2zM511.8 726c-27 0-47.6 20.4-47.8 48.2-0.4 27.8 20.4 49.6 47.6 49.6 26.8 0.2 47.6-21 47.8-48.4 0-28.4-20-49.4-47.6-49.4zM511.6 792.2c-8.8 0-17-8.6-17-17.4 0-9 8.2-17.2 17-17.2 9 0 16.8 8.2 16.8 17.4 0.2 9-8 17.2-16.8 17.2zM511.8 726c-27 0-47.6 20.4-47.8 48.2-0.4 27.8 20.4 49.6 47.6 49.6 26.8 0.2 47.6-21 47.8-48.4 0-28.4-20-49.4-47.6-49.4zM511.6 792.2c-8.8 0-17-8.6-17-17.4 0-9 8.2-17.2 17-17.2 9 0 16.8 8.2 16.8 17.4 0.2 9-8 17.2-16.8 17.2zM511.8 726c-27 0-47.6 20.4-47.8 48.2-0.4 27.8 20.4 49.6 47.6 49.6 26.8 0.2 47.6-21 47.8-48.4 0-28.4-20-49.4-47.6-49.4zM511.6 792.2c-8.8 0-17-8.6-17-17.4 0-9 8.2-17.2 17-17.2 9 0 16.8 8.2 16.8 17.4 0.2 9-8 17.2-16.8 17.2zM511.8 726c-27 0-47.6 20.4-47.8 48.2-0.4 27.8 20.4 49.6 47.6 49.6 26.8 0.2 47.6-21 47.8-48.4 0-28.4-20-49.4-47.6-49.4zM511.6 792.2c-8.8 0-17-8.6-17-17.4 0-9 8.2-17.2 17-17.2 9 0 16.8 8.2 16.8 17.4 0.2 9-8 17.2-16.8 17.2zM512 659.4c-64.2-0.2-112.8 49.6-112.8 115.4 0 65.6 49 115.8 112.6 115.8 63.4-0.2 112.2-50 112.2-115.2 0.2-66.4-47.8-115.8-112-116zM511.6 855.4c-45.8-0.2-78.6-34.4-78.2-81.6 0.2-46 33.2-79.4 78.6-79.2 46.2 0 78.2 33.4 78.2 81.2-0.4 45.8-33.8 79.6-78.6 79.6zM511.8 726c-27 0-47.6 20.4-47.8 48.2-0.4 27.8 20.4 49.6 47.6 49.6 26.8 0.2 47.6-21 47.8-48.4 0-28.4-20-49.4-47.6-49.4zM511.6 792.2c-8.8 0-17-8.6-17-17.4 0-9 8.2-17.2 17-17.2 9 0 16.8 8.2 16.8 17.4 0.2 9-8 17.2-16.8 17.2zM511.8 726c-27 0-47.6 20.4-47.8 48.2-0.4 27.8 20.4 49.6 47.6 49.6 26.8 0.2 47.6-21 47.8-48.4 0-28.4-20-49.4-47.6-49.4zM511.6 792.2c-8.8 0-17-8.6-17-17.4 0-9 8.2-17.2 17-17.2 9 0 16.8 8.2 16.8 17.4 0.2 9-8 17.2-16.8 17.2zM511.8 726c-27 0-47.6 20.4-47.8 48.2-0.4 27.8 20.4 49.6 47.6 49.6 26.8 0.2 47.6-21 47.8-48.4 0-28.4-20-49.4-47.6-49.4zM511.6 792.2c-8.8 0-17-8.6-17-17.4 0-9 8.2-17.2 17-17.2 9 0 16.8 8.2 16.8 17.4 0.2 9-8 17.2-16.8 17.2zM705.2 232.2c-16.2 0-16.2 0-16.2 18.4 0 16.6 0 16.6 14.8 16.6 15.8 0 15.8 0 15.8-17.2 0-17.8 0-17.8-14.4-17.8zM767.2 232.2c-17 0-17 0-17 17.8 0 17.2 0 17.2 16.8 17.2 17.4 0 17.4 0 17.4-17.4 0-17.6 0-17.6-17.2-17.6zM767.2 232.2c-17 0-17 0-17 17.8 0 17.2 0 17.2 16.8 17.2 17.4 0 17.4 0 17.4-17.4 0-17.6 0-17.6-17.2-17.6zM705.2 232.2c-16.2 0-16.2 0-16.2 18.4 0 16.6 0 16.6 14.8 16.6 15.8 0 15.8 0 15.8-17.2 0-17.8 0-17.8-14.4-17.8zM511.8 726c-27 0-47.6 20.4-47.8 48.2-0.4 27.8 20.4 49.6 47.6 49.6 26.8 0.2 47.6-21 47.8-48.4 0-28.4-20-49.4-47.6-49.4zM511.6 792.2c-8.8 0-17-8.6-17-17.4 0-9 8.2-17.2 17-17.2 9 0 16.8 8.2 16.8 17.4 0.2 9-8 17.2-16.8 17.2zM511.8 726c-27 0-47.6 20.4-47.8 48.2-0.4 27.8 20.4 49.6 47.6 49.6 26.8 0.2 47.6-21 47.8-48.4 0-28.4-20-49.4-47.6-49.4zM511.6 792.2c-8.8 0-17-8.6-17-17.4 0-9 8.2-17.2 17-17.2 9 0 16.8 8.2 16.8 17.4 0.2 9-8 17.2-16.8 17.2zM512 659.4c-64.2-0.2-112.8 49.6-112.8 115.4 0 65.6 49 115.8 112.6 115.8 63.4-0.2 112.2-50 112.2-115.2 0.2-66.4-47.8-115.8-112-116zM511.6 855.4c-45.8-0.2-78.6-34.4-78.2-81.6 0.2-46 33.2-79.4 78.6-79.2 46.2 0 78.2 33.4 78.2 81.2-0.4 45.8-33.8 79.6-78.6 79.6zM511.8 726c-27 0-47.6 20.4-47.8 48.2-0.4 27.8 20.4 49.6 47.6 49.6 26.8 0.2 47.6-21 47.8-48.4 0-28.4-20-49.4-47.6-49.4zM511.6 792.2c-8.8 0-17-8.6-17-17.4 0-9 8.2-17.2 17-17.2 9 0 16.8 8.2 16.8 17.4 0.2 9-8 17.2-16.8 17.2zM511.8 726c-27 0-47.6 20.4-47.8 48.2-0.4 27.8 20.4 49.6 47.6 49.6 26.8 0.2 47.6-21 47.8-48.4 0-28.4-20-49.4-47.6-49.4zM511.6 792.2c-8.8 0-17-8.6-17-17.4 0-9 8.2-17.2 17-17.2 9 0 16.8 8.2 16.8 17.4 0.2 9-8 17.2-16.8 17.2zM511.8 726c-27 0-47.6 20.4-47.8 48.2-0.4 27.8 20.4 49.6 47.6 49.6 26.8 0.2 47.6-21 47.8-48.4 0-28.4-20-49.4-47.6-49.4zM511.6 792.2c-8.8 0-17-8.6-17-17.4 0-9 8.2-17.2 17-17.2 9 0 16.8 8.2 16.8 17.4 0.2 9-8 17.2-16.8 17.2zM705.2 232.2c-16.2 0-16.2 0-16.2 18.4 0 16.6 0 16.6 14.8 16.6 15.8 0 15.8 0 15.8-17.2 0-17.8 0-17.8-14.4-17.8zM767.2 232.2c-17 0-17 0-17 17.8 0 17.2 0 17.2 16.8 17.2 17.4 0 17.4 0 17.4-17.4 0-17.6 0-17.6-17.2-17.6zM767.2 232.2c-17 0-17 0-17 17.8 0 17.2 0 17.2 16.8 17.2 17.4 0 17.4 0 17.4-17.4 0-17.6 0-17.6-17.2-17.6zM705.2 232.2c-16.2 0-16.2 0-16.2 18.4 0 16.6 0 16.6 14.8 16.6 15.8 0 15.8 0 15.8-17.2 0-17.8 0-17.8-14.4-17.8z"></path>
<path fill="#000" d="M705.2 232.2c14.4 0 14.4 0 14.4 17.8 0 17.2 0 17.2-15.8 17.2-14.8 0-14.8 0-14.8-16.6 0-18.4 0-18.4 16.2-18.4zM767.2 232.2c17.2 0 17.2 0 17.2 17.6 0 17.4 0 17.4-17.4 17.4-16.8 0-16.8 0-16.8-17.2 0-17.8 0-17.8 17-17.8zM767.2 232.2c17.2 0 17.2 0 17.2 17.6 0 17.4 0 17.4-17.4 17.4-16.8 0-16.8 0-16.8-17.2 0-17.8 0-17.8 17-17.8zM705.2 232.2c14.4 0 14.4 0 14.4 17.8 0 17.2 0 17.2-15.8 17.2-14.8 0-14.8 0-14.8-16.6 0-18.4 0-18.4 16.2-18.4zM511.8 726c-27 0-47.6 20.4-47.8 48.2-0.4 27.8 20.4 49.6 47.6 49.6 26.8 0.2 47.6-21 47.8-48.4 0-28.4-20-49.4-47.6-49.4zM511.6 792.2c-8.8 0-17-8.6-17-17.4 0-9 8.2-17.2 17-17.2 9 0 16.8 8.2 16.8 17.4 0.2 9-8 17.2-16.8 17.2zM511.8 726c-27 0-47.6 20.4-47.8 48.2-0.4 27.8 20.4 49.6 47.6 49.6 26.8 0.2 47.6-21 47.8-48.4 0-28.4-20-49.4-47.6-49.4zM511.6 792.2c-8.8 0-17-8.6-17-17.4 0-9 8.2-17.2 17-17.2 9 0 16.8 8.2 16.8 17.4 0.2 9-8 17.2-16.8 17.2zM512 659.4c-64.2-0.2-112.8 49.6-112.8 115.4 0 65.6 49 115.8 112.6 115.8 63.4-0.2 112.2-50 112.2-115.2 0.2-66.4-47.8-115.8-112-116zM511.6 855.4c-45.8-0.2-78.6-34.4-78.2-81.6 0.2-46 33.2-79.4 78.6-79.2 46.2 0 78.2 33.4 78.2 81.2-0.4 45.8-33.8 79.6-78.6 79.6zM511.8 726c-27 0-47.6 20.4-47.8 48.2-0.4 27.8 20.4 49.6 47.6 49.6 26.8 0.2 47.6-21 47.8-48.4 0-28.4-20-49.4-47.6-49.4zM511.6 792.2c-8.8 0-17-8.6-17-17.4 0-9 8.2-17.2 17-17.2 9 0 16.8 8.2 16.8 17.4 0.2 9-8 17.2-16.8 17.2zM511.8 726c-27 0-47.6 20.4-47.8 48.2-0.4 27.8 20.4 49.6 47.6 49.6 26.8 0.2 47.6-21 47.8-48.4 0-28.4-20-49.4-47.6-49.4zM511.6 792.2c-8.8 0-17-8.6-17-17.4 0-9 8.2-17.2 17-17.2 9 0 16.8 8.2 16.8 17.4 0.2 9-8 17.2-16.8 17.2zM511.8 726c-27 0-47.6 20.4-47.8 48.2-0.4 27.8 20.4 49.6 47.6 49.6 26.8 0.2 47.6-21 47.8-48.4 0-28.4-20-49.4-47.6-49.4zM511.6 792.2c-8.8 0-17-8.6-17-17.4 0-9 8.2-17.2 17-17.2 9 0 16.8 8.2 16.8 17.4 0.2 9-8 17.2-16.8 17.2zM705.2 232.2c14.4 0 14.4 0 14.4 17.8 0 17.2 0 17.2-15.8 17.2-14.8 0-14.8 0-14.8-16.6 0-18.4 0-18.4 16.2-18.4zM767.2 232.2c17.2 0 17.2 0 17.2 17.6 0 17.4 0 17.4-17.4 17.4-16.8 0-16.8 0-16.8-17.2 0-17.8 0-17.8 17-17.8zM767.2 232.2c17.2 0 17.2 0 17.2 17.6 0 17.4 0 17.4-17.4 17.4-16.8 0-16.8 0-16.8-17.2 0-17.8 0-17.8 17-17.8zM705.2 232.2c14.4 0 14.4 0 14.4 17.8 0 17.2 0 17.2-15.8 17.2-14.8 0-14.8 0-14.8-16.6 0-18.4 0-18.4 16.2-18.4zM511.8 726c-27 0-47.6 20.4-47.8 48.2-0.4 27.8 20.4 49.6 47.6 49.6 26.8 0.2 47.6-21 47.8-48.4 0-28.4-20-49.4-47.6-49.4zM511.6 792.2c-8.8 0-17-8.6-17-17.4 0-9 8.2-17.2 17-17.2 9 0 16.8 8.2 16.8 17.4 0.2 9-8 17.2-16.8 17.2zM511.8 726c-27 0-47.6 20.4-47.8 48.2-0.4 27.8 20.4 49.6 47.6 49.6 26.8 0.2 47.6-21 47.8-48.4 0-28.4-20-49.4-47.6-49.4zM511.6 792.2c-8.8 0-17-8.6-17-17.4 0-9 8.2-17.2 17-17.2 9 0 16.8 8.2 16.8 17.4 0.2 9-8 17.2-16.8 17.2zM512 659.4c-64.2-0.2-112.8 49.6-112.8 115.4 0 65.6 49 115.8 112.6 115.8 63.4-0.2 112.2-50 112.2-115.2 0.2-66.4-47.8-115.8-112-116zM511.6 855.4c-45.8-0.2-78.6-34.4-78.2-81.6 0.2-46 33.2-79.4 78.6-79.2 46.2 0 78.2 33.4 78.2 81.2-0.4 45.8-33.8 79.6-78.6 79.6zM511.8 726c-27 0-47.6 20.4-47.8 48.2-0.4 27.8 20.4 49.6 47.6 49.6 26.8 0.2 47.6-21 47.8-48.4 0-28.4-20-49.4-47.6-49.4zM511.6 792.2c-8.8 0-17-8.6-17-17.4 0-9 8.2-17.2 17-17.2 9 0 16.8 8.2 16.8 17.4 0.2 9-8 17.2-16.8 17.2zM511.8 726c-27 0-47.6 20.4-47.8 48.2-0.4 27.8 20.4 49.6 47.6 49.6 26.8 0.2 47.6-21 47.8-48.4 0-28.4-20-49.4-47.6-49.4zM511.6 792.2c-8.8 0-17-8.6-17-17.4 0-9 8.2-17.2 17-17.2 9 0 16.8 8.2 16.8 17.4 0.2 9-8 17.2-16.8 17.2zM511.8 726c-27 0-47.6 20.4-47.8 48.2-0.4 27.8 20.4 49.6 47.6 49.6 26.8 0.2 47.6-21 47.8-48.4 0-28.4-20-49.4-47.6-49.4zM511.6 792.2c-8.8 0-17-8.6-17-17.4 0-9 8.2-17.2 17-17.2 9 0 16.8 8.2 16.8 17.4 0.2 9-8 17.2-16.8 17.2zM511.8 726c-27 0-47.6 20.4-47.8 48.2-0.4 27.8 20.4 49.6 47.6 49.6 26.8 0.2 47.6-21 47.8-48.4 0-28.4-20-49.4-47.6-49.4zM511.6 792.2c-8.8 0-17-8.6-17-17.4 0-9 8.2-17.2 17-17.2 9 0 16.8 8.2 16.8 17.4 0.2 9-8 17.2-16.8 17.2zM511.8 726c-27 0-47.6 20.4-47.8 48.2-0.4 27.8 20.4 49.6 47.6 49.6 26.8 0.2 47.6-21 47.8-48.4 0-28.4-20-49.4-47.6-49.4zM511.6 792.2c-8.8 0-17-8.6-17-17.4 0-9 8.2-17.2 17-17.2 9 0 16.8 8.2 16.8 17.4 0.2 9-8 17.2-16.8 17.2zM512 659.4c-64.2-0.2-112.8 49.6-112.8 115.4 0 65.6 49 115.8 112.6 115.8 63.4-0.2 112.2-50 112.2-115.2 0.2-66.4-47.8-115.8-112-116zM511.6 855.4c-45.8-0.2-78.6-34.4-78.2-81.6 0.2-46 33.2-79.4 78.6-79.2 46.2 0 78.2 33.4 78.2 81.2-0.4 45.8-33.8 79.6-78.6 79.6zM511.8 726c-27 0-47.6 20.4-47.8 48.2-0.4 27.8 20.4 49.6 47.6 49.6 26.8 0.2 47.6-21 47.8-48.4 0-28.4-20-49.4-47.6-49.4zM511.6 792.2c-8.8 0-17-8.6-17-17.4 0-9 8.2-17.2 17-17.2 9 0 16.8 8.2 16.8 17.4 0.2 9-8 17.2-16.8 17.2zM511.8 726c-27 0-47.6 20.4-47.8 48.2-0.4 27.8 20.4 49.6 47.6 49.6 26.8 0.2 47.6-21 47.8-48.4 0-28.4-20-49.4-47.6-49.4zM511.6 792.2c-8.8 0-17-8.6-17-17.4 0-9 8.2-17.2 17-17.2 9 0 16.8 8.2 16.8 17.4 0.2 9-8 17.2-16.8 17.2zM511.8 726c-27 0-47.6 20.4-47.8 48.2-0.4 27.8 20.4 49.6 47.6 49.6 26.8 0.2 47.6-21 47.8-48.4 0-28.4-20-49.4-47.6-49.4zM511.6 792.2c-8.8 0-17-8.6-17-17.4 0-9 8.2-17.2 17-17.2 9 0 16.8 8.2 16.8 17.4 0.2 9-8 17.2-16.8 17.2zM705.2 232.2c14.4 0 14.4 0 14.4 17.8 0 17.2 0 17.2-15.8 17.2-14.8 0-14.8 0-14.8-16.6 0-18.4 0-18.4 16.2-18.4zM767.2 232.2c17.2 0 17.2 0 17.2 17.6 0 17.4 0 17.4-17.4 17.4-16.8 0-16.8 0-16.8-17.2 0-17.8 0-17.8 17-17.8zM767.2 232.2c17.2 0 17.2 0 17.2 17.6 0 17.4 0 17.4-17.4 17.4-16.8 0-16.8 0-16.8-17.2 0-17.8 0-17.8 17-17.8zM705.2 232.2c14.4 0 14.4 0 14.4 17.8 0 17.2 0 17.2-15.8 17.2-14.8 0-14.8 0-14.8-16.6 0-18.4 0-18.4 16.2-18.4zM511.8 726c-27 0-47.6 20.4-47.8 48.2-0.4 27.8 20.4 49.6 47.6 49.6 26.8 0.2 47.6-21 47.8-48.4 0-28.4-20-49.4-47.6-49.4zM511.6 792.2c-8.8 0-17-8.6-17-17.4 0-9 8.2-17.2 17-17.2 9 0 16.8 8.2 16.8 17.4 0.2 9-8 17.2-16.8 17.2zM511.8 726c-27 0-47.6 20.4-47.8 48.2-0.4 27.8 20.4 49.6 47.6 49.6 26.8 0.2 47.6-21 47.8-48.4 0-28.4-20-49.4-47.6-49.4zM511.6 792.2c-8.8 0-17-8.6-17-17.4 0-9 8.2-17.2 17-17.2 9 0 16.8 8.2 16.8 17.4 0.2 9-8 17.2-16.8 17.2zM512 659.4c-64.2-0.2-112.8 49.6-112.8 115.4 0 65.6 49 115.8 112.6 115.8 63.4-0.2 112.2-50 112.2-115.2 0.2-66.4-47.8-115.8-112-116zM511.6 855.4c-45.8-0.2-78.6-34.4-78.2-81.6 0.2-46 33.2-79.4 78.6-79.2 46.2 0 78.2 33.4 78.2 81.2-0.4 45.8-33.8 79.6-78.6 79.6zM511.8 726c-27 0-47.6 20.4-47.8 48.2-0.4 27.8 20.4 49.6 47.6 49.6 26.8 0.2 47.6-21 47.8-48.4 0-28.4-20-49.4-47.6-49.4zM511.6 792.2c-8.8 0-17-8.6-17-17.4 0-9 8.2-17.2 17-17.2 9 0 16.8 8.2 16.8 17.4 0.2 9-8 17.2-16.8 17.2zM511.8 726c-27 0-47.6 20.4-47.8 48.2-0.4 27.8 20.4 49.6 47.6 49.6 26.8 0.2 47.6-21 47.8-48.4 0-28.4-20-49.4-47.6-49.4zM511.6 792.2c-8.8 0-17-8.6-17-17.4 0-9 8.2-17.2 17-17.2 9 0 16.8 8.2 16.8 17.4 0.2 9-8 17.2-16.8 17.2zM511.8 726c-27 0-47.6 20.4-47.8 48.2-0.4 27.8 20.4 49.6 47.6 49.6 26.8 0.2 47.6-21 47.8-48.4 0-28.4-20-49.4-47.6-49.4zM511.6 792.2c-8.8 0-17-8.6-17-17.4 0-9 8.2-17.2 17-17.2 9 0 16.8 8.2 16.8 17.4 0.2 9-8 17.2-16.8 17.2zM511.8 726c-27 0-47.6 20.4-47.8 48.2-0.4 27.8 20.4 49.6 47.6 49.6 26.8 0.2 47.6-21 47.8-48.4 0-28.4-20-49.4-47.6-49.4zM511.6 792.2c-8.8 0-17-8.6-17-17.4 0-9 8.2-17.2 17-17.2 9 0 16.8 8.2 16.8 17.4 0.2 9-8 17.2-16.8 17.2zM511.8 726c-27 0-47.6 20.4-47.8 48.2-0.4 27.8 20.4 49.6 47.6 49.6 26.8 0.2 47.6-21 47.8-48.4 0-28.4-20-49.4-47.6-49.4zM511.6 792.2c-8.8 0-17-8.6-17-17.4 0-9 8.2-17.2 17-17.2 9 0 16.8 8.2 16.8 17.4 0.2 9-8 17.2-16.8 17.2zM512 659.4c-64.2-0.2-112.8 49.6-112.8 115.4 0 65.6 49 115.8 112.6 115.8 63.4-0.2 112.2-50 112.2-115.2 0.2-66.4-47.8-115.8-112-116zM511.6 855.4c-45.8-0.2-78.6-34.4-78.2-81.6 0.2-46 33.2-79.4 78.6-79.2 46.2 0 78.2 33.4 78.2 81.2-0.4 45.8-33.8 79.6-78.6 79.6zM511.8 726c-27 0-47.6 20.4-47.8 48.2-0.4 27.8 20.4 49.6 47.6 49.6 26.8 0.2 47.6-21 47.8-48.4 0-28.4-20-49.4-47.6-49.4zM511.6 792.2c-8.8 0-17-8.6-17-17.4 0-9 8.2-17.2 17-17.2 9 0 16.8 8.2 16.8 17.4 0.2 9-8 17.2-16.8 17.2zM705.2 232.2c14.4 0 14.4 0 14.4 17.8 0 17.2 0 17.2-15.8 17.2-14.8 0-14.8 0-14.8-16.6 0-18.4 0-18.4 16.2-18.4zM767.2 232.2c17.2 0 17.2 0 17.2 17.6 0 17.4 0 17.4-17.4 17.4-16.8 0-16.8 0-16.8-17.2 0-17.8 0-17.8 17-17.8zM767.2 232.2c17.2 0 17.2 0 17.2 17.6 0 17.4 0 17.4-17.4 17.4-16.8 0-16.8 0-16.8-17.2 0-17.8 0-17.8 17-17.8zM705.2 232.2c14.4 0 14.4 0 14.4 17.8 0 17.2 0 17.2-15.8 17.2-14.8 0-14.8 0-14.8-16.6 0-18.4 0-18.4 16.2-18.4zM512 659.4c-64.2-0.2-112.8 49.6-112.8 115.4 0 65.6 49 115.8 112.6 115.8 63.4-0.2 112.2-50 112.2-115.2 0.2-66.4-47.8-115.8-112-116zM511.6 855.4c-45.8-0.2-78.6-34.4-78.2-81.6 0.2-46 33.2-79.4 78.6-79.2 46.2 0 78.2 33.4 78.2 81.2-0.4 45.8-33.8 79.6-78.6 79.6zM511.8 726c-27 0-47.6 20.4-47.8 48.2-0.4 27.8 20.4 49.6 47.6 49.6 26.8 0.2 47.6-21 47.8-48.4 0-28.4-20-49.4-47.6-49.4zM511.6 792.2c-8.8 0-17-8.6-17-17.4 0-9 8.2-17.2 17-17.2 9 0 16.8 8.2 16.8 17.4 0.2 9-8 17.2-16.8 17.2zM1006 15.2c0-8.4-1.4-11-10.4-11-161.4 0.4-322.6 0.2-484 0.2-161.6 0-323.2 0-484.8-0.2-7.8 0-9.6 2-9.6 10 0.2 132.2 0.2 264.4 0 396.6 0 7.2 2 12.6 6.6 17.8 44.2 50.6 88.2 101.4 132.6 152 3 3.4 4.4 7 4.4 11.6-0.2 21.8-0.2 43.8 0 65.6 0.2 94.4 30.8 177.8 93.2 246.6 87 95.8 196 130.4 321 109.4 91.4-15.2 164.8-63.6 219.6-140.4 38.6-54 61.2-114.4 66.8-181.4 2.8-33 1-66 1.4-98.8 0-5.4 1.4-9.2 5-13.2 44.4-50.8 88.6-101.8 133-152.6 3.8-4.4 5.4-8.8 5.4-14.8-0.4-132.4-0.4-264.8-0.2-397.4zM216 782.6c-14.6-35.8-23.2-73-24.4-111.8-0.8-23.2 0-46.6-0.6-70-0.2-6.4 1.4-8.4 7.8-8.2 29.6 0.4 59 0.2 88.6 0.2 29 0 58 0.2 86.8-0.2 6.4 0 8.2 1.4 7.4 8.2-10.4 86-57.4 143.2-133 177.6-7.8 3.6-16 5.6-24 8.6-4.6 2-6.6 0.4-8.6-4.4zM786.8 828.2c-51.2 86.6-125.4 139.8-222.6 155-120.6 19-221.8-20.2-301.6-116-10.2-12.2-18.4-25.8-26.6-39.6-3.8-6.4-2.6-8.4 4-10.6 45.8-16.2 84.6-43.2 116.4-80.8 32.4-38.2 52.4-82 58-132.4 1-9 3.6-11.8 12.8-11.6 28 0.8 56.2 0.2 84.4 0.2 29.6 0 59 0.2 88.6-0.2 5.4 0 7.4 1.6 8 7 8.8 79.6 48.8 139.4 111.4 184.8 19.4 14 40.4 24.6 62.8 32.4 6.8 2.8 8.8 4.4 4.4 11.8zM828.6 705.6c-4.2 26.8-11.4 52.8-21.6 77.8-1.8 4.2-3.6 4.8-7.6 3.8-77.6-21.4-144-89.6-156.4-174.4-3-20-3-20 16.2-20h77.4c29.6 0 59 0 88.6 0 3.8 0 7-0.4 6.8 5.6-0.8 35.8 2 71.6-3.4 107.2zM883.4 511.4c-13.4 15-27 30-40.4 45.2-3.2 3.6-6.4 4.8-11 4.8-213.6 0-427 0-640.6 0-4.2 0-7.4-0.4-10.6-4-36.2-40.6-72.6-81.2-108.8-121.8-0.6-0.8-1.2-1.6-2.6-3.4h884.6c-24.2 27.2-47.4 53.2-70.6 79.2zM966.2 396.8c-151.6-0.2-303.4-0.2-455-0.2-151 0-302.2 0-453.2 0.2-8.2 0-10.2-2-10.2-10.4 0.4-59 0.4-117.8 0-176.8 0-7 1.4-9.2 8.6-9.2 186.6 0.2 373.2 0.2 559.8 0 6.2 0 8 1.4 8 8 0.2 23.6-2.2 47.2 3.2 70.6 11.6 51.2 59.6 88.2 112 85.8 52.6-2.2 97.2-43 104.6-95.2 3-20.6 1.2-41.4 1.4-62 0-5.6 1.4-7.4 7-7.4 38.6 0.2 77.2 0.2 115.8 0 5.8 0 7 1.8 6.8 7.4-0.2 60.2-0.2 120.2 0 180.4 0.4 8-2.2 8.8-8.8 8.8zM654.8 204.4c-0.2-5.6 4.2-3.6 6.8-3.6 24.4-0.2 48.8 0 73.2 0s48.8 0.2 73.2-0.2c5.6 0 7.4 1.4 7 7.2-1 19.2 1.8 38.6-1.6 57.6-7 39.8-45.6 67.6-84.8 64.4-32.6-2.6-65.6-29.4-71.8-60.8-4-21.4-1.4-43.2-2-64.6zM975.4 161c0 6.4-1.4 8.2-8 8.2-303.8-0.2-607.8-0.2-911.8 0-6.6 0-7.8-2.2-7.8-8.4 0.2-38.6 0.4-77 0-115.6 0-7.8 1.8-9.4 9.2-9.4 151.8 0.2 303.4 0.2 455.2 0.2 151 0 302.2 0 453.4-0.2 8.4 0 10 2.4 10 10.6-0.6 38.2-0.6 76.4-0.2 114.6zM767 267.2c-16.8 0-16.8 0-16.8-17.2 0-17.8 0-17.8 17-17.8 17.2 0 17.2 0 17.2 17.6 0 17.4 0 17.4-17.4 17.4zM703.8 267.2c-15 0-15 0-14.8-16.6 0-18.4 0-18.4 16.2-18.4 14.4 0 14.4 0 14.4 17.8 0 17.2 0 17.2-15.8 17.2zM512 659.4c-64.2-0.2-112.8 49.6-112.8 115.4 0 65.6 49 115.8 112.6 115.8 63.4-0.2 112.2-50 112.2-115.2 0.2-66.4-47.8-115.8-112-116zM511.6 855.4c-45.8-0.2-78.6-34.4-78.2-81.6 0.2-46 33.2-79.4 78.6-79.2 46.2 0 78.2 33.4 78.2 81.2-0.4 45.8-33.8 79.6-78.6 79.6zM511.8 726c-27 0-47.6 20.4-47.8 48.2-0.4 27.8 20.4 49.6 47.6 49.6 26.8 0.2 47.6-21 47.8-48.4 0-28.4-20-49.4-47.6-49.4zM511.6 792.2c-8.8 0-17-8.6-17-17.4 0-9 8.2-17.2 17-17.2 9 0 16.8 8.2 16.8 17.4 0.2 9-8 17.2-16.8 17.2zM511.8 726c-27 0-47.6 20.4-47.8 48.2-0.4 27.8 20.4 49.6 47.6 49.6 26.8 0.2 47.6-21 47.8-48.4 0-28.4-20-49.4-47.6-49.4zM511.6 792.2c-8.8 0-17-8.6-17-17.4 0-9 8.2-17.2 17-17.2 9 0 16.8 8.2 16.8 17.4 0.2 9-8 17.2-16.8 17.2zM511.8 726c-27 0-47.6 20.4-47.8 48.2-0.4 27.8 20.4 49.6 47.6 49.6 26.8 0.2 47.6-21 47.8-48.4 0-28.4-20-49.4-47.6-49.4zM511.6 792.2c-8.8 0-17-8.6-17-17.4 0-9 8.2-17.2 17-17.2 9 0 16.8 8.2 16.8 17.4 0.2 9-8 17.2-16.8 17.2zM512 659.4c-64.2-0.2-112.8 49.6-112.8 115.4 0 65.6 49 115.8 112.6 115.8 63.4-0.2 112.2-50 112.2-115.2 0.2-66.4-47.8-115.8-112-116zM511.6 855.4c-45.8-0.2-78.6-34.4-78.2-81.6 0.2-46 33.2-79.4 78.6-79.2 46.2 0 78.2 33.4 78.2 81.2-0.4 45.8-33.8 79.6-78.6 79.6zM511.8 726c-27 0-47.6 20.4-47.8 48.2-0.4 27.8 20.4 49.6 47.6 49.6 26.8 0.2 47.6-21 47.8-48.4 0-28.4-20-49.4-47.6-49.4zM511.6 792.2c-8.8 0-17-8.6-17-17.4 0-9 8.2-17.2 17-17.2 9 0 16.8 8.2 16.8 17.4 0.2 9-8 17.2-16.8 17.2zM705.2 232.2c14.4 0 14.4 0 14.4 17.8 0 17.2 0 17.2-15.8 17.2-14.8 0-14.8 0-14.8-16.6 0-18.4 0-18.4 16.2-18.4zM767.2 232.2c17.2 0 17.2 0 17.2 17.6 0 17.4 0 17.4-17.4 17.4-16.8 0-16.8 0-16.8-17.2 0-17.8 0-17.8 17-17.8zM767.2 232.2c17.2 0 17.2 0 17.2 17.6 0 17.4 0 17.4-17.4 17.4-16.8 0-16.8 0-16.8-17.2 0-17.8 0-17.8 17-17.8zM705.2 232.2c14.4 0 14.4 0 14.4 17.8 0 17.2 0 17.2-15.8 17.2-14.8 0-14.8 0-14.8-16.6 0-18.4 0-18.4 16.2-18.4zM511.8 726c-27 0-47.6 20.4-47.8 48.2-0.4 27.8 20.4 49.6 47.6 49.6 26.8 0.2 47.6-21 47.8-48.4 0-28.4-20-49.4-47.6-49.4zM511.6 792.2c-8.8 0-17-8.6-17-17.4 0-9 8.2-17.2 17-17.2 9 0 16.8 8.2 16.8 17.4 0.2 9-8 17.2-16.8 17.2zM511.8 726c-27 0-47.6 20.4-47.8 48.2-0.4 27.8 20.4 49.6 47.6 49.6 26.8 0.2 47.6-21 47.8-48.4 0-28.4-20-49.4-47.6-49.4zM511.6 792.2c-8.8 0-17-8.6-17-17.4 0-9 8.2-17.2 17-17.2 9 0 16.8 8.2 16.8 17.4 0.2 9-8 17.2-16.8 17.2zM512 659.4c-64.2-0.2-112.8 49.6-112.8 115.4 0 65.6 49 115.8 112.6 115.8 63.4-0.2 112.2-50 112.2-115.2 0.2-66.4-47.8-115.8-112-116zM511.6 855.4c-45.8-0.2-78.6-34.4-78.2-81.6 0.2-46 33.2-79.4 78.6-79.2 46.2 0 78.2 33.4 78.2 81.2-0.4 45.8-33.8 79.6-78.6 79.6zM511.8 726c-27 0-47.6 20.4-47.8 48.2-0.4 27.8 20.4 49.6 47.6 49.6 26.8 0.2 47.6-21 47.8-48.4 0-28.4-20-49.4-47.6-49.4zM511.6 792.2c-8.8 0-17-8.6-17-17.4 0-9 8.2-17.2 17-17.2 9 0 16.8 8.2 16.8 17.4 0.2 9-8 17.2-16.8 17.2zM511.8 726c-27 0-47.6 20.4-47.8 48.2-0.4 27.8 20.4 49.6 47.6 49.6 26.8 0.2 47.6-21 47.8-48.4 0-28.4-20-49.4-47.6-49.4zM511.6 792.2c-8.8 0-17-8.6-17-17.4 0-9 8.2-17.2 17-17.2 9 0 16.8 8.2 16.8 17.4 0.2 9-8 17.2-16.8 17.2zM511.8 726c-27 0-47.6 20.4-47.8 48.2-0.4 27.8 20.4 49.6 47.6 49.6 26.8 0.2 47.6-21 47.8-48.4 0-28.4-20-49.4-47.6-49.4zM511.6 792.2c-8.8 0-17-8.6-17-17.4 0-9 8.2-17.2 17-17.2 9 0 16.8 8.2 16.8 17.4 0.2 9-8 17.2-16.8 17.2zM511.8 726c-27 0-47.6 20.4-47.8 48.2-0.4 27.8 20.4 49.6 47.6 49.6 26.8 0.2 47.6-21 47.8-48.4 0-28.4-20-49.4-47.6-49.4zM511.6 792.2c-8.8 0-17-8.6-17-17.4 0-9 8.2-17.2 17-17.2 9 0 16.8 8.2 16.8 17.4 0.2 9-8 17.2-16.8 17.2zM511.8 726c-27 0-47.6 20.4-47.8 48.2-0.4 27.8 20.4 49.6 47.6 49.6 26.8 0.2 47.6-21 47.8-48.4 0-28.4-20-49.4-47.6-49.4zM511.6 792.2c-8.8 0-17-8.6-17-17.4 0-9 8.2-17.2 17-17.2 9 0 16.8 8.2 16.8 17.4 0.2 9-8 17.2-16.8 17.2zM512 659.4c-64.2-0.2-112.8 49.6-112.8 115.4 0 65.6 49 115.8 112.6 115.8 63.4-0.2 112.2-50 112.2-115.2 0.2-66.4-47.8-115.8-112-116zM511.6 855.4c-45.8-0.2-78.6-34.4-78.2-81.6 0.2-46 33.2-79.4 78.6-79.2 46.2 0 78.2 33.4 78.2 81.2-0.4 45.8-33.8 79.6-78.6 79.6zM511.8 726c-27 0-47.6 20.4-47.8 48.2-0.4 27.8 20.4 49.6 47.6 49.6 26.8 0.2 47.6-21 47.8-48.4 0-28.4-20-49.4-47.6-49.4zM511.6 792.2c-8.8 0-17-8.6-17-17.4 0-9 8.2-17.2 17-17.2 9 0 16.8 8.2 16.8 17.4 0.2 9-8 17.2-16.8 17.2zM511.8 726c-27 0-47.6 20.4-47.8 48.2-0.4 27.8 20.4 49.6 47.6 49.6 26.8 0.2 47.6-21 47.8-48.4 0-28.4-20-49.4-47.6-49.4zM511.6 792.2c-8.8 0-17-8.6-17-17.4 0-9 8.2-17.2 17-17.2 9 0 16.8 8.2 16.8 17.4 0.2 9-8 17.2-16.8 17.2zM511.8 726c-27 0-47.6 20.4-47.8 48.2-0.4 27.8 20.4 49.6 47.6 49.6 26.8 0.2 47.6-21 47.8-48.4 0-28.4-20-49.4-47.6-49.4zM511.6 792.2c-8.8 0-17-8.6-17-17.4 0-9 8.2-17.2 17-17.2 9 0 16.8 8.2 16.8 17.4 0.2 9-8 17.2-16.8 17.2zM705.2 232.2c14.4 0 14.4 0 14.4 17.8 0 17.2 0 17.2-15.8 17.2-14.8 0-14.8 0-14.8-16.6 0-18.4 0-18.4 16.2-18.4zM767.2 232.2c17.2 0 17.2 0 17.2 17.6 0 17.4 0 17.4-17.4 17.4-16.8 0-16.8 0-16.8-17.2 0-17.8 0-17.8 17-17.8zM767.2 232.2c17.2 0 17.2 0 17.2 17.6 0 17.4 0 17.4-17.4 17.4-16.8 0-16.8 0-16.8-17.2 0-17.8 0-17.8 17-17.8zM705.2 232.2c14.4 0 14.4 0 14.4 17.8 0 17.2 0 17.2-15.8 17.2-14.8 0-14.8 0-14.8-16.6 0-18.4 0-18.4 16.2-18.4zM511.8 726c-27 0-47.6 20.4-47.8 48.2-0.4 27.8 20.4 49.6 47.6 49.6 26.8 0.2 47.6-21 47.8-48.4 0-28.4-20-49.4-47.6-49.4zM511.6 792.2c-8.8 0-17-8.6-17-17.4 0-9 8.2-17.2 17-17.2 9 0 16.8 8.2 16.8 17.4 0.2 9-8 17.2-16.8 17.2zM511.8 726c-27 0-47.6 20.4-47.8 48.2-0.4 27.8 20.4 49.6 47.6 49.6 26.8 0.2 47.6-21 47.8-48.4 0-28.4-20-49.4-47.6-49.4zM511.6 792.2c-8.8 0-17-8.6-17-17.4 0-9 8.2-17.2 17-17.2 9 0 16.8 8.2 16.8 17.4 0.2 9-8 17.2-16.8 17.2zM512 659.4c-64.2-0.2-112.8 49.6-112.8 115.4 0 65.6 49 115.8 112.6 115.8 63.4-0.2 112.2-50 112.2-115.2 0.2-66.4-47.8-115.8-112-116zM511.6 855.4c-45.8-0.2-78.6-34.4-78.2-81.6 0.2-46 33.2-79.4 78.6-79.2 46.2 0 78.2 33.4 78.2 81.2-0.4 45.8-33.8 79.6-78.6 79.6zM511.8 726c-27 0-47.6 20.4-47.8 48.2-0.4 27.8 20.4 49.6 47.6 49.6 26.8 0.2 47.6-21 47.8-48.4 0-28.4-20-49.4-47.6-49.4zM511.6 792.2c-8.8 0-17-8.6-17-17.4 0-9 8.2-17.2 17-17.2 9 0 16.8 8.2 16.8 17.4 0.2 9-8 17.2-16.8 17.2zM511.8 726c-27 0-47.6 20.4-47.8 48.2-0.4 27.8 20.4 49.6 47.6 49.6 26.8 0.2 47.6-21 47.8-48.4 0-28.4-20-49.4-47.6-49.4zM511.6 792.2c-8.8 0-17-8.6-17-17.4 0-9 8.2-17.2 17-17.2 9 0 16.8 8.2 16.8 17.4 0.2 9-8 17.2-16.8 17.2zM511.8 726c-27 0-47.6 20.4-47.8 48.2-0.4 27.8 20.4 49.6 47.6 49.6 26.8 0.2 47.6-21 47.8-48.4 0-28.4-20-49.4-47.6-49.4zM511.6 792.2c-8.8 0-17-8.6-17-17.4 0-9 8.2-17.2 17-17.2 9 0 16.8 8.2 16.8 17.4 0.2 9-8 17.2-16.8 17.2zM511.8 726c-27 0-47.6 20.4-47.8 48.2-0.4 27.8 20.4 49.6 47.6 49.6 26.8 0.2 47.6-21 47.8-48.4 0-28.4-20-49.4-47.6-49.4zM511.6 792.2c-8.8 0-17-8.6-17-17.4 0-9 8.2-17.2 17-17.2 9 0 16.8 8.2 16.8 17.4 0.2 9-8 17.2-16.8 17.2zM511.8 726c-27 0-47.6 20.4-47.8 48.2-0.4 27.8 20.4 49.6 47.6 49.6 26.8 0.2 47.6-21 47.8-48.4 0-28.4-20-49.4-47.6-49.4zM511.6 792.2c-8.8 0-17-8.6-17-17.4 0-9 8.2-17.2 17-17.2 9 0 16.8 8.2 16.8 17.4 0.2 9-8 17.2-16.8 17.2zM512 659.4c-64.2-0.2-112.8 49.6-112.8 115.4 0 65.6 49 115.8 112.6 115.8 63.4-0.2 112.2-50 112.2-115.2 0.2-66.4-47.8-115.8-112-116zM511.6 855.4c-45.8-0.2-78.6-34.4-78.2-81.6 0.2-46 33.2-79.4 78.6-79.2 46.2 0 78.2 33.4 78.2 81.2-0.4 45.8-33.8 79.6-78.6 79.6zM511.8 726c-27 0-47.6 20.4-47.8 48.2-0.4 27.8 20.4 49.6 47.6 49.6 26.8 0.2 47.6-21 47.8-48.4 0-28.4-20-49.4-47.6-49.4zM511.6 792.2c-8.8 0-17-8.6-17-17.4 0-9 8.2-17.2 17-17.2 9 0 16.8 8.2 16.8 17.4 0.2 9-8 17.2-16.8 17.2zM511.8 726c-27 0-47.6 20.4-47.8 48.2-0.4 27.8 20.4 49.6 47.6 49.6 26.8 0.2 47.6-21 47.8-48.4 0-28.4-20-49.4-47.6-49.4zM511.6 792.2c-8.8 0-17-8.6-17-17.4 0-9 8.2-17.2 17-17.2 9 0 16.8 8.2 16.8 17.4 0.2 9-8 17.2-16.8 17.2zM511.8 726c-27 0-47.6 20.4-47.8 48.2-0.4 27.8 20.4 49.6 47.6 49.6 26.8 0.2 47.6-21 47.8-48.4 0-28.4-20-49.4-47.6-49.4zM511.6 792.2c-8.8 0-17-8.6-17-17.4 0-9 8.2-17.2 17-17.2 9 0 16.8 8.2 16.8 17.4 0.2 9-8 17.2-16.8 17.2zM705.2 232.2c14.4 0 14.4 0 14.4 17.8 0 17.2 0 17.2-15.8 17.2-14.8 0-14.8 0-14.8-16.6 0-18.4 0-18.4 16.2-18.4zM767.2 232.2c17.2 0 17.2 0 17.2 17.6 0 17.4 0 17.4-17.4 17.4-16.8 0-16.8 0-16.8-17.2 0-17.8 0-17.8 17-17.8zM767.2 232.2c17.2 0 17.2 0 17.2 17.6 0 17.4 0 17.4-17.4 17.4-16.8 0-16.8 0-16.8-17.2 0-17.8 0-17.8 17-17.8zM705.2 232.2c14.4 0 14.4 0 14.4 17.8 0 17.2 0 17.2-15.8 17.2-14.8 0-14.8 0-14.8-16.6 0-18.4 0-18.4 16.2-18.4zM511.8 726c-27 0-47.6 20.4-47.8 48.2-0.4 27.8 20.4 49.6 47.6 49.6 26.8 0.2 47.6-21 47.8-48.4 0-28.4-20-49.4-47.6-49.4zM511.6 792.2c-8.8 0-17-8.6-17-17.4 0-9 8.2-17.2 17-17.2 9 0 16.8 8.2 16.8 17.4 0.2 9-8 17.2-16.8 17.2zM511.8 726c-27 0-47.6 20.4-47.8 48.2-0.4 27.8 20.4 49.6 47.6 49.6 26.8 0.2 47.6-21 47.8-48.4 0-28.4-20-49.4-47.6-49.4zM511.6 792.2c-8.8 0-17-8.6-17-17.4 0-9 8.2-17.2 17-17.2 9 0 16.8 8.2 16.8 17.4 0.2 9-8 17.2-16.8 17.2zM512 659.4c-64.2-0.2-112.8 49.6-112.8 115.4 0 65.6 49 115.8 112.6 115.8 63.4-0.2 112.2-50 112.2-115.2 0.2-66.4-47.8-115.8-112-116zM511.6 855.4c-45.8-0.2-78.6-34.4-78.2-81.6 0.2-46 33.2-79.4 78.6-79.2 46.2 0 78.2 33.4 78.2 81.2-0.4 45.8-33.8 79.6-78.6 79.6zM511.8 726c-27 0-47.6 20.4-47.8 48.2-0.4 27.8 20.4 49.6 47.6 49.6 26.8 0.2 47.6-21 47.8-48.4 0-28.4-20-49.4-47.6-49.4zM511.6 792.2c-8.8 0-17-8.6-17-17.4 0-9 8.2-17.2 17-17.2 9 0 16.8 8.2 16.8 17.4 0.2 9-8 17.2-16.8 17.2zM511.8 726c-27 0-47.6 20.4-47.8 48.2-0.4 27.8 20.4 49.6 47.6 49.6 26.8 0.2 47.6-21 47.8-48.4 0-28.4-20-49.4-47.6-49.4zM511.6 792.2c-8.8 0-17-8.6-17-17.4 0-9 8.2-17.2 17-17.2 9 0 16.8 8.2 16.8 17.4 0.2 9-8 17.2-16.8 17.2zM511.8 726c-27 0-47.6 20.4-47.8 48.2-0.4 27.8 20.4 49.6 47.6 49.6 26.8 0.2 47.6-21 47.8-48.4 0-28.4-20-49.4-47.6-49.4zM511.6 792.2c-8.8 0-17-8.6-17-17.4 0-9 8.2-17.2 17-17.2 9 0 16.8 8.2 16.8 17.4 0.2 9-8 17.2-16.8 17.2zM705.2 232.2c14.4 0 14.4 0 14.4 17.8 0 17.2 0 17.2-15.8 17.2-14.8 0-14.8 0-14.8-16.6 0-18.4 0-18.4 16.2-18.4zM767.2 232.2c17.2 0 17.2 0 17.2 17.6 0 17.4 0 17.4-17.4 17.4-16.8 0-16.8 0-16.8-17.2 0-17.8 0-17.8 17-17.8zM767.2 232.2c17.2 0 17.2 0 17.2 17.6 0 17.4 0 17.4-17.4 17.4-16.8 0-16.8 0-16.8-17.2 0-17.8 0-17.8 17-17.8zM705.2 232.2c14.4 0 14.4 0 14.4 17.8 0 17.2 0 17.2-15.8 17.2-14.8 0-14.8 0-14.8-16.6 0-18.4 0-18.4 16.2-18.4z"></path>
<path fill="#000" d="M512 659.4c-64.2-0.2-112.8 49.6-112.8 115.4 0 65.6 49 115.8 112.6 115.8 63.4-0.2 112.2-50 112.2-115.2 0.2-66.4-47.8-115.8-112-116zM511.6 855.4c-45.8-0.2-78.6-34.4-78.2-81.6 0.2-46 33.2-79.4 78.6-79.2 46.2 0 78.2 33.4 78.2 81.2-0.4 45.8-33.8 79.6-78.6 79.6z"></path>
<path fill="#000" d="M784.4 249.6c0 17.4 0 17.4-17.4 17.4-16.8 0-16.8 0-16.8-17.2 0-17.8 0-17.8 17-17.8 17.2 0.2 17.2 0.2 17.2 17.6z"></path>
<path fill="#000" d="M719.6 249.8c0 17.2 0 17.2-15.8 17.2-14.8 0-14.8 0-14.8-16.6 0-18.4 0-18.4 16.2-18.4 14.4 0.2 14.4 0.2 14.4 17.8z"></path>
<path fill="#000" d="M511.8 726c-27 0-47.6 20.4-47.8 48.2-0.4 27.8 20.4 49.6 47.6 49.6 26.8 0.2 47.6-21 47.8-48.4 0-28.4-20-49.4-47.6-49.4zM511.6 792.2c-8.8 0-17-8.6-17-17.4 0-9 8.2-17.2 17-17.2 9 0 16.8 8.2 16.8 17.4 0.2 9-8 17.2-16.8 17.2z"></path>
</svg>
