<!-- Generated by IcoMoon.io -->
<svg version="1.1" xmlns="http://www.w3.org/2000/svg" width="1024" height="1024" viewBox="0 0 1024 1024">
<g id="icomoon-ignore">
</g>
<path fill="#000" d="M441.8 573.8c-5 5.6-10.2 10.8-16.8 17.8 17.6 0 33-0.4 48.4 0.2 22 0.6 37.4 24.2 28.6 44.2-6 13.6-17.8 20.2-32 20.4-44.8 0.6-89.6 0.4-134.4 0-16.8 0-28.4-8.4-32.8-21.8-4.6-14.4 1-32.6 14-42 33.6-24.2 63.8-51.8 90.2-83.8 10.4-12.8 20.4-25.8 26.4-41.4 7.8-20.4-1.4-39.2-21.2-44.4-17.8-4.6-43.8 6.6-44.6 31.4s-21 38.4-43.8 30.8c-13-4.4-20.8-15.4-20.8-30 0-40.2 16.8-71.8 52.8-90 38.4-19.4 76.4-15.6 110.8 11 35 27 47 72 31.2 113.6-12.4 32.2-33.2 58.6-56 84z"></path>
<path fill="#000" d="M763.4 647.8c-12 9.2-24.4 10.8-38.2 4.2-13.4-6.4-19-17.2-18.8-31.6 0.2-18.8-0.4-37.6 0.2-56.4 0.2-7.8-2.2-9.2-9.4-9-29.8 0.4-59.8 0.2-89.6 0.2-22.6 0-34.4-11.8-34.4-34.2-0.2-44.8 0.2-89.6 0-134.4-0.2-30 29.2-39 48.4-29.2 12.6 6.4 16.6 17.6 16.6 30.8 0 29.6 0 59.2 0 88.8 0 10 0 10 10.2 10 17.2 0 34.6-0.2 51.8 0.2 5 0 6.4-1.2 6.4-6.4-0.2-30.6-0.2-61.2 0-91.8 0.2-22 16-36.4 38-34.8 15.2 1 28.2 13.2 30 28.2 0.4 3.6 0.6 7.2 0.6 10.8 0 37.6 0 75.2 0 112.8 0 38 0 76.2 0 114.2 0 10.6-2.6 20.4-11.8 27.6z"></path>
<path fill="#000" d="M896.4 289.6c0-18.2 14.2-31.6 33.6-31.6 20.6 0 34 13.4 33.8 33.8-0.2 18.8-15.6 33.8-34.8 33.8-17.4 0.2-32.6-16.6-32.6-36z"></path>
<path fill="#000" d="M978.2 384.8c18 0 32.6 16 32.2 35.2-0.4 19.6-13.4 33-32 32.8-19.8-0.2-35.4-16.2-35-36.2 0.2-17.4 16-31.8 34.8-31.8z"></path>
<path fill="#000" d="M839.6 216.2c-39 8.4-78 16.6-117 24.6-9.2 2-18.2 5-28 3.4-18.2-3-31.2-16.4-32.2-34.2-0.8-15 12.2-30.6 29-34.2 19.4-4.2 38.8-8.2 58-12.2 2-0.4 3.8-1 6.6-1.8-31.8-22-64.4-40-99.8-53-61-22.8-124.2-31.2-188.8-26.4-95.8 7.2-179.2 44.8-251 108.2-76.2 67.4-121 152.2-138.8 251.6-13 72.8-4.8 144 19.8 213.4 30 84.8 81.6 153.8 154.2 207 51.6 37.8 108.8 62.8 171.6 74.8 22.2 4.2 44.8 6.4 67.6 6.8 9 0.2 17.4 1.8 24.4 8 10.2 9.4 13.6 25.2 8 39.2-5.8 14.8-16.8 22.4-32.8 22-71-2.4-139.2-17.8-202.8-49.8-97.2-48.8-173.6-119.8-224.2-216.8-27.4-52.8-45.4-109-52.8-168.2-16.6-130.6 11.6-251.2 88.2-358.2 76.2-106.6 180.8-173 309.4-198.2 131.6-25.8 255.2-3 368 71.2 1.2 0.8 2.6 1.6 4 2.4 0.2 0.2 0.4 0.2 1.8 0.4-3.4-14-6.8-27-10-40.2-4-17 1.8-31.8 15.8-39.8 18.8-10.8 46.6 0.6 51.4 21.8 5 22.6 8.8 45.4 13 68.2 4.4 24 9 48 13.2 72 3.2 19.4-6.4 33.8-25.8 38z"></path>
<path fill="#000" d="M502 635.8c-6 13.6-17.8 20.2-32 20.4-44.8 0.6-89.6 0.4-134.4 0-16.8 0-28.4-8.4-32.8-21.8-4.6-14.4 1-32.6 14-42 33.6-24.2 63.8-51.8 90.2-83.8 10.4-12.8 20.4-25.8 26.4-41.4 7.8-20.4-1.4-39.2-21.2-44.4-17.8-4.6-43.8 6.6-44.6 31.4s-21 38.4-43.8 30.8c-13-4.4-20.8-15.4-20.8-30 0-40.2 16.8-71.8 52.8-90 38.4-19.4 76.4-15.6 110.8 11 35 27 47 72 31.2 113.6-12.2 32.4-33.2 59-55.8 84.2-5 5.6-10.2 10.8-16.8 17.8 17.6 0 33-0.4 48.4 0.2 21.8 0.6 37.2 24.2 28.4 44z"></path>
<path fill="#000" d="M775.2 505.4c0 38 0 76.2 0 114.2 0 11-2.4 20.8-11.8 28-12 9.2-24.4 10.8-38.2 4.2-13.4-6.4-19-17.2-18.8-31.6 0.2-18.8-0.4-37.6 0.2-56.4 0.2-7.8-2.2-9.2-9.4-9-29.8 0.4-59.8 0.2-89.6 0.2-22.6 0-34.4-11.8-34.4-34.2-0.2-44.8 0.2-89.6 0-134.4-0.2-30 29.2-39 48.4-29.2 12.6 6.4 16.6 17.6 16.6 30.8 0 29.6 0 59.2 0 88.8 0 10 0 10 10.2 10 17.2 0 34.6-0.2 51.8 0.2 5 0 6.4-1.2 6.4-6.4-0.2-30.6-0.2-61.2 0-91.8 0.2-22 16-36.4 38-34.8 15.2 1 28.2 13.2 30 28.2 0.4 3.6 0.6 7.2 0.6 10.8 0 37.4 0 74.8 0 112.4z"></path>
<path fill="#000" d="M1020 552.4c0.2 17-19.2 35-37.6 35-17.6 0-32.6-16.8-32.6-36.2 0-16.2 17.4-33.4 33.2-33.2 19.6 0.4 36.8 16.6 37 34.4z"></path>
<path fill="#000" d="M700 953c0.4 19.8-13.2 35-31.8 35.4s-37.4-16.6-37.6-33.8c-0.4-18.8 15.4-33.6 36.2-34 18-0.2 32.8 14 33.2 32.4z"></path>
<path fill="#000" d="M988.6 685.2c0 18.6-16.6 33.4-37.2 33.4-17.6 0-33.4-16.2-33.2-34 0.2-18 15.6-33 34-32.8 20.2 0.2 36.6 15.2 36.4 33.4z"></path>
<path fill="#000" d="M964 291.8c-0.2 18.8-15.6 33.8-34.8 33.8-17.6 0-33-16.8-32.8-36 0-18.2 14.2-31.6 33.6-31.6 20.6 0 34 13.6 34 33.8z"></path>
<path fill="#000" d="M1010.6 420c-0.4 19.6-13.4 33-32 32.8-19.8-0.2-35.4-16.2-35-36.2 0.2-17.4 16-31.8 35-31.8 17.6 0 32.2 16 32 35.2z"></path>
<path fill="#000" d="M820 894.4c0 18.4-14.8 32.4-34 32.4-19.4 0-35.2-15.6-35-34.4 0.4-17 16-30.6 35.2-30.4 19.8 0.2 34 13.8 33.8 32.4z"></path>
<path fill="#000" d="M917.8 802.6c-0.2 16.6-16.4 32.2-33.2 32-17.8-0.4-32.6-16.2-32.2-34.4 0.4-16.8 16.2-31 34-30.6 15.8 0.2 31.4 16.8 31.4 33z"></path>
</svg>
