<!-- Generated by IcoMoon.io -->
<svg version="1.1" xmlns="http://www.w3.org/2000/svg" width="1024" height="1024" viewBox="0 0 1024 1024">
<g id="icomoon-ignore">
</g>
<path fill="#000" d="M249.8 863.6c0.4-2 0-4 0-6.2 0-16 0-16.2 15.8-15.6 43.2 1.6 83.2 12.6 116.4 41.8 8.8 7.8 16.2 16.6 22.4 26.6 2.2 3.4 2.4 5.6-2 7-0.6 0.2-1 0.6-1.6 0.8-6.4 3.2-12.8 8.6-19.6 9.2-7.8 0.8-9.4-9.4-14.4-14-22.4-21-49.8-30.4-78.8-36.2-9.6-2-19.6-4-29.4-3.4-8 0.4-10-2.8-8.8-10z"></path>
<path fill="#000" d="M249.8 766.6c0.4-2.2 0-4.6 0-7 0-15.8 0-16 13.8-16.8 62.8-3.6 110.2-33.2 144-85.8 9-14 17-28.4 22-44.4 1.4-4.6 3.4-6.2 8.2-4.4 1.8 0.8 4 0.8 6 1.2 20.4 4.4 21.4 5 13 24.6-33 75.2-86.4 125.6-170.6 138-9.2 1.4-18.6 0.8-27.8 2.4-7.4 1.6-9.6-1-8.6-7.8z"></path>
<path fill="#000" d="M1019 897.8c0-263.2 0-526.4 0-789.4 0-2 0.2-4 0.2-6.2-0.6-13.4-2.2-26.8-8-39-17.8-37.6-47.6-57.2-89.2-57.2-142.4-0.2-285-0.2-427.4 0-5 0-10 0.2-14.8 1-49.2 8.4-82.8 48-83 98.4-0.2 57.4-0.2 114.8 0 172.2 0 5.4-1 8.8-6.2 11.8-17 10.6-26 26-25.6 46.6 0.4 19 0.2 37.8 0 56.8 0 3.8-0.4 7.6-1 11.2-6.2 39.6-29 68.4-61 90.8-24.2 16.8-50.4 30-77.6 41.2-29.2 11.8-56.2 27-77.6 50.4-4.8 5.2-9.6 7.2-16.6 7.2-39.6-0.4-79.2 0-118.8-0.4-6.2 0-8 1.8-7.6 7.8 0.6 6.4 0.6 12.8 0 19.2s1.4 8.4 8 8.4c47.4-0.4 95-0.2 142.4 0 5 0 7.8-1.2 10-6 6.6-14 17.2-24.6 30.4-33 14.8-9.4 30.2-17.4 45.8-25.4 22.8-11.6 46.8-20.6 68.8-33.8 56-33.6 87-81.8 86.2-148.4-0.2-15.8 0-31.4 0-47.2 0-9 7-16.8 16-17.4 4.2-0.2 8.8 0 13 1 23 5.2 37.2 23.4 37.4 48.2 0.2 42.2 0.2 84.4 0 126.8 0 16 5.6 29.6 17.4 40.4 19.8 17.6 42.4 28.4 69.4 28.2 35.2-0.2 70.6 0 105.8 0 18 0 34.6 4 48 17 21.4 20.6 27 45.4 17.4 72.8-8.6 24.2-26.8 39.6-53 42-36.4 3.2-72.8 0.8-109.2 1.2-5.4 0-10.2-2.2-14.6-5.2-12-8.4-17.6-25-13.2-39.6 4-13.8 14.8-21.2 31.2-21.4 29.8-0.2 59.4-0.2 89.2 0 6.2 0 8-1.8 7.6-7.8-0.4-7.2-0.4-14.6 0-21.8 0.2-4-1-5.6-5.4-5.6-32.4 0.2-64.6 0-97 0.4-32.8 0.6-57.2 27-61.2 56.6-3.2 23.8 3.8 43.4 23.4 58.2-14.8 13.6-23.8 29.4-24.2 49.2-0.4 20.2 8 36.2 24.2 48.6-1.6 1.8-2.8 3.2-4 4.4-26.8 27.8-27.2 65 0 92.6 4.4 4.6 2.6 5.8-0.8 9-20 18.8-24.6 43.6-12.8 68.4 1 2.2 3.2 4.2 2.4 7.4-38.6 0-77.4 0.2-116 0-18.8-0.2-37-3.4-55.2-7.4-29.4-6.6-56.2-20.4-83.4-32.8-36.2-16.6-73.2-27.2-113.6-26-34.6 1-69.4 0.2-104 0.2-8.4 0-19.6-2.8-24.4 1.4-5.4 5-1 16.4-1.8 25-0.8 6.8 1.6 8.8 8.6 8.6 44.2-0.4 88.6-0.2 132.8-0.2 8.2 0 16.4 0.4 24.4 1.2 30.6 3.2 58.6 14.2 85.6 28.2 39.4 20.4 81.2 32.6 125.4 33 103.4 1 206.8 0.8 310.4 0.4 31.8 0 60.2-24.8 63.8-54.8 0.8-7.2 3.6-8 9.6-8 66.4 0.2 132.8 0.2 199.4 0 9 0 18-0.4 26.2-5 18.2-10.4 27-26.6 28.2-47.2-0.2-2.6-0.4-4.8-0.4-7.2zM690.8 988.4c-21.6 0.2-43.2 0-64.6 0-21 0-42 0.2-63 0-19-0.2-33.4-14.4-33.6-32.8-0.2-18.8 14-33.4 33.6-33.6 42.8-0.2 85.6-0.2 128.4 0 17.6 0 33.8 16.4 33.6 33.4s-16.8 33-34.4 33zM691 890.4c-21.2 0.2-42.6 0-63.8 0s-42.6 0-63.8 0c-19.8-0.2-33.8-14.6-33.8-34.4 0-17.6 14.6-31.8 33.4-31.8 42.8-0.2 85.6-0.2 128.4 0 17.6 0 34 16.6 33.8 33.4s-16.6 32.8-34.2 32.8zM691.2 792.6c-43 0.2-86.2 0.2-129.2 0-17.2 0-30.2-12.6-32.2-30.4-2-16.4 6.6-30 21.2-34.6 4.2-1.4 8.6-1.2 13-1.2 21 0 41.8 0 62.8 0 21.6 0 43 0 64.6 0 19.2 0 33.8 13.8 33.8 31.2 0 18.2-15.8 35-34 35zM547.6 530.4c-17.8 0-32.8-7-45.6-18.8-5.2-4.8-7.4-11-7.4-18 0-127.8 0-255.8-0.2-383.6 0-7.4 4.2-6 8.2-6 102.2 0 204.4 0 306.8 0 34 0 68.2 0.4 102.2-0.2 8.4-0.2 9.6 2.6 9.6 10.2-0.2 67.8-0.2 135.8-0.2 203.6 0 68.2 0 136.4 0.2 204.4 0 6.6-1.4 8.8-8.4 8.8-121.8-0.6-243.4-0.4-365.2-0.4zM987.6 314.4v582.2c0 20-5.4 25.6-25.2 25.6-67.8 0-135.8-0.4-203.6 0.4-10.8 0-15-7.4-21-13-2.8-2.6 1-4.6 2.4-6.2 18-21.8 21-46 11.8-72-2.6-7.6-6.6-14.2-12.2-20-2.8-3-3.2-5 0-8.4 27.2-29.6 21.8-76.4-11.2-99.2-0.6-0.4-1.2-1.2-2.4-2.2 19.6-18.2 30.4-40.6 30.8-67.6 0.4-26-6.2-50-23.2-70.6 3.6-2 6.8-1.2 10-1.2 56.8 0 113.6 0 170.4 0 3.4 0 7 0 10.4-0.2 15.4-1.2 32.2-12.8 32-34.6-0.6-65.8-0.2-131.6-0.2-197.6 0-73.4 0-146.8 0-220.2 0-26.6-13.8-40.4-40.4-40.4-138.6 0-277.4 0-416 0-23.6 0-36.6 13-36.6 36.8-0.2 60.8 0 121.8 0 182.6v10.8c-7.8-4.8-13.8-9.6-21-10.6-10.2-1.4-10.8-7.2-10.6-15.6 0.4-55.4 0.2-110.8 0.2-166 0-22.8 8-41.8 26-56.6 9.2-7.4 19.6-11.4 31-12.8 2.8-0.4 5.8-0.4 8.8-0.4 140.8 0 281.4 0 422.2 0 23 0 41.8 8.6 55.6 27.2 9.4 12.8 12.4 27.2 12.4 42.8-0.4 68.8-0.4 137.8-0.4 207zM854.2 407.2c1.4-22.8 0.2-46 0.2-80-0.8-15 2-40.8-1.4-66.8-8.4-68.6-75-142-175-122.2-66.8 13.4-115.6 73.6-116.8 141.6-0.8 40.4-0.6 81 0 121.4 0.8 46.4 38 88.2 84 92.6 41.4 3.8 83.4 3.8 124.8 0.2 46.4-4.2 81.2-40.6 84.2-86.8zM651 462.6c-32.6-2.8-57.8-29.4-58.2-62.2-0.6-40.8-1-81.6 0-122.4 1.2-50 38.8-92.8 90.4-105.2 61-14.6 122.8 23.2 137.4 84 4 17 2.4 34.2 2.8 51.4 0.2 10 0 19.8 0 29.6 0 18.4 0 36.6 0 55 0 41.2-23.6 68.2-64.8 70.2-36 2-71.8 2.8-107.6-0.4zM791.8 283.8c-0.2 13.2-0.4 26.2 0.4 39 0.2 7-2 8.4-8.4 8-7-0.4-14-0.4-21 0-4.8 0.2-6-1.4-6-6 0.2-13.6 0.2-27.4 0-41-0.2-28.4-21.8-51-48.8-51-26.8 0-48.8 22.6-49 51-0.2 35.4-0.2 70.6 0 105.8 0 6-1.4 8.4-7.6 7.8-5.6-0.6-11.2-0.6-16.6 0-6.6 0.6-7.8-2.2-7.6-8 0.4-18.6 0.2-37.2 0.2-59.8 0.8-17-2.2-38.2 1.2-58.8 5.8-33.8 26.4-56.6 58.6-66 33.6-9.8 62.6 0.6 85.6 27 12.8 14.8 19.4 32.2 19 52zM723.8 269.4c4.8 4 1.4 14.2 1.6 21.6 0.2 19.8 0 39.6 0 59.4 0 24.6-0.2 49.4 0.2 74.2 0 6-1.6 8.4-7.8 7.6-7.6-1-18 3.2-22.4-1.8-3.8-4.2-1.4-14.2-1.4-21.8 0-44.2 0.2-88.6-0.2-132.8 0-6.6 1.6-8.6 8.2-8 7.4 0.8 17.2-2.2 21.8 1.6zM725.4 350.6c0 24.6-0.2 49.4 0.4 74.2 0 6-1.6 8.4-7.8 7.6-7.6-1-18 3.2-22.4-1.8-3.8-4.2-1.4-14.2-1.4-21.8 0-44.2 0.2-88.6-0.2-132.8 0-6.6 1.6-8.6 8.2-8 7.4 0.8 17.2-2.2 21.8 1.6 4.8 4 1.4 14.2 1.4 21.6 0.2 19.8 0 39.6 0 59.4zM791.8 283.8c-0.2 13.2-0.4 26.2 0.4 39 0.2 7-2 8.4-8.4 8-7-0.4-14-0.4-21 0-4.8 0.2-6-1.4-6-6 0.2-13.6 0.2-27.4 0-41-0.2-28.4-21.8-51-48.8-51-26.8 0-48.8 22.6-49 51-0.2 35.4-0.2 70.6 0 105.8 0 6-1.4 8.4-7.6 7.8-5.6-0.6-11.2-0.6-16.6 0-6.6 0.6-7.8-2.2-7.6-8 0.4-18.6 0.2-37.2 0.2-59.8 0.8-17-2.2-38.2 1.2-58.8 5.8-33.8 26.4-56.6 58.6-66 33.6-9.8 62.6 0.6 85.6 27 12.8 14.8 19.4 32.2 19 52zM791.8 283.8c-0.2 13.2-0.4 26.2 0.4 39 0.2 7-2 8.4-8.4 8-7-0.4-14-0.4-21 0-4.8 0.2-6-1.4-6-6 0.2-13.6 0.2-27.4 0-41-0.2-28.4-21.8-51-48.8-51-26.8 0-48.8 22.6-49 51-0.2 35.4-0.2 70.6 0 105.8 0 6-1.4 8.4-7.6 7.8-5.6-0.6-11.2-0.6-16.6 0-6.6 0.6-7.8-2.2-7.6-8 0.4-18.6 0.2-37.2 0.2-59.8 0.8-17-2.2-38.2 1.2-58.8 5.8-33.8 26.4-56.6 58.6-66 33.6-9.8 62.6 0.6 85.6 27 12.8 14.8 19.4 32.2 19 52zM725.4 350.6c0 24.6-0.2 49.4 0.4 74.2 0 6-1.6 8.4-7.8 7.6-7.6-1-18 3.2-22.4-1.8-3.8-4.2-1.4-14.2-1.4-21.8 0-44.2 0.2-88.6-0.2-132.8 0-6.6 1.6-8.6 8.2-8 7.4 0.8 17.2-2.2 21.8 1.6 4.8 4 1.4 14.2 1.4 21.6 0.2 19.8 0 39.6 0 59.4zM725.4 350.6c0 24.6-0.2 49.4 0.4 74.2 0 6-1.6 8.4-7.8 7.6-7.6-1-18 3.2-22.4-1.8-3.8-4.2-1.4-14.2-1.4-21.8 0-44.2 0.2-88.6-0.2-132.8 0-6.6 1.6-8.6 8.2-8 7.4 0.8 17.2-2.2 21.8 1.6 4.8 4 1.4 14.2 1.4 21.6 0.2 19.8 0 39.6 0 59.4zM791.8 283.8c-0.2 13.2-0.4 26.2 0.4 39 0.2 7-2 8.4-8.4 8-7-0.4-14-0.4-21 0-4.8 0.2-6-1.4-6-6 0.2-13.6 0.2-27.4 0-41-0.2-28.4-21.8-51-48.8-51-26.8 0-48.8 22.6-49 51-0.2 35.4-0.2 70.6 0 105.8 0 6-1.4 8.4-7.6 7.8-5.6-0.6-11.2-0.6-16.6 0-6.6 0.6-7.8-2.2-7.6-8 0.4-18.6 0.2-37.2 0.2-59.8 0.8-17-2.2-38.2 1.2-58.8 5.8-33.8 26.4-56.6 58.6-66 33.6-9.8 62.6 0.6 85.6 27 12.8 14.8 19.4 32.2 19 52zM791.8 283.8c-0.2 13.2-0.4 26.2 0.4 39 0.2 7-2 8.4-8.4 8-7-0.4-14-0.4-21 0-4.8 0.2-6-1.4-6-6 0.2-13.6 0.2-27.4 0-41-0.2-28.4-21.8-51-48.8-51-26.8 0-48.8 22.6-49 51-0.2 35.4-0.2 70.6 0 105.8 0 6-1.4 8.4-7.6 7.8-5.6-0.6-11.2-0.6-16.6 0-6.6 0.6-7.8-2.2-7.6-8 0.4-18.6 0.2-37.2 0.2-59.8 0.8-17-2.2-38.2 1.2-58.8 5.8-33.8 26.4-56.6 58.6-66 33.6-9.8 62.6 0.6 85.6 27 12.8 14.8 19.4 32.2 19 52zM725.4 350.6c0 24.6-0.2 49.4 0.4 74.2 0 6-1.6 8.4-7.8 7.6-7.6-1-18 3.2-22.4-1.8-3.8-4.2-1.4-14.2-1.4-21.8 0-44.2 0.2-88.6-0.2-132.8 0-6.6 1.6-8.6 8.2-8 7.4 0.8 17.2-2.2 21.8 1.6 4.8 4 1.4 14.2 1.4 21.6 0.2 19.8 0 39.6 0 59.4zM725.4 350.6c0 24.6-0.2 49.4 0.4 74.2 0 6-1.6 8.4-7.8 7.6-7.6-1-18 3.2-22.4-1.8-3.8-4.2-1.4-14.2-1.4-21.8 0-44.2 0.2-88.6-0.2-132.8 0-6.6 1.6-8.6 8.2-8 7.4 0.8 17.2-2.2 21.8 1.6 4.8 4 1.4 14.2 1.4 21.6 0.2 19.8 0 39.6 0 59.4zM791.8 283.8c-0.2 13.2-0.4 26.2 0.4 39 0.2 7-2 8.4-8.4 8-7-0.4-14-0.4-21 0-4.8 0.2-6-1.4-6-6 0.2-13.6 0.2-27.4 0-41-0.2-28.4-21.8-51-48.8-51-26.8 0-48.8 22.6-49 51-0.2 35.4-0.2 70.6 0 105.8 0 6-1.4 8.4-7.6 7.8-5.6-0.6-11.2-0.6-16.6 0-6.6 0.6-7.8-2.2-7.6-8 0.4-18.6 0.2-37.2 0.2-59.8 0.8-17-2.2-38.2 1.2-58.8 5.8-33.8 26.4-56.6 58.6-66 33.6-9.8 62.6 0.6 85.6 27 12.8 14.8 19.4 32.2 19 52zM791.8 283.8c-0.2 13.2-0.4 26.2 0.4 39 0.2 7-2 8.4-8.4 8-7-0.4-14-0.4-21 0-4.8 0.2-6-1.4-6-6 0.2-13.6 0.2-27.4 0-41-0.2-28.4-21.8-51-48.8-51-26.8 0-48.8 22.6-49 51-0.2 35.4-0.2 70.6 0 105.8 0 6-1.4 8.4-7.6 7.8-5.6-0.6-11.2-0.6-16.6 0-6.6 0.6-7.8-2.2-7.6-8 0.4-18.6 0.2-37.2 0.2-59.8 0.8-17-2.2-38.2 1.2-58.8 5.8-33.8 26.4-56.6 58.6-66 33.6-9.8 62.6 0.6 85.6 27 12.8 14.8 19.4 32.2 19 52zM723.8 269.4c4.8 4 1.4 14.2 1.6 21.6 0.2 19.8 0 39.6 0 59.4 0 24.6-0.2 49.4 0.2 74.2 0 6-1.6 8.4-7.8 7.6-7.6-1-18 3.2-22.4-1.8-3.8-4.2-1.4-14.2-1.4-21.8 0-44.2 0.2-88.6-0.2-132.8 0-6.6 1.6-8.6 8.2-8 7.4 0.8 17.2-2.2 21.8 1.6zM854.4 327.4c-0.8-15 2-40.8-1.4-66.8-8.4-68.8-75-142.2-175-122.4-66.8 13.4-115.6 73.6-116.8 141.6-0.8 40.4-0.6 81 0 121.4 0.8 46.4 38 88.2 84 92.6 41.4 3.8 83.4 3.8 124.8 0.2 46.6-4 81.2-40.6 84.2-86.6 1.4-23 0.2-46.2 0.2-80zM823.2 308.4c0.2 10 0 19.8 0 29.6 0 18.4 0 36.6 0 55 0 41.2-23.6 68.2-64.8 70.2-35.8 1.6-71.6 2.4-107.4-0.6-32.6-2.8-57.8-29.4-58.2-62.2-0.6-40.8-1-81.6 0-122.4 1.2-50 38.8-92.8 90.4-105.2 61-14.6 122.8 23.2 137.4 84 4 17.2 2.4 34.4 2.6 51.6zM791.8 283.8c-0.2 13.2-0.4 26.2 0.4 39 0.2 7-2 8.4-8.4 8-7-0.4-14-0.4-21 0-4.8 0.2-6-1.4-6-6 0.2-13.6 0.2-27.4 0-41-0.2-28.4-21.8-51-48.8-51-26.8 0-48.8 22.6-49 51-0.2 35.4-0.2 70.6 0 105.8 0 6-1.4 8.4-7.6 7.8-5.6-0.6-11.2-0.6-16.6 0-6.6 0.6-7.8-2.2-7.6-8 0.4-18.6 0.2-37.2 0.2-59.8 0.8-17-2.2-38.2 1.2-58.8 5.8-33.8 26.4-56.6 58.6-66 33.6-9.8 62.6 0.6 85.6 27 12.8 14.8 19.4 32.2 19 52zM723.8 269.4c4.8 4 1.4 14.2 1.6 21.6 0.2 19.8 0 39.6 0 59.4 0 24.6-0.2 49.4 0.2 74.2 0 6-1.6 8.4-7.8 7.6-7.6-1-18 3.2-22.4-1.8-3.8-4.2-1.4-14.2-1.4-21.8 0-44.2 0.2-88.6-0.2-132.8 0-6.6 1.6-8.6 8.2-8 7.4 0.8 17.2-2.2 21.8 1.6zM725.4 350.6c0 24.6-0.2 49.4 0.4 74.2 0 6-1.6 8.4-7.8 7.6-7.6-1-18 3.2-22.4-1.8-3.8-4.2-1.4-14.2-1.4-21.8 0-44.2 0.2-88.6-0.2-132.8 0-6.6 1.6-8.6 8.2-8 7.4 0.8 17.2-2.2 21.8 1.6 4.8 4 1.4 14.2 1.4 21.6 0.2 19.8 0 39.6 0 59.4zM791.8 283.8c-0.2 13.2-0.4 26.2 0.4 39 0.2 7-2 8.4-8.4 8-7-0.4-14-0.4-21 0-4.8 0.2-6-1.4-6-6 0.2-13.6 0.2-27.4 0-41-0.2-28.4-21.8-51-48.8-51-26.8 0-48.8 22.6-49 51-0.2 35.4-0.2 70.6 0 105.8 0 6-1.4 8.4-7.6 7.8-5.6-0.6-11.2-0.6-16.6 0-6.6 0.6-7.8-2.2-7.6-8 0.4-18.6 0.2-37.2 0.2-59.8 0.8-17-2.2-38.2 1.2-58.8 5.8-33.8 26.4-56.6 58.6-66 33.6-9.8 62.6 0.6 85.6 27 12.8 14.8 19.4 32.2 19 52zM791.8 283.8c-0.2 13.2-0.4 26.2 0.4 39 0.2 7-2 8.4-8.4 8-7-0.4-14-0.4-21 0-4.8 0.2-6-1.4-6-6 0.2-13.6 0.2-27.4 0-41-0.2-28.4-21.8-51-48.8-51-26.8 0-48.8 22.6-49 51-0.2 35.4-0.2 70.6 0 105.8 0 6-1.4 8.4-7.6 7.8-5.6-0.6-11.2-0.6-16.6 0-6.6 0.6-7.8-2.2-7.6-8 0.4-18.6 0.2-37.2 0.2-59.8 0.8-17-2.2-38.2 1.2-58.8 5.8-33.8 26.4-56.6 58.6-66 33.6-9.8 62.6 0.6 85.6 27 12.8 14.8 19.4 32.2 19 52zM725.4 350.6c0 24.6-0.2 49.4 0.4 74.2 0 6-1.6 8.4-7.8 7.6-7.6-1-18 3.2-22.4-1.8-3.8-4.2-1.4-14.2-1.4-21.8 0-44.2 0.2-88.6-0.2-132.8 0-6.6 1.6-8.6 8.2-8 7.4 0.8 17.2-2.2 21.8 1.6 4.8 4 1.4 14.2 1.4 21.6 0.2 19.8 0 39.6 0 59.4zM725.4 350.6c0 24.6-0.2 49.4 0.4 74.2 0 6-1.6 8.4-7.8 7.6-7.6-1-18 3.2-22.4-1.8-3.8-4.2-1.4-14.2-1.4-21.8 0-44.2 0.2-88.6-0.2-132.8 0-6.6 1.6-8.6 8.2-8 7.4 0.8 17.2-2.2 21.8 1.6 4.8 4 1.4 14.2 1.4 21.6 0.2 19.8 0 39.6 0 59.4zM791.8 283.8c-0.2 13.2-0.4 26.2 0.4 39 0.2 7-2 8.4-8.4 8-7-0.4-14-0.4-21 0-4.8 0.2-6-1.4-6-6 0.2-13.6 0.2-27.4 0-41-0.2-28.4-21.8-51-48.8-51-26.8 0-48.8 22.6-49 51-0.2 35.4-0.2 70.6 0 105.8 0 6-1.4 8.4-7.6 7.8-5.6-0.6-11.2-0.6-16.6 0-6.6 0.6-7.8-2.2-7.6-8 0.4-18.6 0.2-37.2 0.2-59.8 0.8-17-2.2-38.2 1.2-58.8 5.8-33.8 26.4-56.6 58.6-66 33.6-9.8 62.6 0.6 85.6 27 12.8 14.8 19.4 32.2 19 52zM791.8 283.8c-0.2 13.2-0.4 26.2 0.4 39 0.2 7-2 8.4-8.4 8-7-0.4-14-0.4-21 0-4.8 0.2-6-1.4-6-6 0.2-13.6 0.2-27.4 0-41-0.2-28.4-21.8-51-48.8-51-26.8 0-48.8 22.6-49 51-0.2 35.4-0.2 70.6 0 105.8 0 6-1.4 8.4-7.6 7.8-5.6-0.6-11.2-0.6-16.6 0-6.6 0.6-7.8-2.2-7.6-8 0.4-18.6 0.2-37.2 0.2-59.8 0.8-17-2.2-38.2 1.2-58.8 5.8-33.8 26.4-56.6 58.6-66 33.6-9.8 62.6 0.6 85.6 27 12.8 14.8 19.4 32.2 19 52zM725.4 350.6c0 24.6-0.2 49.4 0.4 74.2 0 6-1.6 8.4-7.8 7.6-7.6-1-18 3.2-22.4-1.8-3.8-4.2-1.4-14.2-1.4-21.8 0-44.2 0.2-88.6-0.2-132.8 0-6.6 1.6-8.6 8.2-8 7.4 0.8 17.2-2.2 21.8 1.6 4.8 4 1.4 14.2 1.4 21.6 0.2 19.8 0 39.6 0 59.4zM725.4 350.6c0 24.6-0.2 49.4 0.4 74.2 0 6-1.6 8.4-7.8 7.6-7.6-1-18 3.2-22.4-1.8-3.8-4.2-1.4-14.2-1.4-21.8 0-44.2 0.2-88.6-0.2-132.8 0-6.6 1.6-8.6 8.2-8 7.4 0.8 17.2-2.2 21.8 1.6 4.8 4 1.4 14.2 1.4 21.6 0.2 19.8 0 39.6 0 59.4zM791.8 283.8c-0.2 13.2-0.4 26.2 0.4 39 0.2 7-2 8.4-8.4 8-7-0.4-14-0.4-21 0-4.8 0.2-6-1.4-6-6 0.2-13.6 0.2-27.4 0-41-0.2-28.4-21.8-51-48.8-51-26.8 0-48.8 22.6-49 51-0.2 35.4-0.2 70.6 0 105.8 0 6-1.4 8.4-7.6 7.8-5.6-0.6-11.2-0.6-16.6 0-6.6 0.6-7.8-2.2-7.6-8 0.4-18.6 0.2-37.2 0.2-59.8 0.8-17-2.2-38.2 1.2-58.8 5.8-33.8 26.4-56.6 58.6-66 33.6-9.8 62.6 0.6 85.6 27 12.8 14.8 19.4 32.2 19 52zM791.8 283.8c-0.2 13.2-0.4 26.2 0.4 39 0.2 7-2 8.4-8.4 8-7-0.4-14-0.4-21 0-4.8 0.2-6-1.4-6-6 0.2-13.6 0.2-27.4 0-41-0.2-28.4-21.8-51-48.8-51-26.8 0-48.8 22.6-49 51-0.2 35.4-0.2 70.6 0 105.8 0 6-1.4 8.4-7.6 7.8-5.6-0.6-11.2-0.6-16.6 0-6.6 0.6-7.8-2.2-7.6-8 0.4-18.6 0.2-37.2 0.2-59.8 0.8-17-2.2-38.2 1.2-58.8 5.8-33.8 26.4-56.6 58.6-66 33.6-9.8 62.6 0.6 85.6 27 12.8 14.8 19.4 32.2 19 52zM725.4 350.6c0 24.6-0.2 49.4 0.4 74.2 0 6-1.6 8.4-7.8 7.6-7.6-1-18 3.2-22.4-1.8-3.8-4.2-1.4-14.2-1.4-21.8 0-44.2 0.2-88.6-0.2-132.8 0-6.6 1.6-8.6 8.2-8 7.4 0.8 17.2-2.2 21.8 1.6 4.8 4 1.4 14.2 1.4 21.6 0.2 19.8 0 39.6 0 59.4zM725.4 350.6c0 24.6-0.2 49.4 0.4 74.2 0 6-1.6 8.4-7.8 7.6-7.6-1-18 3.2-22.4-1.8-3.8-4.2-1.4-14.2-1.4-21.8 0-44.2 0.2-88.6-0.2-132.8 0-6.6 1.6-8.6 8.2-8 7.4 0.8 17.2-2.2 21.8 1.6 4.8 4 1.4 14.2 1.4 21.6 0.2 19.8 0 39.6 0 59.4zM791.8 283.8c-0.2 13.2-0.4 26.2 0.4 39 0.2 7-2 8.4-8.4 8-7-0.4-14-0.4-21 0-4.8 0.2-6-1.4-6-6 0.2-13.6 0.2-27.4 0-41-0.2-28.4-21.8-51-48.8-51-26.8 0-48.8 22.6-49 51-0.2 35.4-0.2 70.6 0 105.8 0 6-1.4 8.4-7.6 7.8-5.6-0.6-11.2-0.6-16.6 0-6.6 0.6-7.8-2.2-7.6-8 0.4-18.6 0.2-37.2 0.2-59.8 0.8-17-2.2-38.2 1.2-58.8 5.8-33.8 26.4-56.6 58.6-66 33.6-9.8 62.6 0.6 85.6 27 12.8 14.8 19.4 32.2 19 52zM791.8 283.8c-0.2 13.2-0.4 26.2 0.4 39 0.2 7-2 8.4-8.4 8-7-0.4-14-0.4-21 0-4.8 0.2-6-1.4-6-6 0.2-13.6 0.2-27.4 0-41-0.2-28.4-21.8-51-48.8-51-26.8 0-48.8 22.6-49 51-0.2 35.4-0.2 70.6 0 105.8 0 6-1.4 8.4-7.6 7.8-5.6-0.6-11.2-0.6-16.6 0-6.6 0.6-7.8-2.2-7.6-8 0.4-18.6 0.2-37.2 0.2-59.8 0.8-17-2.2-38.2 1.2-58.8 5.8-33.8 26.4-56.6 58.6-66 33.6-9.8 62.6 0.6 85.6 27 12.8 14.8 19.4 32.2 19 52zM725.4 350.6c0 24.6-0.2 49.4 0.4 74.2 0 6-1.6 8.4-7.8 7.6-7.6-1-18 3.2-22.4-1.8-3.8-4.2-1.4-14.2-1.4-21.8 0-44.2 0.2-88.6-0.2-132.8 0-6.6 1.6-8.6 8.2-8 7.4 0.8 17.2-2.2 21.8 1.6 4.8 4 1.4 14.2 1.4 21.6 0.2 19.8 0 39.6 0 59.4zM725.4 350.6c0 24.6-0.2 49.4 0.4 74.2 0 6-1.6 8.4-7.8 7.6-7.6-1-18 3.2-22.4-1.8-3.8-4.2-1.4-14.2-1.4-21.8 0-44.2 0.2-88.6-0.2-132.8 0-6.6 1.6-8.6 8.2-8 7.4 0.8 17.2-2.2 21.8 1.6 4.8 4 1.4 14.2 1.4 21.6 0.2 19.8 0 39.6 0 59.4zM791.8 283.8c-0.2 13.2-0.4 26.2 0.4 39 0.2 7-2 8.4-8.4 8-7-0.4-14-0.4-21 0-4.8 0.2-6-1.4-6-6 0.2-13.6 0.2-27.4 0-41-0.2-28.4-21.8-51-48.8-51-26.8 0-48.8 22.6-49 51-0.2 35.4-0.2 70.6 0 105.8 0 6-1.4 8.4-7.6 7.8-5.6-0.6-11.2-0.6-16.6 0-6.6 0.6-7.8-2.2-7.6-8 0.4-18.6 0.2-37.2 0.2-59.8 0.8-17-2.2-38.2 1.2-58.8 5.8-33.8 26.4-56.6 58.6-66 33.6-9.8 62.6 0.6 85.6 27 12.8 14.8 19.4 32.2 19 52zM791.8 283.8c-0.2 13.2-0.4 26.2 0.4 39 0.2 7-2 8.4-8.4 8-7-0.4-14-0.4-21 0-4.8 0.2-6-1.4-6-6 0.2-13.6 0.2-27.4 0-41-0.2-28.4-21.8-51-48.8-51-26.8 0-48.8 22.6-49 51-0.2 35.4-0.2 70.6 0 105.8 0 6-1.4 8.4-7.6 7.8-5.6-0.6-11.2-0.6-16.6 0-6.6 0.6-7.8-2.2-7.6-8 0.4-18.6 0.2-37.2 0.2-59.8 0.8-17-2.2-38.2 1.2-58.8 5.8-33.8 26.4-56.6 58.6-66 33.6-9.8 62.6 0.6 85.6 27 12.8 14.8 19.4 32.2 19 52zM725.4 350.6c0 24.6-0.2 49.4 0.4 74.2 0 6-1.6 8.4-7.8 7.6-7.6-1-18 3.2-22.4-1.8-3.8-4.2-1.4-14.2-1.4-21.8 0-44.2 0.2-88.6-0.2-132.8 0-6.6 1.6-8.6 8.2-8 7.4 0.8 17.2-2.2 21.8 1.6 4.8 4 1.4 14.2 1.4 21.6 0.2 19.8 0 39.6 0 59.4zM725.4 350.6c0 24.6-0.2 49.4 0.4 74.2 0 6-1.6 8.4-7.8 7.6-7.6-1-18 3.2-22.4-1.8-3.8-4.2-1.4-14.2-1.4-21.8 0-44.2 0.2-88.6-0.2-132.8 0-6.6 1.6-8.6 8.2-8 7.4 0.8 17.2-2.2 21.8 1.6 4.8 4 1.4 14.2 1.4 21.6 0.2 19.8 0 39.6 0 59.4zM791.8 283.8c-0.2 13.2-0.4 26.2 0.4 39 0.2 7-2 8.4-8.4 8-7-0.4-14-0.4-21 0-4.8 0.2-6-1.4-6-6 0.2-13.6 0.2-27.4 0-41-0.2-28.4-21.8-51-48.8-51-26.8 0-48.8 22.6-49 51-0.2 35.4-0.2 70.6 0 105.8 0 6-1.4 8.4-7.6 7.8-5.6-0.6-11.2-0.6-16.6 0-6.6 0.6-7.8-2.2-7.6-8 0.4-18.6 0.2-37.2 0.2-59.8 0.8-17-2.2-38.2 1.2-58.8 5.8-33.8 26.4-56.6 58.6-66 33.6-9.8 62.6 0.6 85.6 27 12.8 14.8 19.4 32.2 19 52zM791.8 283.8c-0.2 13.2-0.4 26.2 0.4 39 0.2 7-2 8.4-8.4 8-7-0.4-14-0.4-21 0-4.8 0.2-6-1.4-6-6 0.2-13.6 0.2-27.4 0-41-0.2-28.4-21.8-51-48.8-51-26.8 0-48.8 22.6-49 51-0.2 35.4-0.2 70.6 0 105.8 0 6-1.4 8.4-7.6 7.8-5.6-0.6-11.2-0.6-16.6 0-6.6 0.6-7.8-2.2-7.6-8 0.4-18.6 0.2-37.2 0.2-59.8 0.8-17-2.2-38.2 1.2-58.8 5.8-33.8 26.4-56.6 58.6-66 33.6-9.8 62.6 0.6 85.6 27 12.8 14.8 19.4 32.2 19 52zM723.8 269.4c4.8 4 1.4 14.2 1.6 21.6 0.2 19.8 0 39.6 0 59.4 0 24.6-0.2 49.4 0.2 74.2 0 6-1.6 8.4-7.8 7.6-7.6-1-18 3.2-22.4-1.8-3.8-4.2-1.4-14.2-1.4-21.8 0-44.2 0.2-88.6-0.2-132.8 0-6.6 1.6-8.6 8.2-8 7.4 0.8 17.2-2.2 21.8 1.6zM854.4 327.4c-0.8-15 2-40.8-1.4-66.8-8.4-68.8-75-142.2-175-122.4-66.8 13.4-115.6 73.6-116.8 141.6-0.8 40.4-0.6 81 0 121.4 0.8 46.4 38 88.2 84 92.6 41.4 3.8 83.4 3.8 124.8 0.2 46.6-4 81.2-40.6 84.2-86.6 1.4-23 0.2-46.2 0.2-80zM823.2 308.4c0.2 10 0 19.8 0 29.6 0 18.4 0 36.6 0 55 0 41.2-23.6 68.2-64.8 70.2-35.8 1.6-71.6 2.4-107.4-0.6-32.6-2.8-57.8-29.4-58.2-62.2-0.6-40.8-1-81.6 0-122.4 1.2-50 38.8-92.8 90.4-105.2 61-14.6 122.8 23.2 137.4 84 4 17.2 2.4 34.4 2.6 51.6zM791.8 283.8c-0.2 13.2-0.4 26.2 0.4 39 0.2 7-2 8.4-8.4 8-7-0.4-14-0.4-21 0-4.8 0.2-6-1.4-6-6 0.2-13.6 0.2-27.4 0-41-0.2-28.4-21.8-51-48.8-51-26.8 0-48.8 22.6-49 51-0.2 35.4-0.2 70.6 0 105.8 0 6-1.4 8.4-7.6 7.8-5.6-0.6-11.2-0.6-16.6 0-6.6 0.6-7.8-2.2-7.6-8 0.4-18.6 0.2-37.2 0.2-59.8 0.8-17-2.2-38.2 1.2-58.8 5.8-33.8 26.4-56.6 58.6-66 33.6-9.8 62.6 0.6 85.6 27 12.8 14.8 19.4 32.2 19 52zM723.8 269.4c4.8 4 1.4 14.2 1.6 21.6 0.2 19.8 0 39.6 0 59.4 0 24.6-0.2 49.4 0.2 74.2 0 6-1.6 8.4-7.8 7.6-7.6-1-18 3.2-22.4-1.8-3.8-4.2-1.4-14.2-1.4-21.8 0-44.2 0.2-88.6-0.2-132.8 0-6.6 1.6-8.6 8.2-8 7.4 0.8 17.2-2.2 21.8 1.6zM725.4 350.6c0 24.6-0.2 49.4 0.4 74.2 0 6-1.6 8.4-7.8 7.6-7.6-1-18 3.2-22.4-1.8-3.8-4.2-1.4-14.2-1.4-21.8 0-44.2 0.2-88.6-0.2-132.8 0-6.6 1.6-8.6 8.2-8 7.4 0.8 17.2-2.2 21.8 1.6 4.8 4 1.4 14.2 1.4 21.6 0.2 19.8 0 39.6 0 59.4zM791.8 283.8c-0.2 13.2-0.4 26.2 0.4 39 0.2 7-2 8.4-8.4 8-7-0.4-14-0.4-21 0-4.8 0.2-6-1.4-6-6 0.2-13.6 0.2-27.4 0-41-0.2-28.4-21.8-51-48.8-51-26.8 0-48.8 22.6-49 51-0.2 35.4-0.2 70.6 0 105.8 0 6-1.4 8.4-7.6 7.8-5.6-0.6-11.2-0.6-16.6 0-6.6 0.6-7.8-2.2-7.6-8 0.4-18.6 0.2-37.2 0.2-59.8 0.8-17-2.2-38.2 1.2-58.8 5.8-33.8 26.4-56.6 58.6-66 33.6-9.8 62.6 0.6 85.6 27 12.8 14.8 19.4 32.2 19 52zM791.8 283.8c-0.2 13.2-0.4 26.2 0.4 39 0.2 7-2 8.4-8.4 8-7-0.4-14-0.4-21 0-4.8 0.2-6-1.4-6-6 0.2-13.6 0.2-27.4 0-41-0.2-28.4-21.8-51-48.8-51-26.8 0-48.8 22.6-49 51-0.2 35.4-0.2 70.6 0 105.8 0 6-1.4 8.4-7.6 7.8-5.6-0.6-11.2-0.6-16.6 0-6.6 0.6-7.8-2.2-7.6-8 0.4-18.6 0.2-37.2 0.2-59.8 0.8-17-2.2-38.2 1.2-58.8 5.8-33.8 26.4-56.6 58.6-66 33.6-9.8 62.6 0.6 85.6 27 12.8 14.8 19.4 32.2 19 52zM725.4 350.6c0 24.6-0.2 49.4 0.4 74.2 0 6-1.6 8.4-7.8 7.6-7.6-1-18 3.2-22.4-1.8-3.8-4.2-1.4-14.2-1.4-21.8 0-44.2 0.2-88.6-0.2-132.8 0-6.6 1.6-8.6 8.2-8 7.4 0.8 17.2-2.2 21.8 1.6 4.8 4 1.4 14.2 1.4 21.6 0.2 19.8 0 39.6 0 59.4zM725.4 350.6c0 24.6-0.2 49.4 0.4 74.2 0 6-1.6 8.4-7.8 7.6-7.6-1-18 3.2-22.4-1.8-3.8-4.2-1.4-14.2-1.4-21.8 0-44.2 0.2-88.6-0.2-132.8 0-6.6 1.6-8.6 8.2-8 7.4 0.8 17.2-2.2 21.8 1.6 4.8 4 1.4 14.2 1.4 21.6 0.2 19.8 0 39.6 0 59.4zM791.8 283.8c-0.2 13.2-0.4 26.2 0.4 39 0.2 7-2 8.4-8.4 8-7-0.4-14-0.4-21 0-4.8 0.2-6-1.4-6-6 0.2-13.6 0.2-27.4 0-41-0.2-28.4-21.8-51-48.8-51-26.8 0-48.8 22.6-49 51-0.2 35.4-0.2 70.6 0 105.8 0 6-1.4 8.4-7.6 7.8-5.6-0.6-11.2-0.6-16.6 0-6.6 0.6-7.8-2.2-7.6-8 0.4-18.6 0.2-37.2 0.2-59.8 0.8-17-2.2-38.2 1.2-58.8 5.8-33.8 26.4-56.6 58.6-66 33.6-9.8 62.6 0.6 85.6 27 12.8 14.8 19.4 32.2 19 52zM791.8 283.8c-0.2 13.2-0.4 26.2 0.4 39 0.2 7-2 8.4-8.4 8-7-0.4-14-0.4-21 0-4.8 0.2-6-1.4-6-6 0.2-13.6 0.2-27.4 0-41-0.2-28.4-21.8-51-48.8-51-26.8 0-48.8 22.6-49 51-0.2 35.4-0.2 70.6 0 105.8 0 6-1.4 8.4-7.6 7.8-5.6-0.6-11.2-0.6-16.6 0-6.6 0.6-7.8-2.2-7.6-8 0.4-18.6 0.2-37.2 0.2-59.8 0.8-17-2.2-38.2 1.2-58.8 5.8-33.8 26.4-56.6 58.6-66 33.6-9.8 62.6 0.6 85.6 27 12.8 14.8 19.4 32.2 19 52zM725.4 350.6c0 24.6-0.2 49.4 0.4 74.2 0 6-1.6 8.4-7.8 7.6-7.6-1-18 3.2-22.4-1.8-3.8-4.2-1.4-14.2-1.4-21.8 0-44.2 0.2-88.6-0.2-132.8 0-6.6 1.6-8.6 8.2-8 7.4 0.8 17.2-2.2 21.8 1.6 4.8 4 1.4 14.2 1.4 21.6 0.2 19.8 0 39.6 0 59.4zM725.4 350.6c0 24.6-0.2 49.4 0.4 74.2 0 6-1.6 8.4-7.8 7.6-7.6-1-18 3.2-22.4-1.8-3.8-4.2-1.4-14.2-1.4-21.8 0-44.2 0.2-88.6-0.2-132.8 0-6.6 1.6-8.6 8.2-8 7.4 0.8 17.2-2.2 21.8 1.6 4.8 4 1.4 14.2 1.4 21.6 0.2 19.8 0 39.6 0 59.4zM791.8 283.8c-0.2 13.2-0.4 26.2 0.4 39 0.2 7-2 8.4-8.4 8-7-0.4-14-0.4-21 0-4.8 0.2-6-1.4-6-6 0.2-13.6 0.2-27.4 0-41-0.2-28.4-21.8-51-48.8-51-26.8 0-48.8 22.6-49 51-0.2 35.4-0.2 70.6 0 105.8 0 6-1.4 8.4-7.6 7.8-5.6-0.6-11.2-0.6-16.6 0-6.6 0.6-7.8-2.2-7.6-8 0.4-18.6 0.2-37.2 0.2-59.8 0.8-17-2.2-38.2 1.2-58.8 5.8-33.8 26.4-56.6 58.6-66 33.6-9.8 62.6 0.6 85.6 27 12.8 14.8 19.4 32.2 19 52zM791.8 283.8c-0.2 13.2-0.4 26.2 0.4 39 0.2 7-2 8.4-8.4 8-7-0.4-14-0.4-21 0-4.8 0.2-6-1.4-6-6 0.2-13.6 0.2-27.4 0-41-0.2-28.4-21.8-51-48.8-51-26.8 0-48.8 22.6-49 51-0.2 35.4-0.2 70.6 0 105.8 0 6-1.4 8.4-7.6 7.8-5.6-0.6-11.2-0.6-16.6 0-6.6 0.6-7.8-2.2-7.6-8 0.4-18.6 0.2-37.2 0.2-59.8 0.8-17-2.2-38.2 1.2-58.8 5.8-33.8 26.4-56.6 58.6-66 33.6-9.8 62.6 0.6 85.6 27 12.8 14.8 19.4 32.2 19 52zM725.4 350.6c0 24.6-0.2 49.4 0.4 74.2 0 6-1.6 8.4-7.8 7.6-7.6-1-18 3.2-22.4-1.8-3.8-4.2-1.4-14.2-1.4-21.8 0-44.2 0.2-88.6-0.2-132.8 0-6.6 1.6-8.6 8.2-8 7.4 0.8 17.2-2.2 21.8 1.6 4.8 4 1.4 14.2 1.4 21.6 0.2 19.8 0 39.6 0 59.4zM725.4 350.6c0 24.6-0.2 49.4 0.4 74.2 0 6-1.6 8.4-7.8 7.6-7.6-1-18 3.2-22.4-1.8-3.8-4.2-1.4-14.2-1.4-21.8 0-44.2 0.2-88.6-0.2-132.8 0-6.6 1.6-8.6 8.2-8 7.4 0.8 17.2-2.2 21.8 1.6 4.8 4 1.4 14.2 1.4 21.6 0.2 19.8 0 39.6 0 59.4zM791.8 283.8c-0.2 13.2-0.4 26.2 0.4 39 0.2 7-2 8.4-8.4 8-7-0.4-14-0.4-21 0-4.8 0.2-6-1.4-6-6 0.2-13.6 0.2-27.4 0-41-0.2-28.4-21.8-51-48.8-51-26.8 0-48.8 22.6-49 51-0.2 35.4-0.2 70.6 0 105.8 0 6-1.4 8.4-7.6 7.8-5.6-0.6-11.2-0.6-16.6 0-6.6 0.6-7.8-2.2-7.6-8 0.4-18.6 0.2-37.2 0.2-59.8 0.8-17-2.2-38.2 1.2-58.8 5.8-33.8 26.4-56.6 58.6-66 33.6-9.8 62.6 0.6 85.6 27 12.8 14.8 19.4 32.2 19 52zM791.8 283.8c-0.2 13.2-0.4 26.2 0.4 39 0.2 7-2 8.4-8.4 8-7-0.4-14-0.4-21 0-4.8 0.2-6-1.4-6-6 0.2-13.6 0.2-27.4 0-41-0.2-28.4-21.8-51-48.8-51-26.8 0-48.8 22.6-49 51-0.2 35.4-0.2 70.6 0 105.8 0 6-1.4 8.4-7.6 7.8-5.6-0.6-11.2-0.6-16.6 0-6.6 0.6-7.8-2.2-7.6-8 0.4-18.6 0.2-37.2 0.2-59.8 0.8-17-2.2-38.2 1.2-58.8 5.8-33.8 26.4-56.6 58.6-66 33.6-9.8 62.6 0.6 85.6 27 12.8 14.8 19.4 32.2 19 52zM725.4 350.6c0 24.6-0.2 49.4 0.4 74.2 0 6-1.6 8.4-7.8 7.6-7.6-1-18 3.2-22.4-1.8-3.8-4.2-1.4-14.2-1.4-21.8 0-44.2 0.2-88.6-0.2-132.8 0-6.6 1.6-8.6 8.2-8 7.4 0.8 17.2-2.2 21.8 1.6 4.8 4 1.4 14.2 1.4 21.6 0.2 19.8 0 39.6 0 59.4zM725.4 350.6c0 24.6-0.2 49.4 0.4 74.2 0 6-1.6 8.4-7.8 7.6-7.6-1-18 3.2-22.4-1.8-3.8-4.2-1.4-14.2-1.4-21.8 0-44.2 0.2-88.6-0.2-132.8 0-6.6 1.6-8.6 8.2-8 7.4 0.8 17.2-2.2 21.8 1.6 4.8 4 1.4 14.2 1.4 21.6 0.2 19.8 0 39.6 0 59.4zM791.8 283.8c-0.2 13.2-0.4 26.2 0.4 39 0.2 7-2 8.4-8.4 8-7-0.4-14-0.4-21 0-4.8 0.2-6-1.4-6-6 0.2-13.6 0.2-27.4 0-41-0.2-28.4-21.8-51-48.8-51-26.8 0-48.8 22.6-49 51-0.2 35.4-0.2 70.6 0 105.8 0 6-1.4 8.4-7.6 7.8-5.6-0.6-11.2-0.6-16.6 0-6.6 0.6-7.8-2.2-7.6-8 0.4-18.6 0.2-37.2 0.2-59.8 0.8-17-2.2-38.2 1.2-58.8 5.8-33.8 26.4-56.6 58.6-66 33.6-9.8 62.6 0.6 85.6 27 12.8 14.8 19.4 32.2 19 52zM791.8 283.8c-0.2 13.2-0.4 26.2 0.4 39 0.2 7-2 8.4-8.4 8-7-0.4-14-0.4-21 0-4.8 0.2-6-1.4-6-6 0.2-13.6 0.2-27.4 0-41-0.2-28.4-21.8-51-48.8-51-26.8 0-48.8 22.6-49 51-0.2 35.4-0.2 70.6 0 105.8 0 6-1.4 8.4-7.6 7.8-5.6-0.6-11.2-0.6-16.6 0-6.6 0.6-7.8-2.2-7.6-8 0.4-18.6 0.2-37.2 0.2-59.8 0.8-17-2.2-38.2 1.2-58.8 5.8-33.8 26.4-56.6 58.6-66 33.6-9.8 62.6 0.6 85.6 27 12.8 14.8 19.4 32.2 19 52zM725.4 350.6c0 24.6-0.2 49.4 0.4 74.2 0 6-1.6 8.4-7.8 7.6-7.6-1-18 3.2-22.4-1.8-3.8-4.2-1.4-14.2-1.4-21.8 0-44.2 0.2-88.6-0.2-132.8 0-6.6 1.6-8.6 8.2-8 7.4 0.8 17.2-2.2 21.8 1.6 4.8 4 1.4 14.2 1.4 21.6 0.2 19.8 0 39.6 0 59.4zM725.4 350.6c0 24.6-0.2 49.4 0.4 74.2 0 6-1.6 8.4-7.8 7.6-7.6-1-18 3.2-22.4-1.8-3.8-4.2-1.4-14.2-1.4-21.8 0-44.2 0.2-88.6-0.2-132.8 0-6.6 1.6-8.6 8.2-8 7.4 0.8 17.2-2.2 21.8 1.6 4.8 4 1.4 14.2 1.4 21.6 0.2 19.8 0 39.6 0 59.4zM791.8 283.8c-0.2 13.2-0.4 26.2 0.4 39 0.2 7-2 8.4-8.4 8-7-0.4-14-0.4-21 0-4.8 0.2-6-1.4-6-6 0.2-13.6 0.2-27.4 0-41-0.2-28.4-21.8-51-48.8-51-26.8 0-48.8 22.6-49 51-0.2 35.4-0.2 70.6 0 105.8 0 6-1.4 8.4-7.6 7.8-5.6-0.6-11.2-0.6-16.6 0-6.6 0.6-7.8-2.2-7.6-8 0.4-18.6 0.2-37.2 0.2-59.8 0.8-17-2.2-38.2 1.2-58.8 5.8-33.8 26.4-56.6 58.6-66 33.6-9.8 62.6 0.6 85.6 27 12.8 14.8 19.4 32.2 19 52zM791.8 283.8c-0.2 13.2-0.4 26.2 0.4 39 0.2 7-2 8.4-8.4 8-7-0.4-14-0.4-21 0-4.8 0.2-6-1.4-6-6 0.2-13.6 0.2-27.4 0-41-0.2-28.4-21.8-51-48.8-51-26.8 0-48.8 22.6-49 51-0.2 35.4-0.2 70.6 0 105.8 0 6-1.4 8.4-7.6 7.8-5.6-0.6-11.2-0.6-16.6 0-6.6 0.6-7.8-2.2-7.6-8 0.4-18.6 0.2-37.2 0.2-59.8 0.8-17-2.2-38.2 1.2-58.8 5.8-33.8 26.4-56.6 58.6-66 33.6-9.8 62.6 0.6 85.6 27 12.8 14.8 19.4 32.2 19 52zM723.8 269.4c4.8 4 1.4 14.2 1.6 21.6 0.2 19.8 0 39.6 0 59.4 0 24.6-0.2 49.4 0.2 74.2 0 6-1.6 8.4-7.8 7.6-7.6-1-18 3.2-22.4-1.8-3.8-4.2-1.4-14.2-1.4-21.8 0-44.2 0.2-88.6-0.2-132.8 0-6.6 1.6-8.6 8.2-8 7.4 0.8 17.2-2.2 21.8 1.6zM854.4 327.4c-0.8-15 2-40.8-1.4-66.8-8.4-68.8-75-142.2-175-122.4-66.8 13.4-115.6 73.6-116.8 141.6-0.8 40.4-0.6 81 0 121.4 0.8 46.4 38 88.2 84 92.6 41.4 3.8 83.4 3.8 124.8 0.2 46.6-4 81.2-40.6 84.2-86.6 1.4-23 0.2-46.2 0.2-80zM823.2 308.4c0.2 10 0 19.8 0 29.6 0 18.4 0 36.6 0 55 0 41.2-23.6 68.2-64.8 70.2-35.8 1.6-71.6 2.4-107.4-0.6-32.6-2.8-57.8-29.4-58.2-62.2-0.6-40.8-1-81.6 0-122.4 1.2-50 38.8-92.8 90.4-105.2 61-14.6 122.8 23.2 137.4 84 4 17.2 2.4 34.4 2.6 51.6zM791.8 283.8c-0.2 13.2-0.4 26.2 0.4 39 0.2 7-2 8.4-8.4 8-7-0.4-14-0.4-21 0-4.8 0.2-6-1.4-6-6 0.2-13.6 0.2-27.4 0-41-0.2-28.4-21.8-51-48.8-51-26.8 0-48.8 22.6-49 51-0.2 35.4-0.2 70.6 0 105.8 0 6-1.4 8.4-7.6 7.8-5.6-0.6-11.2-0.6-16.6 0-6.6 0.6-7.8-2.2-7.6-8 0.4-18.6 0.2-37.2 0.2-59.8 0.8-17-2.2-38.2 1.2-58.8 5.8-33.8 26.4-56.6 58.6-66 33.6-9.8 62.6 0.6 85.6 27 12.8 14.8 19.4 32.2 19 52zM723.8 269.4c4.8 4 1.4 14.2 1.6 21.6 0.2 19.8 0 39.6 0 59.4 0 24.6-0.2 49.4 0.2 74.2 0 6-1.6 8.4-7.8 7.6-7.6-1-18 3.2-22.4-1.8-3.8-4.2-1.4-14.2-1.4-21.8 0-44.2 0.2-88.6-0.2-132.8 0-6.6 1.6-8.6 8.2-8 7.4 0.8 17.2-2.2 21.8 1.6zM725.4 350.6c0 24.6-0.2 49.4 0.4 74.2 0 6-1.6 8.4-7.8 7.6-7.6-1-18 3.2-22.4-1.8-3.8-4.2-1.4-14.2-1.4-21.8 0-44.2 0.2-88.6-0.2-132.8 0-6.6 1.6-8.6 8.2-8 7.4 0.8 17.2-2.2 21.8 1.6 4.8 4 1.4 14.2 1.4 21.6 0.2 19.8 0 39.6 0 59.4zM791.8 283.8c-0.2 13.2-0.4 26.2 0.4 39 0.2 7-2 8.4-8.4 8-7-0.4-14-0.4-21 0-4.8 0.2-6-1.4-6-6 0.2-13.6 0.2-27.4 0-41-0.2-28.4-21.8-51-48.8-51-26.8 0-48.8 22.6-49 51-0.2 35.4-0.2 70.6 0 105.8 0 6-1.4 8.4-7.6 7.8-5.6-0.6-11.2-0.6-16.6 0-6.6 0.6-7.8-2.2-7.6-8 0.4-18.6 0.2-37.2 0.2-59.8 0.8-17-2.2-38.2 1.2-58.8 5.8-33.8 26.4-56.6 58.6-66 33.6-9.8 62.6 0.6 85.6 27 12.8 14.8 19.4 32.2 19 52zM791.8 283.8c-0.2 13.2-0.4 26.2 0.4 39 0.2 7-2 8.4-8.4 8-7-0.4-14-0.4-21 0-4.8 0.2-6-1.4-6-6 0.2-13.6 0.2-27.4 0-41-0.2-28.4-21.8-51-48.8-51-26.8 0-48.8 22.6-49 51-0.2 35.4-0.2 70.6 0 105.8 0 6-1.4 8.4-7.6 7.8-5.6-0.6-11.2-0.6-16.6 0-6.6 0.6-7.8-2.2-7.6-8 0.4-18.6 0.2-37.2 0.2-59.8 0.8-17-2.2-38.2 1.2-58.8 5.8-33.8 26.4-56.6 58.6-66 33.6-9.8 62.6 0.6 85.6 27 12.8 14.8 19.4 32.2 19 52zM725.4 350.6c0 24.6-0.2 49.4 0.4 74.2 0 6-1.6 8.4-7.8 7.6-7.6-1-18 3.2-22.4-1.8-3.8-4.2-1.4-14.2-1.4-21.8 0-44.2 0.2-88.6-0.2-132.8 0-6.6 1.6-8.6 8.2-8 7.4 0.8 17.2-2.2 21.8 1.6 4.8 4 1.4 14.2 1.4 21.6 0.2 19.8 0 39.6 0 59.4zM725.4 350.6c0 24.6-0.2 49.4 0.4 74.2 0 6-1.6 8.4-7.8 7.6-7.6-1-18 3.2-22.4-1.8-3.8-4.2-1.4-14.2-1.4-21.8 0-44.2 0.2-88.6-0.2-132.8 0-6.6 1.6-8.6 8.2-8 7.4 0.8 17.2-2.2 21.8 1.6 4.8 4 1.4 14.2 1.4 21.6 0.2 19.8 0 39.6 0 59.4zM791.8 283.8c-0.2 13.2-0.4 26.2 0.4 39 0.2 7-2 8.4-8.4 8-7-0.4-14-0.4-21 0-4.8 0.2-6-1.4-6-6 0.2-13.6 0.2-27.4 0-41-0.2-28.4-21.8-51-48.8-51-26.8 0-48.8 22.6-49 51-0.2 35.4-0.2 70.6 0 105.8 0 6-1.4 8.4-7.6 7.8-5.6-0.6-11.2-0.6-16.6 0-6.6 0.6-7.8-2.2-7.6-8 0.4-18.6 0.2-37.2 0.2-59.8 0.8-17-2.2-38.2 1.2-58.8 5.8-33.8 26.4-56.6 58.6-66 33.6-9.8 62.6 0.6 85.6 27 12.8 14.8 19.4 32.2 19 52zM791.8 283.8c-0.2 13.2-0.4 26.2 0.4 39 0.2 7-2 8.4-8.4 8-7-0.4-14-0.4-21 0-4.8 0.2-6-1.4-6-6 0.2-13.6 0.2-27.4 0-41-0.2-28.4-21.8-51-48.8-51-26.8 0-48.8 22.6-49 51-0.2 35.4-0.2 70.6 0 105.8 0 6-1.4 8.4-7.6 7.8-5.6-0.6-11.2-0.6-16.6 0-6.6 0.6-7.8-2.2-7.6-8 0.4-18.6 0.2-37.2 0.2-59.8 0.8-17-2.2-38.2 1.2-58.8 5.8-33.8 26.4-56.6 58.6-66 33.6-9.8 62.6 0.6 85.6 27 12.8 14.8 19.4 32.2 19 52zM725.4 350.6c0 24.6-0.2 49.4 0.4 74.2 0 6-1.6 8.4-7.8 7.6-7.6-1-18 3.2-22.4-1.8-3.8-4.2-1.4-14.2-1.4-21.8 0-44.2 0.2-88.6-0.2-132.8 0-6.6 1.6-8.6 8.2-8 7.4 0.8 17.2-2.2 21.8 1.6 4.8 4 1.4 14.2 1.4 21.6 0.2 19.8 0 39.6 0 59.4zM725.4 350.6c0 24.6-0.2 49.4 0.4 74.2 0 6-1.6 8.4-7.8 7.6-7.6-1-18 3.2-22.4-1.8-3.8-4.2-1.4-14.2-1.4-21.8 0-44.2 0.2-88.6-0.2-132.8 0-6.6 1.6-8.6 8.2-8 7.4 0.8 17.2-2.2 21.8 1.6 4.8 4 1.4 14.2 1.4 21.6 0.2 19.8 0 39.6 0 59.4zM791.8 283.8c-0.2 13.2-0.4 26.2 0.4 39 0.2 7-2 8.4-8.4 8-7-0.4-14-0.4-21 0-4.8 0.2-6-1.4-6-6 0.2-13.6 0.2-27.4 0-41-0.2-28.4-21.8-51-48.8-51-26.8 0-48.8 22.6-49 51-0.2 35.4-0.2 70.6 0 105.8 0 6-1.4 8.4-7.6 7.8-5.6-0.6-11.2-0.6-16.6 0-6.6 0.6-7.8-2.2-7.6-8 0.4-18.6 0.2-37.2 0.2-59.8 0.8-17-2.2-38.2 1.2-58.8 5.8-33.8 26.4-56.6 58.6-66 33.6-9.8 62.6 0.6 85.6 27 12.8 14.8 19.4 32.2 19 52zM791.8 283.8c-0.2 13.2-0.4 26.2 0.4 39 0.2 7-2 8.4-8.4 8-7-0.4-14-0.4-21 0-4.8 0.2-6-1.4-6-6 0.2-13.6 0.2-27.4 0-41-0.2-28.4-21.8-51-48.8-51-26.8 0-48.8 22.6-49 51-0.2 35.4-0.2 70.6 0 105.8 0 6-1.4 8.4-7.6 7.8-5.6-0.6-11.2-0.6-16.6 0-6.6 0.6-7.8-2.2-7.6-8 0.4-18.6 0.2-37.2 0.2-59.8 0.8-17-2.2-38.2 1.2-58.8 5.8-33.8 26.4-56.6 58.6-66 33.6-9.8 62.6 0.6 85.6 27 12.8 14.8 19.4 32.2 19 52zM725.4 350.6c0 24.6-0.2 49.4 0.4 74.2 0 6-1.6 8.4-7.8 7.6-7.6-1-18 3.2-22.4-1.8-3.8-4.2-1.4-14.2-1.4-21.8 0-44.2 0.2-88.6-0.2-132.8 0-6.6 1.6-8.6 8.2-8 7.4 0.8 17.2-2.2 21.8 1.6 4.8 4 1.4 14.2 1.4 21.6 0.2 19.8 0 39.6 0 59.4zM725.4 350.6c0 24.6-0.2 49.4 0.4 74.2 0 6-1.6 8.4-7.8 7.6-7.6-1-18 3.2-22.4-1.8-3.8-4.2-1.4-14.2-1.4-21.8 0-44.2 0.2-88.6-0.2-132.8 0-6.6 1.6-8.6 8.2-8 7.4 0.8 17.2-2.2 21.8 1.6 4.8 4 1.4 14.2 1.4 21.6 0.2 19.8 0 39.6 0 59.4zM791.8 283.8c-0.2 13.2-0.4 26.2 0.4 39 0.2 7-2 8.4-8.4 8-7-0.4-14-0.4-21 0-4.8 0.2-6-1.4-6-6 0.2-13.6 0.2-27.4 0-41-0.2-28.4-21.8-51-48.8-51-26.8 0-48.8 22.6-49 51-0.2 35.4-0.2 70.6 0 105.8 0 6-1.4 8.4-7.6 7.8-5.6-0.6-11.2-0.6-16.6 0-6.6 0.6-7.8-2.2-7.6-8 0.4-18.6 0.2-37.2 0.2-59.8 0.8-17-2.2-38.2 1.2-58.8 5.8-33.8 26.4-56.6 58.6-66 33.6-9.8 62.6 0.6 85.6 27 12.8 14.8 19.4 32.2 19 52zM791.8 283.8c-0.2 13.2-0.4 26.2 0.4 39 0.2 7-2 8.4-8.4 8-7-0.4-14-0.4-21 0-4.8 0.2-6-1.4-6-6 0.2-13.6 0.2-27.4 0-41-0.2-28.4-21.8-51-48.8-51-26.8 0-48.8 22.6-49 51-0.2 35.4-0.2 70.6 0 105.8 0 6-1.4 8.4-7.6 7.8-5.6-0.6-11.2-0.6-16.6 0-6.6 0.6-7.8-2.2-7.6-8 0.4-18.6 0.2-37.2 0.2-59.8 0.8-17-2.2-38.2 1.2-58.8 5.8-33.8 26.4-56.6 58.6-66 33.6-9.8 62.6 0.6 85.6 27 12.8 14.8 19.4 32.2 19 52zM723.8 269.4c4.8 4 1.4 14.2 1.6 21.6 0.2 19.8 0 39.6 0 59.4 0 24.6-0.2 49.4 0.2 74.2 0 6-1.6 8.4-7.8 7.6-7.6-1-18 3.2-22.4-1.8-3.8-4.2-1.4-14.2-1.4-21.8 0-44.2 0.2-88.6-0.2-132.8 0-6.6 1.6-8.6 8.2-8 7.4 0.8 17.2-2.2 21.8 1.6zM854.4 327.4c-0.8-15 2-40.8-1.4-66.8-8.4-68.8-75-142.2-175-122.4-66.8 13.4-115.6 73.6-116.8 141.6-0.8 40.4-0.6 81 0 121.4 0.8 46.4 38 88.2 84 92.6 41.4 3.8 83.4 3.8 124.8 0.2 46.6-4 81.2-40.6 84.2-86.6 1.4-23 0.2-46.2 0.2-80zM823.2 308.4c0.2 10 0 19.8 0 29.6 0 18.4 0 36.6 0 55 0 41.2-23.6 68.2-64.8 70.2-35.8 1.6-71.6 2.4-107.4-0.6-32.6-2.8-57.8-29.4-58.2-62.2-0.6-40.8-1-81.6 0-122.4 1.2-50 38.8-92.8 90.4-105.2 61-14.6 122.8 23.2 137.4 84 4 17.2 2.4 34.4 2.6 51.6zM791.8 283.8c-0.2 13.2-0.4 26.2 0.4 39 0.2 7-2 8.4-8.4 8-7-0.4-14-0.4-21 0-4.8 0.2-6-1.4-6-6 0.2-13.6 0.2-27.4 0-41-0.2-28.4-21.8-51-48.8-51-26.8 0-48.8 22.6-49 51-0.2 35.4-0.2 70.6 0 105.8 0 6-1.4 8.4-7.6 7.8-5.6-0.6-11.2-0.6-16.6 0-6.6 0.6-7.8-2.2-7.6-8 0.4-18.6 0.2-37.2 0.2-59.8 0.8-17-2.2-38.2 1.2-58.8 5.8-33.8 26.4-56.6 58.6-66 33.6-9.8 62.6 0.6 85.6 27 12.8 14.8 19.4 32.2 19 52zM723.8 269.4c4.8 4 1.4 14.2 1.6 21.6 0.2 19.8 0 39.6 0 59.4 0 24.6-0.2 49.4 0.2 74.2 0 6-1.6 8.4-7.8 7.6-7.6-1-18 3.2-22.4-1.8-3.8-4.2-1.4-14.2-1.4-21.8 0-44.2 0.2-88.6-0.2-132.8 0-6.6 1.6-8.6 8.2-8 7.4 0.8 17.2-2.2 21.8 1.6zM725.4 350.6c0 24.6-0.2 49.4 0.4 74.2 0 6-1.6 8.4-7.8 7.6-7.6-1-18 3.2-22.4-1.8-3.8-4.2-1.4-14.2-1.4-21.8 0-44.2 0.2-88.6-0.2-132.8 0-6.6 1.6-8.6 8.2-8 7.4 0.8 17.2-2.2 21.8 1.6 4.8 4 1.4 14.2 1.4 21.6 0.2 19.8 0 39.6 0 59.4zM791.8 283.8c-0.2 13.2-0.4 26.2 0.4 39 0.2 7-2 8.4-8.4 8-7-0.4-14-0.4-21 0-4.8 0.2-6-1.4-6-6 0.2-13.6 0.2-27.4 0-41-0.2-28.4-21.8-51-48.8-51-26.8 0-48.8 22.6-49 51-0.2 35.4-0.2 70.6 0 105.8 0 6-1.4 8.4-7.6 7.8-5.6-0.6-11.2-0.6-16.6 0-6.6 0.6-7.8-2.2-7.6-8 0.4-18.6 0.2-37.2 0.2-59.8 0.8-17-2.2-38.2 1.2-58.8 5.8-33.8 26.4-56.6 58.6-66 33.6-9.8 62.6 0.6 85.6 27 12.8 14.8 19.4 32.2 19 52zM791.8 283.8c-0.2 13.2-0.4 26.2 0.4 39 0.2 7-2 8.4-8.4 8-7-0.4-14-0.4-21 0-4.8 0.2-6-1.4-6-6 0.2-13.6 0.2-27.4 0-41-0.2-28.4-21.8-51-48.8-51-26.8 0-48.8 22.6-49 51-0.2 35.4-0.2 70.6 0 105.8 0 6-1.4 8.4-7.6 7.8-5.6-0.6-11.2-0.6-16.6 0-6.6 0.6-7.8-2.2-7.6-8 0.4-18.6 0.2-37.2 0.2-59.8 0.8-17-2.2-38.2 1.2-58.8 5.8-33.8 26.4-56.6 58.6-66 33.6-9.8 62.6 0.6 85.6 27 12.8 14.8 19.4 32.2 19 52zM725.4 350.6c0 24.6-0.2 49.4 0.4 74.2 0 6-1.6 8.4-7.8 7.6-7.6-1-18 3.2-22.4-1.8-3.8-4.2-1.4-14.2-1.4-21.8 0-44.2 0.2-88.6-0.2-132.8 0-6.6 1.6-8.6 8.2-8 7.4 0.8 17.2-2.2 21.8 1.6 4.8 4 1.4 14.2 1.4 21.6 0.2 19.8 0 39.6 0 59.4zM725.4 350.6c0 24.6-0.2 49.4 0.4 74.2 0 6-1.6 8.4-7.8 7.6-7.6-1-18 3.2-22.4-1.8-3.8-4.2-1.4-14.2-1.4-21.8 0-44.2 0.2-88.6-0.2-132.8 0-6.6 1.6-8.6 8.2-8 7.4 0.8 17.2-2.2 21.8 1.6 4.8 4 1.4 14.2 1.4 21.6 0.2 19.8 0 39.6 0 59.4zM791.8 283.8c-0.2 13.2-0.4 26.2 0.4 39 0.2 7-2 8.4-8.4 8-7-0.4-14-0.4-21 0-4.8 0.2-6-1.4-6-6 0.2-13.6 0.2-27.4 0-41-0.2-28.4-21.8-51-48.8-51-26.8 0-48.8 22.6-49 51-0.2 35.4-0.2 70.6 0 105.8 0 6-1.4 8.4-7.6 7.8-5.6-0.6-11.2-0.6-16.6 0-6.6 0.6-7.8-2.2-7.6-8 0.4-18.6 0.2-37.2 0.2-59.8 0.8-17-2.2-38.2 1.2-58.8 5.8-33.8 26.4-56.6 58.6-66 33.6-9.8 62.6 0.6 85.6 27 12.8 14.8 19.4 32.2 19 52zM791.8 283.8c-0.2 13.2-0.4 26.2 0.4 39 0.2 7-2 8.4-8.4 8-7-0.4-14-0.4-21 0-4.8 0.2-6-1.4-6-6 0.2-13.6 0.2-27.4 0-41-0.2-28.4-21.8-51-48.8-51-26.8 0-48.8 22.6-49 51-0.2 35.4-0.2 70.6 0 105.8 0 6-1.4 8.4-7.6 7.8-5.6-0.6-11.2-0.6-16.6 0-6.6 0.6-7.8-2.2-7.6-8 0.4-18.6 0.2-37.2 0.2-59.8 0.8-17-2.2-38.2 1.2-58.8 5.8-33.8 26.4-56.6 58.6-66 33.6-9.8 62.6 0.6 85.6 27 12.8 14.8 19.4 32.2 19 52zM725.4 350.6c0 24.6-0.2 49.4 0.4 74.2 0 6-1.6 8.4-7.8 7.6-7.6-1-18 3.2-22.4-1.8-3.8-4.2-1.4-14.2-1.4-21.8 0-44.2 0.2-88.6-0.2-132.8 0-6.6 1.6-8.6 8.2-8 7.4 0.8 17.2-2.2 21.8 1.6 4.8 4 1.4 14.2 1.4 21.6 0.2 19.8 0 39.6 0 59.4zM725.4 350.6c0 24.6-0.2 49.4 0.4 74.2 0 6-1.6 8.4-7.8 7.6-7.6-1-18 3.2-22.4-1.8-3.8-4.2-1.4-14.2-1.4-21.8 0-44.2 0.2-88.6-0.2-132.8 0-6.6 1.6-8.6 8.2-8 7.4 0.8 17.2-2.2 21.8 1.6 4.8 4 1.4 14.2 1.4 21.6 0.2 19.8 0 39.6 0 59.4zM791.8 283.8c-0.2 13.2-0.4 26.2 0.4 39 0.2 7-2 8.4-8.4 8-7-0.4-14-0.4-21 0-4.8 0.2-6-1.4-6-6 0.2-13.6 0.2-27.4 0-41-0.2-28.4-21.8-51-48.8-51-26.8 0-48.8 22.6-49 51-0.2 35.4-0.2 70.6 0 105.8 0 6-1.4 8.4-7.6 7.8-5.6-0.6-11.2-0.6-16.6 0-6.6 0.6-7.8-2.2-7.6-8 0.4-18.6 0.2-37.2 0.2-59.8 0.8-17-2.2-38.2 1.2-58.8 5.8-33.8 26.4-56.6 58.6-66 33.6-9.8 62.6 0.6 85.6 27 12.8 14.8 19.4 32.2 19 52zM791.8 283.8c-0.2 13.2-0.4 26.2 0.4 39 0.2 7-2 8.4-8.4 8-7-0.4-14-0.4-21 0-4.8 0.2-6-1.4-6-6 0.2-13.6 0.2-27.4 0-41-0.2-28.4-21.8-51-48.8-51-26.8 0-48.8 22.6-49 51-0.2 35.4-0.2 70.6 0 105.8 0 6-1.4 8.4-7.6 7.8-5.6-0.6-11.2-0.6-16.6 0-6.6 0.6-7.8-2.2-7.6-8 0.4-18.6 0.2-37.2 0.2-59.8 0.8-17-2.2-38.2 1.2-58.8 5.8-33.8 26.4-56.6 58.6-66 33.6-9.8 62.6 0.6 85.6 27 12.8 14.8 19.4 32.2 19 52zM725.4 350.6c0 24.6-0.2 49.4 0.4 74.2 0 6-1.6 8.4-7.8 7.6-7.6-1-18 3.2-22.4-1.8-3.8-4.2-1.4-14.2-1.4-21.8 0-44.2 0.2-88.6-0.2-132.8 0-6.6 1.6-8.6 8.2-8 7.4 0.8 17.2-2.2 21.8 1.6 4.8 4 1.4 14.2 1.4 21.6 0.2 19.8 0 39.6 0 59.4zM725.4 350.6c0 24.6-0.2 49.4 0.4 74.2 0 6-1.6 8.4-7.8 7.6-7.6-1-18 3.2-22.4-1.8-3.8-4.2-1.4-14.2-1.4-21.8 0-44.2 0.2-88.6-0.2-132.8 0-6.6 1.6-8.6 8.2-8 7.4 0.8 17.2-2.2 21.8 1.6 4.8 4 1.4 14.2 1.4 21.6 0.2 19.8 0 39.6 0 59.4zM791.8 283.8c-0.2 13.2-0.4 26.2 0.4 39 0.2 7-2 8.4-8.4 8-7-0.4-14-0.4-21 0-4.8 0.2-6-1.4-6-6 0.2-13.6 0.2-27.4 0-41-0.2-28.4-21.8-51-48.8-51-26.8 0-48.8 22.6-49 51-0.2 35.4-0.2 70.6 0 105.8 0 6-1.4 8.4-7.6 7.8-5.6-0.6-11.2-0.6-16.6 0-6.6 0.6-7.8-2.2-7.6-8 0.4-18.6 0.2-37.2 0.2-59.8 0.8-17-2.2-38.2 1.2-58.8 5.8-33.8 26.4-56.6 58.6-66 33.6-9.8 62.6 0.6 85.6 27 12.8 14.8 19.4 32.2 19 52zM791.8 283.8c-0.2 13.2-0.4 26.2 0.4 39 0.2 7-2 8.4-8.4 8-7-0.4-14-0.4-21 0-4.8 0.2-6-1.4-6-6 0.2-13.6 0.2-27.4 0-41-0.2-28.4-21.8-51-48.8-51-26.8 0-48.8 22.6-49 51-0.2 35.4-0.2 70.6 0 105.8 0 6-1.4 8.4-7.6 7.8-5.6-0.6-11.2-0.6-16.6 0-6.6 0.6-7.8-2.2-7.6-8 0.4-18.6 0.2-37.2 0.2-59.8 0.8-17-2.2-38.2 1.2-58.8 5.8-33.8 26.4-56.6 58.6-66 33.6-9.8 62.6 0.6 85.6 27 12.8 14.8 19.4 32.2 19 52zM723.8 269.4c4.8 4 1.4 14.2 1.6 21.6 0.2 19.8 0 39.6 0 59.4 0 24.6-0.2 49.4 0.2 74.2 0 6-1.6 8.4-7.8 7.6-7.6-1-18 3.2-22.4-1.8-3.8-4.2-1.4-14.2-1.4-21.8 0-44.2 0.2-88.6-0.2-132.8 0-6.6 1.6-8.6 8.2-8 7.4 0.8 17.2-2.2 21.8 1.6zM854.4 327.4c-0.8-15 2-40.8-1.4-66.8-8.4-68.8-75-142.2-175-122.4-66.8 13.4-115.6 73.6-116.8 141.6-0.8 40.4-0.6 81 0 121.4 0.8 46.4 38 88.2 84 92.6 41.4 3.8 83.4 3.8 124.8 0.2 46.6-4 81.2-40.6 84.2-86.6 1.4-23 0.2-46.2 0.2-80zM823.2 308.4c0.2 10 0 19.8 0 29.6 0 18.4 0 36.6 0 55 0 41.2-23.6 68.2-64.8 70.2-35.8 1.6-71.6 2.4-107.4-0.6-32.6-2.8-57.8-29.4-58.2-62.2-0.6-40.8-1-81.6 0-122.4 1.2-50 38.8-92.8 90.4-105.2 61-14.6 122.8 23.2 137.4 84 4 17.2 2.4 34.4 2.6 51.6zM791.8 283.8c-0.2 13.2-0.4 26.2 0.4 39 0.2 7-2 8.4-8.4 8-7-0.4-14-0.4-21 0-4.8 0.2-6-1.4-6-6 0.2-13.6 0.2-27.4 0-41-0.2-28.4-21.8-51-48.8-51-26.8 0-48.8 22.6-49 51-0.2 35.4-0.2 70.6 0 105.8 0 6-1.4 8.4-7.6 7.8-5.6-0.6-11.2-0.6-16.6 0-6.6 0.6-7.8-2.2-7.6-8 0.4-18.6 0.2-37.2 0.2-59.8 0.8-17-2.2-38.2 1.2-58.8 5.8-33.8 26.4-56.6 58.6-66 33.6-9.8 62.6 0.6 85.6 27 12.8 14.8 19.4 32.2 19 52zM723.8 269.4c4.8 4 1.4 14.2 1.6 21.6 0.2 19.8 0 39.6 0 59.4 0 24.6-0.2 49.4 0.2 74.2 0 6-1.6 8.4-7.8 7.6-7.6-1-18 3.2-22.4-1.8-3.8-4.2-1.4-14.2-1.4-21.8 0-44.2 0.2-88.6-0.2-132.8 0-6.6 1.6-8.6 8.2-8 7.4 0.8 17.2-2.2 21.8 1.6zM725.4 350.6c0 24.6-0.2 49.4 0.4 74.2 0 6-1.6 8.4-7.8 7.6-7.6-1-18 3.2-22.4-1.8-3.8-4.2-1.4-14.2-1.4-21.8 0-44.2 0.2-88.6-0.2-132.8 0-6.6 1.6-8.6 8.2-8 7.4 0.8 17.2-2.2 21.8 1.6 4.8 4 1.4 14.2 1.4 21.6 0.2 19.8 0 39.6 0 59.4zM791.8 283.8c-0.2 13.2-0.4 26.2 0.4 39 0.2 7-2 8.4-8.4 8-7-0.4-14-0.4-21 0-4.8 0.2-6-1.4-6-6 0.2-13.6 0.2-27.4 0-41-0.2-28.4-21.8-51-48.8-51-26.8 0-48.8 22.6-49 51-0.2 35.4-0.2 70.6 0 105.8 0 6-1.4 8.4-7.6 7.8-5.6-0.6-11.2-0.6-16.6 0-6.6 0.6-7.8-2.2-7.6-8 0.4-18.6 0.2-37.2 0.2-59.8 0.8-17-2.2-38.2 1.2-58.8 5.8-33.8 26.4-56.6 58.6-66 33.6-9.8 62.6 0.6 85.6 27 12.8 14.8 19.4 32.2 19 52zM791.8 283.8c-0.2 13.2-0.4 26.2 0.4 39 0.2 7-2 8.4-8.4 8-7-0.4-14-0.4-21 0-4.8 0.2-6-1.4-6-6 0.2-13.6 0.2-27.4 0-41-0.2-28.4-21.8-51-48.8-51-26.8 0-48.8 22.6-49 51-0.2 35.4-0.2 70.6 0 105.8 0 6-1.4 8.4-7.6 7.8-5.6-0.6-11.2-0.6-16.6 0-6.6 0.6-7.8-2.2-7.6-8 0.4-18.6 0.2-37.2 0.2-59.8 0.8-17-2.2-38.2 1.2-58.8 5.8-33.8 26.4-56.6 58.6-66 33.6-9.8 62.6 0.6 85.6 27 12.8 14.8 19.4 32.2 19 52zM725.4 350.6c0 24.6-0.2 49.4 0.4 74.2 0 6-1.6 8.4-7.8 7.6-7.6-1-18 3.2-22.4-1.8-3.8-4.2-1.4-14.2-1.4-21.8 0-44.2 0.2-88.6-0.2-132.8 0-6.6 1.6-8.6 8.2-8 7.4 0.8 17.2-2.2 21.8 1.6 4.8 4 1.4 14.2 1.4 21.6 0.2 19.8 0 39.6 0 59.4zM725.4 350.6c0 24.6-0.2 49.4 0.4 74.2 0 6-1.6 8.4-7.8 7.6-7.6-1-18 3.2-22.4-1.8-3.8-4.2-1.4-14.2-1.4-21.8 0-44.2 0.2-88.6-0.2-132.8 0-6.6 1.6-8.6 8.2-8 7.4 0.8 17.2-2.2 21.8 1.6 4.8 4 1.4 14.2 1.4 21.6 0.2 19.8 0 39.6 0 59.4zM791.8 283.8c-0.2 13.2-0.4 26.2 0.4 39 0.2 7-2 8.4-8.4 8-7-0.4-14-0.4-21 0-4.8 0.2-6-1.4-6-6 0.2-13.6 0.2-27.4 0-41-0.2-28.4-21.8-51-48.8-51-26.8 0-48.8 22.6-49 51-0.2 35.4-0.2 70.6 0 105.8 0 6-1.4 8.4-7.6 7.8-5.6-0.6-11.2-0.6-16.6 0-6.6 0.6-7.8-2.2-7.6-8 0.4-18.6 0.2-37.2 0.2-59.8 0.8-17-2.2-38.2 1.2-58.8 5.8-33.8 26.4-56.6 58.6-66 33.6-9.8 62.6 0.6 85.6 27 12.8 14.8 19.4 32.2 19 52zM791.8 283.8c-0.2 13.2-0.4 26.2 0.4 39 0.2 7-2 8.4-8.4 8-7-0.4-14-0.4-21 0-4.8 0.2-6-1.4-6-6 0.2-13.6 0.2-27.4 0-41-0.2-28.4-21.8-51-48.8-51-26.8 0-48.8 22.6-49 51-0.2 35.4-0.2 70.6 0 105.8 0 6-1.4 8.4-7.6 7.8-5.6-0.6-11.2-0.6-16.6 0-6.6 0.6-7.8-2.2-7.6-8 0.4-18.6 0.2-37.2 0.2-59.8 0.8-17-2.2-38.2 1.2-58.8 5.8-33.8 26.4-56.6 58.6-66 33.6-9.8 62.6 0.6 85.6 27 12.8 14.8 19.4 32.2 19 52zM723.8 269.4c4.8 4 1.4 14.2 1.6 21.6 0.2 19.8 0 39.6 0 59.4 0 24.6-0.2 49.4 0.2 74.2 0 6-1.6 8.4-7.8 7.6-7.6-1-18 3.2-22.4-1.8-3.8-4.2-1.4-14.2-1.4-21.8 0-44.2 0.2-88.6-0.2-132.8 0-6.6 1.6-8.6 8.2-8 7.4 0.8 17.2-2.2 21.8 1.6zM854.4 327.4c-0.8-15 2-40.8-1.4-66.8-8.4-68.8-75-142.2-175-122.4-66.8 13.4-115.6 73.6-116.8 141.6-0.8 40.4-0.6 81 0 121.4 0.8 46.4 38 88.2 84 92.6 41.4 3.8 83.4 3.8 124.8 0.2 46.6-4 81.2-40.6 84.2-86.6 1.4-23 0.2-46.2 0.2-80zM823.2 308.4c0.2 10 0 19.8 0 29.6 0 18.4 0 36.6 0 55 0 41.2-23.6 68.2-64.8 70.2-35.8 1.6-71.6 2.4-107.4-0.6-32.6-2.8-57.8-29.4-58.2-62.2-0.6-40.8-1-81.6 0-122.4 1.2-50 38.8-92.8 90.4-105.2 61-14.6 122.8 23.2 137.4 84 4 17.2 2.4 34.4 2.6 51.6zM791.8 283.8c-0.2 13.2-0.4 26.2 0.4 39 0.2 7-2 8.4-8.4 8-7-0.4-14-0.4-21 0-4.8 0.2-6-1.4-6-6 0.2-13.6 0.2-27.4 0-41-0.2-28.4-21.8-51-48.8-51-26.8 0-48.8 22.6-49 51-0.2 35.4-0.2 70.6 0 105.8 0 6-1.4 8.4-7.6 7.8-5.6-0.6-11.2-0.6-16.6 0-6.6 0.6-7.8-2.2-7.6-8 0.4-18.6 0.2-37.2 0.2-59.8 0.8-17-2.2-38.2 1.2-58.8 5.8-33.8 26.4-56.6 58.6-66 33.6-9.8 62.6 0.6 85.6 27 12.8 14.8 19.4 32.2 19 52zM723.8 269.4c4.8 4 1.4 14.2 1.6 21.6 0.2 19.8 0 39.6 0 59.4 0 24.6-0.2 49.4 0.2 74.2 0 6-1.6 8.4-7.8 7.6-7.6-1-18 3.2-22.4-1.8-3.8-4.2-1.4-14.2-1.4-21.8 0-44.2 0.2-88.6-0.2-132.8 0-6.6 1.6-8.6 8.2-8 7.4 0.8 17.2-2.2 21.8 1.6zM725.4 350.6c0 24.6-0.2 49.4 0.4 74.2 0 6-1.6 8.4-7.8 7.6-7.6-1-18 3.2-22.4-1.8-3.8-4.2-1.4-14.2-1.4-21.8 0-44.2 0.2-88.6-0.2-132.8 0-6.6 1.6-8.6 8.2-8 7.4 0.8 17.2-2.2 21.8 1.6 4.8 4 1.4 14.2 1.4 21.6 0.2 19.8 0 39.6 0 59.4zM791.8 283.8c-0.2 13.2-0.4 26.2 0.4 39 0.2 7-2 8.4-8.4 8-7-0.4-14-0.4-21 0-4.8 0.2-6-1.4-6-6 0.2-13.6 0.2-27.4 0-41-0.2-28.4-21.8-51-48.8-51-26.8 0-48.8 22.6-49 51-0.2 35.4-0.2 70.6 0 105.8 0 6-1.4 8.4-7.6 7.8-5.6-0.6-11.2-0.6-16.6 0-6.6 0.6-7.8-2.2-7.6-8 0.4-18.6 0.2-37.2 0.2-59.8 0.8-17-2.2-38.2 1.2-58.8 5.8-33.8 26.4-56.6 58.6-66 33.6-9.8 62.6 0.6 85.6 27 12.8 14.8 19.4 32.2 19 52zM791.8 283.8c-0.2 13.2-0.4 26.2 0.4 39 0.2 7-2 8.4-8.4 8-7-0.4-14-0.4-21 0-4.8 0.2-6-1.4-6-6 0.2-13.6 0.2-27.4 0-41-0.2-28.4-21.8-51-48.8-51-26.8 0-48.8 22.6-49 51-0.2 35.4-0.2 70.6 0 105.8 0 6-1.4 8.4-7.6 7.8-5.6-0.6-11.2-0.6-16.6 0-6.6 0.6-7.8-2.2-7.6-8 0.4-18.6 0.2-37.2 0.2-59.8 0.8-17-2.2-38.2 1.2-58.8 5.8-33.8 26.4-56.6 58.6-66 33.6-9.8 62.6 0.6 85.6 27 12.8 14.8 19.4 32.2 19 52zM725.4 350.6c0 24.6-0.2 49.4 0.4 74.2 0 6-1.6 8.4-7.8 7.6-7.6-1-18 3.2-22.4-1.8-3.8-4.2-1.4-14.2-1.4-21.8 0-44.2 0.2-88.6-0.2-132.8 0-6.6 1.6-8.6 8.2-8 7.4 0.8 17.2-2.2 21.8 1.6 4.8 4 1.4 14.2 1.4 21.6 0.2 19.8 0 39.6 0 59.4zM725.4 350.6c0 24.6-0.2 49.4 0.4 74.2 0 6-1.6 8.4-7.8 7.6-7.6-1-18 3.2-22.4-1.8-3.8-4.2-1.4-14.2-1.4-21.8 0-44.2 0.2-88.6-0.2-132.8 0-6.6 1.6-8.6 8.2-8 7.4 0.8 17.2-2.2 21.8 1.6 4.8 4 1.4 14.2 1.4 21.6 0.2 19.8 0 39.6 0 59.4zM791.8 283.8c-0.2 13.2-0.4 26.2 0.4 39 0.2 7-2 8.4-8.4 8-7-0.4-14-0.4-21 0-4.8 0.2-6-1.4-6-6 0.2-13.6 0.2-27.4 0-41-0.2-28.4-21.8-51-48.8-51-26.8 0-48.8 22.6-49 51-0.2 35.4-0.2 70.6 0 105.8 0 6-1.4 8.4-7.6 7.8-5.6-0.6-11.2-0.6-16.6 0-6.6 0.6-7.8-2.2-7.6-8 0.4-18.6 0.2-37.2 0.2-59.8 0.8-17-2.2-38.2 1.2-58.8 5.8-33.8 26.4-56.6 58.6-66 33.6-9.8 62.6 0.6 85.6 27 12.8 14.8 19.4 32.2 19 52zM791.8 283.8c-0.2 13.2-0.4 26.2 0.4 39 0.2 7-2 8.4-8.4 8-7-0.4-14-0.4-21 0-4.8 0.2-6-1.4-6-6 0.2-13.6 0.2-27.4 0-41-0.2-28.4-21.8-51-48.8-51-26.8 0-48.8 22.6-49 51-0.2 35.4-0.2 70.6 0 105.8 0 6-1.4 8.4-7.6 7.8-5.6-0.6-11.2-0.6-16.6 0-6.6 0.6-7.8-2.2-7.6-8 0.4-18.6 0.2-37.2 0.2-59.8 0.8-17-2.2-38.2 1.2-58.8 5.8-33.8 26.4-56.6 58.6-66 33.6-9.8 62.6 0.6 85.6 27 12.8 14.8 19.4 32.2 19 52zM723.8 269.4c-4.6-3.8-14.4-0.8-21.8-1.6-6.6-0.6-8.2 1.4-8.2 8 0.4 44.2 0.2 88.6 0.2 132.8 0 7.6-2.4 17.6 1.4 21.8 4.4 5 14.8 0.8 22.4 1.8 6.2 0.8 7.8-1.6 7.8-7.6-0.4-24.8-0.2-49.6-0.2-74.2 0-19.8 0.2-39.6 0-59.4-0.2-7.4 3.2-17.6-1.6-21.6zM854.4 327.4c-0.8-15 2-40.8-1.4-66.8-8.4-68.8-75-142.2-175-122.4-66.8 13.4-115.6 73.6-116.8 141.6-0.8 40.4-0.6 81 0 121.4 0.8 46.4 38 88.2 84 92.6 41.4 3.8 83.4 3.8 124.8 0.2 46.6-4 81.2-40.6 84.2-86.6 1.4-23 0.2-46.2 0.2-80zM823.2 308.4c0.2 10 0 19.8 0 29.6 0 18.4 0 36.6 0 55 0 41.2-23.6 68.2-64.8 70.2-35.8 1.6-71.6 2.4-107.4-0.6-32.6-2.8-57.8-29.4-58.2-62.2-0.6-40.8-1-81.6 0-122.4 1.2-50 38.8-92.8 90.4-105.2 61-14.6 122.8 23.2 137.4 84 4 17.2 2.4 34.4 2.6 51.6zM791.8 283.8c-0.2 13.2-0.4 26.2 0.4 39 0.2 7-2 8.4-8.4 8-7-0.4-14-0.4-21 0-4.8 0.2-6-1.4-6-6 0.2-13.6 0.2-27.4 0-41-0.2-28.4-21.8-51-48.8-51-26.8 0-48.8 22.6-49 51-0.2 35.4-0.2 70.6 0 105.8 0 6-1.4 8.4-7.6 7.8-5.6-0.6-11.2-0.6-16.6 0-6.6 0.6-7.8-2.2-7.6-8 0.4-18.6 0.2-37.2 0.2-59.8 0.8-17-2.2-38.2 1.2-58.8 5.8-33.8 26.4-56.6 58.6-66 33.6-9.8 62.6 0.6 85.6 27 12.8 14.8 19.4 32.2 19 52zM723.8 269.4c-4.6-3.8-14.4-0.8-21.8-1.6-6.6-0.6-8.2 1.4-8.2 8 0.4 44.2 0.2 88.6 0.2 132.8 0 7.6-2.4 17.6 1.4 21.8 4.4 5 14.8 0.8 22.4 1.8 6.2 0.8 7.8-1.6 7.8-7.6-0.4-24.8-0.2-49.6-0.2-74.2 0-19.8 0.2-39.6 0-59.4-0.2-7.4 3.2-17.6-1.6-21.6zM854.4 327.4c-0.8-15 2-40.8-1.4-66.8-8.4-68.8-75-142.2-175-122.4-66.8 13.4-115.6 73.6-116.8 141.6-0.8 40.4-0.6 81 0 121.4 0.8 46.4 38 88.2 84 92.6 41.4 3.8 83.4 3.8 124.8 0.2 46.6-4 81.2-40.6 84.2-86.6 1.4-23 0.2-46.2 0.2-80zM823.2 308.4c0.2 10 0 19.8 0 29.6 0 18.4 0 36.6 0 55 0 41.2-23.6 68.2-64.8 70.2-35.8 1.6-71.6 2.4-107.4-0.6-32.6-2.8-57.8-29.4-58.2-62.2-0.6-40.8-1-81.6 0-122.4 1.2-50 38.8-92.8 90.4-105.2 61-14.6 122.8 23.2 137.4 84 4 17.2 2.4 34.4 2.6 51.6zM791.8 283.8c-0.2 13.2-0.4 26.2 0.4 39 0.2 7-2 8.4-8.4 8-7-0.4-14-0.4-21 0-4.8 0.2-6-1.4-6-6 0.2-13.6 0.2-27.4 0-41-0.2-28.4-21.8-51-48.8-51-26.8 0-48.8 22.6-49 51-0.2 35.4-0.2 70.6 0 105.8 0 6-1.4 8.4-7.6 7.8-5.6-0.6-11.2-0.6-16.6 0-6.6 0.6-7.8-2.2-7.6-8 0.4-18.6 0.2-37.2 0.2-59.8 0.8-17-2.2-38.2 1.2-58.8 5.8-33.8 26.4-56.6 58.6-66 33.6-9.8 62.6 0.6 85.6 27 12.8 14.8 19.4 32.2 19 52zM723.8 269.4c-4.6-3.8-14.4-0.8-21.8-1.6-6.6-0.6-8.2 1.4-8.2 8 0.4 44.2 0.2 88.6 0.2 132.8 0 7.6-2.4 17.6 1.4 21.8 4.4 5 14.8 0.8 22.4 1.8 6.2 0.8 7.8-1.6 7.8-7.6-0.4-24.8-0.2-49.6-0.2-74.2 0-19.8 0.2-39.6 0-59.4-0.2-7.4 3.2-17.6-1.6-21.6zM725.4 350.6c0 24.6-0.2 49.4 0.4 74.2 0 6-1.6 8.4-7.8 7.6-7.6-1-18 3.2-22.4-1.8-3.8-4.2-1.4-14.2-1.4-21.8 0-44.2 0.2-88.6-0.2-132.8 0-6.6 1.6-8.6 8.2-8 7.4 0.8 17.2-2.2 21.8 1.6 4.8 4 1.4 14.2 1.4 21.6 0.2 19.8 0 39.6 0 59.4zM791.8 283.8c-0.2 13.2-0.4 26.2 0.4 39 0.2 7-2 8.4-8.4 8-7-0.4-14-0.4-21 0-4.8 0.2-6-1.4-6-6 0.2-13.6 0.2-27.4 0-41-0.2-28.4-21.8-51-48.8-51-26.8 0-48.8 22.6-49 51-0.2 35.4-0.2 70.6 0 105.8 0 6-1.4 8.4-7.6 7.8-5.6-0.6-11.2-0.6-16.6 0-6.6 0.6-7.8-2.2-7.6-8 0.4-18.6 0.2-37.2 0.2-59.8 0.8-17-2.2-38.2 1.2-58.8 5.8-33.8 26.4-56.6 58.6-66 33.6-9.8 62.6 0.6 85.6 27 12.8 14.8 19.4 32.2 19 52zM791.8 283.8c-0.2 13.2-0.4 26.2 0.4 39 0.2 7-2 8.4-8.4 8-7-0.4-14-0.4-21 0-4.8 0.2-6-1.4-6-6 0.2-13.6 0.2-27.4 0-41-0.2-28.4-21.8-51-48.8-51-26.8 0-48.8 22.6-49 51-0.2 35.4-0.2 70.6 0 105.8 0 6-1.4 8.4-7.6 7.8-5.6-0.6-11.2-0.6-16.6 0-6.6 0.6-7.8-2.2-7.6-8 0.4-18.6 0.2-37.2 0.2-59.8 0.8-17-2.2-38.2 1.2-58.8 5.8-33.8 26.4-56.6 58.6-66 33.6-9.8 62.6 0.6 85.6 27 12.8 14.8 19.4 32.2 19 52zM723.8 269.4c-4.6-3.8-14.4-0.8-21.8-1.6-6.6-0.6-8.2 1.4-8.2 8 0.4 44.2 0.2 88.6 0.2 132.8 0 7.6-2.4 17.6 1.4 21.8 4.4 5 14.8 0.8 22.4 1.8 6.2 0.8 7.8-1.6 7.8-7.6-0.4-24.8-0.2-49.6-0.2-74.2 0-19.8 0.2-39.6 0-59.4-0.2-7.4 3.2-17.6-1.6-21.6zM854.4 327.4c-0.8-15 2-40.8-1.4-66.8-8.4-68.8-75-142.2-175-122.4-66.8 13.4-115.6 73.6-116.8 141.6-0.8 40.4-0.6 81 0 121.4 0.8 46.4 38 88.2 84 92.6 41.4 3.8 83.4 3.8 124.8 0.2 46.6-4 81.2-40.6 84.2-86.6 1.4-23 0.2-46.2 0.2-80zM823.2 308.4c0.2 10 0 19.8 0 29.6 0 18.4 0 36.6 0 55 0 41.2-23.6 68.2-64.8 70.2-35.8 1.6-71.6 2.4-107.4-0.6-32.6-2.8-57.8-29.4-58.2-62.2-0.6-40.8-1-81.6 0-122.4 1.2-50 38.8-92.8 90.4-105.2 61-14.6 122.8 23.2 137.4 84 4 17.2 2.4 34.4 2.6 51.6zM791.8 283.8c-0.2 13.2-0.4 26.2 0.4 39 0.2 7-2 8.4-8.4 8-7-0.4-14-0.4-21 0-4.8 0.2-6-1.4-6-6 0.2-13.6 0.2-27.4 0-41-0.2-28.4-21.8-51-48.8-51-26.8 0-48.8 22.6-49 51-0.2 35.4-0.2 70.6 0 105.8 0 6-1.4 8.4-7.6 7.8-5.6-0.6-11.2-0.6-16.6 0-6.6 0.6-7.8-2.2-7.6-8 0.4-18.6 0.2-37.2 0.2-59.8 0.8-17-2.2-38.2 1.2-58.8 5.8-33.8 26.4-56.6 58.6-66 33.6-9.8 62.6 0.6 85.6 27 12.8 14.8 19.4 32.2 19 52zM723.8 269.4c-4.6-3.8-14.4-0.8-21.8-1.6-6.6-0.6-8.2 1.4-8.2 8 0.4 44.2 0.2 88.6 0.2 132.8 0 7.6-2.4 17.6 1.4 21.8 4.4 5 14.8 0.8 22.4 1.8 6.2 0.8 7.8-1.6 7.8-7.6-0.4-24.8-0.2-49.6-0.2-74.2 0-19.8 0.2-39.6 0-59.4-0.2-7.4 3.2-17.6-1.6-21.6zM725.4 350.6c0 24.6-0.2 49.4 0.4 74.2 0 6-1.6 8.4-7.8 7.6-7.6-1-18 3.2-22.4-1.8-3.8-4.2-1.4-14.2-1.4-21.8 0-44.2 0.2-88.6-0.2-132.8 0-6.6 1.6-8.6 8.2-8 7.4 0.8 17.2-2.2 21.8 1.6 4.8 4 1.4 14.2 1.4 21.6 0.2 19.8 0 39.6 0 59.4zM791.8 283.8c-0.2 13.2-0.4 26.2 0.4 39 0.2 7-2 8.4-8.4 8-7-0.4-14-0.4-21 0-4.8 0.2-6-1.4-6-6 0.2-13.6 0.2-27.4 0-41-0.2-28.4-21.8-51-48.8-51-26.8 0-48.8 22.6-49 51-0.2 35.4-0.2 70.6 0 105.8 0 6-1.4 8.4-7.6 7.8-5.6-0.6-11.2-0.6-16.6 0-6.6 0.6-7.8-2.2-7.6-8 0.4-18.6 0.2-37.2 0.2-59.8 0.8-17-2.2-38.2 1.2-58.8 5.8-33.8 26.4-56.6 58.6-66 33.6-9.8 62.6 0.6 85.6 27 12.8 14.8 19.4 32.2 19 52zM791.8 283.8c-0.2 13.2-0.4 26.2 0.4 39 0.2 7-2 8.4-8.4 8-7-0.4-14-0.4-21 0-4.8 0.2-6-1.4-6-6 0.2-13.6 0.2-27.4 0-41-0.2-28.4-21.8-51-48.8-51-26.8 0-48.8 22.6-49 51-0.2 35.4-0.2 70.6 0 105.8 0 6-1.4 8.4-7.6 7.8-5.6-0.6-11.2-0.6-16.6 0-6.6 0.6-7.8-2.2-7.6-8 0.4-18.6 0.2-37.2 0.2-59.8 0.8-17-2.2-38.2 1.2-58.8 5.8-33.8 26.4-56.6 58.6-66 33.6-9.8 62.6 0.6 85.6 27 12.8 14.8 19.4 32.2 19 52zM723.8 269.4c-4.6-3.8-14.4-0.8-21.8-1.6-6.6-0.6-8.2 1.4-8.2 8 0.4 44.2 0.2 88.6 0.2 132.8 0 7.6-2.4 17.6 1.4 21.8 4.4 5 14.8 0.8 22.4 1.8 6.2 0.8 7.8-1.6 7.8-7.6-0.4-24.8-0.2-49.6-0.2-74.2 0-19.8 0.2-39.6 0-59.4-0.2-7.4 3.2-17.6-1.6-21.6zM854.4 327.4c-0.8-15 2-40.8-1.4-66.8-8.4-68.8-75-142.2-175-122.4-66.8 13.4-115.6 73.6-116.8 141.6-0.8 40.4-0.6 81 0 121.4 0.8 46.4 38 88.2 84 92.6 41.4 3.8 83.4 3.8 124.8 0.2 46.6-4 81.2-40.6 84.2-86.6 1.4-23 0.2-46.2 0.2-80zM823.2 308.4c0.2 10 0 19.8 0 29.6 0 18.4 0 36.6 0 55 0 41.2-23.6 68.2-64.8 70.2-35.8 1.6-71.6 2.4-107.4-0.6-32.6-2.8-57.8-29.4-58.2-62.2-0.6-40.8-1-81.6 0-122.4 1.2-50 38.8-92.8 90.4-105.2 61-14.6 122.8 23.2 137.4 84 4 17.2 2.4 34.4 2.6 51.6zM791.8 283.8c-0.2 13.2-0.4 26.2 0.4 39 0.2 7-2 8.4-8.4 8-7-0.4-14-0.4-21 0-4.8 0.2-6-1.4-6-6 0.2-13.6 0.2-27.4 0-41-0.2-28.4-21.8-51-48.8-51-26.8 0-48.8 22.6-49 51-0.2 35.4-0.2 70.6 0 105.8 0 6-1.4 8.4-7.6 7.8-5.6-0.6-11.2-0.6-16.6 0-6.6 0.6-7.8-2.2-7.6-8 0.4-18.6 0.2-37.2 0.2-59.8 0.8-17-2.2-38.2 1.2-58.8 5.8-33.8 26.4-56.6 58.6-66 33.6-9.8 62.6 0.6 85.6 27 12.8 14.8 19.4 32.2 19 52zM723.8 269.4c-4.6-3.8-14.4-0.8-21.8-1.6-6.6-0.6-8.2 1.4-8.2 8 0.4 44.2 0.2 88.6 0.2 132.8 0 7.6-2.4 17.6 1.4 21.8 4.4 5 14.8 0.8 22.4 1.8 6.2 0.8 7.8-1.6 7.8-7.6-0.4-24.8-0.2-49.6-0.2-74.2 0-19.8 0.2-39.6 0-59.4-0.2-7.4 3.2-17.6-1.6-21.6zM725.4 350.6c0 24.6-0.2 49.4 0.4 74.2 0 6-1.6 8.4-7.8 7.6-7.6-1-18 3.2-22.4-1.8-3.8-4.2-1.4-14.2-1.4-21.8 0-44.2 0.2-88.6-0.2-132.8 0-6.6 1.6-8.6 8.2-8 7.4 0.8 17.2-2.2 21.8 1.6 4.8 4 1.4 14.2 1.4 21.6 0.2 19.8 0 39.6 0 59.4zM791.8 283.8c-0.2 13.2-0.4 26.2 0.4 39 0.2 7-2 8.4-8.4 8-7-0.4-14-0.4-21 0-4.8 0.2-6-1.4-6-6 0.2-13.6 0.2-27.4 0-41-0.2-28.4-21.8-51-48.8-51-26.8 0-48.8 22.6-49 51-0.2 35.4-0.2 70.6 0 105.8 0 6-1.4 8.4-7.6 7.8-5.6-0.6-11.2-0.6-16.6 0-6.6 0.6-7.8-2.2-7.6-8 0.4-18.6 0.2-37.2 0.2-59.8 0.8-17-2.2-38.2 1.2-58.8 5.8-33.8 26.4-56.6 58.6-66 33.6-9.8 62.6 0.6 85.6 27 12.8 14.8 19.4 32.2 19 52zM791.8 283.8c-0.2 13.2-0.4 26.2 0.4 39 0.2 7-2 8.4-8.4 8-7-0.4-14-0.4-21 0-4.8 0.2-6-1.4-6-6 0.2-13.6 0.2-27.4 0-41-0.2-28.4-21.8-51-48.8-51-26.8 0-48.8 22.6-49 51-0.2 35.4-0.2 70.6 0 105.8 0 6-1.4 8.4-7.6 7.8-5.6-0.6-11.2-0.6-16.6 0-6.6 0.6-7.8-2.2-7.6-8 0.4-18.6 0.2-37.2 0.2-59.8 0.8-17-2.2-38.2 1.2-58.8 5.8-33.8 26.4-56.6 58.6-66 33.6-9.8 62.6 0.6 85.6 27 12.8 14.8 19.4 32.2 19 52zM725.4 350.6c0 24.6-0.2 49.4 0.4 74.2 0 6-1.6 8.4-7.8 7.6-7.6-1-18 3.2-22.4-1.8-3.8-4.2-1.4-14.2-1.4-21.8 0-44.2 0.2-88.6-0.2-132.8 0-6.6 1.6-8.6 8.2-8 7.4 0.8 17.2-2.2 21.8 1.6 4.8 4 1.4 14.2 1.4 21.6 0.2 19.8 0 39.6 0 59.4zM725.4 350.6c0 24.6-0.2 49.4 0.4 74.2 0 6-1.6 8.4-7.8 7.6-7.6-1-18 3.2-22.4-1.8-3.8-4.2-1.4-14.2-1.4-21.8 0-44.2 0.2-88.6-0.2-132.8 0-6.6 1.6-8.6 8.2-8 7.4 0.8 17.2-2.2 21.8 1.6 4.8 4 1.4 14.2 1.4 21.6 0.2 19.8 0 39.6 0 59.4zM791.8 283.8c-0.2 13.2-0.4 26.2 0.4 39 0.2 7-2 8.4-8.4 8-7-0.4-14-0.4-21 0-4.8 0.2-6-1.4-6-6 0.2-13.6 0.2-27.4 0-41-0.2-28.4-21.8-51-48.8-51-26.8 0-48.8 22.6-49 51-0.2 35.4-0.2 70.6 0 105.8 0 6-1.4 8.4-7.6 7.8-5.6-0.6-11.2-0.6-16.6 0-6.6 0.6-7.8-2.2-7.6-8 0.4-18.6 0.2-37.2 0.2-59.8 0.8-17-2.2-38.2 1.2-58.8 5.8-33.8 26.4-56.6 58.6-66 33.6-9.8 62.6 0.6 85.6 27 12.8 14.8 19.4 32.2 19 52zM791.8 283.8c-0.2 13.2-0.4 26.2 0.4 39 0.2 7-2 8.4-8.4 8-7-0.4-14-0.4-21 0-4.8 0.2-6-1.4-6-6 0.2-13.6 0.2-27.4 0-41-0.2-28.4-21.8-51-48.8-51-26.8 0-48.8 22.6-49 51-0.2 35.4-0.2 70.6 0 105.8 0 6-1.4 8.4-7.6 7.8-5.6-0.6-11.2-0.6-16.6 0-6.6 0.6-7.8-2.2-7.6-8 0.4-18.6 0.2-37.2 0.2-59.8 0.8-17-2.2-38.2 1.2-58.8 5.8-33.8 26.4-56.6 58.6-66 33.6-9.8 62.6 0.6 85.6 27 12.8 14.8 19.4 32.2 19 52zM725.4 350.6c0 24.6-0.2 49.4 0.4 74.2 0 6-1.6 8.4-7.8 7.6-7.6-1-18 3.2-22.4-1.8-3.8-4.2-1.4-14.2-1.4-21.8 0-44.2 0.2-88.6-0.2-132.8 0-6.6 1.6-8.6 8.2-8 7.4 0.8 17.2-2.2 21.8 1.6 4.8 4 1.4 14.2 1.4 21.6 0.2 19.8 0 39.6 0 59.4zM725.4 350.6c0 24.6-0.2 49.4 0.4 74.2 0 6-1.6 8.4-7.8 7.6-7.6-1-18 3.2-22.4-1.8-3.8-4.2-1.4-14.2-1.4-21.8 0-44.2 0.2-88.6-0.2-132.8 0-6.6 1.6-8.6 8.2-8 7.4 0.8 17.2-2.2 21.8 1.6 4.8 4 1.4 14.2 1.4 21.6 0.2 19.8 0 39.6 0 59.4zM791.8 283.8c-0.2 13.2-0.4 26.2 0.4 39 0.2 7-2 8.4-8.4 8-7-0.4-14-0.4-21 0-4.8 0.2-6-1.4-6-6 0.2-13.6 0.2-27.4 0-41-0.2-28.4-21.8-51-48.8-51-26.8 0-48.8 22.6-49 51-0.2 35.4-0.2 70.6 0 105.8 0 6-1.4 8.4-7.6 7.8-5.6-0.6-11.2-0.6-16.6 0-6.6 0.6-7.8-2.2-7.6-8 0.4-18.6 0.2-37.2 0.2-59.8 0.8-17-2.2-38.2 1.2-58.8 5.8-33.8 26.4-56.6 58.6-66 33.6-9.8 62.6 0.6 85.6 27 12.8 14.8 19.4 32.2 19 52zM791.8 283.8c-0.2 13.2-0.4 26.2 0.4 39 0.2 7-2 8.4-8.4 8-7-0.4-14-0.4-21 0-4.8 0.2-6-1.4-6-6 0.2-13.6 0.2-27.4 0-41-0.2-28.4-21.8-51-48.8-51-26.8 0-48.8 22.6-49 51-0.2 35.4-0.2 70.6 0 105.8 0 6-1.4 8.4-7.6 7.8-5.6-0.6-11.2-0.6-16.6 0-6.6 0.6-7.8-2.2-7.6-8 0.4-18.6 0.2-37.2 0.2-59.8 0.8-17-2.2-38.2 1.2-58.8 5.8-33.8 26.4-56.6 58.6-66 33.6-9.8 62.6 0.6 85.6 27 12.8 14.8 19.4 32.2 19 52zM723.8 269.4c-4.6-3.8-14.4-0.8-21.8-1.6-6.6-0.6-8.2 1.4-8.2 8 0.4 44.2 0.2 88.6 0.2 132.8 0 7.6-2.4 17.6 1.4 21.8 4.4 5 14.8 0.8 22.4 1.8 6.2 0.8 7.8-1.6 7.8-7.6-0.4-24.8-0.2-49.6-0.2-74.2 0-19.8 0.2-39.6 0-59.4-0.2-7.4 3.2-17.6-1.6-21.6zM854.4 327.4c-0.8-15 2-40.8-1.4-66.8-8.4-68.8-75-142.2-175-122.4-66.8 13.4-115.6 73.6-116.8 141.6-0.8 40.4-0.6 81 0 121.4 0.8 46.4 38 88.2 84 92.6 41.4 3.8 83.4 3.8 124.8 0.2 46.6-4 81.2-40.6 84.2-86.6 1.4-23 0.2-46.2 0.2-80zM823.2 308.4c0.2 10 0 19.8 0 29.6 0 18.4 0 36.6 0 55 0 41.2-23.6 68.2-64.8 70.2-35.8 1.6-71.6 2.4-107.4-0.6-32.6-2.8-57.8-29.4-58.2-62.2-0.6-40.8-1-81.6 0-122.4 1.2-50 38.8-92.8 90.4-105.2 61-14.6 122.8 23.2 137.4 84 4 17.2 2.4 34.4 2.6 51.6zM791.8 283.8c-0.2 13.2-0.4 26.2 0.4 39 0.2 7-2 8.4-8.4 8-7-0.4-14-0.4-21 0-4.8 0.2-6-1.4-6-6 0.2-13.6 0.2-27.4 0-41-0.2-28.4-21.8-51-48.8-51-26.8 0-48.8 22.6-49 51-0.2 35.4-0.2 70.6 0 105.8 0 6-1.4 8.4-7.6 7.8-5.6-0.6-11.2-0.6-16.6 0-6.6 0.6-7.8-2.2-7.6-8 0.4-18.6 0.2-37.2 0.2-59.8 0.8-17-2.2-38.2 1.2-58.8 5.8-33.8 26.4-56.6 58.6-66 33.6-9.8 62.6 0.6 85.6 27 12.8 14.8 19.4 32.2 19 52zM723.8 269.4c-4.6-3.8-14.4-0.8-21.8-1.6-6.6-0.6-8.2 1.4-8.2 8 0.4 44.2 0.2 88.6 0.2 132.8 0 7.6-2.4 17.6 1.4 21.8 4.4 5 14.8 0.8 22.4 1.8 6.2 0.8 7.8-1.6 7.8-7.6-0.4-24.8-0.2-49.6-0.2-74.2 0-19.8 0.2-39.6 0-59.4-0.2-7.4 3.2-17.6-1.6-21.6zM725.4 350.6c0 24.6-0.2 49.4 0.4 74.2 0 6-1.6 8.4-7.8 7.6-7.6-1-18 3.2-22.4-1.8-3.8-4.2-1.4-14.2-1.4-21.8 0-44.2 0.2-88.6-0.2-132.8 0-6.6 1.6-8.6 8.2-8 7.4 0.8 17.2-2.2 21.8 1.6 4.8 4 1.4 14.2 1.4 21.6 0.2 19.8 0 39.6 0 59.4zM791.8 283.8c-0.2 13.2-0.4 26.2 0.4 39 0.2 7-2 8.4-8.4 8-7-0.4-14-0.4-21 0-4.8 0.2-6-1.4-6-6 0.2-13.6 0.2-27.4 0-41-0.2-28.4-21.8-51-48.8-51-26.8 0-48.8 22.6-49 51-0.2 35.4-0.2 70.6 0 105.8 0 6-1.4 8.4-7.6 7.8-5.6-0.6-11.2-0.6-16.6 0-6.6 0.6-7.8-2.2-7.6-8 0.4-18.6 0.2-37.2 0.2-59.8 0.8-17-2.2-38.2 1.2-58.8 5.8-33.8 26.4-56.6 58.6-66 33.6-9.8 62.6 0.6 85.6 27 12.8 14.8 19.4 32.2 19 52zM791.8 283.8c-0.2 13.2-0.4 26.2 0.4 39 0.2 7-2 8.4-8.4 8-7-0.4-14-0.4-21 0-4.8 0.2-6-1.4-6-6 0.2-13.6 0.2-27.4 0-41-0.2-28.4-21.8-51-48.8-51-26.8 0-48.8 22.6-49 51-0.2 35.4-0.2 70.6 0 105.8 0 6-1.4 8.4-7.6 7.8-5.6-0.6-11.2-0.6-16.6 0-6.6 0.6-7.8-2.2-7.6-8 0.4-18.6 0.2-37.2 0.2-59.8 0.8-17-2.2-38.2 1.2-58.8 5.8-33.8 26.4-56.6 58.6-66 33.6-9.8 62.6 0.6 85.6 27 12.8 14.8 19.4 32.2 19 52zM725.4 350.6c0 24.6-0.2 49.4 0.4 74.2 0 6-1.6 8.4-7.8 7.6-7.6-1-18 3.2-22.4-1.8-3.8-4.2-1.4-14.2-1.4-21.8 0-44.2 0.2-88.6-0.2-132.8 0-6.6 1.6-8.6 8.2-8 7.4 0.8 17.2-2.2 21.8 1.6 4.8 4 1.4 14.2 1.4 21.6 0.2 19.8 0 39.6 0 59.4zM725.4 350.6c0 24.6-0.2 49.4 0.4 74.2 0 6-1.6 8.4-7.8 7.6-7.6-1-18 3.2-22.4-1.8-3.8-4.2-1.4-14.2-1.4-21.8 0-44.2 0.2-88.6-0.2-132.8 0-6.6 1.6-8.6 8.2-8 7.4 0.8 17.2-2.2 21.8 1.6 4.8 4 1.4 14.2 1.4 21.6 0.2 19.8 0 39.6 0 59.4zM791.8 283.8c-0.2 13.2-0.4 26.2 0.4 39 0.2 7-2 8.4-8.4 8-7-0.4-14-0.4-21 0-4.8 0.2-6-1.4-6-6 0.2-13.6 0.2-27.4 0-41-0.2-28.4-21.8-51-48.8-51-26.8 0-48.8 22.6-49 51-0.2 35.4-0.2 70.6 0 105.8 0 6-1.4 8.4-7.6 7.8-5.6-0.6-11.2-0.6-16.6 0-6.6 0.6-7.8-2.2-7.6-8 0.4-18.6 0.2-37.2 0.2-59.8 0.8-17-2.2-38.2 1.2-58.8 5.8-33.8 26.4-56.6 58.6-66 33.6-9.8 62.6 0.6 85.6 27 12.8 14.8 19.4 32.2 19 52zM791.8 283.8c-0.2 13.2-0.4 26.2 0.4 39 0.2 7-2 8.4-8.4 8-7-0.4-14-0.4-21 0-4.8 0.2-6-1.4-6-6 0.2-13.6 0.2-27.4 0-41-0.2-28.4-21.8-51-48.8-51-26.8 0-48.8 22.6-49 51-0.2 35.4-0.2 70.6 0 105.8 0 6-1.4 8.4-7.6 7.8-5.6-0.6-11.2-0.6-16.6 0-6.6 0.6-7.8-2.2-7.6-8 0.4-18.6 0.2-37.2 0.2-59.8 0.8-17-2.2-38.2 1.2-58.8 5.8-33.8 26.4-56.6 58.6-66 33.6-9.8 62.6 0.6 85.6 27 12.8 14.8 19.4 32.2 19 52zM725.4 350.6c0 24.6-0.2 49.4 0.4 74.2 0 6-1.6 8.4-7.8 7.6-7.6-1-18 3.2-22.4-1.8-3.8-4.2-1.4-14.2-1.4-21.8 0-44.2 0.2-88.6-0.2-132.8 0-6.6 1.6-8.6 8.2-8 7.4 0.8 17.2-2.2 21.8 1.6 4.8 4 1.4 14.2 1.4 21.6 0.2 19.8 0 39.6 0 59.4zM725.4 350.6c0 24.6-0.2 49.4 0.4 74.2 0 6-1.6 8.4-7.8 7.6-7.6-1-18 3.2-22.4-1.8-3.8-4.2-1.4-14.2-1.4-21.8 0-44.2 0.2-88.6-0.2-132.8 0-6.6 1.6-8.6 8.2-8 7.4 0.8 17.2-2.2 21.8 1.6 4.8 4 1.4 14.2 1.4 21.6 0.2 19.8 0 39.6 0 59.4zM791.8 283.8c-0.2 13.2-0.4 26.2 0.4 39 0.2 7-2 8.4-8.4 8-7-0.4-14-0.4-21 0-4.8 0.2-6-1.4-6-6 0.2-13.6 0.2-27.4 0-41-0.2-28.4-21.8-51-48.8-51-26.8 0-48.8 22.6-49 51-0.2 35.4-0.2 70.6 0 105.8 0 6-1.4 8.4-7.6 7.8-5.6-0.6-11.2-0.6-16.6 0-6.6 0.6-7.8-2.2-7.6-8 0.4-18.6 0.2-37.2 0.2-59.8 0.8-17-2.2-38.2 1.2-58.8 5.8-33.8 26.4-56.6 58.6-66 33.6-9.8 62.6 0.6 85.6 27 12.8 14.8 19.4 32.2 19 52zM791.8 283.8c-0.2 13.2-0.4 26.2 0.4 39 0.2 7-2 8.4-8.4 8-7-0.4-14-0.4-21 0-4.8 0.2-6-1.4-6-6 0.2-13.6 0.2-27.4 0-41-0.2-28.4-21.8-51-48.8-51-26.8 0-48.8 22.6-49 51-0.2 35.4-0.2 70.6 0 105.8 0 6-1.4 8.4-7.6 7.8-5.6-0.6-11.2-0.6-16.6 0-6.6 0.6-7.8-2.2-7.6-8 0.4-18.6 0.2-37.2 0.2-59.8 0.8-17-2.2-38.2 1.2-58.8 5.8-33.8 26.4-56.6 58.6-66 33.6-9.8 62.6 0.6 85.6 27 12.8 14.8 19.4 32.2 19 52zM723.8 269.4c-4.6-3.8-14.4-0.8-21.8-1.6-6.6-0.6-8.2 1.4-8.2 8 0.4 44.2 0.2 88.6 0.2 132.8 0 7.6-2.4 17.6 1.4 21.8 4.4 5 14.8 0.8 22.4 1.8 6.2 0.8 7.8-1.6 7.8-7.6-0.4-24.8-0.2-49.6-0.2-74.2 0-19.8 0.2-39.6 0-59.4-0.2-7.4 3.2-17.6-1.6-21.6zM854.4 327.4c-0.8-15 2-40.8-1.4-66.8-8.4-68.8-75-142.2-175-122.4-66.8 13.4-115.6 73.6-116.8 141.6-0.8 40.4-0.6 81 0 121.4 0.8 46.4 38 88.2 84 92.6 41.4 3.8 83.4 3.8 124.8 0.2 46.6-4 81.2-40.6 84.2-86.6 1.4-23 0.2-46.2 0.2-80zM823.2 308.4c0.2 10 0 19.8 0 29.6 0 18.4 0 36.6 0 55 0 41.2-23.6 68.2-64.8 70.2-35.8 1.6-71.6 2.4-107.4-0.6-32.6-2.8-57.8-29.4-58.2-62.2-0.6-40.8-1-81.6 0-122.4 1.2-50 38.8-92.8 90.4-105.2 61-14.6 122.8 23.2 137.4 84 4 17.2 2.4 34.4 2.6 51.6zM791.8 283.8c-0.2 13.2-0.4 26.2 0.4 39 0.2 7-2 8.4-8.4 8-7-0.4-14-0.4-21 0-4.8 0.2-6-1.4-6-6 0.2-13.6 0.2-27.4 0-41-0.2-28.4-21.8-51-48.8-51-26.8 0-48.8 22.6-49 51-0.2 35.4-0.2 70.6 0 105.8 0 6-1.4 8.4-7.6 7.8-5.6-0.6-11.2-0.6-16.6 0-6.6 0.6-7.8-2.2-7.6-8 0.4-18.6 0.2-37.2 0.2-59.8 0.8-17-2.2-38.2 1.2-58.8 5.8-33.8 26.4-56.6 58.6-66 33.6-9.8 62.6 0.6 85.6 27 12.8 14.8 19.4 32.2 19 52zM723.8 269.4c-4.6-3.8-14.4-0.8-21.8-1.6-6.6-0.6-8.2 1.4-8.2 8 0.4 44.2 0.2 88.6 0.2 132.8 0 7.6-2.4 17.6 1.4 21.8 4.4 5 14.8 0.8 22.4 1.8 6.2 0.8 7.8-1.6 7.8-7.6-0.4-24.8-0.2-49.6-0.2-74.2 0-19.8 0.2-39.6 0-59.4-0.2-7.4 3.2-17.6-1.6-21.6zM725.4 350.6c0 24.6-0.2 49.4 0.4 74.2 0 6-1.6 8.4-7.8 7.6-7.6-1-18 3.2-22.4-1.8-3.8-4.2-1.4-14.2-1.4-21.8 0-44.2 0.2-88.6-0.2-132.8 0-6.6 1.6-8.6 8.2-8 7.4 0.8 17.2-2.2 21.8 1.6 4.8 4 1.4 14.2 1.4 21.6 0.2 19.8 0 39.6 0 59.4zM791.8 283.8c-0.2 13.2-0.4 26.2 0.4 39 0.2 7-2 8.4-8.4 8-7-0.4-14-0.4-21 0-4.8 0.2-6-1.4-6-6 0.2-13.6 0.2-27.4 0-41-0.2-28.4-21.8-51-48.8-51-26.8 0-48.8 22.6-49 51-0.2 35.4-0.2 70.6 0 105.8 0 6-1.4 8.4-7.6 7.8-5.6-0.6-11.2-0.6-16.6 0-6.6 0.6-7.8-2.2-7.6-8 0.4-18.6 0.2-37.2 0.2-59.8 0.8-17-2.2-38.2 1.2-58.8 5.8-33.8 26.4-56.6 58.6-66 33.6-9.8 62.6 0.6 85.6 27 12.8 14.8 19.4 32.2 19 52zM791.8 283.8c-0.2 13.2-0.4 26.2 0.4 39 0.2 7-2 8.4-8.4 8-7-0.4-14-0.4-21 0-4.8 0.2-6-1.4-6-6 0.2-13.6 0.2-27.4 0-41-0.2-28.4-21.8-51-48.8-51-26.8 0-48.8 22.6-49 51-0.2 35.4-0.2 70.6 0 105.8 0 6-1.4 8.4-7.6 7.8-5.6-0.6-11.2-0.6-16.6 0-6.6 0.6-7.8-2.2-7.6-8 0.4-18.6 0.2-37.2 0.2-59.8 0.8-17-2.2-38.2 1.2-58.8 5.8-33.8 26.4-56.6 58.6-66 33.6-9.8 62.6 0.6 85.6 27 12.8 14.8 19.4 32.2 19 52zM725.4 350.6c0 24.6-0.2 49.4 0.4 74.2 0 6-1.6 8.4-7.8 7.6-7.6-1-18 3.2-22.4-1.8-3.8-4.2-1.4-14.2-1.4-21.8 0-44.2 0.2-88.6-0.2-132.8 0-6.6 1.6-8.6 8.2-8 7.4 0.8 17.2-2.2 21.8 1.6 4.8 4 1.4 14.2 1.4 21.6 0.2 19.8 0 39.6 0 59.4zM725.4 350.6c0 24.6-0.2 49.4 0.4 74.2 0 6-1.6 8.4-7.8 7.6-7.6-1-18 3.2-22.4-1.8-3.8-4.2-1.4-14.2-1.4-21.8 0-44.2 0.2-88.6-0.2-132.8 0-6.6 1.6-8.6 8.2-8 7.4 0.8 17.2-2.2 21.8 1.6 4.8 4 1.4 14.2 1.4 21.6 0.2 19.8 0 39.6 0 59.4zM791.8 283.8c-0.2 13.2-0.4 26.2 0.4 39 0.2 7-2 8.4-8.4 8-7-0.4-14-0.4-21 0-4.8 0.2-6-1.4-6-6 0.2-13.6 0.2-27.4 0-41-0.2-28.4-21.8-51-48.8-51-26.8 0-48.8 22.6-49 51-0.2 35.4-0.2 70.6 0 105.8 0 6-1.4 8.4-7.6 7.8-5.6-0.6-11.2-0.6-16.6 0-6.6 0.6-7.8-2.2-7.6-8 0.4-18.6 0.2-37.2 0.2-59.8 0.8-17-2.2-38.2 1.2-58.8 5.8-33.8 26.4-56.6 58.6-66 33.6-9.8 62.6 0.6 85.6 27 12.8 14.8 19.4 32.2 19 52zM791.8 283.8c-0.2 13.2-0.4 26.2 0.4 39 0.2 7-2 8.4-8.4 8-7-0.4-14-0.4-21 0-4.8 0.2-6-1.4-6-6 0.2-13.6 0.2-27.4 0-41-0.2-28.4-21.8-51-48.8-51-26.8 0-48.8 22.6-49 51-0.2 35.4-0.2 70.6 0 105.8 0 6-1.4 8.4-7.6 7.8-5.6-0.6-11.2-0.6-16.6 0-6.6 0.6-7.8-2.2-7.6-8 0.4-18.6 0.2-37.2 0.2-59.8 0.8-17-2.2-38.2 1.2-58.8 5.8-33.8 26.4-56.6 58.6-66 33.6-9.8 62.6 0.6 85.6 27 12.8 14.8 19.4 32.2 19 52zM725.4 350.6c0 24.6-0.2 49.4 0.4 74.2 0 6-1.6 8.4-7.8 7.6-7.6-1-18 3.2-22.4-1.8-3.8-4.2-1.4-14.2-1.4-21.8 0-44.2 0.2-88.6-0.2-132.8 0-6.6 1.6-8.6 8.2-8 7.4 0.8 17.2-2.2 21.8 1.6 4.8 4 1.4 14.2 1.4 21.6 0.2 19.8 0 39.6 0 59.4zM725.4 350.6c0 24.6-0.2 49.4 0.4 74.2 0 6-1.6 8.4-7.8 7.6-7.6-1-18 3.2-22.4-1.8-3.8-4.2-1.4-14.2-1.4-21.8 0-44.2 0.2-88.6-0.2-132.8 0-6.6 1.6-8.6 8.2-8 7.4 0.8 17.2-2.2 21.8 1.6 4.8 4 1.4 14.2 1.4 21.6 0.2 19.8 0 39.6 0 59.4zM791.8 283.8c-0.2 13.2-0.4 26.2 0.4 39 0.2 7-2 8.4-8.4 8-7-0.4-14-0.4-21 0-4.8 0.2-6-1.4-6-6 0.2-13.6 0.2-27.4 0-41-0.2-28.4-21.8-51-48.8-51-26.8 0-48.8 22.6-49 51-0.2 35.4-0.2 70.6 0 105.8 0 6-1.4 8.4-7.6 7.8-5.6-0.6-11.2-0.6-16.6 0-6.6 0.6-7.8-2.2-7.6-8 0.4-18.6 0.2-37.2 0.2-59.8 0.8-17-2.2-38.2 1.2-58.8 5.8-33.8 26.4-56.6 58.6-66 33.6-9.8 62.6 0.6 85.6 27 12.8 14.8 19.4 32.2 19 52zM791.8 283.8c-0.2 13.2-0.4 26.2 0.4 39 0.2 7-2 8.4-8.4 8-7-0.4-14-0.4-21 0-4.8 0.2-6-1.4-6-6 0.2-13.6 0.2-27.4 0-41-0.2-28.4-21.8-51-48.8-51-26.8 0-48.8 22.6-49 51-0.2 35.4-0.2 70.6 0 105.8 0 6-1.4 8.4-7.6 7.8-5.6-0.6-11.2-0.6-16.6 0-6.6 0.6-7.8-2.2-7.6-8 0.4-18.6 0.2-37.2 0.2-59.8 0.8-17-2.2-38.2 1.2-58.8 5.8-33.8 26.4-56.6 58.6-66 33.6-9.8 62.6 0.6 85.6 27 12.8 14.8 19.4 32.2 19 52zM725.4 350.6c0 24.6-0.2 49.4 0.4 74.2 0 6-1.6 8.4-7.8 7.6-7.6-1-18 3.2-22.4-1.8-3.8-4.2-1.4-14.2-1.4-21.8 0-44.2 0.2-88.6-0.2-132.8 0-6.6 1.6-8.6 8.2-8 7.4 0.8 17.2-2.2 21.8 1.6 4.8 4 1.4 14.2 1.4 21.6 0.2 19.8 0 39.6 0 59.4zM725.4 350.6c0 24.6-0.2 49.4 0.4 74.2 0 6-1.6 8.4-7.8 7.6-7.6-1-18 3.2-22.4-1.8-3.8-4.2-1.4-14.2-1.4-21.8 0-44.2 0.2-88.6-0.2-132.8 0-6.6 1.6-8.6 8.2-8 7.4 0.8 17.2-2.2 21.8 1.6 4.8 4 1.4 14.2 1.4 21.6 0.2 19.8 0 39.6 0 59.4zM791.8 283.8c-0.2 13.2-0.4 26.2 0.4 39 0.2 7-2 8.4-8.4 8-7-0.4-14-0.4-21 0-4.8 0.2-6-1.4-6-6 0.2-13.6 0.2-27.4 0-41-0.2-28.4-21.8-51-48.8-51-26.8 0-48.8 22.6-49 51-0.2 35.4-0.2 70.6 0 105.8 0 6-1.4 8.4-7.6 7.8-5.6-0.6-11.2-0.6-16.6 0-6.6 0.6-7.8-2.2-7.6-8 0.4-18.6 0.2-37.2 0.2-59.8 0.8-17-2.2-38.2 1.2-58.8 5.8-33.8 26.4-56.6 58.6-66 33.6-9.8 62.6 0.6 85.6 27 12.8 14.8 19.4 32.2 19 52zM791.8 283.8c-0.2 13.2-0.4 26.2 0.4 39 0.2 7-2 8.4-8.4 8-7-0.4-14-0.4-21 0-4.8 0.2-6-1.4-6-6 0.2-13.6 0.2-27.4 0-41-0.2-28.4-21.8-51-48.8-51-26.8 0-48.8 22.6-49 51-0.2 35.4-0.2 70.6 0 105.8 0 6-1.4 8.4-7.6 7.8-5.6-0.6-11.2-0.6-16.6 0-6.6 0.6-7.8-2.2-7.6-8 0.4-18.6 0.2-37.2 0.2-59.8 0.8-17-2.2-38.2 1.2-58.8 5.8-33.8 26.4-56.6 58.6-66 33.6-9.8 62.6 0.6 85.6 27 12.8 14.8 19.4 32.2 19 52zM725.4 350.6c0 24.6-0.2 49.4 0.4 74.2 0 6-1.6 8.4-7.8 7.6-7.6-1-18 3.2-22.4-1.8-3.8-4.2-1.4-14.2-1.4-21.8 0-44.2 0.2-88.6-0.2-132.8 0-6.6 1.6-8.6 8.2-8 7.4 0.8 17.2-2.2 21.8 1.6 4.8 4 1.4 14.2 1.4 21.6 0.2 19.8 0 39.6 0 59.4zM725.4 350.6c0 24.6-0.2 49.4 0.4 74.2 0 6-1.6 8.4-7.8 7.6-7.6-1-18 3.2-22.4-1.8-3.8-4.2-1.4-14.2-1.4-21.8 0-44.2 0.2-88.6-0.2-132.8 0-6.6 1.6-8.6 8.2-8 7.4 0.8 17.2-2.2 21.8 1.6 4.8 4 1.4 14.2 1.4 21.6 0.2 19.8 0 39.6 0 59.4zM791.8 283.8c-0.2 13.2-0.4 26.2 0.4 39 0.2 7-2 8.4-8.4 8-7-0.4-14-0.4-21 0-4.8 0.2-6-1.4-6-6 0.2-13.6 0.2-27.4 0-41-0.2-28.4-21.8-51-48.8-51-26.8 0-48.8 22.6-49 51-0.2 35.4-0.2 70.6 0 105.8 0 6-1.4 8.4-7.6 7.8-5.6-0.6-11.2-0.6-16.6 0-6.6 0.6-7.8-2.2-7.6-8 0.4-18.6 0.2-37.2 0.2-59.8 0.8-17-2.2-38.2 1.2-58.8 5.8-33.8 26.4-56.6 58.6-66 33.6-9.8 62.6 0.6 85.6 27 12.8 14.8 19.4 32.2 19 52zM791.8 283.8c-0.2 13.2-0.4 26.2 0.4 39 0.2 7-2 8.4-8.4 8-7-0.4-14-0.4-21 0-4.8 0.2-6-1.4-6-6 0.2-13.6 0.2-27.4 0-41-0.2-28.4-21.8-51-48.8-51-26.8 0-48.8 22.6-49 51-0.2 35.4-0.2 70.6 0 105.8 0 6-1.4 8.4-7.6 7.8-5.6-0.6-11.2-0.6-16.6 0-6.6 0.6-7.8-2.2-7.6-8 0.4-18.6 0.2-37.2 0.2-59.8 0.8-17-2.2-38.2 1.2-58.8 5.8-33.8 26.4-56.6 58.6-66 33.6-9.8 62.6 0.6 85.6 27 12.8 14.8 19.4 32.2 19 52zM723.8 269.4c-4.6-3.8-14.4-0.8-21.8-1.6-6.6-0.6-8.2 1.4-8.2 8 0.4 44.2 0.2 88.6 0.2 132.8 0 7.6-2.4 17.6 1.4 21.8 4.4 5 14.8 0.8 22.4 1.8 6.2 0.8 7.8-1.6 7.8-7.6-0.4-24.8-0.2-49.6-0.2-74.2 0-19.8 0.2-39.6 0-59.4-0.2-7.4 3.2-17.6-1.6-21.6zM854.4 327.4c-0.8-15 2-40.8-1.4-66.8-8.4-68.8-75-142.2-175-122.4-66.8 13.4-115.6 73.6-116.8 141.6-0.8 40.4-0.6 81 0 121.4 0.8 46.4 38 88.2 84 92.6 41.4 3.8 83.4 3.8 124.8 0.2 46.6-4 81.2-40.6 84.2-86.6 1.4-23 0.2-46.2 0.2-80zM823.2 308.4c0.2 10 0 19.8 0 29.6 0 18.4 0 36.6 0 55 0 41.2-23.6 68.2-64.8 70.2-35.8 1.6-71.6 2.4-107.4-0.6-32.6-2.8-57.8-29.4-58.2-62.2-0.6-40.8-1-81.6 0-122.4 1.2-50 38.8-92.8 90.4-105.2 61-14.6 122.8 23.2 137.4 84 4 17.2 2.4 34.4 2.6 51.6zM791.8 283.8c-0.2 13.2-0.4 26.2 0.4 39 0.2 7-2 8.4-8.4 8-7-0.4-14-0.4-21 0-4.8 0.2-6-1.4-6-6 0.2-13.6 0.2-27.4 0-41-0.2-28.4-21.8-51-48.8-51-26.8 0-48.8 22.6-49 51-0.2 35.4-0.2 70.6 0 105.8 0 6-1.4 8.4-7.6 7.8-5.6-0.6-11.2-0.6-16.6 0-6.6 0.6-7.8-2.2-7.6-8 0.4-18.6 0.2-37.2 0.2-59.8 0.8-17-2.2-38.2 1.2-58.8 5.8-33.8 26.4-56.6 58.6-66 33.6-9.8 62.6 0.6 85.6 27 12.8 14.8 19.4 32.2 19 52zM723.8 269.4c-4.6-3.8-14.4-0.8-21.8-1.6-6.6-0.6-8.2 1.4-8.2 8 0.4 44.2 0.2 88.6 0.2 132.8 0 7.6-2.4 17.6 1.4 21.8 4.4 5 14.8 0.8 22.4 1.8 6.2 0.8 7.8-1.6 7.8-7.6-0.4-24.8-0.2-49.6-0.2-74.2 0-19.8 0.2-39.6 0-59.4-0.2-7.4 3.2-17.6-1.6-21.6zM725.4 350.6c0 24.6-0.2 49.4 0.4 74.2 0 6-1.6 8.4-7.8 7.6-7.6-1-18 3.2-22.4-1.8-3.8-4.2-1.4-14.2-1.4-21.8 0-44.2 0.2-88.6-0.2-132.8 0-6.6 1.6-8.6 8.2-8 7.4 0.8 17.2-2.2 21.8 1.6 4.8 4 1.4 14.2 1.4 21.6 0.2 19.8 0 39.6 0 59.4zM791.8 283.8c-0.2 13.2-0.4 26.2 0.4 39 0.2 7-2 8.4-8.4 8-7-0.4-14-0.4-21 0-4.8 0.2-6-1.4-6-6 0.2-13.6 0.2-27.4 0-41-0.2-28.4-21.8-51-48.8-51-26.8 0-48.8 22.6-49 51-0.2 35.4-0.2 70.6 0 105.8 0 6-1.4 8.4-7.6 7.8-5.6-0.6-11.2-0.6-16.6 0-6.6 0.6-7.8-2.2-7.6-8 0.4-18.6 0.2-37.2 0.2-59.8 0.8-17-2.2-38.2 1.2-58.8 5.8-33.8 26.4-56.6 58.6-66 33.6-9.8 62.6 0.6 85.6 27 12.8 14.8 19.4 32.2 19 52zM791.8 283.8c-0.2 13.2-0.4 26.2 0.4 39 0.2 7-2 8.4-8.4 8-7-0.4-14-0.4-21 0-4.8 0.2-6-1.4-6-6 0.2-13.6 0.2-27.4 0-41-0.2-28.4-21.8-51-48.8-51-26.8 0-48.8 22.6-49 51-0.2 35.4-0.2 70.6 0 105.8 0 6-1.4 8.4-7.6 7.8-5.6-0.6-11.2-0.6-16.6 0-6.6 0.6-7.8-2.2-7.6-8 0.4-18.6 0.2-37.2 0.2-59.8 0.8-17-2.2-38.2 1.2-58.8 5.8-33.8 26.4-56.6 58.6-66 33.6-9.8 62.6 0.6 85.6 27 12.8 14.8 19.4 32.2 19 52zM725.4 350.6c0 24.6-0.2 49.4 0.4 74.2 0 6-1.6 8.4-7.8 7.6-7.6-1-18 3.2-22.4-1.8-3.8-4.2-1.4-14.2-1.4-21.8 0-44.2 0.2-88.6-0.2-132.8 0-6.6 1.6-8.6 8.2-8 7.4 0.8 17.2-2.2 21.8 1.6 4.8 4 1.4 14.2 1.4 21.6 0.2 19.8 0 39.6 0 59.4zM725.4 350.6c0 24.6-0.2 49.4 0.4 74.2 0 6-1.6 8.4-7.8 7.6-7.6-1-18 3.2-22.4-1.8-3.8-4.2-1.4-14.2-1.4-21.8 0-44.2 0.2-88.6-0.2-132.8 0-6.6 1.6-8.6 8.2-8 7.4 0.8 17.2-2.2 21.8 1.6 4.8 4 1.4 14.2 1.4 21.6 0.2 19.8 0 39.6 0 59.4zM791.8 283.8c-0.2 13.2-0.4 26.2 0.4 39 0.2 7-2 8.4-8.4 8-7-0.4-14-0.4-21 0-4.8 0.2-6-1.4-6-6 0.2-13.6 0.2-27.4 0-41-0.2-28.4-21.8-51-48.8-51-26.8 0-48.8 22.6-49 51-0.2 35.4-0.2 70.6 0 105.8 0 6-1.4 8.4-7.6 7.8-5.6-0.6-11.2-0.6-16.6 0-6.6 0.6-7.8-2.2-7.6-8 0.4-18.6 0.2-37.2 0.2-59.8 0.8-17-2.2-38.2 1.2-58.8 5.8-33.8 26.4-56.6 58.6-66 33.6-9.8 62.6 0.6 85.6 27 12.8 14.8 19.4 32.2 19 52zM791.8 283.8c-0.2 13.2-0.4 26.2 0.4 39 0.2 7-2 8.4-8.4 8-7-0.4-14-0.4-21 0-4.8 0.2-6-1.4-6-6 0.2-13.6 0.2-27.4 0-41-0.2-28.4-21.8-51-48.8-51-26.8 0-48.8 22.6-49 51-0.2 35.4-0.2 70.6 0 105.8 0 6-1.4 8.4-7.6 7.8-5.6-0.6-11.2-0.6-16.6 0-6.6 0.6-7.8-2.2-7.6-8 0.4-18.6 0.2-37.2 0.2-59.8 0.8-17-2.2-38.2 1.2-58.8 5.8-33.8 26.4-56.6 58.6-66 33.6-9.8 62.6 0.6 85.6 27 12.8 14.8 19.4 32.2 19 52zM725.4 350.6c0 24.6-0.2 49.4 0.4 74.2 0 6-1.6 8.4-7.8 7.6-7.6-1-18 3.2-22.4-1.8-3.8-4.2-1.4-14.2-1.4-21.8 0-44.2 0.2-88.6-0.2-132.8 0-6.6 1.6-8.6 8.2-8 7.4 0.8 17.2-2.2 21.8 1.6 4.8 4 1.4 14.2 1.4 21.6 0.2 19.8 0 39.6 0 59.4zM725.4 350.6c0 24.6-0.2 49.4 0.4 74.2 0 6-1.6 8.4-7.8 7.6-7.6-1-18 3.2-22.4-1.8-3.8-4.2-1.4-14.2-1.4-21.8 0-44.2 0.2-88.6-0.2-132.8 0-6.6 1.6-8.6 8.2-8 7.4 0.8 17.2-2.2 21.8 1.6 4.8 4 1.4 14.2 1.4 21.6 0.2 19.8 0 39.6 0 59.4zM791.8 283.8c-0.2 13.2-0.4 26.2 0.4 39 0.2 7-2 8.4-8.4 8-7-0.4-14-0.4-21 0-4.8 0.2-6-1.4-6-6 0.2-13.6 0.2-27.4 0-41-0.2-28.4-21.8-51-48.8-51-26.8 0-48.8 22.6-49 51-0.2 35.4-0.2 70.6 0 105.8 0 6-1.4 8.4-7.6 7.8-5.6-0.6-11.2-0.6-16.6 0-6.6 0.6-7.8-2.2-7.6-8 0.4-18.6 0.2-37.2 0.2-59.8 0.8-17-2.2-38.2 1.2-58.8 5.8-33.8 26.4-56.6 58.6-66 33.6-9.8 62.6 0.6 85.6 27 12.8 14.8 19.4 32.2 19 52zM791.8 283.8c-0.2 13.2-0.4 26.2 0.4 39 0.2 7-2 8.4-8.4 8-7-0.4-14-0.4-21 0-4.8 0.2-6-1.4-6-6 0.2-13.6 0.2-27.4 0-41-0.2-28.4-21.8-51-48.8-51-26.8 0-48.8 22.6-49 51-0.2 35.4-0.2 70.6 0 105.8 0 6-1.4 8.4-7.6 7.8-5.6-0.6-11.2-0.6-16.6 0-6.6 0.6-7.8-2.2-7.6-8 0.4-18.6 0.2-37.2 0.2-59.8 0.8-17-2.2-38.2 1.2-58.8 5.8-33.8 26.4-56.6 58.6-66 33.6-9.8 62.6 0.6 85.6 27 12.8 14.8 19.4 32.2 19 52zM725.4 350.6c0 24.6-0.2 49.4 0.4 74.2 0 6-1.6 8.4-7.8 7.6-7.6-1-18 3.2-22.4-1.8-3.8-4.2-1.4-14.2-1.4-21.8 0-44.2 0.2-88.6-0.2-132.8 0-6.6 1.6-8.6 8.2-8 7.4 0.8 17.2-2.2 21.8 1.6 4.8 4 1.4 14.2 1.4 21.6 0.2 19.8 0 39.6 0 59.4zM725.4 350.6c0 24.6-0.2 49.4 0.4 74.2 0 6-1.6 8.4-7.8 7.6-7.6-1-18 3.2-22.4-1.8-3.8-4.2-1.4-14.2-1.4-21.8 0-44.2 0.2-88.6-0.2-132.8 0-6.6 1.6-8.6 8.2-8 7.4 0.8 17.2-2.2 21.8 1.6 4.8 4 1.4 14.2 1.4 21.6 0.2 19.8 0 39.6 0 59.4zM791.8 283.8c-0.2 13.2-0.4 26.2 0.4 39 0.2 7-2 8.4-8.4 8-7-0.4-14-0.4-21 0-4.8 0.2-6-1.4-6-6 0.2-13.6 0.2-27.4 0-41-0.2-28.4-21.8-51-48.8-51-26.8 0-48.8 22.6-49 51-0.2 35.4-0.2 70.6 0 105.8 0 6-1.4 8.4-7.6 7.8-5.6-0.6-11.2-0.6-16.6 0-6.6 0.6-7.8-2.2-7.6-8 0.4-18.6 0.2-37.2 0.2-59.8 0.8-17-2.2-38.2 1.2-58.8 5.8-33.8 26.4-56.6 58.6-66 33.6-9.8 62.6 0.6 85.6 27 12.8 14.8 19.4 32.2 19 52zM791.8 283.8c-0.2 13.2-0.4 26.2 0.4 39 0.2 7-2 8.4-8.4 8-7-0.4-14-0.4-21 0-4.8 0.2-6-1.4-6-6 0.2-13.6 0.2-27.4 0-41-0.2-28.4-21.8-51-48.8-51-26.8 0-48.8 22.6-49 51-0.2 35.4-0.2 70.6 0 105.8 0 6-1.4 8.4-7.6 7.8-5.6-0.6-11.2-0.6-16.6 0-6.6 0.6-7.8-2.2-7.6-8 0.4-18.6 0.2-37.2 0.2-59.8 0.8-17-2.2-38.2 1.2-58.8 5.8-33.8 26.4-56.6 58.6-66 33.6-9.8 62.6 0.6 85.6 27 12.8 14.8 19.4 32.2 19 52zM725.4 350.6c0 24.6-0.2 49.4 0.4 74.2 0 6-1.6 8.4-7.8 7.6-7.6-1-18 3.2-22.4-1.8-3.8-4.2-1.4-14.2-1.4-21.8 0-44.2 0.2-88.6-0.2-132.8 0-6.6 1.6-8.6 8.2-8 7.4 0.8 17.2-2.2 21.8 1.6 4.8 4 1.4 14.2 1.4 21.6 0.2 19.8 0 39.6 0 59.4zM725.4 350.6c0 24.6-0.2 49.4 0.4 74.2 0 6-1.6 8.4-7.8 7.6-7.6-1-18 3.2-22.4-1.8-3.8-4.2-1.4-14.2-1.4-21.8 0-44.2 0.2-88.6-0.2-132.8 0-6.6 1.6-8.6 8.2-8 7.4 0.8 17.2-2.2 21.8 1.6 4.8 4 1.4 14.2 1.4 21.6 0.2 19.8 0 39.6 0 59.4zM791.8 283.8c-0.2 13.2-0.4 26.2 0.4 39 0.2 7-2 8.4-8.4 8-7-0.4-14-0.4-21 0-4.8 0.2-6-1.4-6-6 0.2-13.6 0.2-27.4 0-41-0.2-28.4-21.8-51-48.8-51-26.8 0-48.8 22.6-49 51-0.2 35.4-0.2 70.6 0 105.8 0 6-1.4 8.4-7.6 7.8-5.6-0.6-11.2-0.6-16.6 0-6.6 0.6-7.8-2.2-7.6-8 0.4-18.6 0.2-37.2 0.2-59.8 0.8-17-2.2-38.2 1.2-58.8 5.8-33.8 26.4-56.6 58.6-66 33.6-9.8 62.6 0.6 85.6 27 12.8 14.8 19.4 32.2 19 52zM791.8 283.8c-0.2 13.2-0.4 26.2 0.4 39 0.2 7-2 8.4-8.4 8-7-0.4-14-0.4-21 0-4.8 0.2-6-1.4-6-6 0.2-13.6 0.2-27.4 0-41-0.2-28.4-21.8-51-48.8-51-26.8 0-48.8 22.6-49 51-0.2 35.4-0.2 70.6 0 105.8 0 6-1.4 8.4-7.6 7.8-5.6-0.6-11.2-0.6-16.6 0-6.6 0.6-7.8-2.2-7.6-8 0.4-18.6 0.2-37.2 0.2-59.8 0.8-17-2.2-38.2 1.2-58.8 5.8-33.8 26.4-56.6 58.6-66 33.6-9.8 62.6 0.6 85.6 27 12.8 14.8 19.4 32.2 19 52zM723.8 269.4c-4.6-3.8-14.4-0.8-21.8-1.6-6.6-0.6-8.2 1.4-8.2 8 0.4 44.2 0.2 88.6 0.2 132.8 0 7.6-2.4 17.6 1.4 21.8 4.4 5 14.8 0.8 22.4 1.8 6.2 0.8 7.8-1.6 7.8-7.6-0.4-24.8-0.2-49.6-0.2-74.2 0-19.8 0.2-39.6 0-59.4-0.2-7.4 3.2-17.6-1.6-21.6zM854.4 327.4c-0.8-15 2-40.8-1.4-66.8-8.4-68.8-75-142.2-175-122.4-66.8 13.4-115.6 73.6-116.8 141.6-0.8 40.4-0.6 81 0 121.4 0.8 46.4 38 88.2 84 92.6 41.4 3.8 83.4 3.8 124.8 0.2 46.6-4 81.2-40.6 84.2-86.6 1.4-23 0.2-46.2 0.2-80zM823.2 308.4c0.2 10 0 19.8 0 29.6 0 18.4 0 36.6 0 55 0 41.2-23.6 68.2-64.8 70.2-35.8 1.6-71.6 2.4-107.4-0.6-32.6-2.8-57.8-29.4-58.2-62.2-0.6-40.8-1-81.6 0-122.4 1.2-50 38.8-92.8 90.4-105.2 61-14.6 122.8 23.2 137.4 84 4 17.2 2.4 34.4 2.6 51.6zM791.8 283.8c-0.2 13.2-0.4 26.2 0.4 39 0.2 7-2 8.4-8.4 8-7-0.4-14-0.4-21 0-4.8 0.2-6-1.4-6-6 0.2-13.6 0.2-27.4 0-41-0.2-28.4-21.8-51-48.8-51-26.8 0-48.8 22.6-49 51-0.2 35.4-0.2 70.6 0 105.8 0 6-1.4 8.4-7.6 7.8-5.6-0.6-11.2-0.6-16.6 0-6.6 0.6-7.8-2.2-7.6-8 0.4-18.6 0.2-37.2 0.2-59.8 0.8-17-2.2-38.2 1.2-58.8 5.8-33.8 26.4-56.6 58.6-66 33.6-9.8 62.6 0.6 85.6 27 12.8 14.8 19.4 32.2 19 52zM723.8 269.4c-4.6-3.8-14.4-0.8-21.8-1.6-6.6-0.6-8.2 1.4-8.2 8 0.4 44.2 0.2 88.6 0.2 132.8 0 7.6-2.4 17.6 1.4 21.8 4.4 5 14.8 0.8 22.4 1.8 6.2 0.8 7.8-1.6 7.8-7.6-0.4-24.8-0.2-49.6-0.2-74.2 0-19.8 0.2-39.6 0-59.4-0.2-7.4 3.2-17.6-1.6-21.6zM725.4 350.6c0 24.6-0.2 49.4 0.4 74.2 0 6-1.6 8.4-7.8 7.6-7.6-1-18 3.2-22.4-1.8-3.8-4.2-1.4-14.2-1.4-21.8 0-44.2 0.2-88.6-0.2-132.8 0-6.6 1.6-8.6 8.2-8 7.4 0.8 17.2-2.2 21.8 1.6 4.8 4 1.4 14.2 1.4 21.6 0.2 19.8 0 39.6 0 59.4zM791.8 283.8c-0.2 13.2-0.4 26.2 0.4 39 0.2 7-2 8.4-8.4 8-7-0.4-14-0.4-21 0-4.8 0.2-6-1.4-6-6 0.2-13.6 0.2-27.4 0-41-0.2-28.4-21.8-51-48.8-51-26.8 0-48.8 22.6-49 51-0.2 35.4-0.2 70.6 0 105.8 0 6-1.4 8.4-7.6 7.8-5.6-0.6-11.2-0.6-16.6 0-6.6 0.6-7.8-2.2-7.6-8 0.4-18.6 0.2-37.2 0.2-59.8 0.8-17-2.2-38.2 1.2-58.8 5.8-33.8 26.4-56.6 58.6-66 33.6-9.8 62.6 0.6 85.6 27 12.8 14.8 19.4 32.2 19 52zM791.8 283.8c-0.2 13.2-0.4 26.2 0.4 39 0.2 7-2 8.4-8.4 8-7-0.4-14-0.4-21 0-4.8 0.2-6-1.4-6-6 0.2-13.6 0.2-27.4 0-41-0.2-28.4-21.8-51-48.8-51-26.8 0-48.8 22.6-49 51-0.2 35.4-0.2 70.6 0 105.8 0 6-1.4 8.4-7.6 7.8-5.6-0.6-11.2-0.6-16.6 0-6.6 0.6-7.8-2.2-7.6-8 0.4-18.6 0.2-37.2 0.2-59.8 0.8-17-2.2-38.2 1.2-58.8 5.8-33.8 26.4-56.6 58.6-66 33.6-9.8 62.6 0.6 85.6 27 12.8 14.8 19.4 32.2 19 52zM725.4 350.6c0 24.6-0.2 49.4 0.4 74.2 0 6-1.6 8.4-7.8 7.6-7.6-1-18 3.2-22.4-1.8-3.8-4.2-1.4-14.2-1.4-21.8 0-44.2 0.2-88.6-0.2-132.8 0-6.6 1.6-8.6 8.2-8 7.4 0.8 17.2-2.2 21.8 1.6 4.8 4 1.4 14.2 1.4 21.6 0.2 19.8 0 39.6 0 59.4zM725.4 350.6c0 24.6-0.2 49.4 0.4 74.2 0 6-1.6 8.4-7.8 7.6-7.6-1-18 3.2-22.4-1.8-3.8-4.2-1.4-14.2-1.4-21.8 0-44.2 0.2-88.6-0.2-132.8 0-6.6 1.6-8.6 8.2-8 7.4 0.8 17.2-2.2 21.8 1.6 4.8 4 1.4 14.2 1.4 21.6 0.2 19.8 0 39.6 0 59.4zM791.8 283.8c-0.2 13.2-0.4 26.2 0.4 39 0.2 7-2 8.4-8.4 8-7-0.4-14-0.4-21 0-4.8 0.2-6-1.4-6-6 0.2-13.6 0.2-27.4 0-41-0.2-28.4-21.8-51-48.8-51-26.8 0-48.8 22.6-49 51-0.2 35.4-0.2 70.6 0 105.8 0 6-1.4 8.4-7.6 7.8-5.6-0.6-11.2-0.6-16.6 0-6.6 0.6-7.8-2.2-7.6-8 0.4-18.6 0.2-37.2 0.2-59.8 0.8-17-2.2-38.2 1.2-58.8 5.8-33.8 26.4-56.6 58.6-66 33.6-9.8 62.6 0.6 85.6 27 12.8 14.8 19.4 32.2 19 52zM791.8 283.8c-0.2 13.2-0.4 26.2 0.4 39 0.2 7-2 8.4-8.4 8-7-0.4-14-0.4-21 0-4.8 0.2-6-1.4-6-6 0.2-13.6 0.2-27.4 0-41-0.2-28.4-21.8-51-48.8-51-26.8 0-48.8 22.6-49 51-0.2 35.4-0.2 70.6 0 105.8 0 6-1.4 8.4-7.6 7.8-5.6-0.6-11.2-0.6-16.6 0-6.6 0.6-7.8-2.2-7.6-8 0.4-18.6 0.2-37.2 0.2-59.8 0.8-17-2.2-38.2 1.2-58.8 5.8-33.8 26.4-56.6 58.6-66 33.6-9.8 62.6 0.6 85.6 27 12.8 14.8 19.4 32.2 19 52zM725.4 350.6c0 24.6-0.2 49.4 0.4 74.2 0 6-1.6 8.4-7.8 7.6-7.6-1-18 3.2-22.4-1.8-3.8-4.2-1.4-14.2-1.4-21.8 0-44.2 0.2-88.6-0.2-132.8 0-6.6 1.6-8.6 8.2-8 7.4 0.8 17.2-2.2 21.8 1.6 4.8 4 1.4 14.2 1.4 21.6 0.2 19.8 0 39.6 0 59.4zM725.4 350.6c0 24.6-0.2 49.4 0.4 74.2 0 6-1.6 8.4-7.8 7.6-7.6-1-18 3.2-22.4-1.8-3.8-4.2-1.4-14.2-1.4-21.8 0-44.2 0.2-88.6-0.2-132.8 0-6.6 1.6-8.6 8.2-8 7.4 0.8 17.2-2.2 21.8 1.6 4.8 4 1.4 14.2 1.4 21.6 0.2 19.8 0 39.6 0 59.4zM791.8 283.8c-0.2 13.2-0.4 26.2 0.4 39 0.2 7-2 8.4-8.4 8-7-0.4-14-0.4-21 0-4.8 0.2-6-1.4-6-6 0.2-13.6 0.2-27.4 0-41-0.2-28.4-21.8-51-48.8-51-26.8 0-48.8 22.6-49 51-0.2 35.4-0.2 70.6 0 105.8 0 6-1.4 8.4-7.6 7.8-5.6-0.6-11.2-0.6-16.6 0-6.6 0.6-7.8-2.2-7.6-8 0.4-18.6 0.2-37.2 0.2-59.8 0.8-17-2.2-38.2 1.2-58.8 5.8-33.8 26.4-56.6 58.6-66 33.6-9.8 62.6 0.6 85.6 27 12.8 14.8 19.4 32.2 19 52zM791.8 283.8c-0.2 13.2-0.4 26.2 0.4 39 0.2 7-2 8.4-8.4 8-7-0.4-14-0.4-21 0-4.8 0.2-6-1.4-6-6 0.2-13.6 0.2-27.4 0-41-0.2-28.4-21.8-51-48.8-51-26.8 0-48.8 22.6-49 51-0.2 35.4-0.2 70.6 0 105.8 0 6-1.4 8.4-7.6 7.8-5.6-0.6-11.2-0.6-16.6 0-6.6 0.6-7.8-2.2-7.6-8 0.4-18.6 0.2-37.2 0.2-59.8 0.8-17-2.2-38.2 1.2-58.8 5.8-33.8 26.4-56.6 58.6-66 33.6-9.8 62.6 0.6 85.6 27 12.8 14.8 19.4 32.2 19 52zM725.4 350.6c0 24.6-0.2 49.4 0.4 74.2 0 6-1.6 8.4-7.8 7.6-7.6-1-18 3.2-22.4-1.8-3.8-4.2-1.4-14.2-1.4-21.8 0-44.2 0.2-88.6-0.2-132.8 0-6.6 1.6-8.6 8.2-8 7.4 0.8 17.2-2.2 21.8 1.6 4.8 4 1.4 14.2 1.4 21.6 0.2 19.8 0 39.6 0 59.4z"></path>
<path fill="#000" d="M456.6 634.2c-33 75.2-86.4 125.6-170.6 138-9.2 1.4-18.6 0.8-27.8 2.4-7.2 1.2-9.4-1.4-8.4-8.2 0.4-2.2 0-4.6 0-7 0-15.8 0-16 13.8-16.8 62.8-3.6 110.2-33.2 144-85.8 9-14 17-28.4 22-44.4 1.4-4.6 3.4-6.2 8.2-4.4 1.8 0.8 4 0.8 6 1.2 20.2 5 21.4 5.4 12.8 25z"></path>
<path fill="#000" d="M402.6 917.2c-0.6 0.2-1 0.6-1.6 0.8-6.4 3.2-12.8 8.6-19.6 9.2-7.8 0.8-9.4-9.4-14.4-14-22.4-21-49.8-30.4-78.8-36.2-9.6-2-19.6-4-29.4-3.4-8.2 0.6-10.2-2.8-9.2-10 0.4-2 0-4 0-6.2 0-16 0-16.2 15.8-15.6 43.2 1.6 83.2 12.6 116.4 41.8 8.8 7.8 16.2 16.6 22.4 26.6 2.6 3.6 2.6 5.6-1.6 7z"></path>
<path fill="#000" d="M872.8 593.4c-45.6-0.2-80.6 35.6-81 82.6-0.4 47.4 33 81.4 80 81.6 47.4 0.4 84-34.4 84.2-79.4 0.2-47.8-36-84.6-83.2-84.8zM872.2 726c-27.8 0-49.2-21.6-49-49.4 0.2-27.6 21.2-48.4 49-48.4 28.2 0 49 20.8 48.8 49.2 0 27.6-21.2 48.6-48.8 48.6z"></path>
<path fill="#000" d="M889.8 874.6c0 16 0 16-15.8 16-19.2 0-19.2 0-19.2-18.8 0-16.2 0-16.2 16.4-16.2 18.6 0 18.6 0 18.6 19z"></path>
<path fill="#000" d="M956.2 871.8v0.8c0 18 0 18-18.2 18-16.8 0-16.8 0-16.8-16.6 0-18.2 0-18.2 18.6-18.2 16.4-0.2 16.4-0.2 16.4 16z"></path>
<path fill="#000" d="M889.8 809.2c0 15 0 15-15 15-20 0-20 0-20-18.8 0-12.6 0-12.6 18.2-12.6 16.8-0.2 16.8-0.2 16.8 16.4z"></path>
<path fill="#000" d="M956.2 809.2c0 14.8 0 14.8-15.2 14.8-19.8 0-19.8 0-19.8-18.8 0-12.6 0-12.6 18.2-12.6 16.8 0 16.8 0 16.8 16.6z"></path>
<path fill="#000" d="M823.2 869.2c0 1.2 0 2.4 0 3.4 0 17.8 0 17.8-16.6 17.8-15 0-15 0-15-16 0-19 0-19 17.8-19 13.8 0.2 13.8 0.2 13.8 13.8z"></path>
<path fill="#000" d="M823.2 808.4c0 15.6 0 15.6-15.2 15.6-16.2 0-16.2 0-16.2-16.4 0-15.2 0-15.2 14.8-15.2h0.8c15.8 0.2 15.8 0.2 15.8 16z"></path>
<path fill="#000" d="M854.4 327.4c-0.8-15 2-40.8-1.4-66.8-8.4-68.8-75-142.2-175-122.4-66.8 13.4-115.6 73.6-116.8 141.6-0.8 40.4-0.6 81 0 121.4 0.8 46.4 38 88.2 84 92.6 41.4 3.8 83.4 3.8 124.8 0.2 46.6-4 81.2-40.6 84.2-86.6 1.4-23 0.2-46.2 0.2-80zM823.2 308.4c0.2 10 0 19.8 0 29.6 0 18.4 0 36.6 0 55 0 41.2-23.6 68.2-64.8 70.2-35.8 1.6-71.6 2.4-107.4-0.6-32.6-2.8-57.8-29.4-58.2-62.2-0.6-40.8-1-81.6 0-122.4 1.2-50 38.8-92.8 90.4-105.2 61-14.6 122.8 23.2 137.4 84 4 17.2 2.4 34.4 2.6 51.6z"></path>
<path fill="#000" d="M725.2 291.2c0.2 19.8 0 39.6 0 59.4 0 24.8-0.2 49.6 0.2 74.2 0 6-1.4 8.4-7.8 7.6-7.6-0.8-18 3.4-22.4-1.8-3.8-4.4-1.4-14.4-1.4-21.8 0-44.2 0.2-88.6-0.2-132.8 0-6.6 1.8-8.6 8.2-8 7.4 0.8 17.4-2.2 21.8 1.6 5 3.8 1.6 14 1.6 21.6z"></path>
<path fill="#000" d="M792 323.2c0.4 6.8-2 8.4-8.4 8-7-0.6-14-0.4-21 0-4.6 0.2-6-1.4-6-6 0.2-13.6 0.2-27.4 0-41-0.2-28.4-22-51-48.8-51s-48.8 22.6-49 51c-0.2 35.2-0.2 70.4 0 105.8 0 6-1.4 8.4-7.6 7.8-5.4-0.6-11-0.6-16.6 0-6.4 0.6-7.6-2.2-7.6-8 0.4-18.6 0.2-37.2 0.2-59.8 0.8-17-2.2-38.2 1.2-58.8 5.8-33.8 26.2-56.6 58.6-66 33.4-9.8 62.6 0.6 85.6 27 13 14.8 19.4 32.2 19 52 0 12.8-0.2 25.8 0.4 39z"></path>
<path fill="#000" d="M725.4 424.8c0 6-1.4 8.4-7.8 7.6-7.6-0.8-18 3.4-22.4-1.8-3.8-4.4-1.4-14.4-1.4-21.8 0-44.2 0.2-88.6-0.2-132.8 0-6.6 1.8-8.6 8.2-8 7.4 0.8 17.4-2.2 21.8 1.6 4.8 4 1.4 14.2 1.4 21.6 0.2 19.8 0 39.6 0 59.4 0.4 24.6 0.2 49.4 0.4 74.2z"></path>
</svg>
