<!-- Generated by IcoMoon.io -->
<svg version="1.1" xmlns="http://www.w3.org/2000/svg" width="1024" height="1024" viewBox="0 0 1024 1024">
<g id="icomoon-ignore">
</g>
<path fill="#000" d="M209.2 361.6c11.4 2.6 10.2 11 9.6 16.8v4.4c0 16-0.8 16.4-16.4 11.2-17.6-5.8-30.6-22.6-32.2-40.6-0.4-4.4 0.8-5.8 5-5.4 4 0.2 8.2 0 12.2 0 7.2 0 15.4-2.2 17 9 0.2 1.6 2.8 4.2 4.8 4.6z"></path>
<path fill="#000" d="M103.6 353.8c-0.2-4.6 1-6.2 5.6-6 6.4 0.4 12.8 0.4 19.2 0 5.6-0.4 6.4 1.6 6.8 6.8 3.4 40.6 33.6 72 73.4 76 9 0.8 11.4 4 10 12-0.2 1.8 0 3.4 0 5.2 0 16 0 16-16.4 14-54.6-6.6-96.8-53-98.6-108z"></path>
<path fill="#000" d="M805.8 392.4c0.2-4 0-8.2 0-12.2 0-2.6 0.2-5.2 0-7.8-0.4-4.4 0.2-7.6 5.8-8.6 4.6-0.8 9-4.2 10-9 1.2-6.6 5-7.2 10.4-7 5.6 0.4 11 0.6 16.6 0 6-0.6 6.6 2.2 6 7.2-2.4 21.8-22 40.4-43.8 41.6-3.6 0-5.2-0.4-5-4.2z"></path>
<path fill="#000" d="M889.4 354.8c0.4-6 2.2-7.4 7.6-7 3.8 0.4 7.6 0 11.4 0 14 0 14 0 12.2 14.4-7.2 55-46.2 93.4-102.2 100.2-12.2 1.6-12.2 1.6-12.2-11v-4.4c0-14.8 0-14.8 15.2-16.8 34.6-4.4 65.6-38.4 68-75.4z"></path>
<path fill="#000" d="M1019 995c1-7.2-2.2-8-8.4-7.8-19 0.4-37.8 0.2-56.8 0-2 0-4.6 1.4-6.4-1.8 35.6-29.6 56.8-68.4 66.6-112.6 11.8-53.2 3.6-102.4-35.8-143.2-12.8-13.4-18-30-20.8-48-2.2-14.2-1-28.6-1.8-43.4-8.2 2.4-15.2 5.6-22.6 6.6-11 1.6-20.6 5.4-29.6 12-12.8 9.4-23.6 20.8-31.4 34.6-2.4 4.2-3.8 5.8-7.6 1-10.8-14.4-22.2-28.4-33.2-42.6-6-7.6-8.8-16.4-8.2-26 1.8-30.2 10.8-58 28.4-83 6.2-8.6 10.8-18.2 16.8-28.4-89.6-2.8-168.4 18.8-230.4 86.6-8-18.2-10.2-36.2-10.6-54.6-0.4-19.4-0.4-19.6-19.4-15-37.6 9.2-61.4 34.6-78 68.2-1.2 2.4-2.4 4.8-3.8 7.6-21.8-44-54.8-71-103.4-77.6-8.4-1.2-8.8 0.8-8.6 7.6 0.8 23.6-2.4 46.4-13.6 67.6-3 6-4.8 6.6-9 1.2-14-18.2-31-33-50-45.6-8-5.2-16.4-9.8-24.4-14.8 13.8-18.6 23-39 27.6-62.2 8.8 10.4 14.6 20.6 18.4 32 1.8 5.4-0.8 13.4 4.4 15.8 5 2.4 12 0.6 18 0.6 12.4 0 12.2 0 10.4-12.8-4.6-34.2-25.4-58.6-49.8-80.6-8.8-8-19.2-14.4-30-22.4 0 13.4 0 24.8 0 36-0.2 20.2-3.6 39.2-16.2 55.8-3.6 4.8-6.6 10.2-9.4 15.6-6 11.2-5.8 11.2-17.6 7-38.4-14.2-78.2-18.4-120.4-15.8 4 5.8 7.4 10.6 11 15.4 19 25 32.4 52.2 36.4 83.6 2 16 0.2 30.4-11 43.2-10.2 11.6-19.2 24-28.6 36.4-3.2 4.2-5.2 6.2-8.6-0.2-18-33-47.6-47.4-83.8-51.6 0 8.8 0.4 18.2 0 27.4-1 25.4-7.6 48.4-26.2 67.4-11.8 12.8-21.6 27.8-27.2 45-15.6 48-9.4 94 11.8 138.8 12.2 26.2 28.6 49 50.6 69.2h-50.4c-20.8 0-20.2 0-21 20.6-0.4 9.6 3 11 11.6 11 326.2-0.2 652.2-0.2 978.4-0.2 7.6 0 17.4 2.4 22-1.2 5-4.4 0.6-14.6 1.6-22.4zM164.6 747.2c4-9.8 10.4-18 16.6-26.6 8-11 16-22.2 24.8-32.6 25.4-29.8 32.4-63.4 22.2-101-3.6-13.2-7.6-26.2-13-40.8 58 13.4 110.4 32.8 150.2 77.4 1.4 1.6 2.4 3.2 3.8 4.8 5.8 5.8 6.8 11 1.8 18.8-10.2 16-15.4 34.4-18 53.2-0.4 3.2-1 6.2-1.8 10.8-15.6-13.4-34.6-17.6-51.8-28-1 17.4 0.4 33.4-1.8 49.6-2 15.2-5.8 29.4-13.4 42.8-13 23.2-28 45.6-37.2 70.8-10.8 29.2-17.8 58.8-11.2 91.4-23.2-14.6-42.4-31.8-57.2-53.8-29-43-34-88.6-14-136.8zM250 987c-28.8 0-57.6 0.6-86.2-0.2-33.6-0.8-59.8-17-81.2-41.8-23.6-27.2-39.6-58.2-44.4-94-4.2-31.4 2.6-61.6 22.4-86.2 19.4-24.2 33.2-50.2 39.6-81 18 10 28.8 25.8 37.4 43.2 1.2 2.2-0.4 4-1 5.8-35.6 80.8-7.2 158.6 52 211 16.8 14.8 35.4 27.2 55 38.2 2.2 1.2 4.4 2.4 6.8 3.8-0.2 0.4-0.2 0.8-0.4 1.2zM577.8 971c-12.8 10.8-24.8 18.2-42.4 16.6-20.6-1.6-41.2-0.4-62-0.4-4.4 0-7.8-1-11-3.8-4.8-4.2-9.8-8.2-14.6-12.4-17.6-16-20-26-11.4-48.6 1.4-3.8 3.2-7.6 5.4-10.8 14.6-21.8 28.4-43.8 35.6-70.6 10 13.4 15.8 27 17 42.2 0.4 5.6 2.4 6.6 7.4 6.4 8.4-0.4 18 2.4 25-0.8 7.2-3.2 3.6-14.4 6.6-21.6 3.6-8.6 7.2-17 14-26.2 7.4 26.8 20.8 48.8 35.4 70.2 3 4.6 5.2 9.6 7 15 5.6 17.4 3.2 31.8-12 44.8zM753 945.4c-3.2 14.4-11.4 26.6-20.8 37.8-1.8 2.2-3.6 4.2-7.2 4.2-38.6 0-77.2 0-117.4-2.2 2.4-1.8 4.8-3.6 7-5.6 15.2-13.6 14.4-30.6 9.8-48.2-3.8-15-9.2-29.8-18.2-42.2-22.2-30.8-30.4-64.8-27.8-102 0.2-2.8 0-5.6 0-8.4-27.2 7.8-45 26.8-61 47.8-4.2 5.6-6.2 6.4-10.6 0.2-15.6-21.4-33.8-39.8-61.4-48.2 0 12.8 0.4 25.4 0 37.8-0.8 22-8 42-20 60.4-12.6 19.6-23.2 40-27.4 63.4-3.2 17 1.2 30.2 14 41.4 1.4 1.2 3.6 2.2 3.8 5.6h-7.4c-35.2 0-70.4 0-105.6 0.2-5.2 0-8.4-1.8-11.8-5.6-25.4-30.2-27.2-65-19.2-101.4 5-22.8 13.4-44 26.4-64 15.6-24.2 27.2-50.6 32.4-80.4 17 14.4 28.8 31.4 36.8 51.2 7.8 19.4 11.2 39.6 11.8 60.4 0.2 5.2 1.4 7.2 6.8 6.8 7.2-0.4 14.6-0.6 21.8 0 5.8 0.4 6.6-2 6.4-7-1-32.4-6.4-64.6-24.6-91.4-10.6-15.6-8.4-29.4-6.6-45 2.6-23.2 12.4-42.6 26.4-61.4 16.2-21.8 30-45.6 34.6-73.4 0.4-2.6 1.2-5 2-8.2 29.2 13.6 47 36.4 57.2 66 5.8 17 8.4 34.4 8.6 52.2 0 5.4 1 8 7 7.4 7.8-0.6 17.6 2.2 22.8-1.4s2-14 2.8-21.4c2.8-27.8 8.8-54.4 25.4-77.8 6.8-9.6 15.2-17.6 25.8-24.8 3.4 12.6 4.8 25.2 8.6 37.2 1.6 5.4 3.8 10.2 7 14.8 8.4 11.6 16.2 23.4 24.8 34.8 15 19.6 18.6 42.8 22.4 66 0.6 3.4-1 5.6-3.2 7.6-31 32.8-43.2 72.8-45.4 116.8-0.4 7.6 1.8 9.6 9 8.8 6.4-0.6 12.8-0.4 19.2 0 5.4 0.4 6.8-1.6 7-6.8 0.8-25.6 5.6-50.2 17.6-73.2 7.6-14.6 17.6-27.2 31-38.6 3 16 7.6 30.8 14 45 6.8 15.2 15 29.4 23.4 43.8 22 38 31.6 77.8 22 121zM743.2 780.6c-13.4-20.2-16.8-43-17.6-66.4-0.4-9.8 0-19.8 0-30.8-12 6-23 11.4-35 17.2-4.2-18-10-34.8-19.4-50.4-1.6-2.8-3.2-5.6-5-8.2-11.2-15.8-11.2-16 3.2-30.4 30.6-30.6 67.8-49.4 109.8-59 9.6-2.2 19.2-3.8 30.2-6-6.4 17.6-11 34-14.8 51-7.4 33.4 1.8 62 22.4 87.8 11.4 14.4 23 28.6 32.8 44 28 44.4 30.6 90.6 6 137.2-16 30-40.4 54.8-66.2 70.2 7.6-47-7.8-88.2-29.6-127.8-5.4-9.4-10.8-19.2-16.8-28.4zM926.6 960.8c-19.2 17.2-42 25.8-67.6 26.2-27 0.6-54 0.2-81.8 0.2 1.8-3.8 5.4-4.6 8.2-6.2 46-28.6 85.2-64 108.2-114.2 19.8-43.2 18.4-86.8-3-129.4-3.2-6.4-3.6-11 0-17.4 8.4-14.6 18.6-27.2 34-36.4 2.4 16.2 8.6 30.6 15 44.8 4.6 10.6 9.8 20.4 17.4 29 31.2 34.6 37 74.4 24 117.8-10 33.6-28.2 62.2-54.4 85.6z"></path>
<path fill="#000" d="M872.2 54.6c0-7.6-1.2-15-4.8-22-10-19.4-26.4-27.2-47.8-27.2-102.2 0.2-204.4 0-306.6 0-37 0-74 0-111 0-66 0-132.2-0.2-198.2 0-29.6 0-50.4 17.8-51 45.8-1 45.2-1 90.2 0 135.4 0.4 21.2 12 36.8 32.6 44 4.6 1.6 6.2 4.2 7.6 8.4 10.2 29.6 20.4 59.2 30.6 88.8 8.2 23.6 27.2 37.6 52 37.6 157.8 0 315.6 0 473.4 0 24.2 0 43.4-13.8 51.4-37 10.4-29.8 20.8-59.8 31-89.6 1.2-3.8 2.6-6.4 7-7.8 21.2-7.4 33.4-24.4 33.4-47 0.4-43.2 0.4-86.4 0.4-129.4zM839 133.4c-4.4 3.6-13.8 1.2-21 1.2-93.4 0-186.8 0-280.2 0-4 0-8.2 0.2-12.2-1-7.6-2.2-13.4-9.2-13-15.6s8-13.6 15.4-14.6c3.2-0.4 6.4-0.2 9.6-0.2 48.6 0 97.2 0 145.8 0 49.4 0 99 0.2 148.4-0.2 6.8 0 10.2 1 9.2 8.8-1.2 7.4 3 17.4-2 21.6zM185.4 104.6c4.2-3.6 13.8-1.2 21-1.4 23.6 0 47.2 0 70.8 0h81.2c2 0 4 0 6.2 0 9.8 0.4 18.2 7.4 18.4 15.2 0.2 7.6-7.4 14.6-16.8 16-2 0.2-4 0.2-6.2 0.2-55.8 0-111.8-0.2-167.6 0.2-6.8 0-9.4-1.6-8.6-8.6 0.8-7.4-3.2-17.2 1.6-21.6zM771.8 307.8c-0.4 1.4-1 2.8-1.4 4.2-6.4 17.6-7.6 18.6-26.4 18.6-155.2 0-310.4 0-465.6 0-16 0-17.8-1.4-23.2-16.6-8.8-24.4-17.4-48.6-26.2-73-0.8-2.4-1.6-4.8-2.8-8.4 13 0 25 0.2 37.2 0 5.4 0 4.2 3.4 4.2 6.4 0 17.8 0.2 35.6 0 53.2-0.2 5.4 1.4 6.8 6.8 6.8 28-0.2 55.8-0.4 83.8 0 6.6 0 7.4-2.4 7.4-8-0.4-16.8 0-33.8-0.2-50.6-0.2-5.8 0.8-8.6 7.4-8 7.8 0.8 18-3.2 22.6 1.4 4.8 4.6 1.2 14.8 1.4 22.6 0.2 12 0.2 23.8 0 35.8-0.2 4.6 0.8 6.6 6.2 6.6 28.6-0.2 57-0.2 85.6 0 5 0 6.4-1.6 6.4-6.4-0.2-17.8 0-35.6-0.2-53.2 0-5.2 1.2-7.2 6.6-6.8 7.6 0.4 15.2 0.4 22.8 0 4.8-0.2 5.8 1.6 5.8 6-0.2 17.8 0.2 35.6-0.2 53.2-0.2 5.6 1.4 7.4 7.2 7.4 28-0.4 56-0.4 83.8 0 6.2 0 7.2-2.2 7-7.6-0.2-17.4 0.2-35-0.2-52.4-0.2-5.6 1.6-7.2 6.8-6.6 8 0.8 18.8-3.4 23.4 1.8 4 4.4 1.2 15 1.4 22.8 0 11.6 0.4 23.2-0.2 35-0.2 6 1.8 7.2 7.4 7.2 28-0.2 56-0.2 83.8 0 5.4 0 7-1.4 6.8-6.8-0.4-17.4 0-35-0.2-52.4 0-5.4 1-7.8 7-7.4 11.2 0.4 22.6 0.2 35 0.2-9.2 25.4-18.2 50.2-27 75zM299.2 252.2c0-19.6 0-19.6 19-19.6 12.4 0 12.4 0 12.4 12.2v5.2c0 17.4 0 17.4-16.8 17.4-14.6 0.2-14.6 0.2-14.6-15.2zM432 249.8c0-17.2 0-17.2 16.2-17.2 15.2 0 15.2 0 15.2 17.2 0 17.8 0 17.8-15.8 17.8s-15.6 0-15.6-17.8zM561.2 250.8c0-18.2 0-18.2 16.2-18.2 15.4 0 15.4 0 15.4 17.2 0 17.8 0 17.8-15.6 17.8-16 0-16 0-16-16.8zM694 252.2c0-19.6 0-19.6 18-19.6 13.4 0 13.4 0 13.4 13v4.4c0 17.6 0 17.6-17.6 17.6-13.8 0-13.8 0-13.8-15.4zM833.8 197c-4.6 3.6-10 4.2-15.8 4.2-30 0-60 0-90 0h-519.6c-18.8 0-25-6.6-24.8-25.4 0-5.2 1.8-6.2 6.6-6.2 15.4 0.2 30.8 0 46.4 0 41.6 0 83.2 0 125 0 24.4 0 41-11.2 49.6-32.8 7.6-19.4 2.2-41-14.2-56.4-9.6-9-21.4-12.2-34.4-12-56.2 0.2-112.4 0-168.6 0.2-7.6 0-10.6-1.2-10.2-9.8 0.8-15.6 6.8-21.8 22.8-21.8 102 0 203.8 0 305.8 0h304c19.2 0 25 6.2 24.6 25.2 0 4.8-1.2 6.6-6.4 6.4-8.8-0.4-17.4 0-26.2 0-91.4 0-182.8 0-274.2 0-24.6 0-41.6 11.2-49.6 32.4-7.8 20.2-2 41.8 15.6 57.6 10.2 9.4 22.6 11.2 35.6 11.2 97 0 194 0 290.8 0.2 4.6 0 11.2-3.2 14 2.4 3.4 7-0.8 20-6.8 24.6z"></path>
<path fill="#000" d="M920.4 362.2c-7.2 55-46.2 93.4-102.2 100.2-12.2 1.6-12.2 1.6-12.2-11v-4.4c0-14.8 0-14.8 15.2-16.8 35-4.6 66.2-38.6 68.4-75.6 0.4-6 2.2-7.4 7.6-7 3.8 0.4 7.6 0 11.4 0 13.6 0.4 13.6 0.4 11.8 14.6z"></path>
<path fill="#000" d="M218.8 442.6c-0.2 1.8 0 3.4 0 5.2 0 16 0 16-16.4 14-54.8-6.8-97.2-53-98.8-108-0.2-4.6 1-6.2 5.6-6 6.4 0.4 12.8 0.4 19.2 0 5.6-0.4 6.4 1.6 6.8 6.8 3.4 40.6 33.6 72 73.4 76 9 0.8 11.4 4 10.2 12z"></path>
<path fill="#000" d="M854.4 355c-2.4 21.8-22 40.4-43.8 41.6-3.4 0.2-4.8-0.4-4.8-4 0.2-4 0-8.2 0-12.2 0-2.6 0.2-5.2 0-7.8-0.4-4.4 0.2-7.6 5.8-8.6 4.6-0.8 9-4.2 10-9 1.2-6.6 5-7.2 10.4-7 5.6 0.4 11 0.6 16.6 0 5.8-0.8 6.4 2 5.8 7z"></path>
<path fill="#000" d="M218.8 378.4v4.4c0 16-0.8 16.4-16.4 11.2-17.6-5.8-30.6-22.6-32.2-40.6-0.4-4.4 0.8-5.8 5-5.4 4 0.2 8.2 0 12.2 0 7.2 0 15.4-2.2 17 9 0.2 1.8 2.8 4.2 4.8 4.8 11.4 2.4 10.2 10.8 9.6 16.6z"></path>
</svg>
