<!-- Generated by IcoMoon.io -->
<svg version="1.1" xmlns="http://www.w3.org/2000/svg" width="1024" height="1024" viewBox="0 0 1024 1024">
<g id="icomoon-ignore">
</g>
<path fill="#000" d="M1016.4 252.2c-3-132.2-111.2-240.6-242-246.2-87.2-3.8-174.6-0.8-262-0.8 0 0 0 0 0 0.2-86.2 0-172.4-0.2-258.6 0-118.4 0.2-240.8 101.6-246.4 238-7.2 179-7.2 358.6 0.2 537.6 5.2 120.6 117.4 228 239 230.6 171.2 3.8 342.6 5.4 513.6 1.4 142.6-3.2 253.8-112.4 256.6-250.8 3.8-169.8 3.4-340-0.4-510zM970.2 752c-0.6 120.2-93.2 215.4-213.6 216.8-163.2 1.8-326.4 1.6-489.6 0-120.6-1.2-213.8-98.4-214.4-219.8-0.4-80.4 0-161 0-241.4 0-79.2-0.2-158.6 0-238 0.4-123.6 93-219.2 217.2-220.4 162-1.6 324.2-1.6 486.2 0 119.6 1.4 213.6 97.4 214.2 216.4 0.8 162.2 0.8 324.2 0 486.4z"></path>
<path fill="#000" d="M514.8 258.6c-138.8-2.6-253.2 106.4-256 243.4-2.8 140.6 106.8 255.2 246 257.2 142 2.2 255-105.6 257.8-245.4 3-139.4-106.8-252.4-247.8-255.2zM509 715.4c-113.8-2.6-205.4-97-203-209.2 2.4-112.8 95.6-205.8 204.6-204.2 115.4 1.8 207.2 96.6 204.6 211-2.8 112.6-96.8 205-206.2 202.4z"></path>
<path fill="#000" d="M804.2 143.4c-44.4-0.2-74.4 28.6-75.2 71.6-0.8 41.2 31.8 74 73.8 74.4 41 0.2 75.4-33 76.2-73.2 0.8-40.8-32.2-72.8-74.8-72.8zM803.4 244c-17 0.2-27.2-10.8-27.2-28.6s11.8-25.8 26.6-30c17.2 3.6 27.8 13 28.2 30.2 0.2 17.8-11 28.2-27.6 28.4z"></path>
</svg>
