<!-- Generated by IcoMoon.io -->
<svg version="1.1" xmlns="http://www.w3.org/2000/svg" width="1024" height="1024" viewBox="0 0 1024 1024">
<g id="icomoon-ignore">
</g>
<path fill="#000" d="M1020 784c0-17.8-8.2-28.4-25.2-33.6-11.8-3.6-23.6-1.4-35.2-1.4-6.6 0-8.2-1.6-8.2-8.2 0.4-53.6 0.2-107.4 0.2-161 0-14-11.2-29.6-24.6-34.4-19-6.6-43.6 11.4-43.6 31.8 0 54.6-0.2 109.2 0.2 163.6 0 7-2 8-8.4 8-75.2-0.2-150.4-0.2-225.8 0-13.6 0-25.2 5.2-32.2 17.2-7.8 13.4-14.6 27.6-22 41.4-2 4-4.2 6.4-10 6.4-48.6-0.4-97.2-0.4-145.6-0.2-4.4 0-6.8-1.2-8.6-5.2-4.4-9.2-10.4-18-14.4-27.4-10.2-24-27.2-33.2-53.6-32.8-71 1.4-142 0.4-213.2 0.6-6.2 0-7.8-1.2-7.8-7.6 0.4-52.8 0.2-105.6 0.2-158.2 0-91.2 0-182.2 0-273.4 0-19 13.4-36.2 35.8-35.8 33.2 0.4 66.6 0.2 99.8 0 17 0 32.4-16 33.4-27.2 2.2-23.2-13.6-36.8-34.8-37.2-34.8-0.8-69.6-0.2-104.4-0.2-10 0-19.2 2-28.6 5-18.2 6-32.6 17.2-45.8 31-15.6 16.8-23.6 36.6-23.6 58.6-0.6 112.4-0.2 224.8-0.2 337.2 0 33.6-0.2 67.2 0.2 100.8 0 6-1.8 7.4-7.4 7-9.6-0.4-19.4-1.2-28.8 0-19.2 2.6-32.2 12.4-32.4 32.6-0.2 46.4-0.2 93 0 139.4 0 9.6 2 19.2 5.4 28.4 7.2 18.8 18.8 34.4 34.4 46.8 17 13.6 36 22.4 58.2 22.4 136.4 0 272.8 0 409.2 0 133.6 0 267.4-0.2 401.2 0.2 32.6 0.2 58.2-12.2 79.8-35.8 17.8-19.6 26.6-42 26.4-68.4-0.2-43.4-0.2-87 0-130.4zM951.6 914.8c0 15-17.8 35.6-35.6 35.4-134.2-0.6-268.6-0.2-402.8-0.2-134.4 0-268.6-0.2-403 0.2-17.4 0-37.4-20-36.8-36.4 1.2-30.8 0.6-61.8 0.2-92.6-0.2-7 2-8 8.4-8 89.6 0.2 179.2 0.2 268.8 0.2 4.4 0 6.8 0.2 9.6 5.8 7.6 15.6 11.8 33.2 24.8 45.6 11.4 10.8 25.6 16.4 40.8 16.6 57.8 0.6 115.8 1 173.6-0.2 22.2-0.4 41.4-10.2 51.6-31.8 5-10.6 10-21.2 14.2-32 2-5.4 5.8-4 9.4-4 51.6 0 103.2 0 154.6 0 38.4 0 76.8 0.2 115.2-0.2 5.8 0 7.2 1.4 7.2 7.2-0.4 31.6-0.4 63-0.2 94.4z"></path>
<path fill="#000" d="M984 69.6c0-5.8-1-11.6-2.8-16.8-9-28.6-34.6-49-66-49-78.2 0.2-156.4 0-234.6 0-79.8 0-159.4 0-239.2 0-8.6 0-17.2 2-24.6 5.8-23.8 12.4-36.8 33-37 59.6-0.4 115.4-0.2 230.8-0.2 346.2 0 8.4 2.2 16.6 5.4 23.8 12.2 26 32.4 40 62 39.6 29.6-0.2 59.4 0.4 89-0.4 8.4-0.2 9.4 2.6 9.2 9.8-0.4 30 0.2 60-0.4 90-0.2 13.2 5 22.6 16.8 28.4 12.6 6.4 25.6 9.8 38.2 0 25.4-20 50.8-39.8 76-60 24.8-19.8 49.6-39.8 74.2-60 7.6-6.4 15.8-8.2 25.6-8.2 45.2 0.6 90.6 0.2 135.8 0.2 5.8 0 11.6-0.8 17.2-1.4 30-3.4 55.2-35.6 55.2-65.2 0-114 0.2-228.2 0.2-342.4zM910.2 410.6c-50.6-0.4-101.4 0.4-152-0.6-16-0.4-28.2 5.4-40 15-23.8 19.2-47.6 38.2-72.2 56.2-11.2 8.2-21.6 17.4-32.8 26.6 0-23 0-45 0-67 0-16-14.2-30.4-30.2-30.4-43.8 0-87.6-0.2-131.2 0.2-6.2 0-7.6-1.4-7.6-7.6 0.2-107.6 0.2-215.2 0-322.8 0-6.8 1.6-8 8.2-8 152.8 0.2 305.8 0.2 458.6 0 7.2 0 8.4 2 8.4 8.6-0.2 107-0.2 214 0 321 0 7.8-2 9-9.2 8.8z"></path>
<path fill="#000" d="M581.2 242.4c-0.2 16.8-17 30.6-36.4 31.6-15.6 0.8-33.4-15.6-32.4-34.2 0.8-14.8 15.8-33 33.6-30.8 19.4 1 35.4 13 35.2 33.4z"></path>
<path fill="#000" d="M851 242.4c-0.2 16.8-17 30.6-36.4 31.6-15.6 0.8-33.2-15.6-32.4-34.2 0.8-14.8 15.8-33 33.6-30.8 19.4 1 35.4 13 35.2 33.4z"></path>
<path fill="#000" d="M714.2 242.2c1.6 15.8-15.6 32.8-31.8 31.8-8.4-0.6-15.2-2.4-22.2-7.8-9.6-7.4-12.8-19-13.6-28.6-1.2-14.6 13.2-27.8 36.6-28.8 15.2-0.6 33.2 15.8 31 33.4z"></path>
</svg>
