<!-- Generated by IcoMoon.io -->
<svg version="1.1" xmlns="http://www.w3.org/2000/svg" width="1024" height="1024" viewBox="0 0 1024 1024">
<g id="icomoon-ignore">
</g>
<path fill="#000" d="M1019.4 450.2c0-3.6 0-7.2-0.4-10.8-0.6-4.4-1.8-8.4-5-11.8-33.8-35-67.6-70-101.6-104.8-11.4-11.6-25.8-14.2-41-9-22.2 7.8-27.8 40.4-10 58.4 20.8 20.8 41.6 41.6 62.8 62.2 4.6 4.4 5.6 6.4-0.8 10.4-133.8 85.2-267.6 170.4-401.2 256-6 3.8-9.8 4.2-16 0.2-91.6-58.8-183.4-117.2-275.2-175.8-44.2-28.2-88.2-56.2-132.8-84.8 2-2.2 3.6-4 5.4-5.8 20.4-20.4 41-40.8 61.6-61.2 3.6-3.6 6.2-7.4 8.2-12 7.6-17.8 3-36.2-10.8-45.2-13.8-8.8-35.6-5.6-47.8 7.2-30.4 31.6-60.8 63-91 94.8-9.6 10.2-15.4 22.2-15.4 37 0.2 150.4 0.2 300.6 0.2 451 0 8.4 0 17 1.6 25.2 9 50.2 53.8 86.4 102 86.4 267.8 0 535.8 0.2 804 0.2 7.8 0 15.4-0.6 22.8-2.2 44.6-10.4 81.2-54 80.8-103.6-1-154.2-0.4-308-0.4-462zM83.4 896.4c-1.8 1.8-3.4 3.8-6.2 7.2v-397.2c2.8 0 4.6 2.2 6.6 3.4 75.4 49.4 150.8 99 226.4 148.4 6 3.8 6.2 5.8 1 10.8-76.2 75.6-152 151.4-227.8 227.4zM125 949.8c0.2-2.8 2.6-3.8 4-5.4 79.8-80.2 159.8-160.2 239.6-240.4 4.2-4.2 6.8-4.8 11.8-1.4 36.6 24.2 73.4 47.6 109.8 71.8 16 10.6 31 10.6 47 0 36.6-24.2 73.8-48 110.6-72.2 3.8-2.6 6.2-3.4 10.2 0.4 80.8 81.2 161.6 162 242.6 243 0.8 0.8 1.6 1.8 3.6 3.8h-779.2zM951.2 901c-0.6 0.4-1.2 1-1.8 1.4-1.4-1.8-2.4-4-4-5.6-76-76-152.2-152-228.4-227.8-4.8-4.8-5.4-6.6 0.8-10.6 75.8-49.4 151.4-99.2 227.2-148.8 1.8-1.2 3.4-3.2 6.2-3v394.4z"></path>
<path fill="#000" d="M782.8 278.6c0.2-51.2-12.8-98.6-40-142-22.6-36.2-52.4-65.4-88.4-88-60.4-38.2-125.8-51-195.6-35.4-77.6 17.4-136.8 62-177.6 129.8-32 53.4-41.4 112.2-33.2 173.6 5 36.6 17.4 70.4 36.8 101.6 23.4 37.8 55 67.2 93.2 89.4 41.8 24.2 87.2 36.2 135.4 36.6 14.6 0.2 25.8-7.2 29.8-18.6 9.2-25.2-4.4-45.2-31.8-45.8-58.8-1.4-107.4-24-146.8-67.6-41-45.4-56.4-99.2-50.2-158.8 5.2-50.4 28-93 65.8-127.2 31.4-28.4 67.8-45.8 109.8-50.4 53.6-6 102.6 6.6 145.6 40.2 32.6 26 56.4 58 69.6 97.6 14.6 44.2 9 89.6 9.2 134.8 0 1.2-0.4 2.6-0.6 3.8-3.6 16.8-15 26.2-30.4 25.4-18.2-1-34.8-14.2-36-29.8-1.8-22.8-0.6-45.6-0.6-68.4 0-29.2-6.8-56.2-24-80.2-31-43.6-74-61-126.2-55.2-39.8 4.4-71.6 24.8-94.8 57.6-19.4 27.4-27.4 58-22.2 91.6s21.2 61.2 46 84.6c42 39.4 109.8 45.4 157.4 13 5.4-3.6 7.4-3.2 10.8 2.4 13.4 22.6 32.6 39.6 57.4 47.4 58.6 18.8 129.4-22.6 131.6-91.6 0.4-15.6 0-31.2 0-46.8h0.2c-0.2-7.8-0.2-15.6-0.2-23.6zM514.6 343.6c-37.6-0.4-68.6-29.4-68.6-66 0-36.2 30.2-66.2 67.4-66.4 37.6-0.4 68 29.2 68.4 66.2 1.2 34.4-30.6 66.6-67.2 66.2z"></path>
</svg>
