<!-- Generated by IcoMoon.io -->
<svg version="1.1" xmlns="http://www.w3.org/2000/svg" width="1024" height="1024" viewBox="0 0 1024 1024">
<g id="icomoon-ignore">
</g>
<path fill="#000" d="M879.4 335.4c-3.6-41-14.8-80.2-32.8-117-36.6-75-92.2-132.4-166.2-171.6-76.8-40.6-158.4-50.6-243-33.4-88 17.8-158.8 64.4-214.6 133.8-55.2 68.4-81 147.4-80.2 235.2 0.6 35.6 3.8 71.2 10.8 106.2 7 34.8 16 69 30 101.4 26.2 60.6 61 116.6 99.6 170.2 63.2 87.8 138.2 165.6 208 247.8 12 14.2 30.6 13.4 43-0.6 4-4.4 7.6-9 11.2-13.6 32.2-40 69-75.8 101.8-115.2 47.6-57.4 95.4-114.6 134.8-178.2 25.6-41.2 49.8-83 66.2-129 27.2-76.6 38.6-155.2 31.4-236zM813.2 383.6c-1 63.8-12.8 123.8-35.6 181.2-19.6 49.2-47.8 94-78 137.4-41.8 59.8-88.6 115.4-137.8 169.2-15.6 17-30.4 34.8-45.6 52.2-2 2.4-3.6 5.6-7.4 1.2-59.2-67.8-120.6-133.6-173.2-206.8-32.8-46-63.4-93.2-86-145.2-14.6-33.4-23.8-68.6-30.4-104.4-7.2-39-10.6-78.2-7.6-117.8 3.6-47 18-90.8 42.6-131 46.2-75.2 112.6-122.6 199-139.8 90-17.8 172.4 2.2 245.2 59 61.2 47.6 96.6 111 111 186.6 4 19.6 5 39.8 3.8 58.2z"></path>
<path fill="#000" d="M512.2 173.8c-108.2-0.2-201.2 91.6-201.4 202.6-0.2 111.4 92.8 203.6 201.6 203.6 108-0.2 201.8-91.4 201-203 0.6-111.6-92.8-203-201.2-203.2zM511.8 511.6c-74.8-0.6-132.4-58.8-132.4-134.6 0-76 57.4-134.2 132.4-134.8 74.2-0.6 136.2 59 135.2 132-1.2 71.8-56 138-135.2 137.4z"></path>
</svg>
