<!-- Generated by IcoMoon.io -->
<svg version="1.1" xmlns="http://www.w3.org/2000/svg" width="1024" height="1024" viewBox="0 0 1024 1024">
<g id="icomoon-ignore">
</g>
<path fill="#000" d="M218.4 382.8c7 0.2 13.4 8.8 13.4 18.2 0 12-4 17.4-13 17.4-8.6-0.2-18.2-8.8-18.4-16.4-0.2-7.4 11-19.4 18-19.2z"></path>
<path fill="#000" d="M243.8 358.4c-19.8-10.2-51-7-63 7.6-7.4-5-11-13.8-17.8-19.6-4.4-3.8-2.6-6.4 1.4-9.6 12.2-9.4 25.8-13 40.8-15 21-2.6 40.2 0.8 58.6 10.6 5 2.6 9.6 5.4 13.4 9.4-3 4-6.6 6.8-9.2 11-2.8 4.6-7 9.8-11.6 11.4-3.2 1.2-8.4-3.6-12.6-5.8z"></path>
<path fill="#000" d="M114.4 298c-8.4-8.8-8.2-8.6 2.6-15.4 31.2-19.4 64.8-28.4 102.2-27 35-1.6 67.6 7.6 97.6 27 8.2 5.2 9.6 9 2.4 16.2-5 5-7 14.8-13.8 16.6-7 1.8-11.6-7.6-17.8-11-29.4-15.6-60-20.6-93.2-15.6-21.8 3.2-41.4 9.6-57.8 24.8-2.8 2.6-6.6 3.8-10-1-3.6-5.2-7.8-10-12.2-14.6z"></path>
<path fill="#000" d="M151.6 727.2c17.4 0 17.4 0 17.4 16.6 0 14.8 0 14.8-17 14.8-16.4 0-16.4 0-16.4-16.6 0-14.8 0-14.8 16-14.8zM222 727.2c9.8-0.6 9.6 0 9.6 15.8 0 15.6 0 15.2-21.4 15.6-14.6 0.6-11.6-13-11.8-20-0.2-16.8 18.2-11.4 23.6-11.4zM282.4 727.2c16 0 16 0 16 15.8 0 15.4 0 15.4-15.4 15.4-16 0-16 0-16-15.8 0-15.4 0-15.4 15.4-15.4zM298.6 596.4c0.4-24.6-20.6-51.6-43.6-59.6-16.6-5.8-33-2.6-49.6-3.8-14.2-1-27.6 1.4-39.6 10.2-15.6 11.4-29.4 24.4-30 45-1 33.4 0 66.8-0.4 100.2 0 7 2.2 7.6 8.2 7.6 24.4-0.4 48.6-0.2 73-0.2 24.8 0 49.4-0.2 74 0.2 6.2 0 8-1 8-7.8-0.4-30.4-0.6-61.2 0-91.8zM260.4 662.6c-13.8-0.4-27.8-0.2-41.8-0.2-13.6 0-27.2-0.4-40.6 0.2-6.6 0.2-9.2-1.6-9.2-8.6 0.4-18.8-0.8-37.6 0.4-56.2 1.2-17.6 11.6-33.6 33.6-33.2 13.2 0.4 26.8-2.4 39.8 2 14 4.6 24.4 18.6 24.4 33.2 0 18.8-0.2 37.6 0.2 56.4 0.2 5.4-1.4 6.6-6.8 6.4zM298.6 596.4c0.4-24.6-20.6-51.6-43.6-59.6-16.6-5.8-33-2.6-49.6-3.8-14.2-1-27.6 1.4-39.6 10.2-15.6 11.4-29.4 24.4-30 45-1 33.4 0 66.8-0.4 100.2 0 7 2.2 7.6 8.2 7.6 24.4-0.4 48.6-0.2 73-0.2 24.8 0 49.4-0.2 74 0.2 6.2 0 8-1 8-7.8-0.4-30.4-0.6-61.2 0-91.8zM260.4 662.6c-13.8-0.4-27.8-0.2-41.8-0.2-13.6 0-27.2-0.4-40.6 0.2-6.6 0.2-9.2-1.6-9.2-8.6 0.4-18.8-0.8-37.6 0.4-56.2 1.2-17.6 11.6-33.6 33.6-33.2 13.2 0.4 26.8-2.4 39.8 2 14 4.6 24.4 18.6 24.4 33.2 0 18.8-0.2 37.6 0.2 56.4 0.2 5.4-1.4 6.6-6.8 6.4zM282.4 727.2c16 0 16 0 16 15.8 0 15.4 0 15.4-15.4 15.4-16 0-16 0-16-15.8 0-15.4 0-15.4 15.4-15.4zM222 727.2c9.8-0.6 9.6 0 9.6 15.8 0 15.6 0 15.2-21.4 15.6-14.6 0.6-11.6-13-11.8-20-0.2-16.8 18.2-11.4 23.6-11.4zM151.6 727.2c17.4 0 17.4 0 17.4 16.6 0 14.8 0 14.8-17 14.8-16.4 0-16.4 0-16.4-16.6 0-14.8 0-14.8 16-14.8zM151.6 727.2c17.4 0 17.4 0 17.4 16.6 0 14.8 0 14.8-17 14.8-16.4 0-16.4 0-16.4-16.6 0-14.8 0-14.8 16-14.8zM222 727.2c9.8-0.6 9.6 0 9.6 15.8 0 15.6 0 15.2-21.4 15.6-14.6 0.6-11.6-13-11.8-20-0.2-16.8 18.2-11.4 23.6-11.4zM282.4 727.2c16 0 16 0 16 15.8 0 15.4 0 15.4-15.4 15.4-16 0-16 0-16-15.8 0-15.4 0-15.4 15.4-15.4zM298.6 596.4c0.4-24.6-20.6-51.6-43.6-59.6-16.6-5.8-33-2.6-49.6-3.8-14.2-1-27.6 1.4-39.6 10.2-15.6 11.4-29.4 24.4-30 45-1 33.4 0 66.8-0.4 100.2 0 7 2.2 7.6 8.2 7.6 24.4-0.4 48.6-0.2 73-0.2 24.8 0 49.4-0.2 74 0.2 6.2 0 8-1 8-7.8-0.4-30.4-0.6-61.2 0-91.8zM260.4 662.6c-13.8-0.4-27.8-0.2-41.8-0.2-13.6 0-27.2-0.4-40.6 0.2-6.6 0.2-9.2-1.6-9.2-8.6 0.4-18.8-0.8-37.6 0.4-56.2 1.2-17.6 11.6-33.6 33.6-33.2 13.2 0.4 26.8-2.4 39.8 2 14 4.6 24.4 18.6 24.4 33.2 0 18.8-0.2 37.6 0.2 56.4 0.2 5.4-1.4 6.6-6.8 6.4zM298.6 596.4c0.4-24.6-20.6-51.6-43.6-59.6-16.6-5.8-33-2.6-49.6-3.8-14.2-1-27.6 1.4-39.6 10.2-15.6 11.4-29.4 24.4-30 45-1 33.4 0 66.8-0.4 100.2 0 7 2.2 7.6 8.2 7.6 24.4-0.4 48.6-0.2 73-0.2 24.8 0 49.4-0.2 74 0.2 6.2 0 8-1 8-7.8-0.4-30.4-0.6-61.2 0-91.8zM260.4 662.6c-13.8-0.4-27.8-0.2-41.8-0.2-13.6 0-27.2-0.4-40.6 0.2-6.6 0.2-9.2-1.6-9.2-8.6 0.4-18.8-0.8-37.6 0.4-56.2 1.2-17.6 11.6-33.6 33.6-33.2 13.2 0.4 26.8-2.4 39.8 2 14 4.6 24.4 18.6 24.4 33.2 0 18.8-0.2 37.6 0.2 56.4 0.2 5.4-1.4 6.6-6.8 6.4zM282.4 727.2c16 0 16 0 16 15.8 0 15.4 0 15.4-15.4 15.4-16 0-16 0-16-15.8 0-15.4 0-15.4 15.4-15.4zM222 727.2c9.8-0.6 9.6 0 9.6 15.8 0 15.6 0 15.2-21.4 15.6-14.6 0.6-11.6-13-11.8-20-0.2-16.8 18.2-11.4 23.6-11.4zM151.6 727.2c17.4 0 17.4 0 17.4 16.6 0 14.8 0 14.8-17 14.8-16.4 0-16.4 0-16.4-16.6 0-14.8 0-14.8 16-14.8zM151.6 727.2c17.4 0 17.4 0 17.4 16.6 0 14.8 0 14.8-17 14.8-16.4 0-16.4 0-16.4-16.6 0-14.8 0-14.8 16-14.8zM222 727.2c9.8-0.6 9.6 0 9.6 15.8 0 15.6 0 15.2-21.4 15.6-14.6 0.6-11.6-13-11.8-20-0.2-16.8 18.2-11.4 23.6-11.4zM282.4 727.2c16 0 16 0 16 15.8 0 15.4 0 15.4-15.4 15.4-16 0-16 0-16-15.8 0-15.4 0-15.4 15.4-15.4zM298.6 596.4c0.4-24.6-20.6-51.6-43.6-59.6-16.6-5.8-33-2.6-49.6-3.8-14.2-1-27.6 1.4-39.6 10.2-15.6 11.4-29.4 24.4-30 45-1 33.4 0 66.8-0.4 100.2 0 7 2.2 7.6 8.2 7.6 24.4-0.4 48.6-0.2 73-0.2 24.8 0 49.4-0.2 74 0.2 6.2 0 8-1 8-7.8-0.4-30.4-0.6-61.2 0-91.8zM260.4 662.6c-13.8-0.4-27.8-0.2-41.8-0.2-13.6 0-27.2-0.4-40.6 0.2-6.6 0.2-9.2-1.6-9.2-8.6 0.4-18.8-0.8-37.6 0.4-56.2 1.2-17.6 11.6-33.6 33.6-33.2 13.2 0.4 26.8-2.4 39.8 2 14 4.6 24.4 18.6 24.4 33.2 0 18.8-0.2 37.6 0.2 56.4 0.2 5.4-1.4 6.6-6.8 6.4zM298.6 688.2c-0.4-30.6-0.6-61.2 0-91.8 0.4-24.6-20.6-51.6-43.6-59.6-16.6-5.8-33-2.6-49.6-3.8-14.2-1-27.6 1.4-39.6 10.2-15.6 11.4-29.4 24.4-30 45-1 33.4 0 66.8-0.4 100.2 0 7 2.2 7.6 8.2 7.6 24.4-0.4 48.6-0.2 73-0.2 24.8 0 49.4-0.2 74 0.2 6.4 0 8.2-1 8-7.8zM260.4 662.6c-13.8-0.4-27.8-0.2-41.8-0.2-13.6 0-27.2-0.4-40.6 0.2-6.6 0.2-9.2-1.6-9.2-8.6 0.4-18.8-0.8-37.6 0.4-56.2 1.2-17.6 11.6-33.6 33.6-33.2 13.2 0.4 26.8-2.4 39.8 2 14 4.6 24.4 18.6 24.4 33.2 0 18.8-0.2 37.6 0.2 56.4 0.2 5.4-1.4 6.6-6.8 6.4zM282.4 727.2c16 0 16 0 16 15.8 0 15.4 0 15.4-15.4 15.4-16 0-16 0-16-15.8 0-15.4 0-15.4 15.4-15.4zM222 727.2c9.8-0.6 9.6 0 9.6 15.8 0 15.6 0 15.2-21.4 15.6-14.6 0.6-11.6-13-11.8-20-0.2-16.8 18.2-11.4 23.6-11.4zM151.6 727.2c17.4 0 17.4 0 17.4 16.6 0 14.8 0 14.8-17 14.8-16.4 0-16.4 0-16.4-16.6 0-14.8 0-14.8 16-14.8zM1015.8 166.2c-21.6-26.4-42.8-53.2-63.6-80.2-19.8-25.6-39-51.4-58.6-77.2-2.6-3.4-4.6-4.6-9-0.8-13.8 11.8-28 23-42.2 34-30.2 23.6-60.8 46.8-91 70.4-21.6 16.8-43.2 33.4-64.8 50.2-19.6 15.2-39 30.4-58.4 45.8-24.2 19.2-47.8 39-72.4 57.4-27.8 20.8-54.8 42.6-82.2 63.8-20.2 15.8-40.8 31-61 46.8-20.6 16-40.8 32.6-61.4 48.6-21 16.4-42.2 32.4-63.2 49-2.8 2.2-4 2.2-7.6 0.8-28-10-57.2-9.6-86.2-8.2-12.4 0.6-25 2.8-36.8 6.8-49 17.2-89.8 68.4-88.8 126.8 1.8 89.6 0.2 179.4 0.8 269.2 0.2 14.4 0.2 26.4-17.6 28.4-3.6 0.4-5 3.2-7.4 4.6-25.4 16.4-37.8 39.6-38 69.2-0.2 12.8 0.6 25.8-0.2 38.6-0.6 8.4 2.6 9.2 9.6 9.2 67.4-0.2 135-0.2 202.4-0.2 67.8 0 135.6 0 203.4-0.2 2.8 0 8.2 2.8 8.2-2.6 0.4-20.2 3.4-41-0.6-60.2-6.4-30.6-27-51.4-56.6-62-5.6-2-7.4-4.4-7.4-10.4 0.2-63.6 0.2-127.2 0-190.8 0-5 1.4-8.6 5.2-11.6 22.8-18 45.6-36 68.6-53.8 29.2-22.6 58.8-44.8 88-67.4 33.2-25.8 65.8-52.8 99.4-78.2 33.8-25.4 67-51.8 100.4-77.8 29.4-22.8 58.2-46 87.6-68.6 29.2-22.6 58.8-44.8 88-67.4 37.2-28.8 74.4-57.6 111.6-86.4 6-4.8 7.4-8.8 1.8-15.6zM104.4 735.2c0-47.6-0.4-95.2 0-142.8 0.4-44.2 33.6-84.4 77.8-92.2 28-5 56.6-5.4 84.2 4 32.4 11 59.2 44.8 61 78.2 5.4 101.2 1 202.4 2.6 303.8 0 6.4-2.8 6.2-7.2 6.2-70.2 0-140.4-0.2-210.6 0.2-6.4 0-7.8-1.4-7.8-7.8 0.2-50.2 0-99.8 0-149.6zM394.6 964.8c0.4 5.2 1.6 10.4 2.2 15.8 0.6 7-2.2 7.6-8.2 7.6-57.4-0.2-114.8-0.2-172-0.2h-160.6c-18.4 0-18.2 0-18.4-17.8 0-19 9.6-32.2 25.2-41.6 6.6-4 14-5.4 21.8-5.4 88.4 0 176.6-0.2 265 0.2 23 0.2 43.6 16.6 45 41.4zM365.4 643.4c-1-30.8 3.4-61.8-11-93.2 29.8 12.2 58 23.6 86.2 35-25.4 19.8-50.2 38.8-75.2 58.2zM475.4 558.2c-2 1.4-3.6 1.8-6.8 0.6-35.2-12.8-69.8-26.4-104.6-40.2-12.8-5.2-25.8-9.8-38.8-14.6-9.2-3.4-10.4-8-3-14.2 14-11.6 28.2-22.6 42.2-34 2.4-2 4.2-2.2 7.2-1 40.2 16.6 80.4 33.2 120.6 49.8 11.4 4.6 22.8 9.2 35.8 14.6-18.6 13.6-35.6 26.4-52.6 39zM561.6 493.6c-4.8 4-9.2 3.6-14 1.4-29.2-13-58.2-26.2-87.4-39-18.6-8.2-37.4-15.4-56-23.4-2.8-1.2-5-3.2-7.6-4.6 16-12 32.2-23.6 47.6-36 5-4 9.4-4.6 14.6-2.2 21.2 9.4 42.4 19 63.4 28.4 28.2 12.6 56.4 25.4 85.2 38.4-15.4 12.4-30.8 24.6-45.8 37zM642.8 429.4c-3.2 2.4-6.8 1.8-10.4 0.4-48.8-20.2-97.4-40.4-146.2-60.6-2.2-0.8-4-2.2-6.6-3.6 15.6-12 31.6-22.8 45.4-36 8.4-8.2 13.8-2 19.8 0.4 47 19.4 93.8 39.2 140.6 58.8 1.4 0.6 3.4 0.2 7.4 0.4-18 14.6-33.8 27.6-50 40.2zM735.6 356.2c-8.6 7.8-15.4 9.4-27.2 4.4-39.4-17-78.6-34-118.8-49-8.6-3.2-16.8-8-26.6-10.8 13-13 29-22.2 41.8-35 9-9 16-5 25.2-1.2 45.4 19 91.2 37.4 136.8 56 2.4 1 4.6 2.6 7.2 4.2-13 10.6-26.4 20.4-38.4 31.4zM819 293.6c-8.6 7.8-15.6 9.4-27.2 4.4-39.2-17.2-79.2-32.4-118.8-49-8.6-3.6-17-7.6-26.2-11 12.2-12.8 28.2-21.8 40.8-34.4 8.6-8.6 16.2-5.8 26.2-1.4 45.2 19.4 91.2 37.4 136.6 56.2 2.2 1 5.8 0.6 6.2 4.8-12.2 9.8-25.6 19.4-37.6 30.4zM898.6 230.4c-5.2 4.2-10.2 6.8-17.2 4-48.2-19.8-96.4-39.4-144.8-59.2-3.2-1.4-6.6-2.4-10.4-3.6 16-12 32.2-23.2 47.4-35.8 5.6-4.6 10.6-5.4 16.6-3 45.4 19 90.8 38 136.2 56.8 4.8 2 9.6 3.8 14.8 5.8-14.6 12.2-28.6 23.4-42.6 35zM975.4 172.2c-1.8 2.2-3.2 1.8-6 0.6-16.8-7.6-33.6-14.6-50.6-21.6-34.2-14.2-68.4-28.6-102.4-43.4-8.4-3.6-3.6-5.2-1-7.2 15.6-11.8 31.4-23.2 47-35 5.4-4 10.4-8.8 15.6-13.2 1-0.8 2.2-1.4 1.8-1.2 4.4-1 5.6 1.2 6.8 2.6 28.8 37.8 57.8 75.6 86.6 113.6 1 1.6 4.2 2 2.2 4.8zM143.6 696c24.4-0.4 48.6-0.2 73-0.2 24.8 0 49.4-0.2 74 0.2 6.2 0 8-1 8-7.8-0.4-30.6-0.6-61.2 0-91.8 0.4-24.6-20.6-51.6-43.6-59.6-16.6-5.8-33-2.6-49.6-3.8-14.2-1-27.6 1.4-39.6 10.2-15.6 11.4-29.4 24.4-30 45-1 33.4 0 66.8-0.4 100.2 0 7 2.4 7.6 8.2 7.6zM169.4 597.6c1.2-17.6 11.6-33.6 33.6-33.2 13.2 0.4 26.8-2.4 39.8 2 14 4.6 24.4 18.6 24.4 33.2 0 18.8-0.2 37.6 0.2 56.4 0.2 5.6-1.6 6.8-6.8 6.6-13.8-0.4-27.8-0.2-41.8-0.2-13.6 0-27.2-0.4-40.6 0.2-6.6 0.2-9.2-1.6-9.2-8.6 0.4-18.8-1-37.6 0.4-56.4zM282.4 727.2c16 0 16 0 16 15.8 0 15.4 0 15.4-15.4 15.4-16 0-16 0-16-15.8 0-15.4 0-15.4 15.4-15.4zM222 727.2c9.8-0.6 9.6 0 9.6 15.8 0 15.6 0 15.2-21.4 15.6-14.6 0.6-11.6-13-11.8-20-0.2-16.8 18.2-11.4 23.6-11.4zM151.6 727.2c17.4 0 17.4 0 17.4 16.6 0 14.8 0 14.8-17 14.8-16.4 0-16.4 0-16.4-16.6 0-14.8 0-14.8 16-14.8zM151.6 727.2c17.4 0 17.4 0 17.4 16.6 0 14.8 0 14.8-17 14.8-16.4 0-16.4 0-16.4-16.6 0-14.8 0-14.8 16-14.8zM222 727.2c9.8-0.6 9.6 0 9.6 15.8 0 15.6 0 15.2-21.4 15.6-14.6 0.6-11.6-13-11.8-20-0.2-16.8 18.2-11.4 23.6-11.4zM282.4 727.2c16 0 16 0 16 15.8 0 15.4 0 15.4-15.4 15.4-16 0-16 0-16-15.8 0-15.4 0-15.4 15.4-15.4zM298.6 596.4c0.4-24.6-20.6-51.6-43.6-59.6-16.6-5.8-33-2.6-49.6-3.8-14.2-1-27.6 1.4-39.6 10.2-15.6 11.4-29.4 24.4-30 45-1 33.4 0 66.8-0.4 100.2 0 7 2.2 7.6 8.2 7.6 24.4-0.4 48.6-0.2 73-0.2 24.8 0 49.4-0.2 74 0.2 6.2 0 8-1 8-7.8-0.4-30.4-0.6-61.2 0-91.8zM260.4 662.6c-13.8-0.4-27.8-0.2-41.8-0.2-13.6 0-27.2-0.4-40.6 0.2-6.6 0.2-9.2-1.6-9.2-8.6 0.4-18.8-0.8-37.6 0.4-56.2 1.2-17.6 11.6-33.6 33.6-33.2 13.2 0.4 26.8-2.4 39.8 2 14 4.6 24.4 18.6 24.4 33.2 0 18.8-0.2 37.6 0.2 56.4 0.2 5.4-1.4 6.6-6.8 6.4zM298.6 596.4c0.4-24.6-20.6-51.6-43.6-59.6-16.6-5.8-33-2.6-49.6-3.8-14.2-1-27.6 1.4-39.6 10.2-15.6 11.4-29.4 24.4-30 45-1 33.4 0 66.8-0.4 100.2 0 7 2.2 7.6 8.2 7.6 24.4-0.4 48.6-0.2 73-0.2 24.8 0 49.4-0.2 74 0.2 6.2 0 8-1 8-7.8-0.4-30.4-0.6-61.2 0-91.8zM260.4 662.6c-13.8-0.4-27.8-0.2-41.8-0.2-13.6 0-27.2-0.4-40.6 0.2-6.6 0.2-9.2-1.6-9.2-8.6 0.4-18.8-0.8-37.6 0.4-56.2 1.2-17.6 11.6-33.6 33.6-33.2 13.2 0.4 26.8-2.4 39.8 2 14 4.6 24.4 18.6 24.4 33.2 0 18.8-0.2 37.6 0.2 56.4 0.2 5.4-1.4 6.6-6.8 6.4zM282.4 727.2c16 0 16 0 16 15.8 0 15.4 0 15.4-15.4 15.4-16 0-16 0-16-15.8 0-15.4 0-15.4 15.4-15.4zM222 727.2c9.8-0.6 9.6 0 9.6 15.8 0 15.6 0 15.2-21.4 15.6-14.6 0.6-11.6-13-11.8-20-0.2-16.8 18.2-11.4 23.6-11.4zM151.6 727.2c17.4 0 17.4 0 17.4 16.6 0 14.8 0 14.8-17 14.8-16.4 0-16.4 0-16.4-16.6 0-14.8 0-14.8 16-14.8zM151.6 727.2c17.4 0 17.4 0 17.4 16.6 0 14.8 0 14.8-17 14.8-16.4 0-16.4 0-16.4-16.6 0-14.8 0-14.8 16-14.8zM222 727.2c9.8-0.6 9.6 0 9.6 15.8 0 15.6 0 15.2-21.4 15.6-14.6 0.6-11.6-13-11.8-20-0.2-16.8 18.2-11.4 23.6-11.4zM282.4 727.2c16 0 16 0 16 15.8 0 15.4 0 15.4-15.4 15.4-16 0-16 0-16-15.8 0-15.4 0-15.4 15.4-15.4zM298.6 596.4c0.4-24.6-20.6-51.6-43.6-59.6-16.6-5.8-33-2.6-49.6-3.8-14.2-1-27.6 1.4-39.6 10.2-15.6 11.4-29.4 24.4-30 45-1 33.4 0 66.8-0.4 100.2 0 7 2.2 7.6 8.2 7.6 24.4-0.4 48.6-0.2 73-0.2 24.8 0 49.4-0.2 74 0.2 6.2 0 8-1 8-7.8-0.4-30.4-0.6-61.2 0-91.8zM260.4 662.6c-13.8-0.4-27.8-0.2-41.8-0.2-13.6 0-27.2-0.4-40.6 0.2-6.6 0.2-9.2-1.6-9.2-8.6 0.4-18.8-0.8-37.6 0.4-56.2 1.2-17.6 11.6-33.6 33.6-33.2 13.2 0.4 26.8-2.4 39.8 2 14 4.6 24.4 18.6 24.4 33.2 0 18.8-0.2 37.6 0.2 56.4 0.2 5.4-1.4 6.6-6.8 6.4zM298.6 596.4c0.4-24.6-20.6-51.6-43.6-59.6-16.6-5.8-33-2.6-49.6-3.8-14.2-1-27.6 1.4-39.6 10.2-15.6 11.4-29.4 24.4-30 45-1 33.4 0 66.8-0.4 100.2 0 7 2.2 7.6 8.2 7.6 24.4-0.4 48.6-0.2 73-0.2 24.8 0 49.4-0.2 74 0.2 6.2 0 8-1 8-7.8-0.4-30.4-0.6-61.2 0-91.8zM260.4 662.6c-13.8-0.4-27.8-0.2-41.8-0.2-13.6 0-27.2-0.4-40.6 0.2-6.6 0.2-9.2-1.6-9.2-8.6 0.4-18.8-0.8-37.6 0.4-56.2 1.2-17.6 11.6-33.6 33.6-33.2 13.2 0.4 26.8-2.4 39.8 2 14 4.6 24.4 18.6 24.4 33.2 0 18.8-0.2 37.6 0.2 56.4 0.2 5.4-1.4 6.6-6.8 6.4zM282.4 727.2c16 0 16 0 16 15.8 0 15.4 0 15.4-15.4 15.4-16 0-16 0-16-15.8 0-15.4 0-15.4 15.4-15.4zM222 727.2c9.8-0.6 9.6 0 9.6 15.8 0 15.6 0 15.2-21.4 15.6-14.6 0.6-11.6-13-11.8-20-0.2-16.8 18.2-11.4 23.6-11.4zM151.6 727.2c17.4 0 17.4 0 17.4 16.6 0 14.8 0 14.8-17 14.8-16.4 0-16.4 0-16.4-16.6 0-14.8 0-14.8 16-14.8zM151.6 727.2c17.4 0 17.4 0 17.4 16.6 0 14.8 0 14.8-17 14.8-16.4 0-16.4 0-16.4-16.6 0-14.8 0-14.8 16-14.8zM222 727.2c9.8-0.6 9.6 0 9.6 15.8 0 15.6 0 15.2-21.4 15.6-14.6 0.6-11.6-13-11.8-20-0.2-16.8 18.2-11.4 23.6-11.4zM282.4 727.2c16 0 16 0 16 15.8 0 15.4 0 15.4-15.4 15.4-16 0-16 0-16-15.8 0-15.4 0-15.4 15.4-15.4zM298.6 596.4c0.4-24.6-20.6-51.6-43.6-59.6-16.6-5.8-33-2.6-49.6-3.8-14.2-1-27.6 1.4-39.6 10.2-15.6 11.4-29.4 24.4-30 45-1 33.4 0 66.8-0.4 100.2 0 7 2.2 7.6 8.2 7.6 24.4-0.4 48.6-0.2 73-0.2 24.8 0 49.4-0.2 74 0.2 6.2 0 8-1 8-7.8-0.4-30.4-0.6-61.2 0-91.8zM260.4 662.6c-13.8-0.4-27.8-0.2-41.8-0.2-13.6 0-27.2-0.4-40.6 0.2-6.6 0.2-9.2-1.6-9.2-8.6 0.4-18.8-0.8-37.6 0.4-56.2 1.2-17.6 11.6-33.6 33.6-33.2 13.2 0.4 26.8-2.4 39.8 2 14 4.6 24.4 18.6 24.4 33.2 0 18.8-0.2 37.6 0.2 56.4 0.2 5.4-1.4 6.6-6.8 6.4zM298.6 596.4c0.4-24.6-20.6-51.6-43.6-59.6-16.6-5.8-33-2.6-49.6-3.8-14.2-1-27.6 1.4-39.6 10.2-15.6 11.4-29.4 24.4-30 45-1 33.4 0 66.8-0.4 100.2 0 7 2.2 7.6 8.2 7.6 24.4-0.4 48.6-0.2 73-0.2 24.8 0 49.4-0.2 74 0.2 6.2 0 8-1 8-7.8-0.4-30.4-0.6-61.2 0-91.8zM260.4 662.6c-13.8-0.4-27.8-0.2-41.8-0.2-13.6 0-27.2-0.4-40.6 0.2-6.6 0.2-9.2-1.6-9.2-8.6 0.4-18.8-0.8-37.6 0.4-56.2 1.2-17.6 11.6-33.6 33.6-33.2 13.2 0.4 26.8-2.4 39.8 2 14 4.6 24.4 18.6 24.4 33.2 0 18.8-0.2 37.6 0.2 56.4 0.2 5.4-1.4 6.6-6.8 6.4zM282.4 727.2c16 0 16 0 16 15.8 0 15.4 0 15.4-15.4 15.4-16 0-16 0-16-15.8 0-15.4 0-15.4 15.4-15.4zM222 727.2c9.8-0.6 9.6 0 9.6 15.8 0 15.6 0 15.2-21.4 15.6-14.6 0.6-11.6-13-11.8-20-0.2-16.8 18.2-11.4 23.6-11.4zM151.6 727.2c17.4 0 17.4 0 17.4 16.6 0 14.8 0 14.8-17 14.8-16.4 0-16.4 0-16.4-16.6 0-14.8 0-14.8 16-14.8z"></path>
<path fill="#000" d="M319.2 298.8c-5 5-7 14.8-13.8 16.6-7 1.8-11.6-7.6-17.8-11-29.4-15.6-60-20.6-93.2-15.6-21.8 3.2-41.4 9.6-57.8 24.8-2.8 2.6-6.6 3.8-10-1-3.8-5.2-8-10-12.4-14.6-8.4-8.8-8.2-8.6 2.6-15.4 31.2-19.4 64.8-28.4 102.2-27 35-1.6 67.6 7.6 97.6 27 8.4 5 10 8.8 2.6 16.2z"></path>
<path fill="#000" d="M277.4 342c-3 4-6.6 6.8-9.2 11-2.8 4.6-7 9.8-11.6 11.4-3.4 1-8.6-3.8-12.8-6-19.8-10.2-51-7-63 7.6-7.4-5-11-13.8-17.8-19.6-4.4-3.8-2.6-6.4 1.4-9.6 12.2-9.4 25.8-13 40.8-15 21-2.6 40.2 0.8 58.6 10.6 5.2 2.8 9.8 5.6 13.6 9.6z"></path>
<path fill="#000" d="M231.6 401c0 12-4 17.4-13 17.4-8.6-0.2-18.2-8.8-18.4-16.4-0.2-7.2 11.2-19.2 18-19 7.2 0 13.4 8.6 13.4 18z"></path>
<path fill="#000" d="M298.6 596.4c0.4-24.6-20.6-51.6-43.6-59.6-16.6-5.8-33-2.6-49.6-3.8-14.2-1-27.6 1.4-39.6 10.2-15.6 11.4-29.4 24.4-30 45-1 33.4 0 66.8-0.4 100.2 0 7 2.2 7.6 8.2 7.6 24.4-0.4 48.6-0.2 73-0.2 24.8 0 49.4-0.2 74 0.2 6.2 0 8-1 8-7.8-0.4-30.4-0.6-61.2 0-91.8zM260.4 662.6c-13.8-0.4-27.8-0.2-41.8-0.2-13.6 0-27.2-0.4-40.6 0.2-6.6 0.2-9.2-1.6-9.2-8.6 0.4-18.8-0.8-37.6 0.4-56.2 1.2-17.6 11.6-33.6 33.6-33.2 13.2 0.4 26.8-2.4 39.8 2 14 4.6 24.4 18.6 24.4 33.2 0 18.8-0.2 37.6 0.2 56.4 0.2 5.4-1.4 6.6-6.8 6.4zM282.4 727.2c16 0 16 0 16 15.8 0 15.4 0 15.4-15.4 15.4-16 0-16 0-16-15.8 0-15.4 0-15.4 15.4-15.4zM222 727.2c9.8-0.6 9.6 0 9.6 15.8 0 15.6 0 15.2-21.4 15.6-14.6 0.6-11.6-13-11.8-20-0.2-16.8 18.2-11.4 23.6-11.4zM151.6 727.2c17.4 0 17.4 0 17.4 16.6 0 14.8 0 14.8-17 14.8-16.4 0-16.4 0-16.4-16.6 0-14.8 0-14.8 16-14.8z"></path>
<path fill="#000" d="M298.6 596.4c0.4-24.6-20.6-51.6-43.6-59.6-16.6-5.8-33-2.6-49.6-3.8-14.2-1-27.6 1.4-39.6 10.2-15.6 11.4-29.4 24.4-30 45-1 33.4 0 66.8-0.4 100.2 0 7 2.2 7.6 8.2 7.6 24.4-0.4 48.6-0.2 73-0.2 24.8 0 49.4-0.2 74 0.2 6.2 0 8-1 8-7.8-0.4-30.4-0.6-61.2 0-91.8zM260.4 662.6c-13.8-0.4-27.8-0.2-41.8-0.2-13.6 0-27.2-0.4-40.6 0.2-6.6 0.2-9.2-1.6-9.2-8.6 0.4-18.8-0.8-37.6 0.4-56.2 1.2-17.6 11.6-33.6 33.6-33.2 13.2 0.4 26.8-2.4 39.8 2 14 4.6 24.4 18.6 24.4 33.2 0 18.8-0.2 37.6 0.2 56.4 0.2 5.4-1.4 6.6-6.8 6.4z"></path>
<path fill="#000" d="M169 743.6c0 14.8 0 14.8-17 14.8-16.4 0-16.4 0-16.4-16.6 0-14.8 0-14.8 16-14.8 17.4 0.2 17.4 0.2 17.4 16.6z"></path>
<path fill="#000" d="M231.6 742.8c0 15.6 0 15.2-21.4 15.6-14.6 0.6-11.8-13-11.8-20-0.2-16.8 18.2-11.4 23.6-11.4 9.8-0.4 9.6 0.2 9.6 15.8z"></path>
<path fill="#000" d="M298.4 743c0 15.4 0 15.4-15.4 15.4-16 0-16 0-16-15.8 0-15.4 0-15.4 15.4-15.4 16 0 16 0 16 15.8z"></path>
</svg>
