<!-- Generated by IcoMoon.io -->
<svg version="1.1" xmlns="http://www.w3.org/2000/svg" width="1024" height="1024" viewBox="0 0 1024 1024">
<g id="icomoon-ignore">
</g>
<path fill="#000" d="M101.36 942.16c0-17.36 0-17.46-17.76-17.342-18.76 0.12-16.3-2.58-16.26 16.28 0.020 19.5-2.78 16.68 16.54 16.94 17.48 0 17.48 0 17.48-15.878zM82.1 857.96c19.48 0 19.48 0 19.48 19.82 0 13.56 0 13.56-16.78 13.56-17.84 0-17.84 0-17.84-17.84 0-15.54 0-15.54 15.14-15.54zM82.16 794.38c19.38-0.12 18.9-0.020 19.6 18.94 0.32 8.94-1.9 13.020-11.26 11.32-1.98-0.362-4.080-0.042-6.14-0.042-17.34 0-17.38 0-17.34-16.458 0.060-16.302-1.36-13.66 15.14-13.76zM569.040 240.5c-4.238 5.18-8.34 10.52-12.1 16.060-3 4.42-5.54 3.88-9.1 0.66-4.62-4.2-8.66-9.4-16.2-10.9 0 58.5-0.16 116.060 0.18 173.62 0.040 7.56-1.42 10.46-9.542 9.74-9.32-0.82-18.78-0.2-28.18-0.18-11.86 0.020-11.84 0.020-11.88 11.46-0.060 15.26 1.2 30.68-0.52 45.76-2.6 22.72-27.78 42.36-52.34 42.78-13.94 0.24-13.96 0.24-13.96 14.62 0 109.522-0.040 219.060 0.12 328.602 0.020 6.558-1.82 11-6.7 15.76-22.82 22.218-45.060 45.020-67.36 67.76-4.46 4.54-7.9 5.94-14.040 1.74-34.26-23.4-68.84-46.38-103.52-69.202-4.28-2.818-5.9-5.66-5.74-10.58 0.3-9.378 0.98-18.898-0.14-28.16-1.3-10.84 3.42-18.36 10.22-25.6 15.46-16.42 15.4-16.458-0.6-32.44-3.94-3.94-7.74-8.040-11.86-11.8-3.44-3.138-3.16-5.6 0.080-8.718 7.4-7.122 14.42-14.66 21.88-21.702 3.86-3.66 5.4-6.68 0.62-10.74-1.96-1.638-2.8-4.68-4.84-6.12-15.56-11-15.72-26.78-15.5-43.72 0.64-49.040 0.22-98.080 0.22-147.12 0-12.542 0-12.78-12.24-12.52-30.26 0.638-47.38-17.84-53.58-40.74-2.62-9.7-0.64-19.86-0.96-29.82-0.2-6.44-0.6-12.98 0.1-19.36 0.94-8.62-3.040-10.58-10.64-10.26-10.26 0.44-20.58-0.3-30.82 0.26-6.64 0.36-8.32-1.66-8.3-8.28 0.28-55.2 0.2-110.42 0.1-165.62 0-3.060 1.72-7.28-1.64-8.92-3.22-1.58-5.58 2.18-8 4.020-14.52 10.94-14.48 10.98-23.94-4.18-8.32-13.36-8.32-13.36 4.34-22.44 18.24-13.060 36.36-26.28 54.72-39.16 4.68-3.28 6.82-6.68 6.76-12.74-0.36-32.88 0.020-65.78-0.32-98.66-0.080-6.84 1.56-9.020 8.74-8.9 27.3 0.44 54.62 0.36 81.92 0.040 6.14-0.060 8.24 1.58 7.86 7.84-0.54 8.48-0.22 17.020-0.1 25.54 0.040 3.1-1.34 7.14 2.040 8.88 3.060 1.58 5.040-2.060 7.3-3.6 11.34-7.74 22.96-15.14 33.76-23.58 21.34-16.7 62.48-14.56 82.78-0.18 39.040 27.66 78 55.4 116.98 83.12 30.6 21.76 61.060 43.76 91.9 65.16 6.102 4.24 6.242 7.38 2.042 12.52zM168.76 146.64c0.080 2.080-1.52 5.080 1.46 6.16 2.4 0.88 4.3-1.2 6.14-2.62 5.72-4.5 11.22-9.38 17.26-13.4 5.72-3.82 7.4-8.5 7.28-15.28-0.42-23.48-0.16-23.34-23.96-22.7-5.9 0.14-8.64 2.040-8.32 8.24 0.32 6.72 0.080 13.48 0.060 20.24 0 6.46-0.12 12.92 0.080 19.36zM316.94 899.5c0.1-76.34 0.080-152.66 0.080-229 0-76.92-0.020-153.84 0.060-230.74 0.020-5.94-0.46-10.38-8.18-10.34-39.34 0.16-78.68 0.1-118.020 0.040-5.48-0.020-8.12 2.2-8.080 7.8 0.1 13.8-0.020 27.6 0.060 41.4 0.060 8.12 4.020 12.92 12.18 14.6 15.4 3.16 30.94 1.24 46.38 1.3 7.16 0.020 8.58 2.16 8.56 8.88-0.26 63.4-0.080 126.82-0.3 190.24-0.020 6.060 1.78 10.3 5.92 14.6 9.54 9.88 18.18 20.64 27.86 30.38 4.68 4.72 3.7 7.6-0.34 11.5-7.2 6.94-13.98 14.34-21.3 21.16-4.040 3.78-3.76 6.24 0.22 9.92 7.3 6.7 13.74 14.36 21.16 20.9 4.9 4.298 4.74 7.080 0.36 11.558-10.24 10.46-20.16 21.24-29.88 32.202-6.52 7.34-5.5 20.94 1.6 25.42 17.7 11.18 35.46 22.298 53.32 33.24 2.060 1.24 3.92 4.5 6.82 2.94 3.26-1.74 1.52-5.32 1.52-8zM299.92 235.94c0.040-4.6-1.44-6.14-6.060-5.96-8.76 0.32-17.56 0.080-26.34 0.080-9.36 0-18.74 0.26-28.1-0.080-5.48-0.22-7.28 2.1-7.26 7.18 0.1 17.86 0.080 35.72 0.020 53.56-0.020 4.62 1.54 6.84 6.68 6.76 18.44-0.24 36.88-0.26 55.32 0.020 4.98 0.080 5.74-2.020 5.72-6.22-0.16-18.44-0.18-36.9 0.020-55.34zM232.14 336.56c0.16 17.32 0.12 34.64 0.040 51.96-0.040 5.34 1.7 8 7.68 7.7 8.78-0.44 17.6-0.12 26.42-0.12 8.8 0 17.62-0.26 26.42 0.1 5.44 0.24 7.24-1.8 7.18-7.080-0.18-17.9-0.2-35.82 0.040-53.72 0.060-4.86-1.22-6.64-6.4-6.56-17.9 0.32-35.82 0.34-53.72 0-5.94-0.1-7.7 2.22-7.66 7.72zM392.44 396.080c4.4 0 5.96-2.16 5.92-6.62-0.2-18.14-0.18-36.3-0.020-54.44 0.040-4.64-1.88-6.14-6.3-6.1-18.16 0.12-36.3 0.2-54.46-0.040-5.6-0.080-7.040 2.34-6.88 7.42 0.26 8.48 0.080 16.98 0.080 25.46 0 9.080 0.22 18.16-0.1 27.24-0.18 4.88 1.7 7.1 6.44 7.1 18.44 0 36.88 0 55.32-0.020zM398.4 237.22c0.12-6.14-2.46-7.44-7.84-7.24-8.48 0.32-16.98 0.080-25.46 0.080-9.080 0-18.16 0.2-27.22-0.060-5.3-0.16-7.26 1.8-7.2 7.16 0.24 17.86 0.2 35.72 0.020 53.58-0.040 4.88 1.62 6.78 6.6 6.72 18.14-0.18 36.3-0.18 54.44 0 4.96 0.060 6.68-1.72 6.62-6.66-0.2-17.86-0.3-35.72 0.040-53.58zM447.64 439.26c0.46-8.16-3.060-9.92-10.22-9.86-25.82 0.24-51.66 0.080-77.5 0.1-11.22 0-11.36 0.14-11.36 11.38-0.020 74.88 0 149.74 0 224.6v223.72c0 1.762 0.020 3.522-0.020 5.282-0.020 2.080-0.22 4.558 2.040 5.32 1.8 0.6 2.88-1.58 4.080-2.762 7.3-7.238 14.26-14.86 21.92-21.658 5.8-5.16 7.58-10.9 7.58-18.542-0.22-117.14-0.080-234.3-0.34-351.44-0.020-8.12 1.32-11.5 10.32-10.82 11.38 0.86 22.9 0.68 34.32 0.080 11.74-0.62 19.96-5.16 19.16-19.3-0.68-12-0.64-24.1 0.020-36.1zM497.080 386.38c-0.36-53.12-0.28-106.24-0.040-159.38 0.020-5.7-1.84-9.28-6.28-12.42-49.58-35.24-99.060-70.62-148.66-105.84-18.34-13.040-30.84-12.98-49.56 0-50.94 35.34-101.78 70.84-152.8 106.080-4.76 3.26-6.38 6.88-6.26 12.38 0.3 12.6 0.1 25.24 0.1 37.86 0 40.22 0.14 80.42-0.12 120.64-0.060 7.56 1.4 11.080 10.16 10.64 15.8-0.8 31.7-0.68 47.52-0.040 7.92 0.32 9.8-2.22 9.76-9.9-0.3-59.86-0.040-119.74-0.34-179.62-0.040-7.1 2-8.72 8.8-8.66 35.82 0.32 71.62 0.16 107.44 0.16 35.52 0 71.020 0.12 106.54-0.12 7-0.040 9.98 1.040 9.92 9.46-0.48 59.58-0.1 119.16-0.44 178.74-0.040 8.020 2.72 10.080 10.12 9.86 14.66-0.4 29.34-0.4 44.020 0.020 7.42 0.22 10.18-1.82 10.12-9.86zM697.18 877.060c-0.16 20.4-11.26 33.66-29.58 41.378-4.1 1.74-5.42 4.702-5.28 9.042 0.24 8.218-0.16 16.458 0.14 24.66 0.18 4.58-1.342 5.898-5.96 6.080-25.9 1.058-26.16 1.18-25.74-24.82 0.14-8.4-1.6-13.042-10.2-17.3-15.782-7.798-25.4-21.6-24.92-40.1 0.5-19.32 9.84-34.080 26.58-43.44 6-3.362 8.74-6.522 8.58-13.8-0.542-24.64-0.202-49.32-0.202-73.98 0-25.54 0.202-51.080-0.138-76.62-0.080-6.14 1.54-8.52 7.798-7.8 7.76 0.88 17.86-3.28 22.8 1.782 4.5 4.62 1.26 14.54 1.28 22.1 0.1 45.5 0.080 91.020-0.020 136.52 0 4.66 0.58 7.58 5.66 10.122 18.762 9.376 29.362 24.796 29.202 46.176zM662.58 874.82c0.12-8.16-7.74-16.96-15.46-17.24-7.958-0.3-16.478 8.36-16.78 17.080-0.28 7.68 8.16 16.98 15.66 17.26 8.18 0.3 16.42-8.2 16.58-17.1zM697.32 485.46c0.080 6.76-2.4 8.48-8.74 8.42-27.88-0.26-55.76-0.26-83.64-0.020-6.558 0.060-9.5-1.48-9.4-8.8 0.362-27 0.32-54.020 0.022-81.020-0.080-6.22 1.878-8.16 8.020-8 14.38 0.36 28.76 0.12 43.14 0.12 14.378 0 28.78 0.24 43.138-0.12 5.862-0.16 7.5 1.78 7.46 7.52-0.28 27.3-0.32 54.6 0 81.9zM663.26 446.020v-0.86c0.16-18.58 0.060-15.68-15.458-15.68-21-0.020-17.542-1.86-17.602 17.68-0.080 18.3-2.5 15.64 15.66 15.88 20.14-0.22 17.16 2.46 17.4-17.020zM697.42 356.82c0.042 4.72-1.48 5.94-6 5.86-14.958-0.24-29.92-0.1-44.88-0.1-14.68 0-29.34-0.16-44.020 0.1-4.92 0.080-7.28-0.58-7.218-6.52 0.34-27.86 0.298-55.74 0.040-83.6-0.060-5.48 1.64-7 6.98-6.96 29.34 0.2 58.68 0.2 88.020 0 5.122-0.040 7.16 1.020 7.122 6.72-0.304 28.16-0.264 56.34-0.044 84.5zM662.58 312.88c0.080-16.16 0.020-16.16-16-16.16-16.26 0-16.26 0-16.26 15.88 0.218 19.080-2.44 16.6 15.958 16.6 18.442 0 16.202 2.52 16.302-16.32zM697.42 621.12c0.042 4.74-1.48 5.96-6 5.88-14.958-0.26-29.92-0.1-44.88-0.1-14.68 0-29.34-0.16-44.020 0.1-4.92 0.080-7.28-0.58-7.218-6.52 0.34-27.88 0.298-55.74 0.040-83.622-0.060-5.458 1.64-7 6.98-6.958 29.34 0.218 58.68 0.218 88.020 0 5.122-0.020 7.16 1.040 7.122 6.74-0.304 28.16-0.264 56.32-0.044 84.48zM662.58 576.020c0.12-15 0.020-15-15.42-15-16.84 0-16.84 0-16.84 17.060v0.88c0.080 16.378-1.64 14.68 14.5 14.558 20.44-0.138 17.58 3.082 17.76-17.498zM826.18 789.68c5.96-21.34-3.1-49.72-23.696-56.982-4.802-1.68-6.822-5.378-6.702-10.978 0.382-17.882-0.138-35.802 0.282-53.682 0.16-6.318-1.882-8.198-7.942-7.718-6.118 0.5-12.358 0.52-18.478 0-6.402-0.542-8.742 1.28-8.542 8.16 0.5 17.298-0.18 34.62 0.34 51.92 0.2 6.902-2.16 10.14-8.28 13.28-17.44 9-24.18 24.8-23.6 43.56 0.538 18.18 6.778 33.68 24.9 41.62 5.178 2.26 7.078 5.64 6.958 11.48-0.4 19.94-0.14 39.902-0.14 59.86 0 14.362-0.16 28.742 0.060 43.122 0.12 7.858-3.36 18.018 1.4 22.958 5.18 5.4 15.58 0.82 23.6 1.9 7.66 1.018 9.882-1.5 9.78-9.44-0.458-39.32-0.1-78.64-0.318-117.96-0.042-5.318 1.2-9.478 6.080-11.398 13.718-5.42 20.478-16.042 24.298-29.702zM796.24 776.040c-0.060 10.18-7.38 17.18-17.86 17.102-9.78-0.102-17.38-7.442-17.56-16.942-0.16-9.5 7.86-17.338 17.82-17.378 10.46-0.042 17.68 7 17.6 17.218zM821.34 363.6c-28.458-0.3-56.92-0.22-85.378-0.080-4.8 0.040-6.762-1.36-6.72-6.5 0.2-28.46 0.18-56.92 0-85.4-0.020-4.54 1.28-6.060 5.958-6.020 29.060 0.18 58.122 0.22 87.16-0.020 5.14-0.040 5.602 2.18 5.542 6.3-0.16 14.38-0.060 28.76-0.060 43.14 0 13.78-0.2 27.58 0.1 41.38 0.118 5.040-0.762 7.26-6.602 7.2zM796.24 320.4c-0.16-2.040-0.020-4.1-0.020-6.14 0-17.38 0-17.38-17.56-17.38-3.22 0-6.48 0.3-9.66-0.060-6.82-0.8-8.76 2.36-8.26 8.66 0.42 5.24 0.16 10.52 0.080 15.8-0.1 5.44 2.36 8.080 7.9 7.98 6.138-0.12 12.34-0.46 18.44 0.080 7 0.62 9.64-2.26 9.080-8.94zM827.96 487.68c0.12 5.46-1.64 6.9-7.022 6.86-28.18-0.28-56.36-0.26-84.54-0.020-5.34 0.040-7.18-1.52-7.16-6.94 0.2-28.48 0.18-56.96 0.020-85.42-0.020-4.46 1.080-6.18 5.88-6.16 29.058 0.2 58.12 0.22 87.18 0 5.060-0.040 5.64 2.080 5.6 6.26-0.2 14.38-0.080 28.76-0.080 43.14 0.002 14.1-0.218 28.2 0.122 42.28zM776.58 429.5c-15.76 0-15.86 0-15.72 14.96 0.18 20.64-3.058 17.78 18.14 18.020 17.24 0 17.22 0 17.24-14.12 0.020-20.8 1.82-18.88-19.66-18.86zM820.46 627.92c-27.88-0.36-55.762-0.26-83.622-0.040-5.62 0.040-7.7-1.5-7.64-7.442 0.282-27.86 0.262-55.76 0.022-83.62-0.060-5.38 1.378-7 6.878-6.94 28.46 0.26 56.92 0.238 85.4 0.020 4.9-0.042 6.58 1.18 6.46 6.298-0.342 14.38-0.122 28.762-0.122 43.14 0 13.5-0.26 27 0.122 40.5 0.162 5.784-0.918 8.184-7.498 8.084zM796.22 577.3c0-16.102 0-16.102-17.080-16.102-18.32 0-18.18 0-18.34 16-0.182 17.682-0.14 16.48 17.978 16.362 17.442-0.1 17.442-0.020 17.442-16.26zM959.9 921.32c-5.58 18.218-18.58 31.040-36.74 35.74-21.56 5.558-39.6-2.5-53.22-20.18-11.44-14.862-13.26-30.82-5.34-47.762 5.282-11.298 14.5-19.26 24.88-25.238 5.378-3.102 5.458-6.682 5.458-11.4-0.040-60.76 0.16-121.542-0.24-182.3-0.058-8.42 2.542-10.080 10.262-9.92 21.7 0.46 21.718 0.14 21.718 21.98v78.378c0 30.24 0.122 60.48-0.12 90.72-0.042 6.060 1.24 9.82 6.92 13.4 23.862 15.102 33.142 34.682 26.422 56.582zM926.86 908.14c-0.24-6.98-9.42-16.22-16.080-16.16-6.44 0.080-16.28 10-16.12 16.28 0.18 6.72 10.72 16.66 17.26 16.3 5.96-0.34 15.12-10.42 14.94-16.42zM961.62 485.94c0.060 6.42-2.44 7.96-8.34 7.92-28.16-0.22-56.36-0.28-84.52 0.040-7.16 0.080-8.958-2.64-8.878-9.34 0.28-26.7 0.318-53.42-0.042-80.12-0.080-6.68 2.020-8.62 8.56-8.42 14.060 0.44 28.16 0.14 42.26 0.14 14.378 0 28.76 0.18 43.14-0.1 5.34-0.1 7.92 0.84 7.84 7.12-0.32 27.58-0.3 55.18-0.020 82.76zM927.58 446.74v-1.74c0.16-18.46 0-15.5-15.62-15.54-20.682-0.040-17.32-1.64-17.48 16.98-0.16 16.58-0.042 16.6 16.718 16.6 18.802-0.16 16.182 2.080 16.382-16.3zM961.72 220.66c0.058 7.56-2.522 9.34-9.64 9.32-115.62-0.18-231.24-0.2-346.86 0.040-7.942 0.020-9.862-2.62-9.82-10.16 0.298-48.7 0.298-97.42-0.020-146.14-0.060-7.12 2.080-8.88 8.92-8.86 58.378 0.24 116.78 0.14 175.18 0.14 57.82 0 115.62 0.12 173.44-0.14 6.92-0.040 8.86 1.76 8.82 8.8-0.32 49-0.32 98-0.020 147zM916.24 98.3c-45.78 0.5-91.56 0.24-137.36 0.24-46.080 0-92.16 0.14-138.22-0.14-7.64-0.060-10.84 1.46-10.64 10.1 0.6 27 0.46 54 0.042 81-0.1 7 2 9.2 8.86 9.18 93.042-0.14 186.080-0.16 279.12 0.040 7.5 0.020 9.362-2.6 9.24-9.74-0.378-26.4-0.5-52.82 0.060-79.22 0.178-8.74-1.922-11.54-11.102-11.46zM961.74 357c0.040 4.96-1.92 5.72-6.202 5.66-14.94-0.2-29.92-0.080-44.878-0.080-14.96 0-29.92-0.12-44.88 0.1-4.42 0.060-6.16-1-6.12-5.82 0.22-28.46 0.2-56.92 0.020-85.36-0.040-4.84 1.94-5.88 6.26-5.86 29.92 0.12 59.84 0.14 89.782-0.020 4.58-0.040 6.020 1.38 6 6-0.182 28.46-0.222 56.92 0.018 85.38zM926.9 312.82c0.080-16.1 0-16.1-16.060-16.1-16.22 0-16.22 0-16.22 15.94 0.22 19.020-2.42 16.54 16.022 16.54 18.398 0.020 16.158 2.52 16.258-16.38zM961.74 621.14c0.020 4.74-1.52 5.92-6.020 5.86-14.96-0.26-29.92-0.1-44.88-0.1-14.68 0-29.34-0.16-44 0.1-4.958 0.080-7.3-0.62-7.22-6.54 0.32-27.862 0.282-55.74 0.022-83.602-0.042-5.5 1.68-7 7.020-6.958 29.32 0.218 58.66 0.218 88 0 5.16-0.020 7.16 1.060 7.1 6.76-0.302 28.16-0.242 56.32-0.022 84.48zM926.9 577.44c0.060-16.42 0-16.42-16.622-16.42-15.66 0-15.66 0-15.66 15.64 0.262 19.56-2.52 16.82 16.602 16.86 17.64 0.040 15.6 2.32 15.68-16.080zM1025.38 971.92c0.040 27.16-19.14 51.042-51.46 51.042-307.56 0.040-615.1 0.040-922.64-0.022-31.32 0-51.34-22.28-51.34-51.26 0.060-306.54 0.12-613.1-0.1-919.64-0.020-28.16 21.18-51.16 51.24-51.020 153.78 0.78 307.54 0.36 461.32 0.36 154.060 0 308.138 0.44 462.2-0.36 31.66-0.18 50.92 26.040 50.88 50.4-0.52 306.84-0.48 613.68-0.1 920.5zM993.94 968.66c-0.36-304.8-0.26-609.6-0.28-914.4 0-15.4-6.34-21.84-21.6-21.84h-915.28c-14.92 0-21.88 7-21.88 21.9v912.64c0 17.718 6.48 24.238 24.060 24.238 303.92 0 607.84-0.080 911.76 0.282 13.96 0 23.24-9.14 23.22-22.82zM83.6 924.82c17.76-0.12 17.76-0.020 17.76 17.342 0 15.878 0 15.878-17.48 15.878-19.32-0.26-16.52 2.56-16.54-16.94-0.040-18.86-2.5-16.16 16.26-16.28zM82.1 857.96c19.48 0 19.48 0 19.48 19.82 0 13.56 0 13.56-16.78 13.56-17.84 0-17.84 0-17.84-17.84 0-15.54 0-15.54 15.14-15.54zM82.16 794.38c19.38-0.12 18.9-0.020 19.6 18.94 0.32 8.94-1.9 13.020-11.26 11.32-1.98-0.362-4.080-0.042-6.14-0.042-17.34 0-17.38 0-17.34-16.458 0.060-16.302-1.36-13.66 15.14-13.76zM569.040 240.5c-4.238 5.18-8.34 10.52-12.1 16.060-3 4.42-5.54 3.88-9.1 0.66-4.62-4.2-8.66-9.4-16.2-10.9 0 58.5-0.16 116.060 0.18 173.62 0.040 7.56-1.42 10.46-9.542 9.74-9.32-0.82-18.78-0.2-28.18-0.18-11.86 0.020-11.84 0.020-11.88 11.46-0.060 15.26 1.2 30.68-0.52 45.76-2.6 22.72-27.78 42.36-52.34 42.78-13.94 0.24-13.96 0.24-13.96 14.62 0 109.522-0.040 219.060 0.12 328.602 0.020 6.558-1.82 11-6.7 15.76-22.82 22.218-45.060 45.020-67.36 67.76-4.46 4.54-7.9 5.94-14.040 1.74-34.26-23.4-68.84-46.38-103.52-69.202-4.28-2.818-5.9-5.66-5.74-10.58 0.3-9.378 0.98-18.898-0.14-28.16-1.3-10.84 3.42-18.36 10.22-25.6 15.46-16.42 15.4-16.458-0.6-32.44-3.94-3.94-7.74-8.040-11.86-11.8-3.44-3.138-3.16-5.6 0.080-8.718 7.4-7.122 14.42-14.66 21.88-21.702 3.86-3.66 5.4-6.68 0.62-10.74-1.96-1.638-2.8-4.68-4.84-6.12-15.56-11-15.72-26.78-15.5-43.72 0.64-49.040 0.22-98.080 0.22-147.12 0-12.542 0-12.78-12.24-12.52-30.26 0.638-47.38-17.84-53.58-40.74-2.62-9.7-0.64-19.86-0.96-29.82-0.2-6.44-0.6-12.98 0.1-19.36 0.94-8.62-3.040-10.58-10.64-10.26-10.26 0.44-20.58-0.3-30.82 0.26-6.64 0.36-8.32-1.66-8.3-8.28 0.28-55.2 0.2-110.42 0.1-165.62 0-3.060 1.72-7.28-1.64-8.92-3.22-1.58-5.58 2.18-8 4.020-14.52 10.94-14.48 10.98-23.94-4.18-8.32-13.36-8.32-13.36 4.34-22.44 18.24-13.060 36.36-26.28 54.72-39.16 4.68-3.28 6.82-6.68 6.76-12.74-0.36-32.88 0.020-65.78-0.32-98.66-0.080-6.84 1.56-9.020 8.74-8.9 27.3 0.44 54.62 0.36 81.92 0.040 6.14-0.060 8.24 1.58 7.86 7.84-0.54 8.48-0.22 17.020-0.1 25.54 0.040 3.1-1.34 7.14 2.040 8.88 3.060 1.58 5.040-2.060 7.3-3.6 11.34-7.74 22.96-15.14 33.76-23.58 21.34-16.7 62.48-14.56 82.78-0.18 39.040 27.66 78 55.4 116.98 83.12 30.6 21.76 61.060 43.76 91.9 65.16 6.102 4.24 6.242 7.38 2.042 12.52zM168.76 146.64c0.080 2.080-1.52 5.080 1.46 6.16 2.4 0.88 4.3-1.2 6.14-2.62 5.72-4.5 11.22-9.38 17.26-13.4 5.72-3.82 7.4-8.5 7.28-15.28-0.42-23.48-0.16-23.34-23.96-22.7-5.9 0.14-8.64 2.040-8.32 8.24 0.32 6.72 0.080 13.48 0.060 20.24 0 6.46-0.12 12.92 0.080 19.36zM316.94 899.5c0.1-76.34 0.080-152.66 0.080-229 0-76.92-0.020-153.84 0.060-230.74 0.020-5.94-0.46-10.38-8.18-10.34-39.34 0.16-78.68 0.1-118.020 0.040-5.48-0.020-8.12 2.2-8.080 7.8 0.1 13.8-0.020 27.6 0.060 41.4 0.060 8.12 4.020 12.92 12.18 14.6 15.4 3.16 30.94 1.24 46.38 1.3 7.16 0.020 8.58 2.16 8.56 8.88-0.26 63.4-0.080 126.82-0.3 190.24-0.020 6.060 1.78 10.3 5.92 14.6 9.54 9.88 18.18 20.64 27.86 30.38 4.68 4.72 3.7 7.6-0.34 11.5-7.2 6.94-13.98 14.34-21.3 21.16-4.040 3.78-3.76 6.24 0.22 9.92 7.3 6.7 13.74 14.36 21.16 20.9 4.9 4.298 4.74 7.080 0.36 11.558-10.24 10.46-20.16 21.24-29.88 32.202-6.52 7.34-5.5 20.94 1.6 25.42 17.7 11.18 35.46 22.298 53.32 33.24 2.060 1.24 3.92 4.5 6.82 2.94 3.26-1.74 1.52-5.32 1.52-8zM299.92 235.94c0.040-4.6-1.44-6.14-6.060-5.96-8.76 0.32-17.56 0.080-26.34 0.080-9.36 0-18.74 0.26-28.1-0.080-5.48-0.22-7.28 2.1-7.26 7.18 0.1 17.86 0.080 35.72 0.020 53.56-0.020 4.62 1.54 6.84 6.68 6.76 18.44-0.24 36.88-0.26 55.32 0.020 4.98 0.080 5.74-2.020 5.72-6.22-0.16-18.44-0.18-36.9 0.020-55.34zM232.14 336.56c0.16 17.32 0.12 34.64 0.040 51.96-0.040 5.34 1.7 8 7.68 7.7 8.78-0.44 17.6-0.12 26.42-0.12 8.8 0 17.62-0.26 26.42 0.1 5.44 0.24 7.24-1.8 7.18-7.080-0.18-17.9-0.2-35.82 0.040-53.72 0.060-4.86-1.22-6.64-6.4-6.56-17.9 0.32-35.82 0.34-53.72 0-5.94-0.1-7.7 2.22-7.66 7.72zM392.44 396.080c4.4 0 5.96-2.16 5.92-6.62-0.2-18.14-0.18-36.3-0.020-54.44 0.040-4.64-1.88-6.14-6.3-6.1-18.16 0.12-36.3 0.2-54.46-0.040-5.6-0.080-7.040 2.34-6.88 7.42 0.26 8.48 0.080 16.98 0.080 25.46 0 9.080 0.22 18.16-0.1 27.24-0.18 4.88 1.7 7.1 6.44 7.1 18.44 0 36.88 0 55.32-0.020zM398.4 237.22c0.12-6.14-2.46-7.44-7.84-7.24-8.48 0.32-16.98 0.080-25.46 0.080-9.080 0-18.16 0.2-27.22-0.060-5.3-0.16-7.26 1.8-7.2 7.16 0.24 17.86 0.2 35.72 0.020 53.58-0.040 4.88 1.62 6.78 6.6 6.72 18.14-0.18 36.3-0.18 54.44 0 4.96 0.060 6.68-1.72 6.62-6.66-0.2-17.86-0.3-35.72 0.040-53.58zM447.64 439.26c0.46-8.16-3.060-9.92-10.22-9.86-25.82 0.24-51.66 0.080-77.5 0.1-11.22 0-11.36 0.14-11.36 11.38-0.020 74.88 0 149.74 0 224.6v223.72c0 1.762 0.020 3.522-0.020 5.282-0.020 2.080-0.22 4.558 2.040 5.32 1.8 0.6 2.88-1.58 4.080-2.762 7.3-7.238 14.26-14.86 21.92-21.658 5.8-5.16 7.58-10.9 7.58-18.542-0.22-117.14-0.080-234.3-0.34-351.44-0.020-8.12 1.32-11.5 10.32-10.82 11.38 0.86 22.9 0.68 34.32 0.080 11.74-0.62 19.96-5.16 19.16-19.3-0.68-12-0.64-24.1 0.020-36.1zM497.080 386.38c-0.36-53.12-0.28-106.24-0.040-159.38 0.020-5.7-1.84-9.28-6.28-12.42-49.58-35.24-99.060-70.62-148.66-105.84-18.34-13.040-30.84-12.98-49.56 0-50.94 35.34-101.78 70.84-152.8 106.080-4.76 3.26-6.38 6.88-6.26 12.38 0.3 12.6 0.1 25.24 0.1 37.86 0 40.22 0.14 80.42-0.12 120.64-0.060 7.56 1.4 11.080 10.16 10.64 15.8-0.8 31.7-0.68 47.52-0.040 7.92 0.32 9.8-2.22 9.76-9.9-0.3-59.86-0.040-119.74-0.34-179.62-0.040-7.1 2-8.72 8.8-8.66 35.82 0.32 71.62 0.16 107.44 0.16 35.52 0 71.020 0.12 106.54-0.12 7-0.040 9.98 1.040 9.92 9.46-0.48 59.58-0.1 119.16-0.44 178.74-0.040 8.020 2.72 10.080 10.12 9.86 14.66-0.4 29.34-0.4 44.020 0.020 7.42 0.22 10.18-1.82 10.12-9.86zM697.18 877.060c-0.16 20.4-11.26 33.66-29.58 41.378-4.1 1.74-5.42 4.702-5.28 9.042 0.24 8.218-0.16 16.458 0.14 24.66 0.18 4.58-1.342 5.898-5.96 6.080-25.9 1.058-26.16 1.18-25.74-24.82 0.14-8.4-1.6-13.042-10.2-17.3-15.782-7.798-25.4-21.6-24.92-40.1 0.5-19.32 9.84-34.080 26.58-43.44 6-3.362 8.74-6.522 8.58-13.8-0.542-24.64-0.202-49.32-0.202-73.98 0-25.54 0.202-51.080-0.138-76.62-0.080-6.14 1.54-8.52 7.798-7.8 7.76 0.88 17.86-3.28 22.8 1.782 4.5 4.62 1.26 14.54 1.28 22.1 0.1 45.5 0.080 91.020-0.020 136.52 0 4.66 0.58 7.58 5.66 10.122 18.762 9.376 29.362 24.796 29.202 46.176zM662.58 874.82c0.12-8.16-7.74-16.96-15.46-17.24-7.958-0.3-16.478 8.36-16.78 17.080-0.28 7.68 8.16 16.98 15.66 17.26 8.18 0.3 16.42-8.2 16.58-17.1zM697.32 485.46c0.080 6.76-2.4 8.48-8.74 8.42-27.88-0.26-55.76-0.26-83.64-0.020-6.558 0.060-9.5-1.48-9.4-8.8 0.362-27 0.32-54.020 0.022-81.020-0.080-6.22 1.878-8.16 8.020-8 14.38 0.36 28.76 0.12 43.14 0.12 14.378 0 28.78 0.24 43.138-0.12 5.862-0.16 7.5 1.78 7.46 7.52-0.28 27.3-0.32 54.6 0 81.9zM663.26 446.020v-0.86c0.16-18.58 0.060-15.68-15.458-15.68-21-0.020-17.542-1.86-17.602 17.68-0.080 18.3-2.5 15.64 15.66 15.88 20.14-0.22 17.16 2.46 17.4-17.020zM697.42 356.82c0.042 4.72-1.48 5.94-6 5.86-14.958-0.24-29.92-0.1-44.88-0.1-14.68 0-29.34-0.16-44.020 0.1-4.92 0.080-7.28-0.58-7.218-6.52 0.34-27.86 0.298-55.74 0.040-83.6-0.060-5.48 1.64-7 6.98-6.96 29.34 0.2 58.68 0.2 88.020 0 5.122-0.040 7.16 1.020 7.122 6.72-0.304 28.16-0.264 56.34-0.044 84.5zM662.58 312.88c0.080-16.16 0.020-16.16-16-16.16-16.26 0-16.26 0-16.26 15.88 0.218 19.080-2.44 16.6 15.958 16.6 18.442 0 16.202 2.52 16.302-16.32zM697.42 621.12c0.042 4.74-1.48 5.96-6 5.88-14.958-0.26-29.92-0.1-44.88-0.1-14.68 0-29.34-0.16-44.020 0.1-4.92 0.080-7.28-0.58-7.218-6.52 0.34-27.88 0.298-55.74 0.040-83.622-0.060-5.458 1.64-7 6.98-6.958 29.34 0.218 58.68 0.218 88.020 0 5.122-0.020 7.16 1.040 7.122 6.74-0.304 28.16-0.264 56.32-0.044 84.48zM662.58 576.020c0.12-15 0.020-15-15.42-15-16.84 0-16.84 0-16.84 17.060v0.88c0.080 16.378-1.64 14.68 14.5 14.558 20.44-0.138 17.58 3.082 17.76-17.498zM826.18 789.68c5.96-21.34-3.1-49.72-23.696-56.982-4.802-1.68-6.822-5.378-6.702-10.978 0.382-17.882-0.138-35.802 0.282-53.682 0.16-6.318-1.882-8.198-7.942-7.718-6.118 0.5-12.358 0.52-18.478 0-6.402-0.542-8.742 1.28-8.542 8.16 0.5 17.298-0.18 34.62 0.34 51.92 0.2 6.902-2.16 10.14-8.28 13.28-17.44 9-24.18 24.8-23.6 43.56 0.538 18.18 6.778 33.68 24.9 41.62 5.178 2.26 7.078 5.64 6.958 11.48-0.4 19.94-0.14 39.902-0.14 59.86 0 14.362-0.16 28.742 0.060 43.122 0.12 7.858-3.36 18.018 1.4 22.958 5.18 5.4 15.58 0.82 23.6 1.9 7.66 1.018 9.882-1.5 9.78-9.44-0.458-39.32-0.1-78.64-0.318-117.96-0.042-5.318 1.2-9.478 6.080-11.398 13.718-5.42 20.478-16.042 24.298-29.702zM796.24 776.040c-0.060 10.18-7.38 17.18-17.86 17.102-9.78-0.102-17.38-7.442-17.56-16.942-0.16-9.5 7.86-17.338 17.82-17.378 10.46-0.042 17.68 7 17.6 17.218zM821.34 363.6c-28.458-0.3-56.92-0.22-85.378-0.080-4.8 0.040-6.762-1.36-6.72-6.5 0.2-28.46 0.18-56.92 0-85.4-0.020-4.54 1.28-6.060 5.958-6.020 29.060 0.18 58.122 0.22 87.16-0.020 5.14-0.040 5.602 2.18 5.542 6.3-0.16 14.38-0.060 28.76-0.060 43.14 0 13.78-0.2 27.58 0.1 41.38 0.118 5.040-0.762 7.26-6.602 7.2zM796.24 320.4c-0.16-2.040-0.020-4.1-0.020-6.14 0-17.38 0-17.38-17.56-17.38-3.22 0-6.48 0.3-9.66-0.060-6.82-0.8-8.76 2.36-8.26 8.66 0.42 5.24 0.16 10.52 0.080 15.8-0.1 5.44 2.36 8.080 7.9 7.98 6.138-0.12 12.34-0.46 18.44 0.080 7 0.62 9.64-2.26 9.080-8.94zM827.96 487.68c0.12 5.46-1.64 6.9-7.022 6.86-28.18-0.28-56.36-0.26-84.54-0.020-5.34 0.040-7.18-1.52-7.16-6.94 0.2-28.48 0.18-56.96 0.020-85.42-0.020-4.46 1.080-6.18 5.88-6.16 29.058 0.2 58.12 0.22 87.18 0 5.060-0.040 5.64 2.080 5.6 6.26-0.2 14.38-0.080 28.76-0.080 43.14 0.002 14.1-0.218 28.2 0.122 42.28zM776.58 429.5c-15.76 0-15.86 0-15.72 14.96 0.18 20.64-3.058 17.78 18.14 18.020 17.24 0 17.22 0 17.24-14.12 0.020-20.8 1.82-18.88-19.66-18.86zM820.46 627.92c-27.88-0.36-55.762-0.26-83.622-0.040-5.62 0.040-7.7-1.5-7.64-7.442 0.282-27.86 0.262-55.76 0.022-83.62-0.060-5.38 1.378-7 6.878-6.94 28.46 0.26 56.92 0.238 85.4 0.020 4.9-0.042 6.58 1.18 6.46 6.298-0.342 14.38-0.122 28.762-0.122 43.14 0 13.5-0.26 27 0.122 40.5 0.162 5.784-0.918 8.184-7.498 8.084zM796.22 577.3c0-16.102 0-16.102-17.080-16.102-18.32 0-18.18 0-18.34 16-0.182 17.682-0.14 16.48 17.978 16.362 17.442-0.1 17.442-0.020 17.442-16.26zM959.9 921.32c-5.58 18.218-18.58 31.040-36.74 35.74-21.56 5.558-39.6-2.5-53.22-20.18-11.44-14.862-13.26-30.82-5.34-47.762 5.282-11.298 14.5-19.26 24.88-25.238 5.378-3.102 5.458-6.682 5.458-11.4-0.040-60.76 0.16-121.542-0.24-182.3-0.058-8.42 2.542-10.080 10.262-9.92 21.7 0.46 21.718 0.14 21.718 21.98v78.378c0 30.24 0.122 60.48-0.12 90.72-0.042 6.060 1.24 9.82 6.92 13.4 23.862 15.102 33.142 34.682 26.422 56.582zM926.86 908.14c-0.24-6.98-9.42-16.22-16.080-16.16-6.44 0.080-16.28 10-16.12 16.28 0.18 6.72 10.72 16.66 17.26 16.3 5.96-0.34 15.12-10.42 14.94-16.42zM961.62 485.94c0.060 6.42-2.44 7.96-8.34 7.92-28.16-0.22-56.36-0.28-84.52 0.040-7.16 0.080-8.958-2.64-8.878-9.34 0.28-26.7 0.318-53.42-0.042-80.12-0.080-6.68 2.020-8.62 8.56-8.42 14.060 0.44 28.16 0.14 42.26 0.14 14.378 0 28.76 0.18 43.14-0.1 5.34-0.1 7.92 0.84 7.84 7.12-0.32 27.58-0.3 55.18-0.020 82.76zM927.58 446.74v-1.74c0.16-18.46 0-15.5-15.62-15.54-20.682-0.040-17.32-1.64-17.48 16.98-0.16 16.58-0.042 16.6 16.718 16.6 18.802-0.16 16.182 2.080 16.382-16.3zM961.72 220.66c0.058 7.56-2.522 9.34-9.64 9.32-115.62-0.18-231.24-0.2-346.86 0.040-7.942 0.020-9.862-2.62-9.82-10.16 0.298-48.7 0.298-97.42-0.020-146.14-0.060-7.12 2.080-8.88 8.92-8.86 58.378 0.24 116.78 0.14 175.18 0.14 57.82 0 115.62 0.12 173.44-0.14 6.92-0.040 8.86 1.76 8.82 8.8-0.32 49-0.32 98-0.020 147zM916.24 98.3c-45.78 0.5-91.56 0.24-137.36 0.24-46.080 0-92.16 0.14-138.22-0.14-7.64-0.060-10.84 1.46-10.64 10.1 0.6 27 0.46 54 0.042 81-0.1 7 2 9.2 8.86 9.18 93.042-0.14 186.080-0.16 279.12 0.040 7.5 0.020 9.362-2.6 9.24-9.74-0.378-26.4-0.5-52.82 0.060-79.22 0.178-8.74-1.922-11.54-11.102-11.46zM961.74 357c0.040 4.96-1.92 5.72-6.202 5.66-14.94-0.2-29.92-0.080-44.878-0.080-14.96 0-29.92-0.12-44.88 0.1-4.42 0.060-6.16-1-6.12-5.82 0.22-28.46 0.2-56.92 0.020-85.36-0.040-4.84 1.94-5.88 6.26-5.86 29.92 0.12 59.84 0.14 89.782-0.020 4.58-0.040 6.020 1.38 6 6-0.182 28.46-0.222 56.92 0.018 85.38zM926.9 312.82c0.080-16.1 0-16.1-16.060-16.1-16.22 0-16.22 0-16.22 15.94 0.22 19.020-2.42 16.54 16.022 16.54 18.398 0.020 16.158 2.52 16.258-16.38zM961.74 621.14c0.020 4.74-1.52 5.92-6.020 5.86-14.96-0.26-29.92-0.1-44.88-0.1-14.68 0-29.34-0.16-44 0.1-4.958 0.080-7.3-0.62-7.22-6.54 0.32-27.862 0.282-55.74 0.022-83.602-0.042-5.5 1.68-7 7.020-6.958 29.32 0.218 58.66 0.218 88 0 5.16-0.020 7.16 1.060 7.1 6.76-0.302 28.16-0.242 56.32-0.022 84.48zM926.9 577.44c0.060-16.42 0-16.42-16.622-16.42-15.66 0-15.66 0-15.66 15.64 0.262 19.56-2.52 16.82 16.602 16.86 17.64 0.040 15.6 2.32 15.68-16.080zM569.040 240.5c-4.238 5.18-8.34 10.52-12.1 16.060-3 4.42-5.54 3.88-9.1 0.66-4.62-4.2-8.66-9.4-16.2-10.9 0 58.5-0.16 116.060 0.18 173.62 0.040 7.56-1.42 10.46-9.542 9.74-9.32-0.82-18.78-0.2-28.18-0.18-11.86 0.020-11.84 0.020-11.88 11.46-0.060 15.26 1.2 30.68-0.52 45.76-2.6 22.72-27.78 42.36-52.34 42.78-13.94 0.24-13.96 0.24-13.96 14.62 0 109.522-0.040 219.060 0.12 328.602 0.020 6.558-1.82 11-6.7 15.76-22.82 22.218-45.060 45.020-67.36 67.76-4.46 4.54-7.9 5.94-14.040 1.74-34.26-23.4-68.84-46.38-103.52-69.202-4.28-2.818-5.9-5.66-5.74-10.58 0.3-9.378 0.98-18.898-0.14-28.16-1.3-10.84 3.42-18.36 10.22-25.6 15.46-16.42 15.4-16.458-0.6-32.44-3.94-3.94-7.74-8.040-11.86-11.8-3.44-3.138-3.16-5.6 0.080-8.718 7.4-7.122 14.42-14.66 21.88-21.702 3.86-3.66 5.4-6.68 0.62-10.74-1.96-1.638-2.8-4.68-4.84-6.12-15.56-11-15.72-26.78-15.5-43.72 0.64-49.040 0.22-98.080 0.22-147.12 0-12.542 0-12.78-12.24-12.52-30.26 0.638-47.38-17.84-53.58-40.74-2.62-9.7-0.64-19.86-0.96-29.82-0.2-6.44-0.6-12.98 0.1-19.36 0.94-8.62-3.040-10.58-10.64-10.26-10.26 0.44-20.58-0.3-30.82 0.26-6.64 0.36-8.32-1.66-8.3-8.28 0.28-55.2 0.2-110.42 0.1-165.62 0-3.060 1.72-7.28-1.64-8.92-3.22-1.58-5.58 2.18-8 4.020-14.52 10.94-14.48 10.98-23.94-4.18-8.32-13.36-8.32-13.36 4.34-22.44 18.24-13.060 36.36-26.28 54.72-39.16 4.68-3.28 6.82-6.68 6.76-12.74-0.36-32.88 0.020-65.78-0.32-98.66-0.080-6.84 1.56-9.020 8.74-8.9 27.3 0.44 54.62 0.36 81.92 0.040 6.14-0.060 8.24 1.58 7.86 7.84-0.54 8.48-0.22 17.020-0.1 25.54 0.040 3.1-1.34 7.14 2.040 8.88 3.060 1.58 5.040-2.060 7.3-3.6 11.34-7.74 22.96-15.14 33.76-23.58 21.34-16.7 62.48-14.56 82.78-0.18 39.040 27.66 78 55.4 116.98 83.12 30.6 21.76 61.060 43.76 91.9 65.16 6.102 4.24 6.242 7.38 2.042 12.52zM168.76 146.64c0.080 2.080-1.52 5.080 1.46 6.16 2.4 0.88 4.3-1.2 6.14-2.62 5.72-4.5 11.22-9.38 17.26-13.4 5.72-3.82 7.4-8.5 7.28-15.28-0.42-23.48-0.16-23.34-23.96-22.7-5.9 0.14-8.64 2.040-8.32 8.24 0.32 6.72 0.080 13.48 0.060 20.24 0 6.46-0.12 12.92 0.080 19.36zM316.94 899.5c0.1-76.34 0.080-152.66 0.080-229 0-76.92-0.020-153.84 0.060-230.74 0.020-5.94-0.46-10.38-8.18-10.34-39.34 0.16-78.68 0.1-118.020 0.040-5.48-0.020-8.12 2.2-8.080 7.8 0.1 13.8-0.020 27.6 0.060 41.4 0.060 8.12 4.020 12.92 12.18 14.6 15.4 3.16 30.94 1.24 46.38 1.3 7.16 0.020 8.58 2.16 8.56 8.88-0.26 63.4-0.080 126.82-0.3 190.24-0.020 6.060 1.78 10.3 5.92 14.6 9.54 9.88 18.18 20.64 27.86 30.38 4.68 4.72 3.7 7.6-0.34 11.5-7.2 6.94-13.98 14.34-21.3 21.16-4.040 3.78-3.76 6.24 0.22 9.92 7.3 6.7 13.74 14.36 21.16 20.9 4.9 4.298 4.74 7.080 0.36 11.558-10.24 10.46-20.16 21.24-29.88 32.202-6.52 7.34-5.5 20.94 1.6 25.42 17.7 11.18 35.46 22.298 53.32 33.24 2.060 1.24 3.92 4.5 6.82 2.94 3.26-1.74 1.52-5.32 1.52-8zM299.92 235.94c0.040-4.6-1.44-6.14-6.060-5.96-8.76 0.32-17.56 0.080-26.34 0.080-9.36 0-18.74 0.26-28.1-0.080-5.48-0.22-7.28 2.1-7.26 7.18 0.1 17.86 0.080 35.72 0.020 53.56-0.020 4.62 1.54 6.84 6.68 6.76 18.44-0.24 36.88-0.26 55.32 0.020 4.98 0.080 5.74-2.020 5.72-6.22-0.16-18.44-0.18-36.9 0.020-55.34zM232.14 336.56c0.16 17.32 0.12 34.64 0.040 51.96-0.040 5.34 1.7 8 7.68 7.7 8.78-0.44 17.6-0.12 26.42-0.12 8.8 0 17.62-0.26 26.42 0.1 5.44 0.24 7.24-1.8 7.18-7.080-0.18-17.9-0.2-35.82 0.040-53.72 0.060-4.86-1.22-6.64-6.4-6.56-17.9 0.32-35.82 0.34-53.72 0-5.94-0.1-7.7 2.22-7.66 7.72zM392.44 396.080c4.4 0 5.96-2.16 5.92-6.62-0.2-18.14-0.18-36.3-0.020-54.44 0.040-4.64-1.88-6.14-6.3-6.1-18.16 0.12-36.3 0.2-54.46-0.040-5.6-0.080-7.040 2.34-6.88 7.42 0.26 8.48 0.080 16.98 0.080 25.46 0 9.080 0.22 18.16-0.1 27.24-0.18 4.88 1.7 7.1 6.44 7.1 18.44 0 36.88 0 55.32-0.020zM398.4 237.22c0.12-6.14-2.46-7.44-7.84-7.24-8.48 0.32-16.98 0.080-25.46 0.080-9.080 0-18.16 0.2-27.22-0.060-5.3-0.16-7.26 1.8-7.2 7.16 0.24 17.86 0.2 35.72 0.020 53.58-0.040 4.88 1.62 6.78 6.6 6.72 18.14-0.18 36.3-0.18 54.44 0 4.96 0.060 6.68-1.72 6.62-6.66-0.2-17.86-0.3-35.72 0.040-53.58zM447.64 439.26c0.46-8.16-3.060-9.92-10.22-9.86-25.82 0.24-51.66 0.080-77.5 0.1-11.22 0-11.36 0.14-11.36 11.38-0.020 74.88 0 149.74 0 224.6v223.72c0 1.762 0.020 3.522-0.020 5.282-0.020 2.080-0.22 4.558 2.040 5.32 1.8 0.6 2.88-1.58 4.080-2.762 7.3-7.238 14.26-14.86 21.92-21.658 5.8-5.16 7.58-10.9 7.58-18.542-0.22-117.14-0.080-234.3-0.34-351.44-0.020-8.12 1.32-11.5 10.32-10.82 11.38 0.86 22.9 0.68 34.32 0.080 11.74-0.62 19.96-5.16 19.16-19.3-0.68-12-0.64-24.1 0.020-36.1zM497.080 386.38c-0.36-53.12-0.28-106.24-0.040-159.38 0.020-5.7-1.84-9.28-6.28-12.42-49.58-35.24-99.060-70.62-148.66-105.84-18.34-13.040-30.84-12.98-49.56 0-50.94 35.34-101.78 70.84-152.8 106.080-4.76 3.26-6.38 6.88-6.26 12.38 0.3 12.6 0.1 25.24 0.1 37.86 0 40.22 0.14 80.42-0.12 120.64-0.060 7.56 1.4 11.080 10.16 10.64 15.8-0.8 31.7-0.68 47.52-0.040 7.92 0.32 9.8-2.22 9.76-9.9-0.3-59.86-0.040-119.74-0.34-179.62-0.040-7.1 2-8.72 8.8-8.66 35.82 0.32 71.62 0.16 107.44 0.16 35.52 0 71.020 0.12 106.54-0.12 7-0.040 9.98 1.040 9.92 9.46-0.48 59.58-0.1 119.16-0.44 178.74-0.040 8.020 2.72 10.080 10.12 9.86 14.66-0.4 29.34-0.4 44.020 0.020 7.42 0.22 10.18-1.82 10.12-9.86zM961.72 220.66c0.058 7.56-2.522 9.34-9.64 9.32-115.62-0.18-231.24-0.2-346.86 0.040-7.942 0.020-9.862-2.62-9.82-10.16 0.298-48.7 0.298-97.42-0.020-146.14-0.060-7.12 2.080-8.88 8.92-8.86 58.378 0.24 116.78 0.14 175.18 0.14 57.82 0 115.62 0.12 173.44-0.14 6.92-0.040 8.86 1.76 8.82 8.8-0.32 49-0.32 98-0.020 147zM916.24 98.3c-45.78 0.5-91.56 0.24-137.36 0.24-46.080 0-92.16 0.14-138.22-0.14-7.64-0.060-10.84 1.46-10.64 10.1 0.6 27 0.46 54 0.042 81-0.1 7 2 9.2 8.86 9.18 93.042-0.14 186.080-0.16 279.12 0.040 7.5 0.020 9.362-2.6 9.24-9.74-0.378-26.4-0.5-52.82 0.060-79.22 0.178-8.74-1.922-11.54-11.102-11.46zM826.18 789.68c5.96-21.34-3.1-49.72-23.696-56.982-4.802-1.68-6.822-5.378-6.702-10.978 0.382-17.882-0.138-35.802 0.282-53.682 0.16-6.318-1.882-8.198-7.942-7.718-6.118 0.5-12.358 0.52-18.478 0-6.402-0.542-8.742 1.28-8.542 8.16 0.5 17.298-0.18 34.62 0.34 51.92 0.2 6.902-2.16 10.14-8.28 13.28-17.44 9-24.18 24.8-23.6 43.56 0.538 18.18 6.778 33.68 24.9 41.62 5.178 2.26 7.078 5.64 6.958 11.48-0.4 19.94-0.14 39.902-0.14 59.86 0 14.362-0.16 28.742 0.060 43.122 0.12 7.858-3.36 18.018 1.4 22.958 5.18 5.4 15.58 0.82 23.6 1.9 7.66 1.018 9.882-1.5 9.78-9.44-0.458-39.32-0.1-78.64-0.318-117.96-0.042-5.318 1.2-9.478 6.080-11.398 13.718-5.42 20.478-16.042 24.298-29.702zM796.24 776.040c-0.060 10.18-7.38 17.18-17.86 17.102-9.78-0.102-17.38-7.442-17.56-16.942-0.16-9.5 7.86-17.338 17.82-17.378 10.46-0.042 17.68 7 17.6 17.218zM959.9 921.32c-5.58 18.218-18.58 31.040-36.74 35.74-21.56 5.558-39.6-2.5-53.22-20.18-11.44-14.862-13.26-30.82-5.34-47.762 5.282-11.298 14.5-19.26 24.88-25.238 5.378-3.102 5.458-6.682 5.458-11.4-0.040-60.76 0.16-121.542-0.24-182.3-0.058-8.42 2.542-10.080 10.262-9.92 21.7 0.46 21.718 0.14 21.718 21.98v78.378c0 30.24 0.122 60.48-0.12 90.72-0.042 6.060 1.24 9.82 6.92 13.4 23.862 15.102 33.142 34.682 26.422 56.582zM926.86 908.14c-0.24-6.98-9.42-16.22-16.080-16.16-6.44 0.080-16.28 10-16.12 16.28 0.18 6.72 10.72 16.66 17.26 16.3 5.96-0.34 15.12-10.42 14.94-16.42zM697.18 877.060c-0.16 20.4-11.26 33.66-29.58 41.378-4.1 1.74-5.42 4.702-5.28 9.042 0.24 8.218-0.16 16.458 0.14 24.66 0.18 4.58-1.342 5.898-5.96 6.080-25.9 1.058-26.16 1.18-25.74-24.82 0.14-8.4-1.6-13.042-10.2-17.3-15.782-7.798-25.4-21.6-24.92-40.1 0.5-19.32 9.84-34.080 26.58-43.44 6-3.362 8.74-6.522 8.58-13.8-0.542-24.64-0.202-49.32-0.202-73.98 0-25.54 0.202-51.080-0.138-76.62-0.080-6.14 1.54-8.52 7.798-7.8 7.76 0.88 17.86-3.28 22.8 1.782 4.5 4.62 1.26 14.54 1.28 22.1 0.1 45.5 0.080 91.020-0.020 136.52 0 4.66 0.58 7.58 5.66 10.122 18.762 9.376 29.362 24.796 29.202 46.176zM662.58 874.82c0.12-8.16-7.74-16.96-15.46-17.24-7.958-0.3-16.478 8.36-16.78 17.080-0.28 7.68 8.16 16.98 15.66 17.26 8.18 0.3 16.42-8.2 16.58-17.1zM697.42 356.82c0.042 4.72-1.48 5.94-6 5.86-14.958-0.24-29.92-0.1-44.88-0.1-14.68 0-29.34-0.16-44.020 0.1-4.92 0.080-7.28-0.58-7.218-6.52 0.34-27.86 0.298-55.74 0.040-83.6-0.060-5.48 1.64-7 6.98-6.96 29.34 0.2 58.68 0.2 88.020 0 5.122-0.040 7.16 1.020 7.122 6.72-0.304 28.16-0.264 56.34-0.044 84.5zM662.58 312.88c0.080-16.16 0.020-16.16-16-16.16-16.26 0-16.26 0-16.26 15.88 0.218 19.080-2.44 16.6 15.958 16.6 18.442 0 16.202 2.52 16.302-16.32zM961.74 357c0.040 4.96-1.92 5.72-6.202 5.66-14.94-0.2-29.92-0.080-44.878-0.080-14.96 0-29.92-0.12-44.88 0.1-4.42 0.060-6.16-1-6.12-5.82 0.22-28.46 0.2-56.92 0.020-85.36-0.040-4.84 1.94-5.88 6.26-5.86 29.92 0.12 59.84 0.14 89.782-0.020 4.58-0.040 6.020 1.38 6 6-0.182 28.46-0.222 56.92 0.018 85.38zM926.9 312.82c0.080-16.1 0-16.1-16.060-16.1-16.22 0-16.22 0-16.22 15.94 0.22 19.020-2.42 16.54 16.022 16.54 18.398 0.020 16.158 2.52 16.258-16.38zM697.42 621.12c0.042 4.74-1.48 5.96-6 5.88-14.958-0.26-29.92-0.1-44.88-0.1-14.68 0-29.34-0.16-44.020 0.1-4.92 0.080-7.28-0.58-7.218-6.52 0.34-27.88 0.298-55.74 0.040-83.622-0.060-5.458 1.64-7 6.98-6.958 29.34 0.218 58.68 0.218 88.020 0 5.122-0.020 7.16 1.040 7.122 6.74-0.304 28.16-0.264 56.32-0.044 84.48zM662.58 576.020c0.12-15 0.020-15-15.42-15-16.84 0-16.84 0-16.84 17.060v0.88c0.080 16.378-1.64 14.68 14.5 14.558 20.44-0.138 17.58 3.082 17.76-17.498zM961.74 621.14c0.020 4.74-1.52 5.92-6.020 5.86-14.96-0.26-29.92-0.1-44.88-0.1-14.68 0-29.34-0.16-44 0.1-4.958 0.080-7.3-0.62-7.22-6.54 0.32-27.862 0.282-55.74 0.022-83.602-0.042-5.5 1.68-7 7.020-6.958 29.32 0.218 58.66 0.218 88 0 5.16-0.020 7.16 1.060 7.1 6.76-0.302 28.16-0.242 56.32-0.022 84.48zM926.9 577.44c0.060-16.42 0-16.42-16.622-16.42-15.66 0-15.66 0-15.66 15.64 0.262 19.56-2.52 16.82 16.602 16.86 17.64 0.040 15.6 2.32 15.68-16.080zM961.62 485.94c0.060 6.42-2.44 7.96-8.34 7.92-28.16-0.22-56.36-0.28-84.52 0.040-7.16 0.080-8.958-2.64-8.878-9.34 0.28-26.7 0.318-53.42-0.042-80.12-0.080-6.68 2.020-8.62 8.56-8.42 14.060 0.44 28.16 0.14 42.26 0.14 14.378 0 28.76 0.18 43.14-0.1 5.34-0.1 7.92 0.84 7.84 7.12-0.32 27.58-0.3 55.18-0.020 82.76zM927.58 446.74v-1.74c0.16-18.46 0-15.5-15.62-15.54-20.682-0.040-17.32-1.64-17.48 16.98-0.16 16.58-0.042 16.6 16.718 16.6 18.802-0.16 16.182 2.080 16.382-16.3zM697.32 485.46c0.080 6.76-2.4 8.48-8.74 8.42-27.88-0.26-55.76-0.26-83.64-0.020-6.558 0.060-9.5-1.48-9.4-8.8 0.362-27 0.32-54.020 0.022-81.020-0.080-6.22 1.878-8.16 8.020-8 14.38 0.36 28.76 0.12 43.14 0.12 14.378 0 28.78 0.24 43.138-0.12 5.862-0.16 7.5 1.78 7.46 7.52-0.28 27.3-0.32 54.6 0 81.9zM663.26 446.020v-0.86c0.16-18.58 0.060-15.68-15.458-15.68-21-0.020-17.542-1.86-17.602 17.68-0.080 18.3-2.5 15.64 15.66 15.88 20.14-0.22 17.16 2.46 17.4-17.020zM827.96 487.68c0.12 5.46-1.64 6.9-7.022 6.86-28.18-0.28-56.36-0.26-84.54-0.020-5.34 0.040-7.18-1.52-7.16-6.94 0.2-28.48 0.18-56.96 0.020-85.42-0.020-4.46 1.080-6.18 5.88-6.16 29.058 0.2 58.12 0.22 87.18 0 5.060-0.040 5.64 2.080 5.6 6.26-0.2 14.38-0.080 28.76-0.080 43.14 0.002 14.1-0.218 28.2 0.122 42.28zM776.58 429.5c-15.76 0-15.86 0-15.72 14.96 0.18 20.64-3.058 17.78 18.14 18.020 17.24 0 17.22 0 17.24-14.12 0.020-20.8 1.82-18.88-19.66-18.86zM821.34 363.6c-28.458-0.3-56.92-0.22-85.378-0.080-4.8 0.040-6.762-1.36-6.72-6.5 0.2-28.46 0.18-56.92 0-85.4-0.020-4.54 1.28-6.060 5.958-6.020 29.060 0.18 58.122 0.22 87.16-0.020 5.14-0.040 5.602 2.18 5.542 6.3-0.16 14.38-0.060 28.76-0.060 43.14 0 13.78-0.2 27.58 0.1 41.38 0.118 5.040-0.762 7.26-6.602 7.2zM796.24 320.4c-0.16-2.040-0.020-4.1-0.020-6.14 0-17.38 0-17.38-17.56-17.38-3.22 0-6.48 0.3-9.66-0.060-6.82-0.8-8.76 2.36-8.26 8.66 0.42 5.24 0.16 10.52 0.080 15.8-0.1 5.44 2.36 8.080 7.9 7.98 6.138-0.12 12.34-0.46 18.44 0.080 7 0.62 9.64-2.26 9.080-8.94zM820.46 627.92c-27.88-0.36-55.762-0.26-83.622-0.040-5.62 0.040-7.7-1.5-7.64-7.442 0.282-27.86 0.262-55.76 0.022-83.62-0.060-5.38 1.378-7 6.878-6.94 28.46 0.26 56.92 0.238 85.4 0.020 4.9-0.042 6.58 1.18 6.46 6.298-0.342 14.38-0.122 28.762-0.122 43.14 0 13.5-0.26 27 0.122 40.5 0.162 5.784-0.918 8.184-7.498 8.084zM796.22 577.3c0-16.102 0-16.102-17.080-16.102-18.32 0-18.18 0-18.34 16-0.182 17.682-0.14 16.48 17.978 16.362 17.442-0.1 17.442-0.020 17.442-16.26zM82.1 857.96c19.48 0 19.48 0 19.48 19.82 0 13.56 0 13.56-16.78 13.56-17.84 0-17.84 0-17.84-17.84 0-15.54 0-15.54 15.14-15.54zM83.6 924.82c17.76-0.12 17.76-0.020 17.76 17.342 0 15.878 0 15.878-17.48 15.878-19.32-0.26-16.52 2.56-16.54-16.94-0.040-18.86-2.5-16.16 16.26-16.28zM101.76 813.32c0.32 8.94-1.9 13.020-11.26 11.32-1.98-0.362-4.080-0.042-6.14-0.042-17.34 0-17.38 0-17.34-16.458 0.060-16.302-1.36-13.66 15.14-13.76 19.38-0.12 18.9-0.020 19.6 18.94z"></path>
</svg>
