<!-- Generated by IcoMoon.io -->
<svg version="1.1" xmlns="http://www.w3.org/2000/svg" width="1024" height="1024" viewBox="0 0 1024 1024">
<g id="icomoon-ignore">
</g>
<path fill="#000" d="M541.8 217c2.8-59.4 48.6-86 86.4-93.4 22.2-4.2 48.2 4.4 68.4 20.2 24.8 19.2 41.2 44 41.8 75.6 0.4 24-9.8 46.2-23.2 66-12.2 17.8-24.6 35.6-40.2 50.6-3.8 3.8-5.4 8.2-7.8 13.4 15.8 2.6 31-3 46 3.4 12.6 5.4 26.8 21 25 30.4-3.4 18.8-18 32-35.8 32.2-40.2 0-80.4-0.4-120.6 0.2-21.4 0.2-32.4-9.4-38.6-25.8-4-10.4 6.4-31 18.4-40 38.2-28.2 71.8-61 99.4-99.6 14.6-20.6 10.4-42.4 1-51.6-7.8-7.6-17.6-12.4-26.6-10.2-11.8 3-24.6 9.6-27.2 23.4-1 5.4-2.8 10.4-3.8 15.6-3 19.6-16.8 29.4-36.4 26.2-18-3-27.2-18.2-26.2-36.6z"></path>
<path fill="#000" d="M943 690.8c-37.4-29.4-76.4-56.8-111.4-89-58.8-54.2-147-45.8-189 20.6-16.6 26.4-49.8 25.6-69.8 10.8-11.2-8.4-21.8-18-31.6-28-49.2-50.2-100.8-98.2-147.8-150.6-18.6-20.8-16-51.4 0.6-68.4 12-12.4 24.4-24.4 36.6-36.6 17-17 23.2-38.6 25.8-61.8 5-43.2-19.2-73.8-44-104.4-29-35.8-60.2-70-86-107.8-38-55.8-128.6-61.2-171.6-15-22.6 23.8-42 50.4-62.8 75.8-48 58.6-73.8 123.2-63.6 200.6 6.2 46.4 21.8 88.4 45.2 128.2 19.4 32.8 45.4 61 69 90.8 50 62.8 103.2 122.4 160 178.8 31.6 31.2 64.6 61 98.4 90 44.2 38 90.2 73.2 136.8 108 51.2 38.2 107 64.2 173 61.6 14-0.4 27.8-1 41.8-2.8 40.4-5 77.2-18.8 111-41 40.6-26.8 75-60.6 108.8-95.2 5.6-5.8 10.4-13 13.4-20.4 21.6-55.2 1.8-109-42.8-144.2zM913 824.6c-30.4 25.6-60.4 51.4-93.4 74.2-33.6 23.2-70.4 33.4-104.6 33.8-55.4 0-97.4-19.6-136.4-48.4-46.8-34.6-92.2-70.6-136.6-108.4-56.6-48.2-108.4-101-159.6-154.6-35.8-37.2-68.4-77.4-99.8-118.8-25.8-34-54.8-65.8-72.6-104.8-16.8-36.8-21.2-75.4-16.6-116.8 5.8-53 35-90.6 67.8-127.6 13.4-15 25.6-31 39.2-45.8 24.4-26.2 51.2-19.6 69.6 3 38.4 46.8 76 94 113.6 141 15.6 19.4 10 52.6-13.8 68.4-47.4 31.4-57.2 77.4-51.2 128.6 1.8 14.4 9.8 29.6 20.8 41.4 14.8 15.8 29.2 31.6 44 47.4 18.2 19.4 35.8 39.6 55 58.2 32.2 31 64 63 98.6 91.2 37.4 30.4 90.8 30.2 130.8 1 13.8-10 24.8-23 34.4-37.2 13.2-19.8 52.8-25.2 72.4-8.8 44.8 38 91 74.2 137.2 110.2 23.6 18.4 23.6 53.8 1.2 72.8z"></path>
<path fill="#000" d="M738.2 383.2c-3.4 18.8-18 32-35.8 32.2-40.2 0-80.4-0.4-120.6 0.2-21.4 0.2-32.4-9.4-38.6-25.8-4-10.4 6.4-31 18.4-40 38.2-28.2 71.8-61 99.4-99.6 14.6-20.6 10.4-42.4 1-51.6-7.8-7.6-17.6-12.4-26.6-10.2-11.8 3-24.6 9.6-27.2 23.4-1 5.4-2.8 10.4-3.8 15.6-3 19.6-16.8 29.4-36.4 26.2-18-2.8-27-18-26.2-36.4 2.8-59.4 48.6-86 86.4-93.4 22.2-4.2 48.2 4.4 68.4 20.2 24.8 19.2 41.2 44 41.8 75.6 0.4 24-9.8 46.2-23.2 66-12.2 17.8-24.6 35.6-40.2 50.6-3.8 3.8-5.4 8.2-7.8 13.4 15.8 2.6 31-3 46 3.4 12.6 5.2 26.8 20.8 25 30.2z"></path>
<path fill="#000" d="M997.2 373.8c-1 28-18.6 44-38.8 41.6-13.2-1.6-26.4-14.2-26.4-28-0.2-29.8-0.4-59.6 0.2-89.6 0.2-10.2-3.2-14.2-13.6-13.8-27.6 0.6-55 0.2-82.6 0.2-23 0-37.4-12.4-38-35-0.8-29.2-0.8-58.6 0-87.8 0.6-22 15.8-38.8 34.2-39.2 17.4-0.4 30.6 12 31 30 0.4 18.4 0.6 36.8-0.2 55-0.4 11 2.8 15.6 14.2 15 14.4-0.8 28.8-0.6 43 0 9 0.2 12-3.4 12-12-0.4-18.4-0.2-36.8-0.2-55 0-14.2 11.8-31.2 23-33 16.2-2.4 32 5.8 37.2 21.2 3 8.6 5.4 17.6 5.4 27.2-0.4 33.8-0.2 67.8-0.2 101.6s1 67.8-0.2 101.6z"></path>
</svg>
