<!-- Generated by IcoMoon.io -->
<svg version="1.1" xmlns="http://www.w3.org/2000/svg" width="1024" height="1024" viewBox="0 0 1024 1024">
<g id="icomoon-ignore">
</g>
<path fill="#000" d="M185.6 506c3 2.4 4.4 3.8 1 7-6 5.4-11.6 11.4-17.2 17.2-1.6 1.6-3 3.6-5.8 2.4-5.6-2.6-11-2.6-16.6 0.2-2.8 1.4-4.2-1-5.8-2.6-5.6-5.4-10.8-11.2-16.6-16.4-3.8-3.4-2.4-5.2 0.8-7.8 8.8-6.8 18.8-10 29.8-9.8 11.2-0.6 21.4 2.6 30.4 9.8z"></path>
<path fill="#000" d="M83 457.2c20.8-16.6 44.4-24 69.6-24 29.8 0 55.4 8.8 77.8 27 3.8 3.2 4.4 5 0.4 8.4-5.8 5.2-11.2 10.8-16.6 16.6-2.6 2.8-4.4 3-7 0-24.2-28-79-27.2-106.2-0.8-4.2 4-6.4 3.2-9.4-1s-6.2-8.4-10.2-11.8c-6.8-5.8-4.4-9.6 1.6-14.4z"></path>
<path fill="#000" d="M901.2 506c3.2 2.6 4.2 4 0.8 7-3.8 3.2-7.2 6.8-10.4 10.4-5.2 5.6-10 12.4-19.2 7.2-0.4-0.2-1.2-0.2-1.8 0-18.2 6.2-21.8-12.4-32.4-19.2-3.2-2.2 0.6-3.8 2-5 8.8-7.6 19-10.6 30.4-10.4 11.4-0.4 21.6 2.8 30.6 10z"></path>
<path fill="#000" d="M889.2 434.2c20.6 2.4 38.8 10.4 54.8 23.8 2.2 1.8 4.2 4 6.4 6-1.2 1.6-2 3-3.2 4.4-4.4 5.4-9.2 10.4-13.4 15.8-2.8 3.6-4.8 3.6-8.2 0.6-21-18.6-45.6-23.6-72.6-18.4-12.6 2.4-23.6 7.8-32.4 17-4.4 4.6-7 4-10.8-0.4-4.6-5.2-9.6-10-14.6-14.8-3.2-3-3.6-4.6 0.2-7.8 27.2-22.4 58.8-30.2 93.8-26.2z"></path>
<path fill="#000" d="M1016.6 991.8c0.4-4.8-1.2-6.4-6.2-6.4-15.6 0.4-31.2-0.4-46.8 0.4-8.4 0.4-9.8-2.6-9.8-10.2 0.2-135.2 0.2-270.4 0.4-405.4 0-6.8-1.6-8.6-8.4-8.6-43.4 0.4-86.8 0.2-130.2 0.2-8 0-18.4-3.4-23.4 1.4-4.6 4.6-1.4 14.8-1.2 22.6 0.2 5.6-1.4 7.2-7.2 7.2-48.6-0.2-97.2-0.2-145.8 0-5 0-6.8-1-7.2-6.4-4.8-48.2-2.4-96.6-3.2-146.4 3.8 2.4 6.2 3.8 8.6 5.4 31.4 21.2 65 23.6 100.2 12 12.6-4.2 23.4-11.2 33-20.2 28.8-27.6 57.8-55.2 86.4-83 18.4-17.8 20.4-46.4 5.6-65.6-18.6-24.2-52.2-25.4-76.2-2.6-20.8 19.8-41.4 39.6-62 59.4-17 16.4-17 16.4-36.6 2.2-28-20.4-58.8-34.8-93-39.8-14-2-21.4-7.6-25.2-20.6-1.6-5.2-2.2-8.6 2.4-12.6 9.6-8.4 16-19 19.6-31.2 2-6.6 5.2-8.8 11.8-9.8 31.8-4.2 51.4-41.2 36.4-69-3-5.4-2.2-8.2 1.8-12.4 22.2-24.6 25.4-61 8.2-89.2-11.6-19.2-30.2-31-48.8-42-26.2-15.8-53.6-16-81.4-3.8-4.4 2-7.4 1.2-11.2-0.6-17-8.4-35.2-8.8-53.4-5.8-22.8 3.6-40 17.8-57 31.6-36.2 29.4-39.8 76.8-8.8 111.8 3 3.4 3.2 5.8 1.8 9.8-13.6 36 1.8 63.4 39.2 70.6 4.4 0.8 5.4 3.2 6.6 6.6 3.4 11.2 8.2 22.2 17 29.8 8.2 7.2 8.8 13.6 3.4 21.8-1 1.4-1.6 3.2-2 4.8-1.4 5.6-5 7.4-10.4 8.2-27.2 3.6-52.6 12.4-77 25.2-13.8 7.2-26 17.2-39.4 25.2-6 3.6-9.6 2.8-14.8-2-25.8-25-51.4-50-78.2-73.8-15-13.4-33.6-13.8-51.4-5.6-30.6 14.2-36.8 55.2-12 79.4 27.2 26.8 55.8 52.2 82.4 79.6 37 38 100.4 38.4 135.6 12.8 2.8-2 5.6-4.8 10-5.4-1 48.6 1.8 96.6-3 144.6-0.6 6.2-2.8 7.4-8.4 7.4-42.8-0.2-85.6-0.2-128.4-0.2-7.4 0-17.4 2.4-21.8-1.4-5.2-4.4-1.6-14.6-1.6-22.4 0.2-6-1.4-7.8-7.6-7.8-49.4 0.2-99 0.2-148.4 0-6.2 0-7.6 1.8-7.6 7.8 0.2 48.6 0.2 97.2 0.2 145.8 0 87.4 0 174.8 0.2 262.2 0 6.2-1.2 8.6-8 8.2-11.6-0.6-23.2-0.2-34.8-0.2-20 0-19.4 0-20.2 20.2-0.4 9 2.2 11.2 11.2 11.2 324.2-0.2 648.2-0.2 972.4-0.2 7.8 0 18 3.4 22.4-1.4 4.4-5.2 0.6-15.4 1.2-23.4zM204 978.6c0 6-2 7.2-7.4 7-27.8-0.2-55.6-0.2-83.4 0-5.4 0-6.8-1.4-6.8-6.8 0.2-27.8 0.2-55.6 0.2-83.4 0-27.4 0.2-55-0.2-82.4 0-6.2 1-8.4 7.8-8.4 27.4 0.4 55 0.4 82.4 0 5.6 0 7.2 1.4 7.2 7.2 0 55.6 0 111.2 0.2 166.8zM196 773.8c-26.8-0.4-53.8-0.4-80.8 0-7.6 0.2-8.8-2.4-8.8-9.4 0.4-27.2 0.2-54.4 0.2-81.6 0-27.4 0.2-55-0.2-82.4 0-6.2 1.6-7.6 7.6-7.6 27.4 0.4 55 0.4 82.4 0 6.4 0 7.4 2.2 7.4 7.8-0.2 55-0.2 110 0 165 0.2 6.4-1.2 8.2-7.8 8.2zM783.8 332.2c9-8.6 17.6-17.6 26.4-26.2 3.2-3.2 7-5 9.4-4.8 10.4 0.4 15.8 4.6 18.6 12 2.8 7-0.4 11.6-6 16.2-8.4 7-16 15.2-23.4 23.2-3 3.2-5.2 3.4-8.4 0.4-5.2-5-10.8-9.6-16.4-14-3-2.4-3-4.2-0.2-6.8zM592.8 203c0-8.6 0.2-17.2 0-26-0.2-4.6 2.6-4.4 5.6-3.8 7.4 1.2 12.2 6.8 11.8 13.8-0.4 9.2-6.4 15-17.4 16zM431.4 203c-3.8 1.4-7.6-1.8-10.6-4.6-8.6-8.4-6.2-20.2 4.8-24.2 5.2-1.8 8.4-1.6 7.6 5.2-0.4 3.2 0 6.4 0 9.4 0 1.8 0.2 3.4 0 5.2-0.6 3 1.8 7.6-1.8 9zM451 131.4c-9 9.4-20.8 4.8-30.4 9.4-0.6 0.4-2.2-0.8-3-1.4-20.8-18-26.8-41.2-9-63.2 10.8-13.4 26-22.8 41-31.6 6.4-3.8 13.8-4 18.6-3.8 18.4-0.2 32.2 4.6 41 18.8 3.4 5.4 5.8 4.6 8.2-0.2 11.6-22.2 52-23.6 68-9.8 9.8 8.4 21.6 14.6 30.4 24.2 19 21 15.4 47-7.2 66-1.6 1.2-3 1.2-4.8 0.8-13.2-4-27-2.6-40.4-2.2-27.2 0.4-53.2-4-78.2-15.6-12.4-5.8-25.4-0.6-34.2 8.6zM561.6 201.2c0 0 0 0 0 0 0 6.6 0.2 13.2 0 20-0.6 26.2-22.2 48.2-47.8 48.8-24.2 0.6-47.2-20.2-49-45.8-1.2-17.2-0.8-34.6-0.2-52 0.4-13.2 9.8-18.6 21.6-13.4 21.2 9.4 43.2 14.6 66.4 13.8 8-0.4 9.8 2.2 9.2 9.6-0.6 6.2-0.2 12.6-0.2 19zM538.8 334c-5.4 9.8-14.6 15.8-26 15.6-20-0.2-34.4-20.6-28.2-39.8 0.8-2.4 1.6-5 2.2-7.4 1-3.8 3-5 7-4 12.8 3.4 25.8 3.2 38.6 0 2-0.4 4.2-1.2 5.4 1.2 5.4 11.4 7.8 22.6 1 34.4zM241.2 339.6c-2.4 1.6-4.4 3.8-6.6 5.6-13.4 11.4-13.4 11.2-26.2-1.4-5.8-5.6-11-11.8-17.6-16.6-5.2-3.8-5.2-9.4-2.8-15 3.2-6.8 8.4-10.8 18-11 3.2-0.2 7 2 10.4 5.4 8.4 8.4 16.6 17 25.2 25 3.8 3.6 3.2 5.6-0.4 8zM361.8 423.8c-32 18.4-71.6 6.8-92.8-16.2-6.6-7.2-12.8-14.8-19.6-22-3.2-3.4-3.6-5.6 0.2-9 5.4-4.8 10.6-9.8 15.4-15.4 4.2-5 6.4-3.2 9.8 0.6 8.6 9.8 17.4 19.4 26.2 29 10.6 11.4 18.2 12.2 30.4 1.6 16-13.8 33.2-26 52.4-35.2 20.6-10 42.6-16 65-20.8 4.8-1 5 1.6 6.2 4.6 7.4 19.8 19.8 34.6 41 40 30.4 7.8 64.4-10.2 75-39.6 1.8-4.8 3.4-5.6 8.2-4.6 42.2 8.2 80.4 24.8 112.8 53.4 15.4 13.4 21.6 12.6 35.4-2.4 8.4-9.2 16.8-18.2 25-27.6 2.8-3.2 4.4-3.6 7.4-0.2 6.4 7 13.2 13.6 20 20.4-6 7-11.8 14.2-17.8 21.2-14.6 17.6-33.2 28.2-56.2 30.6-13.4 1.4-25.8-1.2-37.8-7-15.8-7.6-31.8-15-47.8-22.4-16.4-7.6-27.4-0.6-27.4 17.2 0 34.2-0.2 68.2 0.2 102.4 0 6-1.4 7.8-7.6 7.8-24-0.4-48-0.2-72-0.2s-48-0.4-72 0.2c-7.2 0.2-8.4-2.2-8.4-8.8 0.4-34.2 0.2-68.2 0.2-102.4 0-16.4-11-23.6-25.8-17-15.4 7.4-31.2 13.6-45.6 21.8zM586 593h-72.8c-26.6 0-53.2-0.2-79.8 0.2-5.6 0-7.8-1.2-6.4-7.2 1.2-5.4 1.8-10.8 1.8-16.4 0-6.2 2.2-8 8.6-8 50.4 0.4 100.6 0.2 151 0 6 0 9.2 1.2 9 7.8 0 3.4 0.4 7 0.8 10.4 1.6 13.2 1.6 13.2-12.2 13.2zM364.8 935.4c-12.8 11-16.2 25.6-15 41.6 0.4 6.8-1.6 8.8-8.4 8.6-32.4-0.4-64.8-0.6-97.2 0-8.2 0.2-9.2-2.6-9.2-9.8 0.4-43.2 0.2-86.2 0.2-129.4 0-43.6 0.2-87.4-0.2-131 0-6.4 1.6-8.2 8-8.2 44.6 0.4 89.2 0.2 133.6 0.2 4.4 0 8.2-0.8 7.6 6.4-5.8 71.2-11.2 142.4-16.8 213.6-0.2 3 0 5.8-2.6 8zM464.2 983.8c-1.4 2.8-4 1.6-6.2 1.6-11.2 0.2-22.6 0-33.8 0s-22.6-0.2-33.8 0c-4.6 0.2-6.6-1.2-5.8-5.8 0.2-1.2 0-2.2 0-3.4 0-19.8 2.2-22 21.6-22 13.8 0 27.8-0.2 41.6 0.2 14.2 0.4 23 16.8 16.4 29.4zM402.2 913.2c5.6-66.2 11.2-132.4 16.4-198.8 0.4-5.8 2.4-7 7.8-6.8 9.2 0.4 18.4 0.2 27.8 0.2 9.6 0 19.2 0.2 28.6 0 4.2 0 6 0.4 5 5.6-12.2 66.4-24.2 133-36 199.4-1 5-2.8 7.2-8.4 7-11.8-0.6-23.8-0.4-35.6 0-5 0-6-1.8-5.6-6.6zM538.2 941.6c-8.2 9.6-8.4 22.4-7.6 34.8 0.4 6.8-1 10-8.8 9.2-8-0.8-18 2.6-23.8-1.2-6.4-4.2-1.4-14.8-2.6-22.6s-2.8-15.8-8.2-21.6c-5-5.6-5-10.8-3.8-17.4 9.4-50.2 18.6-100.4 27.8-150.6 0.4-1.6 0-3.6 2.8-4.2 8.8 48.4 17.8 97 26.6 145.4 0.4 2.2 0.8 4.6 1.4 6.8 2 7.8 2.2 14.2-3.8 21.4zM537.4 707.6c22.4 0 44.2 0 66.2 0 4.8 0 3.4 4 3.6 6.4 2.2 24.8 4.2 49.6 6.4 74.2 3.4 40.4 6.4 80.6 10.2 121 0.8 8.4-1 11-9.6 10.4-10.4-0.8-20.8-0.6-31.2 0-6 0.4-7.8-2-8.8-7.4-7.6-42.6-15.2-85.2-22.8-127.8-4.8-25.2-9.2-50.6-14-76.8zM630.4 985.4c-9 0-18 0-27 0-12.2 0-24.2-0.2-36.4 0-4 0-5.8-1-5.6-5.4 0.2-3.4 0-7 0-10.4 0.2-9 4.4-14.8 13.4-15 18.8-0.6 37.6-0.6 56.4 0 9.4 0.2 13.4 6 13.6 15.6 0.4 15.2 0.4 15.2-14.4 15.2zM790.8 846.4c0 43.8-0.2 87.4 0.2 131 0 6.6-1.8 8.2-8.2 8-33-0.4-66-0.4-99 0-6 0-8.2-1.2-7.8-7.6 1.4-16.6-1.8-31.8-15.4-43-2-1.6-2-4-2.2-6.2-3.4-43-6.8-86-10-128.8-2.2-28.2-4.2-56.6-6.6-84.8-0.6-6.6 1.4-7.6 7.2-7.6 44.2 0.2 88.6 0.2 132.8 0 7 0 9.2 1.4 9.2 8.8-0.4 43.4-0.2 86.8-0.2 130.2zM791 637.2c-0.8 10.4-0.6 20.8 0 31.2 0.4 6.8-2 8-8.2 8-90-0.2-180-0.2-270-0.2-89.4 0-178.8-0.2-268.2 0.2-7.4 0-10.2-1.4-9.6-9.4 0.8-10.4 0.8-20.8 0-31.2-0.4-7.2 2.4-9.2 8.8-8.2 0.6 0 1.2 0 1.8 0 178.6 0 357.2 0 535.6-0.2 7.4 0.2 10.4 1.6 9.8 9.8zM919.4 979.4c0 5.2-1.8 6.2-6.6 6.2-28-0.2-56.2-0.2-84.2 0-5.4 0-6.8-1.6-6.8-6.8 0.2-28 0.2-56.2 0.2-84.2 0-27.4 0.2-55 0-82.4 0-5.4 1-7.4 7-7.4 28 0.4 56.2 0.2 84.2 0 5 0 6.4 1.4 6.2 6.2-0.2 56.2-0.2 112.2 0 168.4zM911.4 773.8c-27.2-0.4-54.4-0.4-81.6 0-6.8 0.2-8-2.2-7.8-8.4 0.4-27.4 0.2-55 0.2-82.4s0.2-55-0.2-82.4c0-6 1.6-7.8 7.6-7.6 27.4 0.4 55 0.4 82.4 0 6.4 0 7.4 2 7.4 7.8-0.2 55-0.2 110 0 165 0.2 6.2-1.4 8-8 8z"></path>
<path fill="#000" d="M950.4 464c-1.2 1.6-2 3-3.2 4.4-4.4 5.4-9.2 10.4-13.4 15.8-2.8 3.6-4.8 3.6-8.2 0.6-21-18.6-45.6-23.6-72.6-18.4-12.6 2.4-23.6 7.8-32.4 17-4.4 4.6-7 4-10.8-0.4-4.6-5.2-9.6-10-14.6-14.8-3.2-3-3.6-4.6 0.2-7.8 27.4-22.6 59-30.4 93.8-26.4 20.6 2.4 38.8 10.4 54.8 23.8 2 2 4 4.2 6.4 6.2z"></path>
<path fill="#000" d="M231 468.6c-5.8 5.2-11.2 10.8-16.6 16.6-2.6 2.8-4.4 3-7 0-24.2-28-79-27.2-106.2-0.8-4.2 4-6.4 3.2-9.4-1s-6.2-8.4-10.2-11.8c-6.8-6-4.6-9.6 1.6-14.4 20.8-16.6 44.4-24 69.6-24 29.8 0 55.4 8.8 77.8 27 3.8 3.2 4.2 5 0.4 8.4z"></path>
<path fill="#000" d="M186.6 513c-6 5.4-11.6 11.4-17.2 17.2-1.6 1.6-3 3.6-5.8 2.4-5.6-2.6-11-2.6-16.6 0.2-2.8 1.4-4.2-1-5.8-2.6-5.6-5.4-10.8-11.2-16.6-16.4-3.8-3.4-2.4-5.2 0.8-7.8 8.8-6.8 18.8-10 29.8-9.8 11.4-0.2 21.6 3 30.6 10.2 2.8 2 4.2 3.4 0.8 6.6z"></path>
<path fill="#000" d="M902 513c-3.8 3.2-7.2 6.8-10.4 10.4-5.2 5.6-10 12.4-19.2 7.2-0.4-0.2-1.2-0.2-1.8 0-18.2 6.2-21.8-12.4-32.4-19.2-3.2-2.2 0.6-3.8 2-5 8.8-7.6 19-10.6 30.4-10.4 11.4-0.2 21.6 3 30.6 10.2 3.2 2.4 4.2 3.8 0.8 6.8z"></path>
</svg>
