<!-- Generated by IcoMoon.io -->
<svg version="1.1" xmlns="http://www.w3.org/2000/svg" width="1024" height="1024" viewBox="0 0 1024 1024">
<g id="icomoon-ignore">
</g>
<path fill="#000" d="M1013.6 232.4c-2-130.4-98.4-220.4-228.8-220.4-182-0.2-364-0.2-546 0-129.6 0-226 93.4-227 222.2-1.2 185.4-1.2 370.6 0 556 0.8 126.8 97.4 221.4 224 222 92.2 0.4 184.2 0 276.4 0 92 0 184.2 0.2 276.2 0 126.4-0.4 223.4-91.2 225-217.2 2.6-187.6 2.8-375.2 0.2-562.6zM958.8 776.4c-0.2 115-69 183.2-185 183.2-174.2 0-348.6 0-522.8 0-115.4 0-183.4-68.2-183.4-184 0-87.6 0-175.4 0-263 0-89.8-0.2-179.8 0-269.6 0.4-108.6 70.6-178.2 179.6-178.4 176.4-0.2 353-0.2 529.4 0 112.8 0 182.2 69.6 182.2 182.4 0.2 176.4 0.2 352.8 0 529.4z"></path>
<path fill="#000" d="M839.4 781c-78.6-98.4-157-197-236.8-294.6-14-17.2-12.8-28 0.2-43.8 57-69.4 113-139.8 169.2-209.8 11.6-14.4 22.6-30.8 3.2-45.4-18.4-13.8-33.8-4.8-47.2 12.2-53 67-107.6 132.8-159.8 200.4-14.8 19-21.6 17-35-0.4-34.6-45.2-71.6-88.6-106.4-133.6-68-87.4-67.8-87.6-177.8-87.6-12 0-24.2-0.2-36.2 0-17.4 0.2-36.6-1.4-45.4 18.4-8.2 18.6 6 30.6 16.2 43.2 78.8 98.2 157.4 196.6 236.8 294.4 14 17.2 19.2 28.8 1 48.6-33.4 36.2-62.6 76.2-93.2 114.6-26.6 33.4-52.8 67.2-79.2 100.8-10.2 12.8-12 26.8 1 38 13.8 11.6 28.4 9 40.8-3.8 5.2-5.6 9.8-11.8 14.6-17.8 56.2-70 112.2-140 169.8-211.8 36.8 45.8 78.4 86.6 107 135 53 89.8 125.8 126.8 228 108 17-3.2 37.2 1.6 47-16.6 11-20.6-6.6-34.2-17.8-48.4zM655 742.8c-128.6-166.4-262-329.2-393.4-493.4-2.6-3.2-4.8-6.4-10.8-14.4 25.4 0 45.6 0.4 65.8-0.2 10.8-0.2 18 3.4 24.8 12.2 142.8 178.8 286 357.4 431.2 538.6-52 12.4-85.4-1-117.6-42.8z"></path>
</svg>
